<svg xmlns="http://www.w3.org/2000/svg" xml:space="preserve" style="fill-rule:evenodd;clip-rule:evenodd;stroke-linejoin:round;stroke-miterlimit:2" viewBox="0 0 239 366"><path d="M66.805 235.318c-24.806-6.323-53.906-13.631-55.599-14.649-2.935-1.764-5.568-23.623-5.568-23.623s-2.352.011-3.109-5.058-8.355-58.021 7.113-79.463c4.094-5.675 7.671-9.549 10.239-12.015a706 706 0 0 0-6.996-1.484c-3.715-.744-7.961-5.632-8.288-9.975s.236-13.41 3.244-17.753 6.411-4.24 9.957-4.177c3.545.063 33.778 4.708 40.117 6.139 6.338 1.43 7.399 4.298 7.933 7.24.301 1.66-.425 7.421-1.248 13.558l23.059.887s1.398.083 3.766.23c-.17-3.727-.413-7.843-.413-10.073 0-2.671-1.463-8.435-1.888-11.957-3.854-1.205-8.753-3.664-13.067-7.814-3.86-3.714-4.034-7.386-6.061-9.772s-8.628-5.663-12.891-6.966-19.508-8.922-21.5-10.996c0 0-5.764-3.689-3.192-7.997s6.046-5.638 9.554-5.398 7.654 4.184 9.156 3.54-2.264-11.56 5.636-11.355c8.14.211 9.397 9.503 10.855 8.729s.985-6.275 5.233-5.987c4.248.287 6.869 7.26 6.83 9.972-.04 2.712 1.036 3.186 2.137 2.847s5.711-6.055 11.908-8.771c11.818-5.179 17.398-2.607 18.475-3.981s.054-7.322 5.411-12.11c0 0-4.012-3.277-2.573-4.099s5.539 1.09 7.372.707-1.021-3.392.79-3.656c2.756-.402 4.809 2.837 6.45 2.67s6.876.49 9.71 2.733 5.386 7.037 6.633 7.181c.507.058 2.608.611 5.839.964 5.301.579 10.574 1.488 10.569 2.895-.004 1.201-1.855 3.175-7.965 4.933-2.182.628-6.59 1.723-6.59 1.723s2.609 1.232 4.68 1.986c3.017 1.098 6.896 3.281 6.28 5.32-.417 1.378-3.465 1.96-7.198 2.204-3.228.211-5.049-.211-6.873.207-2.162.496-1.709 1.646-6.129 4.801s-7.61 3.817-7.61 3.817.189 17.669-9.122 25.572a28.5 28.5 0 0 1-7.88 4.763c.364 4.11.265 10.499.363 12.319.122 2.271.074 10.095.055 12.568 10.176.717 20.844 1.545 27.219 2.259 15.039 1.684 21.742 4.612 28.516 7.713s17.605 17.397 18.491 30.861c.509 7.738.871 35.152.991 45.352 1.022.022 2.321.366 2.728 1.879.146.542.233.965.263 1.307 6.927 4.715 32.384 22.13 38.14 27.286 9.188 8.231 10.546 20.657 2.66 33.371-7.886 12.713-22.791 21.066-34.552 21.784s-27.791-4.31-35.23-10.029c-3.555-2.733-16.695-13.036-29.449-23.051-6.704 2.292-23.679 7.871-29.049 7.494-1.201-.084-4.566-.887-7.819-1.542l.138 122.611a1.807 1.807 0 0 1-1.904 1.806h-.001a2.063 2.063 0 0 1-1.95-2.028l-1.85-117.716c-4.072-1.363-13.819-6.22-19.239-8.707l2.329 125.884a1.815 1.815 0 0 1-1.879 1.846h-.001a2.053 2.053 0 0 1-1.978-1.985l-4.178-127.764ZM24.864 101.587c-4.475 4.486-11.277 12.071-14.66 19.708-5.298 11.959-4.02 22.456-4.348 29.093s1.682 38.36 1.682 38.36.745 2.775 1.748 3.47c.384.266.663.55.871.854 7.115 1.7 27.225 6.419 34.676 7.25 10.48 1.169 32.768 6.011 41.929 7.33 8.987 1.294 13.962 2.358 21.063 1.437.078-8.057.337-32.34.648-36.92.375-5.509-5.332-41.226 13.528-58.477 7.202-6.588 12.81-9.941 17.558-11.539-.668-.1-1.611-.21-2.77-.328a2 2 0 0 1-.298.085c-.628.122-1.253.238-1.879.357a1.83 1.83 0 0 1-1.887-.82c-7.199-.626-17.856-1.389-25.806-2.061-3.083-.26-7.664-.551-12.754-.838.183.846.499 1.431 1.006 1.626 2.278.875 4.167 2.726 7.157 4.14 2.989 1.414 3.715 2.882 2.48 4.105s-2.882-.47-4.724-1.124-2.996-4.487-4.403-3.485 1.177 4.154 1.929 5.909c.752 1.756.62 4.477-.757 4.621s-2.683-3.712-2.683-3.712-.18-3.385-1.269-3.314c-1.088.072-1.348 4.593-1.348 4.593s.119 3.078-1.839 2.251c-1.959-.827-2.386-1.235-1.599-3.974.786-2.738 3.119-5.034 3.407-7.917.081-.809.076-2.197.027-3.866-10.339-.563-22.007-1.092-27.357-1.328-.505 3.755-.99 7.424-1.244 10.164-.737 7.968-2.925 29.431-2.925 29.431s9.371 3.34 9.898 13.144c.358 6.662-2.976 16.849-13.442 16.699-8.459-.121-16.841-4.244-18.174-13.603-1.425-10.008 7.304-14.599 7.304-14.599s-4.824-25.891-4.823-30.193c.001-4.301-4.615-4.067-4.615-4.067l-.465-.102-.23.153a1.828 1.828 0 0 1-2.695-.791c-2.119-.462-4.994-1.088-7.919-1.722Zm-13.477 96.238a5444 5444 0 0 0 3.848 17.538s74.06 21.74 89.293 21.303c.046-5.733.082-16.763.098-22.045-8.954-.679-49.94-7.895-56.612-9.636-5.955-1.554-29.437-5.855-36.627-7.16m97.579 38.525c9.032-.802 17.741-2.41 22.189-3.311a50128 50128 0 0 1-21.795-17.13c-.002 5.609-.16 14.948-.393 20.44ZM94.472 74.447c.21 3.069.468 7.918.279 11.115-.163 2.763-.715 6.678-.789 9.77 4.403.276 10.677.68 17.387 1.143-.085-2.764-.335-10.349-.568-12.849-.193-2.071-.734-7.246-1.068-10.41-2.436.649-5.05 1.114-7.896 1.49-2.311.305-4.822.169-7.346-.259Zm75.154 37.254c-2.615-1.541-6.561-3.359-12.427-5.094-14.313-4.234-28.94 6.804-37.027 18.159-5.791 8.131-7.098 21.55-7.448 31.419 4.618.855 22.068 4.097 31.507 5.998 10.22 2.058 31.256 6.198 33.003 7.009s1.607 1.734 1.607 3.418c0 1.471-.729 5.387-1.46 7.227l7.568 3.04c.088-10.03.177-32.397-.649-41.223-1.08-11.54-4.027-19.37-12.449-27.954a24 24 0 0 0-2.224-1.998Zm-54.693 101.303c4.46 3.448 28.068 21.708 35.032 27.28 7.702 6.162 23.466 24.332 46.241 23.806 22.776-.526 33.195-18.32 36.037-24.539 4.118-9.01 2.98-18.616-8.399-26.961-10.338-7.582-28.082-19.389-34.548-23.666-4.965 2.219-21.878 8.899-28.692 10.764-5.995 1.64-31.097 9.764-45.672 13.317Zm-2.34-4.756c6.206-1.334 12.936-3.543 19.392-5.006 6.118-1.386 35.801-12.481 49.432-17.626l-7.99-3.709c-8.557 2.642-29.176 7.624-29.176 7.624s-25.881 6.115-27.769 6.177c-.859.028-2.468-.349-3.967-.769.026 5.439.057 10.315.077 13.308Zm-.125-26.765c1.52.771 3.299 1.639 4.214 1.959 1.787.626 11.291-2.497 16.852-3.764 10.904-2.485 32.578-6.839 34.34-7.463s-.927-1.489-.927-1.489-15.901-3.12-20.08-3.743c-3.552-.53-27.234-4.79-34.257-6.056-.028 1.88-.039 3.505-.072 4.775-.07 2.693-.083 8.843-.071 15.782Zm.026 8.583c.923.499 2.562 1.371 2.936 1.478.529.152.035-2.731.036-3.4 0-.503-1.995-1.264-2.985-1.61zm-11.6 15.055a1.829 1.829 0 0 1-3.648.228s-.042-.681-.105-1.923a1.829 1.829 0 0 1 3.651-.183c.061 1.214.102 1.879.102 1.879Zm-.499-13.244a1.828 1.828 0 0 1-3.654.078 444 444 0 0 1-.065-3.824 1.829 1.829 0 0 1 3.655-.047c.017 1.32.039 2.587.065 3.792Zm-.056-15.166a1.828 1.828 0 0 1-3.655-.055q.028-1.888.077-3.826a1.83 1.83 0 0 1 1.873-1.781 1.83 1.83 0 0 1 1.781 1.873 388 388 0 0 0-.076 3.789m.561-15.136a1.829 1.829 0 0 1-3.648-.226q.118-1.915.266-3.826a1.83 1.83 0 0 1 1.963-1.682 1.83 1.83 0 0 1 1.682 1.963 249 249 0 0 0-.262 3.772Zm1.439-15.027a1.83 1.83 0 0 1-2.058 1.564 1.83 1.83 0 0 1-1.564-2.058q.264-1.937.571-3.815a1.83 1.83 0 0 1 2.099-1.508 1.83 1.83 0 0 1 1.508 2.099q-.3 1.829-.557 3.718Zm2.97-14.643a1.829 1.829 0 0 1-3.505-1.037 55 55 0 0 1 1.244-3.736 1.83 1.83 0 0 1 2.353-1.069 1.83 1.83 0 0 1 1.069 2.353 51 51 0 0 0-1.161 3.489m6.558-12.951c-.591.817-1.735 1-2.552.409a1.83 1.83 0 0 1-.409-2.552 98 98 0 0 1 2.336-3.1 1.829 1.829 0 0 1 2.873 2.261q-1.094 1.39-2.248 2.982m9.818-10.98a1.829 1.829 0 0 1-2.326-2.82 32 32 0 0 1 3.261-2.376 1.828 1.828 0 0 1 1.955 3.089 28.5 28.5 0 0 0-2.891 2.108ZM18.246 191.56a1.829 1.829 0 0 1-3.646.258s-.052-.731-.136-2.039a1.828 1.828 0 0 1 3.648-.236c.084 1.294.135 2.017.135 2.017Zm-.815-14.163a1.828 1.828 0 0 1-3.651.175 717 717 0 0 1-.185-4.071 1.828 1.828 0 0 1 3.652-.156c.06 1.4.121 2.755.184 4.051Zm-.589-16.204a1.83 1.83 0 0 1-1.785 1.869 1.83 1.83 0 0 1-1.869-1.785 500 500 0 0 1-.077-4.08 1.828 1.828 0 0 1 3.655-.053c.02 1.35.046 2.703.076 4.049m-.05-16.175a1.83 1.83 0 0 1-1.869 1.785 1.83 1.83 0 0 1-1.785-1.869c.032-1.408.077-2.779.135-4.101a1.828 1.828 0 0 1 3.652.16c-.057 1.298-.1 2.644-.132 4.025Zm1.387-15.802a1.827 1.827 0 1 1-3.56-.828q.207-.892.446-1.627.412-1.264.855-2.463a1.829 1.829 0 0 1 3.429 1.267 62 62 0 0 0-.808 2.328q-.193.597-.362 1.322Zm6.425-14.152a1.828 1.828 0 0 1-3.043-2.025 45 45 0 0 1 2.507-3.413 1.829 1.829 0 0 1 2.84 2.302 42 42 0 0 0-2.304 3.137ZM9.921 84.252s-2.208 6.092 2.909 8.074c5.116 1.982 28.716 7.617 28.716 7.617s3.062-1.104 3.37 3.287 4.256 34.981 4.256 34.981.42 1.671-1.05 2.947-6.9 4.392-6.099 11.114 6.048 9.176 12.642 9.094c5.743-.071 11.556-2.331 10.229-12.427-.871-6.627-7.488-7.944-7.488-7.944s-1.39-.058-1.203-2.346 2.234-25.24 2.196-30.579 1.193-21.351 1.067-23.579c-.126-2.227-1.118-5.04-4.832-5.908s-9.191-3.276-19.922-4.734c-8.507-1.156-16.416-1.373-18.453-1.374-2.038-.001-3.526.794-4.404 2.965s-2.073 5.436-1.934 8.811Zm44.205-52.413c-2.123 2.328-6.399-3.318-11.743-3.031-5.344.288-5.364 4.448-2.919 6.414 2.446 1.966 13.735 7.223 20.255 9.399 6.521 2.176 12.22 5.957 13.371 7.875s3.979 8.177 6.773 10.369 6.026 6.086 14.698 6.936 18.85-2.568 23.109-6.851c12.421-12.493 7.597-24.284 9.09-24.98s4.297.688 8.286-2.018 4.804-3.673 5.775-6.739-2.05-2.464-1.622-6.81 3.051-4.054 3.099-6.206-4.016-11.246-13.808-9.358c-9.792 1.889-11.56 7.238-12.484 11.359s.541 4.285-1.448 4.975-5.207-1.655-15.638 1.43-16.373 12.47-18.315 12.566-2.946-4.559-3.618-8.143-2.748-4.676-4.532-4.701-2.679 5.971-4.475 5.922-4.997-8.904-9.464-8.604-3.334 9.041-4.386 10.195Zm70.228-13.506c.331-1.882 1.407-3.989 4.218-3.921 3.553.086 4.242 2.377 4.242 4.564s-1.908 3.963-4.258 3.963c-1.365 0-2.58-.599-3.36-1.53l2.86-2.564zM99.47 53.323c6.688-3.724 11.006-9.745 11.62-10.548 1.289-1.684 1.799-1.115 2.303-.109s-3.684 8.691-11.443 13.405-13.425 3.24-14.786.763 1.47-6.659 1.011-7.425-3.007.357-4.216-.25-2.672-.586-3.179-4.385 8.19-5.489 9.075-5.576c4.607-.453 3.906 1.94 2.766 2.249-2.347.637-8.163.853-7.799 3.29.542 3.621 7.555 1.052 8.255 2.453s-3.768 3.936-1.986 6.747 8.38-.616 8.38-.616Zm42.876-31.972c.296.517 2.989-.711 5.763-1.518 4.053-1.178 8.558-2.567 8.558-2.898 0-.557-9.647-.212-10.275-.123s-2.361.115-2.848 1.28-1.609 2.539-1.198 3.259m11.683 7.663c.283-.404-2.584-1.505-6.026-2.871-2.074-.823-4.676-2.394-5.131-1.493-.432.856-.737.046-.179 1.514s.942 2.273 2.606 2.743c1.108.313 8.336.672 8.731.108Zm20.853 145.208c-2.464.36-54.884 12.996-56.07 13.31s-.506 2.017-.19 3.34 56.082-12.51 56.272-13.978c.176-1.368-.013-2.672-.013-2.672Z" style="fill:#ff5c54"/></svg>