<svg xmlns="http://www.w3.org/2000/svg" width="171" height="143" fill="none"><g clip-path="url(#a)"><path fill="#FF5C54" d="M37.03 2.832c17.162-3.22 69.94-4.294 91.87 0 21.929 4.293 34.447 24.081 38.754 39.152 4.306 15.071 2.154 25.837-2.153 43.491-4.306 17.655-16.948 31.878-39.831 36.171-6.82 1.28-16.295 1.784-26.404 1.79-5.249 8.912-12.768 20.712-14.685 18.664-1.849-1.975-6.67-12.001-10.136-19.494-15.122-.963-27.842-2.581-30.742-3.85-6.308-2.762-26.762-7.875-36.45-28.328-9.69-20.454-8.363-36.074-3.596-54.322C8.425 17.86 19.867 6.052 37.03 2.832Z"/><path fill="#F9F7F3" d="M114.877 28c6.309 0 8.123 4.253 8.123 8.077 0 3.823-.605 43.846-.605 43.846 0 3.824-3.628 8.077-8.465 8.077s-61.674-1.154-61.674-1.154c-4.008 0-7.256-3.1-7.256-6.923V37.231c0-3.824 0-6.923 7.256-8.077S108.569 28 114.877 28ZM88.535 60.308c-3.521 2.664-8.572 2.664-12.093 0-3.521-2.665-26.605-22.68-26.605-22.68v42.295c0 1.275 1.083 2.308 2.419 2.308h62.884c1.335 0 2.418-1.033 2.418-2.308V37.627s-25.502 20.016-29.023 22.68Zm-8.465-5.22c1.76 1.333 3.628 2.912 6.634 0l28.173-21.319H52.518S78.309 53.756 80.07 55.09Z"/></g><defs><clipPath id="a"><path fill="#fff" d="M0 0h171v143H0z"/></clipPath></defs></svg>