<svg xmlns="http://www.w3.org/2000/svg" xml:space="preserve" style="fill-rule:evenodd;clip-rule:evenodd;stroke-linejoin:round;stroke-miterlimit:2" viewBox="0 0 120 106"><path d="m21.461 101.879 2.389-2.625c.814-.894.523-1.598.052-2.027-.846-.77-1.751-.047-2.066.088a.75.75 0 0 1-.825-.118c-.26-.236-.334-.638-.001-1.003l1.146-1.259c.42-.461 1.008-.489 1.469-.069l4.327 3.956c.365.333.329.739.093.999a.75.75 0 0 1-.81.195c-.327-.104-.675-.263-1.235.353l-2.809 3.086c-.56.615-.37.947-.235 1.263a.75.75 0 0 1-.118.825c-.236.26-.638.334-1.003.001l-2.327-2.118c-.365-.333-.329-.739-.093-.999a.75.75 0 0 1 .81-.195c.327.104.675.263 1.235-.353Zm-6.798-14.174.187-.066c.812-.287.662-.743.626-1.084a.75.75 0 0 1 .352-.755c.302-.18.707-.134.96.291l1.61 2.703c.253.424.1.803-.202.983a.75.75 0 0 1-.831-.049c-.283-.195-.536-.392-1.351-.134l-4.178 1.293c-1.721.541-3.043.073-3.596-.854-.559-.938-.376-2.333.935-3.613l3.127-3.058c.615-.593.563-.91.526-1.251a.75.75 0 0 1 .352-.755c.302-.18.707-.134.96.291l1.61 2.703c.253.424.1.803-.202.983a.75.75 0 0 1-.831-.049c-.283-.195-.611-.544-1.251.034l-.148.133a.63.63 0 0 0-.116.796l.705 1.184a.63.63 0 0 0 .755.277Zm-3.276-.47-.606.482c-.892.713-.873 1.05-.773 1.217.113.19.4.367 1.452-.078l.712-.303c.277-.12.382-.349.223-.617l-.359-.603c-.16-.268-.412-.284-.648-.098ZM.09 55.274c.009-.624.431-1.034 1.055-1.025l1.703.024c.494.007.736.336.731.687a.75.75 0 0 1-.478.682c-.314.138-1.46.291-1.469.915-.005.377.315.694 1.524.711l3.549.051c.832.012.954-.35 1.102-.66a.75.75 0 0 1 .696-.458c.351.005.672.257.665.751l-.045 3.146c-.007.494-.336.736-.687.731a.75.75 0 0 1-.682-.478c-.138-.314-.25-.68-1.082-.692l-3.549-.051c-1.209-.017-1.538.29-1.544.667-.009.624 1.132.809 1.442.957a.75.75 0 0 1 .458.696c-.005.351-.257.672-.751.665l-1.703-.024C.401 62.56-.009 62.138 0 61.514l.09-6.239Zm8.833-11.329c.801.223 1.012-.096 1.233-.358a.75.75 0 0 1 .789-.266c.338.094.585.419.452.895l-.845 3.03c-.133.476-.512.627-.85.532a.75.75 0 0 1-.538-.636c-.054-.339-.069-.721-.87-.944l-4.02-1.121c-.801-.223-1.012.096-1.233.358a.75.75 0 0 1-.789.266c-.338-.094-.585-.419-.452-.895l.845-3.03c.133-.476.512-.627.85-.532a.75.75 0 0 1 .538.636c.054.339.069.721.87.944zm4.903-13.2c.429.246.481.65.3.966-.433.756-1.269-.008-1.592.556-.084.147-.018.319.162.423l.305.175c1.049.601 1.674.165 1.99-.388.569-.993-.333-1.719-.533-1.998a.75.75 0 0 1-.063-.83c.175-.305.55-.464.979-.218l1.478.847c.541.31.695.878.385 1.419l-2.926 5.08c-.246.429-.65.481-.955.307a.75.75 0 0 1-.365-.749c.031-.342.111-.716-.611-1.129l-3.621-2.075c-.722-.414-1.004-.156-1.284.044a.75.75 0 0 1-.83.063c-.305-.175-.464-.55-.218-.979l2.915-5.087c.31-.541.878-.695 1.419-.385l1.478.847c.429.246.481.65.307.955a.75.75 0 0 1-.749.365c-.342-.031-1.425-.442-1.994.551-.317.553-.377 1.312.672 1.913l.259.149c.18.103.363.073.447-.074.323-.564-.758-.899-.325-1.655.181-.316.557-.475.985-.229l1.985 1.138Zm11.144-9.68-3.316-1.037c-.246-.072-.393-.076-.45-.023-.066.062-.006.202.199.42l1.025 1.088c.57.606.916.441 1.241.331a.75.75 0 0 1 .813.181c.241.256.284.661-.076 1l-2.29 2.157c-.36.339-.762.271-1.003.016a.75.75 0 0 1-.132-.822c.129-.318.314-.653-.257-1.258l-2.87-3.047c-.57-.606-.916-.441-1.241-.331a.75.75 0 0 1-.813-.181c-.241-.256-.284-.661.076-1l1.467-1.382c.577-.544 1.067-.327 1.669-.143l3.927 1.212c.219.062.267-.001.106-.172l-1.444-1.533c-.57-.606-.916-.441-1.241-.331a.75.75 0 0 1-.813-.181c-.241-.256-.284-.661.076-1l2.29-2.157c.36-.339.762-.271 1.003-.016.178.189.27.496.132.822-.129.318-.314.653.257 1.258l3.842 4.079c.428.454.41 1.042-.044 1.47l-.464.437c-.577.544-1.067.327-1.669.143m13.043-7.543-3.226 1.54c-.551.263-.979.092-1.13-.224-.112-.235-.071-.571.231-.874.29-.297.651-.599.292-1.349l-1.797-3.766c-.358-.751-.819-.661-1.233-.622-.425.045-.713-.135-.825-.37-.151-.317-.01-.744.542-1.008l2.874-1.372c2.487-1.187 5.159-.388 6.363 2.135.963 2.018.572 4.639-2.092 5.91Zm-.684-1.402c1.073-.498 1.117-2.247.456-3.632-.521-1.091-1.794-2.371-3.167-1.715-.387.185-.387.516-.247.81l2.144 4.494c.062.129.403.24.813.044Zm12.595-5.265-.007.199c-.03.861.449.888.78.978a.75.75 0 0 1 .574.604c.057.346-.134.707-.622.787l-3.104.51c-.487.08-.784-.2-.841-.547a.75.75 0 0 1 .35-.756c.285-.192.561-.356.618-1.208l.324-4.361c.126-1.799 1.045-2.859 2.11-3.034 1.078-.177 2.309.503 3.021 2.191l1.703 4.028c.327.789.641.856.972.947a.75.75 0 0 1 .574.604c.057.346-.134.707-.622.787l-3.104.51c-.487.08-.784-.2-.841-.547a.75.75 0 0 1 .35-.756c.285-.192.73-.37.426-1.177l-.07-.186a.63.63 0 0 0-.698-.399l-1.36.224a.63.63 0 0 0-.533.602m1.635-2.877-.227-.74c-.337-1.091-.658-1.196-.85-1.165-.218.036-.488.238-.458 1.38l.022.774c.01.301.185.483.493.433l.693-.114c.308-.051.415-.279.328-.568Zm32.717 5.367-2.239 1.735c-.321.241-.719.463-1.027.325-.237-.106-.425-.388-.498-.99l-.387-2.933c-.073-.602-.093-.397-.284.03l-.919 2.095c-.339.76.302 1.174.529 1.431a.75.75 0 0 1 .147.82c-.143.321-.501.517-.952.316l-2.874-1.281c-.451-.201-.545-.598-.402-.919a.75.75 0 0 1 .708-.439c.343-.004 1.08.196 1.418-.564L79.2 5.147c.339-.76-.302-1.174-.529-1.431a.75.75 0 0 1-.147-.82c.143-.321.501-.517.952-.316l1.757.783c.724.323.957.982 1.013 1.59l.217 2.26c.076.788.057 1.15.176 1.203.107.048.341-.19.886-.616l1.856-1.45c.483-.382.898-.738 1.884-.299l1.508.672c.451.201.545.598.402.919a.75.75 0 0 1-.708.439c-.343.004-.723-.038-1.062.722l-1.704 3.824c-.339.76-.054 1.015.173 1.273a.75.75 0 0 1 .147.82c-.143.321-.501.517-.952.316l-2.874-1.281c-.451-.201-.545-.598-.402-.919a.75.75 0 0 1 .708-.439c.343-.004.723.038 1.062-.722l.926-2.078c.132-.297.179-.433.131-.454-.036-.016-.154.059-.346.202Zm10.948 10.006-.161.116c-.699.504-.427.899-.295 1.216a.75.75 0 0 1-.126.823c-.239.257-.641.327-1.003-.009l-2.305-2.141c-.362-.336-.322-.742-.083-1a.75.75 0 0 1 .812-.186c.326.108.625.225 1.334-.252l3.646-2.416c1.499-1.003 2.9-.926 3.691-.191.8.743 1.017 2.133.119 3.73l-2.141 3.814c-.423.742-.284 1.032-.153 1.349a.75.75 0 0 1-.126.823c-.239.257-.641.327-1.003-.009l-2.305-2.141c-.362-.336-.322-.742-.083-1a.75.75 0 0 1 .812-.186c.326.108.74.35 1.191-.384l.104-.169a.63.63 0 0 0-.112-.796l-1.01-.938a.63.63 0 0 0-.802-.053Zm3.276-.47.446-.633c.655-.935.542-1.253.4-1.385-.162-.15-.487-.24-1.371.483l-.598.491c-.232.193-.269.442-.04.655l.514.478c.229.212.475.157.65-.088Zm8.931 16.564c-.732.951-.277 1.44-.248 1.782a.77.77 0 0 1-.37.746c-.306.173-.71.117-.953-.313l-.805-1.426a1.59 1.59 0 0 1 .133-1.747l2.09-2.643a.34.34 0 0 0-.043-.155.293.293 0 0 0-.407-.113l-1.189.671c-.724.409-.647.784-.619 1.126a.75.75 0 0 1-.37.746c-.306.173-.71.117-.953-.313l-1.547-2.739c-.243-.43-.081-.805.224-.978a.75.75 0 0 1 .83.069c.278.201.559.461 1.283.052l3.634-2.052c.724-.409.647-.784.619-1.126a.75.75 0 0 1 .37-.746c.306-.173.71-.117.953.313l2.205 3.905c.709 1.257.415 2.692-.887 3.427-.849.479-1.775.346-2.467-.085-.222-.129-.256-.005-.42.207l-1.065 1.393Zm1.287-4.489.275.487c.256.453.734.586 1.198.324.453-.256.586-.734.33-1.187l-.141-.249c-.211-.374-.507-.475-.858-.277l-.657.371c-.204.115-.263.328-.148.531Zm.153 16.488c-.698-2.747 1.261-4.747 3.58-5.336 2.343-.596 5.042.207 5.747 2.979.458 1.802-.322 3.167-1.027 3.346-.491.125-.868-.302-.971-.706-.227-.895.723-1.324.48-2.282-.32-1.26-2.033-1.348-3.62-.944-1.562.397-2.997 1.298-2.676 2.558.243.958 1.281.922 1.508 1.816.109.428.004.911-.513 1.043-.706.179-2.043-.648-2.507-2.475Zm4.151 12.76c-.832.005-.947.369-1.088.682a.75.75 0 0 1-.686.472c-.351.002-.677-.243-.68-.737l-.018-3.146c-.003-.494.321-.743.672-.745.26-.001.547.14.692.464.145.311.264.675 1.096.67l4.173-.023c.832-.005.947-.369 1.088-.682a.75.75 0 0 1 .686-.472c.351-.002.677.243.68.737l.018 3.146c.003.494-.321.743-.672.745a.75.75 0 0 1-.692-.464c-.145-.311-.264-.675-1.096-.67zm-1.306 11.635-.178-.088c-.772-.383-.994.042-1.213.306a.75.75 0 0 1-.787.273c-.339-.091-.588-.414-.46-.891l.818-3.038c.128-.477.507-.631.845-.54.251.068.49.28.544.631.057.338.092.658.845 1.062l3.838 2.097c1.586.858 2.172 2.133 1.891 3.175-.284 1.054-1.412 1.895-3.244 1.846l-4.372-.114c-.854-.028-1.045.23-1.264.494a.75.75 0 0 1-.787.273c-.339-.091-.588-.414-.46-.891l.818-3.038c.128-.477.507-.631.845-.54.251.068.49.28.544.631.057.338.036.817.896.874l.198.013a.63.63 0 0 0 .652-.471l.358-1.331a.63.63 0 0 0-.327-.734Zm1.944 2.678.768.099c1.133.144 1.361-.105 1.412-.293.057-.213-.015-.543-1.067-.987l-.714-.3c-.279-.115-.517-.031-.598.27l-.183.678c-.081.301.082.493.381.534Zm-10.854 13.585 3.468.222c.256.011.4-.019.443-.085.05-.076-.042-.198-.293-.361l-1.254-.815c-.698-.453-.994-.212-1.284-.028a.75.75 0 0 1-.833.017c-.294-.191-.432-.575-.163-.99l1.714-2.638c.269-.414.676-.444.971-.253.218.142.38.417.323.768-.05.34-.15.709.547 1.162l3.51 2.281c.698.453.994.212 1.284.028a.75.75 0 0 1 .833-.017c.294.191.432.575.163.99l-1.098 1.69c-.432.665-.96.57-1.587.534l-4.103-.247c-.227-.008-.259.064-.063.192l1.766 1.147c.698.453.994.212 1.284.028a.75.75 0 0 1 .833-.017c.294.191.432.575.163.99l-1.714 2.638c-.269.414-.676.444-.971.253a.75.75 0 0 1-.323-.768c.05-.34.15-.709-.547-1.162l-4.698-3.053c-.523-.34-.645-.915-.305-1.439l.347-.534c.432-.665.96-.57 1.587-.534Zm-7.612 11.163-.096-.174c-.416-.755-.84-.533-1.171-.441a.75.75 0 0 1-.802-.225c-.226-.268-.247-.676.131-.994l2.405-2.028c.378-.319.776-.229 1.002.039a.75.75 0 0 1 .087.828c-.146.31-.299.593.088 1.354l1.956 3.912c.814 1.61.567 2.991-.258 3.687-.835.704-2.241.751-3.717-.334l-3.526-2.587c-.686-.51-.989-.407-1.32-.315a.75.75 0 0 1-.802-.225c-.226-.268-.247-.676.131-.994l2.405-2.028c.378-.319.776-.229 1.002.039a.75.75 0 0 1 .087.828c-.146.31-.437.692.237 1.229l.156.124a.63.63 0 0 0 .804-.015l1.053-.889a.63.63 0 0 0 .15-.79Zm.07 3.309.574.519c.848.764 1.178.69 1.327.565.169-.142.297-.455-.313-1.42l-.415-.653c-.163-.254-.406-.32-.645-.119l-.537.453c-.238.201-.214.452.009.656Zm5.138-62.618c.184.049.286.161.298.294.003.134-.086.256-.264.325l-.38.148c-.307.119-.62.479-.698.798l-.082.335c-.048.196-.166.302-.307.304-.14.014-.269-.078-.339-.268l-.119-.325c-.113-.309-.465-.63-.783-.714l-.394-.105c-.184-.049-.286-.161-.298-.294-.002-.134.086-.256.264-.325l.38-.148c.306-.119.62-.478.698-.798l.082-.335c.048-.196.166-.302.307-.304.14-.014.27.078.339.268l.119.324c.113.309.465.63.783.714l.394.105Zm-65.43 50.927c.184.049.286.161.298.293.003.134-.086.256-.263.326l-.38.148c-.306.12-.62.479-.698.798l-.082.335c-.048.196-.166.302-.307.304-.14.014-.269-.078-.339-.267l-.119-.324c-.113-.308-.466-.63-.783-.714l-.394-.105c-.184-.049-.286-.161-.298-.293-.002-.134.086-.256.263-.326l.38-.148c.306-.12.62-.479.697-.798l.082-.335c.048-.196.166-.302.307-.304.14-.014.27.078.339.268l.119.324c.113.308.466.63.783.714l.394.105Zm65.365-17.287c.235.062.365.206.381.375.003.171-.11.327-.337.416l-.485.189c-.392.153-.793.612-.892 1.019l-.104.429c-.061.251-.212.385-.392.388-.179.017-.344-.1-.433-.342l-.152-.415c-.144-.394-.594-.805-1-.913l-.503-.134c-.235-.062-.365-.206-.381-.375-.003-.171.11-.327.337-.416l.486-.189c.391-.153.792-.611.892-1.019l.104-.429c.061-.251.212-.385.392-.388.179-.017.345.1.433.342l.152.414c.144.394.594.805 1 .913l.503.134ZM96.378 47.54a.984.984 0 1 1-.122-1.963.984.984 0 0 1 .122 1.963M17.175 64.418a.984.984 0 1 1-.122-1.963.984.984 0 0 1 .122 1.963m41.05-44.858a.984.984 0 1 1-.122-1.963.984.984 0 0 1 .122 1.963M20.536 46.653a.706.706 0 1 1-.087-1.41.706.706 0 0 1 .087 1.41m79.09 4.409a.706.706 0 1 1-.087-1.41.706.706 0 0 1 .087 1.41M52.817 95.708a.706.706 0 1 1-.087-1.41.706.706 0 0 1 .087 1.41M68.004 4.491c.225.06.348.197.363.359.003.163-.106.312-.322.396l-.464.18c-.374.145-.758.582-.854.971l-.101.409c-.059.239-.204.367-.375.37-.171.016-.328-.096-.412-.327l-.144-.396c-.137-.377-.566-.77-.953-.874l-.48-.129c-.225-.06-.348-.197-.363-.359-.002-.163.106-.312.322-.396l.464-.18c.374-.145.758-.582.854-.971l.101-.409c.059-.239.204-.367.375-.37.171-.016.329.096.412.328l.144.396c.137.377.566.77.953.874zM9.033 72.504c.225.06.348.197.363.359.003.163-.106.312-.322.396l-.464.18c-.374.145-.758.582-.854.971l-.101.409c-.059.239-.204.367-.375.37-.171.016-.328-.096-.412-.327l-.144-.396c-.137-.377-.566-.77-.953-.874l-.48-.129c-.225-.06-.348-.197-.363-.359-.002-.163.106-.312.322-.396l.464-.18c.374-.145.758-.582.854-.971l.101-.409c.059-.239.204-.367.375-.37.171-.016.329.096.412.328l.144.396c.137.377.566.77.953.874l.48.129ZM41.067 88.61c-1.327-.165-4.403-1.229-5.633-2.181-1.014-.785-2.92-1.893-4.114-3.556-1.287-1.793-1.823-4.324-2.884-5.305-.623-.575-4.746-3.723-5.873-5.247-1.07-1.446-1-1.868-.697-2.782.521-1.576 3.035-1.279 4.422-.796-1.877-2.119-5.324-6.558-5.855-11.097-.736-6.288 4.14-10.976 4.14-10.976s-1.339-1.599.161-4.044c1.519-2.474 4.575-2.753 4.575-2.753s-.683-5.281 4.686-10.397c8.967-8.546 20.531-7.963 21.171-7.041s-.336 2.234-.336 2.234 10.158-4.142 16.636-3.583c5.363.463 9.202 3.001 9.508 3.978s-1.242 1.834-1.242 1.834 4.986.477 7.631 1.85c3.643 1.891 4.861 5.342 4.725 5.983s-2.17.992-2.17.992 2.9 2.129 3.144 5.286c.247 3.196-1.377 5.023-2.222 6.193.29.596.574 1.345.711 2.183.35 2.138-.348 4.498-1.072 6.229.078-.02.143-.01.196.038.216.195-.375 1.784-1.009 2.797l.103-.041c1.244-.512 1.975-1.099 2.153-.828.136.208-.766 1.459-1.488 2.078a.71.71 0 0 1-.027.586c-.231.432-2.813-1.058-8.106.97q-.149.057-.293.116a4.1 4.1 0 0 1 1.934 1.099.475.475 0 0 1-.015.668c-.432.424-1.216 1.181-1.809 1.752a.48.48 0 0 0 .3.824c.778.061 1.679.145 2.411.216a.48.48 0 0 1 .432.524 4.6 4.6 0 0 1-1.433 2.761c.716-.151 1.552-.454 2.652-1.041 1.865-.997 3.486-3.553 4.28-3.95a1 1 0 0 1 .13-.073c.534-.241 2.352-.217 2.444.03.094.254-.662.452-1.621 1.032a10 10 0 0 0-.598.399c1.158.027 2.908.476 2.943.77.031.259-.458.358-1.245.538.861 1.557 1.449 3.382.929 6.726-.49 3.147-2.436 7.467-4.39 13.76-1.354 4.362-3.442 7.566-5.842 9.646-2.271 1.968-5.565 3.107-8.557 2.834-3.328-.303-6.148-2.758-11.411-4.655-5.494-1.979-12.246-5.493-13.662-6.485-.172.15-.297.268-.344.342-.273.424.743 4.359-.514 4.906-.559.243-3.998-2.616-4.452-2.789s-4.258 2.313-4.797 1.733c-.902-.971.76-3.223 1.3-4.287Zm49.172-20.921c.633.252 1.313.624 1.683.911a7.6 7.6 0 0 0-.69-1.291c-.312.106-.654.239-.993.38M43.277 87.847c.008.813-1.693 2.244-1.381 2.507s2.638-.928 3.148-.903 2.643 2.175 3.096 1.916c.453-.26-.519-2.704-.332-2.988s2.262-1.307 2.166-1.794c-.095-.487-2.04-.167-2.471-.632-.43-.464-.273-2.57-.697-2.782s-1.322 1.785-2.148 2.169-2.796-.304-2.809.136 1.421 1.558 1.428 2.372ZM40.66 75.129c-.383-.22-1.594-1.608-2.775-1.849-1.601-.327-2.503-.859-3.809-1.13-1.306-.272-3.896.227-5.029-.378s-3.5-1.675-3.981-.804 1.675 2.785 2.794 3.432 2.092 1.702 2.749 2.496c.393.475 1.047 1.564 1.682 2.631.425.715.842 1.42 1.166 1.925.807 1.258 2.833 3.082 3.926 3.565.963.425 2.642 1.047 3.028 1.189-.367-.827-.681-1.656-.498-1.949.581-.935 3.746-.085 4.12-.199.718-.219 2.246-3.027 3.245-2.785.987.24 1.488 2.611 1.465 3.121-.024.51 3.412.5 3.631 1.327.093.353-.196.816-.623 1.288 1.328 1.191 1.955 1.136 5.656 2.981 2.653 1.323 4.455 2.126 7.376 3.212 3.977 1.478 7.001 3.551 9.557 3.926 3.908.573 8.351-1.442 10.123-3.607 1.863-2.276 4.306-8.602 4.825-10.721.701-2.859 3.352-9.564 3.161-11.97a7.4 7.4 0 0 0-.351-1.757c-.3.152-1.221-.023-2.485.023-.469.017-1.038.081-1.571.156-1.139.697-2.838 1.471-5.076 1.888a4.5 4.5 0 0 1-.954.066c.55.5.916 1.339.724 2.107-.519 2.077-3.382 3.589-3.837 2.993-.244-.319 2.581-2.77 1.788-3.657-.537-.6-1.66.083-3.062-.566-1.822-.844-2.369-2.236-1.902-2.408.44-.161 1.805 1.667 4.484 1.226a10 10 0 0 1-1.636-.63c-1.71-.529-2.957-1.85-3.047-3.719-.041-.855.214-1.719.671-2.496.676-1.499 2.07-3.356 4.628-4.735 1.849-.997 2.964-1.284 4.783-1.462.173-.143.337-.285.483-.421 1.245-1.151 1.85-2.166 2.179-1.923.187.137-.048 1.203-.418 2.172q.249-.169.465-.332.313-.238.581-.464c-.147-.608-.333-1.374-.526-2.158-.819.137-2.032.273-3.485.737-1.218.389-3.908 1.707-4.81 2.112-2.117.953-4.481 2.531-4.537 2.126-.085-.616 2.33-3.17 4.548-4.523 2.479-1.512 3.96-1.824 4.38-2.102 1.101-.728 1.624-1.665 2.161-1.523.538.142.702 1.277.931 1.381.057.026.213.096.414.192-.162-.645-.311-1.231-.427-1.666a7 7 0 0 0-.34-.961c-1.684.811-3.774 1.4-5.835 1.703-2.147.316-4.471.624-5.232-.013s.323-3.024.641-4.997c.351-2.177.152-4.915-.326-4.956-.477-.041-.05 5.574-3.514 9.929-1.714 2.155-4.378 3.891-6.025 3.84s-.949-1.285-.949-1.285-7.14 3.716-12.416 4.142c-2.202.178-3.137-.354-3.805-1.948-.731-1.744-2.17-5.156-2.517-4.396-.344.753.655.611.235 4.868a14 14 0 0 1-.239 1.531c-.728 3.423-3.903 6.322-3.903 6.322s1.682 3.286 1.738 5.865c.097 4.438-1.381 6.966-2.129 6.931-.835-.039-1.467-1.515-2.269-2.909Zm12.164-6.631q.037-.088.084-.179c-1.062-.484-2.735-1.947-2.617-2.26.145-.382 1.204.141 2.874.432.374.065.811.115 1.252.154l.072-.055c-.806-.602-1.53-1.327-1.451-1.537.145-.382 1.204.141 2.874.432l.231.037c1.277-.672 2.585-1.019 4.226-1.294 3.749-.627 9.125 1.999 8.969 2.717-.126.578-3.07-1.262-9.107-.076q-.224.044-.438.092c.779.252 1.464.81 2.003 1.394a.476.476 0 0 1-.018.656c-.408.411-1.141 1.142-1.717 1.717a.48.48 0 0 0 .34.82c.75-.027 1.599-.067 2.297-.049a.48.48 0 0 1 .454.509c-.092 1.378-.622 2.462-1.435 3.219 2.576-.568 3.588-1.027 5.056-2.268 2.322-1.961 2.517-3.313 2.882-3.174.485.185-.509 4.567-4.409 6.521-1.727.866-3.505.836-4.874.889-.322.013-.713 0-1.124-.036q-.287.209-.582.468c-1.094.971-2.386 2.209-2.649 1.975-.166-.147.278-1.531.807-2.567a8 8 0 0 0-.842.467c-1.233.786-2.704 1.805-2.927 1.532-.139-.17.504-1.445 1.183-2.382-.354.059-.718.129-1.017.209-1.083.289-1.75.695-1.867.452-.097-.202 1.551-1.889 2.405-2.44-.611-.599-1.013-1.351-1.07-2.233a5.3 5.3 0 0 1 .141-1.664c-1.084-.181-3.382-1.386-3.435-1.681-.062-.351.981-.255 2.386-.532.321-.063.685-.159 1.045-.266Zm15.068-7.085c.265.463-4.867.233-7.602.703-1.165.2-4.724.685-6.173 1.123-3.049.92-4.595 2.389-5.265 1.939-.465-.312.636-2.465.77-2.734s-.602-1.571-.208-2.093c.393-.522 1.619.097 3.224.097.613 0 2.248-.7 5.762-.836 3.144-.121 9.089 1.097 9.492 1.801M34.917 76.686c.838 1.806 2.149 3.459 3.944 3.94 1.978.529 3.281-.878 4.072-.676 1.213.308 1.127 2.333.709 2.511s-.372-.449-.794-.9-1.785.169-2.903.353-2.659.276-3.782-.568c-1.004-.755-1.815-1.869-2.356-3.345-.34-.928-1.23-2.807-.809-3.365.83-1.098 2.042.325 2.592.976.72.852 1.357 1.124 1.235 1.734-.105.526-2.183-1.249-1.909-.659Zm30.093 7.816-.108.089c-.736.587-2.393.547-2.674.271s.724-.697 1.724-1.606c.862-.784 1.23-1.346 1.752-2.52s.909.718.704 1.565a4 4 0 0 1-.169.516c.627.219 1.866.532 3.162.192 1.853-.486 3.045-.637 4.741-1.657 1.62-.975 3.048-1.559 4.376-1.818s2.207-.488 3.367-.519 2.158-.282 2.816-.85c.378-.327.873-.852 1.262-1.299-.376-.504-.543-1.66-.447-1.854.11-.222.503.396 1.243.818.638.364 1.102.376 1.907.46s-.453.899-1.001.941c-.406.031-.779.089-1.146-.016q-.116.173-.249.359a9 9 0 0 1-.448.976c-.083.567-1.152 7.71-2.422 10.067-1.06 1.967-5.51 3.513-7.432 3.172-1.921-.341-3.86-1.797-5.766-3.102-1.443-.988-4.023-3.178-5.192-4.183Zm19.411-3.997a5.3 5.3 0 0 1-.653.561c-1.242.895-3.079 2.033-5.58 2.769-2.498.734-5.922 1.018-7.269 1.065-1.659.057-3.696-.536-4.892-1.041 1.697 1.134 5.758 3.69 7.898 3.687 2.751-.003 6.221-.883 7.805-2.287 1.748-1.549 2.48-3.928 2.69-4.753Zm.066 1.21c-.557 1.631-1.475 3.946-2.38 4.605-1.441 1.049-4.781 2.312-7.987 2.112-1.971-.123-4.95-1.86-7.024-3.236 1.225.99 2.606 2.092 3.085 2.418.929.633 3.824 2.345 5.756 2.567 1.826.21 5.414-1.139 6.553-2.442.96-1.097 1.626-3.978 1.996-6.025Zm-.374-2.134c-1.683.706-5.042 1.043-6.24 1.411-1.684.517-4.893 2.308-7.726 2.694-.647.088-1.237.111-1.763.091.731.133 1.531.231 2.315.239 2.536.025 6.201-1.051 7.082-1.234s5.225-2.135 6.105-2.973q.111-.107.227-.228" style="fill:#ff5c54"/></svg>