<svg xmlns="http://www.w3.org/2000/svg" xml:space="preserve" style="fill-rule:evenodd;clip-rule:evenodd;stroke-linejoin:round;stroke-miterlimit:2" viewBox="0 0 112 118"><path d="m4.129 35.678 3.209 1.516c1.093.517 1.681.032 1.953-.543.489-1.034-.468-1.688-.689-1.95a.75.75 0 0 1-.129-.823c.15-.317.512-.506.959-.295l1.54.728c.564.267.763.82.496 1.385l-2.517 5.295c-.211.447-.61.531-.928.381a.75.75 0 0 1-.423-.718c.004-.343.054-.722-.698-1.078l-3.773-1.783c-.752-.355-1.014-.076-1.276.145a.75.75 0 0 1-.823.129c-.317-.15-.506-.512-.295-.959l1.344-2.844c.211-.447.61-.531.928-.381a.75.75 0 0 1 .423.718c-.004.343-.054.722.698 1.078Zm11.569-10.654.118.16c.513.692.904.415 1.22.279a.75.75 0 0 1 .825.115c.26.235.336.637.004 1.003l-2.11 2.333c-.331.366-.738.332-.998.096a.75.75 0 0 1-.197-.809c.103-.327.217-.628-.269-1.33l-2.464-3.613c-1.023-1.486-.964-2.888-.24-3.688.732-.81 2.12-1.045 3.728-.169l3.842 2.09c.748.413 1.035.27 1.351.135a.75.75 0 0 1 .825.115c.26.235.336.637.004 1.003l-2.11 2.333c-.331.366-.738.332-.998.096a.75.75 0 0 1-.197-.809c.103-.327.34-.744-.4-1.186l-.171-.102a.63.63 0 0 0-.795.123l-.924 1.022a.63.63 0 0 0-.043.803Zm-.514-3.269-.639-.437c-.943-.643-1.26-.526-1.391-.381-.148.164-.233.49.501 1.365l.499.592c.196.229.446.263.655.032l.471-.521c.209-.231.151-.477-.097-.649ZM42.388 1.533c.599-.175 1.115.108 1.29.707l.477 1.635c.138.474-.105.802-.442.901a.75.75 0 0 1-.792-.256c-.225-.26-.707-1.31-1.306-1.136-.362.106-.57.505-.232 1.666l.993 3.407c.233.799.615.809.955.859a.75.75 0 0 1 .642.53c.098.337-.048.718-.522.856l-3.02.881c-.474.138-.802-.105-.901-.442a.75.75 0 0 1 .256-.792c.26-.225.576-.439.343-1.238l-.993-3.407c-.338-1.161-.729-1.385-1.091-1.28-.599.175-.441 1.32-.491 1.66a.75.75 0 0 1-.53.642c-.337.098-.718-.048-.856-.522l-.477-1.635c-.175-.599.108-1.115.707-1.29l5.991-1.747ZM55.81 6.64c.023.832.391.938.707 1.072a.75.75 0 0 1 .487.676c.01.351-.228.683-.722.697l-3.145.089c-.494.014-.75-.304-.76-.655a.75.75 0 0 1 .448-.702c.308-.152.668-.279.645-1.111l-.118-4.171c-.023-.832-.391-.938-.707-1.072a.75.75 0 0 1-.487-.676c-.01-.351.228-.683.722-.697l3.145-.089c.494-.014.75.304.76.655a.75.75 0 0 1-.448.702c-.308.152-.668.279-.645 1.111zm14.062.773c-.108.482-.479.652-.834.572-.85-.19-.367-1.215-1.002-1.357-.165-.037-.31.077-.356.28l-.077.343c-.264 1.18.337 1.648.958 1.787 1.116.25 1.544-.826 1.752-1.1a.75.75 0 0 1 .775-.306c.343.077.606.389.498.871l-.372 1.662c-.136.609-.633.924-1.242.787l-5.718-1.295c-.482-.108-.652-.479-.575-.822a.75.75 0 0 1 .607-.57c.336-.071.716-.106.898-.918l.912-4.072c.182-.812-.148-1.006-.421-1.213a.75.75 0 0 1-.306-.775c.077-.343.389-.606.871-.498l5.721 1.282c.609.136.924.633.787 1.242l-.372 1.662c-.108.482-.479.652-.822.575a.75.75 0 0 1-.57-.607c-.071-.336.001-1.492-1.115-1.742-.622-.139-1.365.027-1.629 1.207l-.065.292c-.045.203.037.368.202.405.634.142.635-.99 1.485-.8.355.08.618.392.51.874l-.5 2.233Zm12.517 7.813.022-3.475c-.003-.256-.042-.398-.11-.437-.079-.045-.195.053-.343.313l-.741 1.298c-.412.723-.154 1.005.046 1.283a.75.75 0 0 1 .065.83c-.174.305-.55.465-.979.22l-2.732-1.559c-.429-.245-.482-.65-.308-.954a.75.75 0 0 1 .748-.366c.342.03.716.109 1.128-.613l2.075-3.635c.412-.723.154-1.005-.046-1.283a.75.75 0 0 1-.065-.83c.174-.305.55-.465.979-.22l1.75.999c.689.393.624.925.625 1.554l-.011 4.11c.005.227.079.255.195.052l1.044-1.829c.412-.723.154-1.005-.046-1.283a.75.75 0 0 1-.065-.83c.174-.305.55-.465.979-.22l2.732 1.559c.429.245.482.65.308.954a.75.75 0 0 1-.748.366c-.342-.03-.716-.109-1.128.613l-2.777 4.866c-.309.542-.877.697-1.419.388l-.553-.316c-.689-.393-.624-.925-.625-1.554Zm11.052 10.266-2.424-2.628c-.414-.449-.377-.908-.119-1.146.191-.176.525-.236.903-.037.37.19.764.445 1.376-.119l3.067-2.83c.612-.564.389-.978.23-1.362-.168-.393-.081-.721.11-.897.258-.238.708-.229 1.123.22l2.16 2.341c1.869 2.026 1.894 4.814-.16 6.709-1.643 1.516-4.263 1.917-6.264-.252Zm1.138-1.067c.793.878 2.477.403 3.604-.637.889-.82 1.735-2.414.704-3.532-.291-.315-.608-.218-.846.003l-3.66 3.376c-.105.097-.11.456.198.79m8.768 10.485-.192.052c-.832.225-.716.691-.705 1.034a.75.75 0 0 1-.408.726c-.314.156-.715.08-.935-.362l-1.402-2.816c-.22-.442-.039-.808.275-.965a.75.75 0 0 1 .825.112c.267.216.505.431 1.337.235l4.263-.976c1.756-.41 3.04.156 3.521 1.122.487.978.2 2.355-1.203 3.533l-3.348 2.814c-.658.545-.629.865-.618 1.208a.75.75 0 0 1-.408.726c-.314.156-.715.08-.935-.362l-1.402-2.816c-.22-.442-.039-.808.275-.965a.75.75 0 0 1 .825.112c.267.216.569.588 1.25.06l.157-.122a.63.63 0 0 0 .176-.785l-.614-1.234a.63.63 0 0 0-.732-.333Zm3.231.715.64-.435c.943-.644.949-.981.862-1.156-.099-.198-.371-.396-1.453-.031l-.733.249c-.285.098-.407.319-.268.598l.313.628c.139.279.389.315.639.146ZM9.995 86.162l-2.832-.031c-.401-.01-.85-.084-1.007-.383-.12-.23-.091-.568.225-1.086L7.9 82.123c.316-.517.174-.369-.241-.153l-2.022 1.071c-.737.385-.492 1.108-.474 1.45a.75.75 0 0 1-.394.734c-.311.162-.714.094-.942-.344l-1.456-2.789c-.229-.438-.055-.807.256-.97a.75.75 0 0 1 .827.096c.271.21.724.825 1.461.439l3.71-1.938c.737-.385.492-1.108.474-1.45a.75.75 0 0 1 .394-.734c.311-.162.714-.094.942.344l.891 1.705c.367.703.14 1.364-.194 1.876l-1.234 1.906c-.43.665-.67.936-.609 1.052.054.104.385.063 1.077.068l2.355.016c.616.001 1.163-.021 1.662.936l.764 1.463c.229.438.055.807-.256.97a.75.75 0 0 1-.827-.096c-.271-.21-.543-.479-1.281-.094l-3.71 1.938c-.737.385-.673.762-.655 1.105a.75.75 0 0 1-.394.734c-.311.162-.714.094-.942-.344l-1.456-2.789c-.229-.438-.055-.807.256-.97a.75.75 0 0 1 .827.096c.271.21.543.479 1.281.094l2.017-1.053c.288-.15.409-.228.385-.274-.018-.035-.158-.05-.396-.057Zm8.468 14.167-.159.12c-.687.52-.406.908-.268 1.222a.75.75 0 0 1-.107.826c-.233.263-.633.342-1.003.014l-2.353-2.088c-.369-.328-.338-.735-.105-.997a.75.75 0 0 1 .807-.205c.328.1.63.211 1.328-.282l3.59-2.498c1.476-1.036 2.879-.991 3.686-.275.817.725 1.065 2.11.204 3.727l-2.054 3.861c-.406.752-.26 1.038-.122 1.352a.75.75 0 0 1-.107.826c-.233.263-.633.342-1.003.014l-2.353-2.088c-.369-.328-.338-.735-.105-.997a.75.75 0 0 1 .807-.205c.328.1.747.333 1.182-.411l.1-.172a.63.63 0 0 0-.13-.793l-1.031-.915a.63.63 0 0 0-.803-.035Zm3.264-.544.431-.643c.634-.949.514-1.265.368-1.394-.165-.147-.492-.229-1.36.514l-.587.505c-.228.198-.259.448-.025.655l.525.466c.233.207.478.146.648-.103m16.019 12.49c.018 1.2.679 1.3.915 1.549.235.25.272.573.175.814-.132.325-.483.534-.941.348l-1.518-.616a1.59 1.59 0 0 1-.983-1.451l-.008-3.37a.35.35 0 0 0-.13-.095.293.293 0 0 0-.389.165l-.513 1.265c-.313.771-.019 1.016.216 1.266a.75.75 0 0 1 .175.814c-.132.325-.483.534-.941.348l-2.915-1.183c-.458-.186-.564-.58-.433-.905a.75.75 0 0 1 .693-.463c.343-.015.724.013 1.037-.758l1.569-3.867c.313-.771.019-1.016-.216-1.266a.75.75 0 0 1-.175-.814c.132-.325.483-.534.941-.348l4.156 1.686c1.337.542 1.999 1.849 1.437 3.235-.367.903-1.175 1.375-1.984 1.468-.254.037-.204.156-.2.424zm-1.785-4.315.518.21c.482.195.939.002 1.139-.492.195-.482.002-.939-.48-1.135l-.265-.108c-.398-.161-.693-.056-.844.317l-.283.699c-.088.217-.002.42.215.508Zm15.757 9.931c-2.823-.244-4.068-2.752-3.863-5.135.208-2.409 1.854-4.694 4.703-4.448 1.852.16 2.885 1.345 2.822 2.07-.044.505-.571.721-.986.685-.92-.079-1.013-1.118-1.997-1.203-1.295-.112-1.941 1.477-2.082 3.108-.139 1.606.241 3.257 1.536 3.369.984.085 1.292-.906 2.211-.827.44.038.862.296.816.827-.063.725-1.283 1.716-3.161 1.554Zm16.137-3.795c.158.817.537.863.871.944a.75.75 0 0 1 .59.588c.066.345-.114.711-.6.804l-3.089.596c-.485.094-.789-.179-.856-.523a.75.75 0 0 1 .329-.765c.279-.2.615-.383.457-1.2l-.79-4.097c-.158-.817-.537-.863-.871-.944a.75.75 0 0 1-.59-.588c-.066-.345.114-.711.6-.804l3.089-.596c.485-.094.789.179.856.523a.75.75 0 0 1-.329.765c-.279.2-.615.383-.457 1.2zm13.248-4.881.058.19c.251.824.712.695 1.055.673a.75.75 0 0 1 .738.386c.166.309.102.712-.333.946l-2.772 1.488c-.435.234-.807.064-.973-.245a.75.75 0 0 1 .086-.828c.207-.274.415-.518.194-1.343l-1.106-4.231c-.464-1.743.063-3.044 1.013-3.554.962-.517 2.348-.272 3.568 1.094l2.916 3.26c.565.641.884.602 1.227.581a.75.75 0 0 1 .738.386c.166.309.102.712-.333.946l-2.772 1.488c-.435.234-.807.064-.973-.245a.75.75 0 0 1 .086-.828c.207-.274.57-.587.022-1.251l-.127-.153a.63.63 0 0 0-.79-.152l-1.214.652a.63.63 0 0 0-.31.742Zm.615-3.252-.454-.627c-.672-.923-1.01-.919-1.181-.826-.195.105-.384.383.013 1.454l.271.725c.107.282.331.398.606.25l.618-.332c.275-.148.302-.398.127-.643Zm17.293-8.68-3.391-.757c-.251-.051-.398-.043-.45.015-.061.068.011.202.233.402l1.112.999c.619.556.949.363 1.264.227a.75.75 0 0 1 .825.112c.261.235.338.635.008 1.003l-2.102 2.34c-.33.368-.737.334-.998.1a.75.75 0 0 1-.2-.809c.102-.328.258-.677-.361-1.233l-3.114-2.797c-.619-.556-.949-.363-1.264-.227a.75.75 0 0 1-.825-.112c-.261-.235-.338-.635-.008-1.003l1.347-1.499c.53-.59 1.036-.415 1.651-.282l4.015.88c.223.043.266-.023.092-.18l-1.567-1.407c-.619-.556-.949-.363-1.264-.227a.75.75 0 0 1-.825-.112c-.261-.235-.338-.635-.008-1.003l2.102-2.34c.33-.368.737-.334.998-.1a.75.75 0 0 1 .2.809c-.102.328-.258.677.361 1.233l4.168 3.744c.464.417.496 1.004.079 1.469l-.426.474c-.53.59-1.036.415-1.651.282Zm7.52-14.564.164.112c.711.487.99.098 1.244-.133a.75.75 0 0 1 .817-.16c.323.138.525.493.331.947l-1.236 2.893c-.194.454-.59.554-.913.416a.75.75 0 0 1-.45-.701c-.009-.343.001-.664-.688-1.17l-3.506-2.615c-1.45-1.072-1.851-2.417-1.427-3.409.429-1.004 1.664-1.678 3.47-1.373l4.313.726c.842.148 1.067-.081 1.321-.312a.75.75 0 0 1 .817-.16c.323.138.525.493.331.947l-1.236 2.893c-.194.454-.59.554-.913.416a.75.75 0 0 1-.45-.701c-.009-.343.079-.814-.764-.991l-.195-.041a.63.63 0 0 0-.711.375l-.541 1.267a.63.63 0 0 0 .221.773Zm-1.55-2.924-.746-.206c-1.101-.301-1.362-.087-1.439.092-.087.203-.061.539.918 1.127l.664.397c.26.153.507.104.63-.183l.276-.646c.123-.287-.013-.5-.303-.582Zm-8.276-40.751c.184.049.286.161.298.294.003.134-.086.256-.264.325l-.38.148c-.307.119-.62.479-.698.798l-.082.335c-.048.196-.166.302-.307.304-.14.014-.269-.078-.339-.268l-.119-.325c-.113-.309-.465-.63-.783-.714l-.394-.105c-.184-.049-.286-.161-.298-.294-.002-.134.086-.256.264-.325l.38-.148c.306-.119.62-.478.698-.798l.082-.335c.048-.196.166-.302.307-.304.14-.014.27.078.339.268l.119.324c.113.309.465.63.783.714zm-65.43 50.927c.184.049.286.161.298.293.003.134-.086.256-.263.326l-.38.148c-.306.12-.62.479-.698.798l-.082.335c-.048.196-.166.302-.307.304-.14.014-.269-.078-.339-.267l-.119-.324c-.113-.308-.466-.63-.783-.714l-.394-.105c-.184-.049-.286-.161-.298-.293-.002-.134.086-.256.263-.326l.38-.148c.306-.12.62-.479.697-.798l.082-.335c.048-.196.166-.302.307-.304.14-.014.27.078.339.268l.119.324c.113.308.466.63.783.714l.394.105Zm78.61-30.478c.235.062.365.206.381.375.003.171-.11.327-.337.416l-.485.189c-.392.153-.793.612-.892 1.019l-.104.429c-.061.251-.212.385-.392.388-.179.017-.344-.1-.433-.342l-.152-.415c-.144-.394-.594-.805-1-.913l-.503-.134c-.235-.062-.365-.206-.381-.375-.003-.171.11-.327.337-.416l.486-.189c.391-.153.792-.611.892-1.019l.104-.429c.061-.251.212-.385.392-.388.179-.017.345.1.433.342l.152.414c.144.394.594.805 1 .913zM92.681 46.629a.984.984 0 1 1-.122-1.963.984.984 0 0 1 .122 1.963M13.478 63.507a.984.984 0 1 1-.122-1.963.984.984 0 0 1 .122 1.963m41.05-44.858a.984.984 0 1 1-.122-1.963.984.984 0 0 1 .122 1.963M16.839 45.742a.706.706 0 1 1-.087-1.41.706.706 0 0 1 .087 1.41m79.09 4.409a.706.706 0 1 1-.087-1.41.706.706 0 0 1 .087 1.41M49.12 94.797a.706.706 0 1 1-.087-1.41.706.706 0 0 1 .087 1.41M29.644 11.03c.225.06.348.197.363.359.003.163-.106.312-.322.396l-.464.18c-.374.145-.758.582-.854.971l-.101.409c-.059.239-.204.367-.375.37-.171.016-.328-.096-.412-.327l-.144-.396c-.137-.377-.566-.77-.953-.874l-.48-.129c-.225-.06-.348-.197-.363-.359-.002-.163.106-.312.322-.396l.464-.18c.374-.145.758-.582.854-.971l.101-.409c.059-.239.204-.367.375-.37.171-.016.329.096.412.328l.144.396c.137.377.566.77.953.874l.48.129ZM4.108 59.521c.225.06.348.197.363.359.003.163-.106.312-.322.396l-.464.18c-.374.145-.758.582-.854.971l-.101.409c-.059.239-.204.367-.375.37-.171.016-.328-.096-.412-.327l-.144-.396c-.137-.377-.566-.77-.953-.874l-.48-.129c-.225-.06-.348-.197-.363-.359-.002-.163.106-.312.322-.396l.464-.18c.374-.145.758-.582.854-.971l.101-.409c.059-.239.204-.367.375-.37.171-.016.329.096.412.328l.144.396c.137.377.566.77.953.874l.48.129Zm33.261 28.178c-1.327-.165-4.403-1.229-5.633-2.181-1.014-.785-2.92-1.893-4.114-3.556-1.287-1.793-1.823-4.324-2.884-5.305-.623-.575-4.746-3.723-5.873-5.247-1.07-1.446-1-1.868-.697-2.782.521-1.576 3.035-1.279 4.422-.796-1.877-2.119-5.324-6.558-5.855-11.097-.736-6.288 4.14-10.976 4.14-10.976s-1.339-1.599.161-4.044c1.519-2.474 4.575-2.753 4.575-2.753s-.683-5.281 4.686-10.397c8.967-8.546 20.531-7.963 21.171-7.041s-.336 2.234-.336 2.234 10.158-4.142 16.636-3.583c5.363.463 9.202 3.001 9.508 3.978s-1.242 1.834-1.242 1.834 4.986.477 7.631 1.85c3.643 1.891 4.861 5.342 4.725 5.983s-2.17.992-2.17.992 2.9 2.129 3.144 5.286c.247 3.196-1.377 5.023-2.222 6.193.29.596.574 1.345.711 2.183.35 2.138-.348 4.498-1.072 6.229q.117-.032.196.038c.216.195-.375 1.784-1.009 2.797l.103-.041c1.244-.512 1.975-1.099 2.153-.828.136.208-.766 1.459-1.488 2.078a.71.71 0 0 1-.027.586c-.231.432-2.813-1.058-8.106.97q-.149.057-.293.116a4.1 4.1 0 0 1 1.934 1.099.475.475 0 0 1-.015.668c-.432.424-1.216 1.181-1.809 1.752a.48.48 0 0 0 .3.824c.778.061 1.679.145 2.411.216a.48.48 0 0 1 .432.524 4.6 4.6 0 0 1-1.433 2.761c.716-.151 1.552-.454 2.652-1.041 1.865-.997 3.486-3.553 4.28-3.95a1 1 0 0 1 .13-.073c.534-.241 2.352-.217 2.444.03.094.254-.662.452-1.621 1.032a10 10 0 0 0-.598.399c1.158.027 2.908.476 2.943.77.031.259-.458.358-1.245.538.861 1.557 1.449 3.382.929 6.726-.49 3.147-2.436 7.467-4.39 13.76-1.354 4.362-3.442 7.566-5.842 9.646-2.271 1.968-5.565 3.107-8.557 2.834-3.328-.303-6.148-2.758-11.411-4.655-5.494-1.979-12.246-5.493-13.662-6.485-.172.15-.297.268-.344.342-.273.424.743 4.359-.514 4.906-.559.243-3.998-2.616-4.452-2.789s-4.258 2.313-4.797 1.733c-.902-.971.76-3.223 1.3-4.287Zm-.406-13.481c-.383-.22-1.594-1.608-2.775-1.849-1.601-.327-2.503-.859-3.809-1.13-1.306-.272-3.896.227-5.029-.378s-3.5-1.675-3.981-.804 1.675 2.785 2.794 3.432 2.092 1.702 2.749 2.496c.393.475 1.047 1.564 1.682 2.631.425.715.842 1.42 1.166 1.925.807 1.258 2.833 3.082 3.926 3.565.963.425 2.642 1.047 3.028 1.189-.367-.827-.681-1.656-.498-1.949.581-.935 3.746-.085 4.12-.199.718-.219 2.246-3.027 3.245-2.785.987.24 1.488 2.611 1.465 3.121-.024.51 3.412.5 3.631 1.327.093.353-.196.816-.623 1.288 1.328 1.191 1.955 1.136 5.656 2.981 2.653 1.323 4.455 2.126 7.376 3.212 3.977 1.478 7.001 3.551 9.557 3.926 3.908.573 8.351-1.442 10.123-3.607 1.863-2.276 4.306-8.602 4.825-10.721.701-2.859 3.352-9.564 3.161-11.97a7.4 7.4 0 0 0-.351-1.757c-.3.152-1.221-.023-2.485.023-.469.017-1.038.081-1.571.156-1.139.697-2.838 1.471-5.076 1.888a4.5 4.5 0 0 1-.954.066c.55.5.916 1.339.724 2.107-.519 2.077-3.382 3.589-3.837 2.993-.244-.319 2.581-2.77 1.788-3.657-.537-.6-1.66.083-3.062-.566-1.822-.844-2.369-2.236-1.902-2.408.44-.161 1.805 1.667 4.484 1.226a10 10 0 0 1-1.636-.63c-1.71-.529-2.957-1.85-3.047-3.719-.041-.855.214-1.719.671-2.496.676-1.499 2.07-3.356 4.628-4.735 1.849-.997 2.964-1.284 4.783-1.462.173-.143.337-.285.483-.421 1.245-1.151 1.85-2.166 2.179-1.923.187.137-.048 1.203-.418 2.172q.249-.169.465-.332.313-.238.581-.464c-.147-.608-.333-1.374-.526-2.158-.819.137-2.032.273-3.485.737-1.218.389-3.908 1.707-4.81 2.112-2.117.953-4.481 2.531-4.537 2.126-.085-.616 2.33-3.17 4.548-4.523 2.479-1.512 3.96-1.824 4.38-2.102 1.101-.728 1.624-1.665 2.161-1.523.538.142.702 1.277.931 1.381.057.026.213.096.414.192-.162-.645-.311-1.231-.427-1.666a7 7 0 0 0-.34-.961c-1.684.811-3.774 1.4-5.835 1.703-2.147.316-4.471.624-5.232-.013s.323-3.024.641-4.997c.351-2.177.152-4.915-.326-4.956-.477-.041-.05 5.574-3.514 9.929-1.714 2.155-4.378 3.891-6.025 3.84s-.949-1.285-.949-1.285-7.14 3.716-12.416 4.142c-2.202.178-3.137-.354-3.805-1.948-.731-1.744-2.17-5.156-2.517-4.396-.344.753.655.611.235 4.868a14 14 0 0 1-.239 1.531c-.728 3.423-3.903 6.322-3.903 6.322s1.682 3.286 1.738 5.865c.097 4.438-1.381 6.966-2.129 6.931-.835-.039-1.467-1.515-2.269-2.909Zm12.164-6.631q.037-.088.084-.179c-1.062-.484-2.735-1.947-2.617-2.26.145-.382 1.204.141 2.874.432.374.065.811.115 1.252.154l.072-.055c-.806-.602-1.53-1.327-1.451-1.537.145-.382 1.204.141 2.874.432l.231.037c1.277-.672 2.585-1.019 4.226-1.294 3.749-.627 9.125 1.999 8.969 2.717-.126.578-3.07-1.262-9.107-.076q-.224.044-.438.092c.779.252 1.464.81 2.003 1.394a.476.476 0 0 1-.018.656c-.408.411-1.141 1.142-1.717 1.717a.48.48 0 0 0 .34.82c.75-.027 1.599-.067 2.297-.049a.48.48 0 0 1 .454.509c-.092 1.378-.622 2.462-1.435 3.219 2.576-.568 3.588-1.027 5.056-2.268 2.322-1.961 2.517-3.313 2.882-3.174.485.185-.509 4.567-4.409 6.521-1.727.866-3.505.836-4.874.889-.322.013-.713 0-1.124-.036q-.287.208-.582.468c-1.094.971-2.386 2.209-2.649 1.975-.166-.147.278-1.531.807-2.567a8 8 0 0 0-.842.467c-1.233.786-2.704 1.805-2.927 1.532-.139-.17.504-1.445 1.183-2.382-.354.059-.718.129-1.017.209-1.083.289-1.75.695-1.867.452-.097-.202 1.551-1.889 2.405-2.44-.611-.599-1.013-1.351-1.07-2.233a5.3 5.3 0 0 1 .141-1.664c-1.084-.181-3.382-1.386-3.435-1.681-.062-.351.981-.255 2.386-.532.321-.063.685-.159 1.045-.266Zm12.185 16.004-.108.089c-.736.587-2.393.547-2.674.271s.724-.697 1.724-1.606c.862-.784 1.23-1.346 1.752-2.52s.909.718.704 1.565a4 4 0 0 1-.169.516c.627.219 1.866.532 3.162.192 1.853-.486 3.045-.637 4.741-1.657 1.62-.975 3.048-1.559 4.376-1.818s2.207-.488 3.367-.519 2.158-.282 2.816-.85c.378-.327.873-.852 1.262-1.299-.376-.504-.543-1.66-.447-1.854.11-.222.503.396 1.243.818.638.364 1.102.376 1.907.46s-.453.899-1.001.941c-.406.031-.779.089-1.146-.016q-.116.173-.249.359a9 9 0 0 1-.448.976c-.083.567-1.152 7.71-2.422 10.067-1.06 1.967-5.51 3.513-7.432 3.172-1.921-.341-3.86-1.797-5.766-3.102-1.443-.988-4.023-3.178-5.192-4.183Zm19.103-4.92c-1.683.706-5.042 1.043-6.24 1.411-1.684.517-4.893 2.308-7.726 2.694-.647.088-1.237.111-1.763.091.731.133 1.531.231 2.315.239 2.536.025 6.201-1.051 7.082-1.234s5.225-2.135 6.105-2.973q.111-.107.227-.228m.308.923a5.3 5.3 0 0 1-.653.561c-1.242.895-3.079 2.033-5.58 2.769-2.498.734-5.922 1.018-7.269 1.065-1.659.057-3.696-.536-4.892-1.041 1.697 1.134 5.758 3.69 7.898 3.687 2.751-.003 6.221-.883 7.805-2.287 1.748-1.549 2.48-3.928 2.69-4.753Zm.066 1.21c-.557 1.631-1.475 3.946-2.38 4.605-1.441 1.049-4.781 2.312-7.987 2.112-1.971-.123-4.95-1.86-7.024-3.236 1.225.99 2.606 2.092 3.085 2.418.929.633 3.824 2.345 5.756 2.567 1.826.21 5.414-1.139 6.553-2.442.96-1.097 1.626-3.978 1.996-6.025ZM64.194 60.501c.265.463-4.867.233-7.602.703-1.165.2-4.724.685-6.173 1.123-3.049.92-4.595 2.389-5.265 1.939-.465-.312.636-2.465.77-2.734s-.602-1.571-.208-2.093c.393-.522 1.619.097 3.224.097.613 0 2.248-.7 5.762-.836 3.144-.121 9.089 1.097 9.492 1.801M31.219 75.774c.838 1.806 2.149 3.459 3.944 3.94 1.978.529 3.281-.878 4.072-.676 1.213.308 1.127 2.333.709 2.511s-.372-.449-.794-.9-1.785.169-2.903.353-2.659.276-3.782-.568c-1.004-.755-1.815-1.869-2.356-3.345-.34-.928-1.23-2.807-.809-3.365.83-1.098 2.042.325 2.592.976.72.852 1.357 1.124 1.235 1.734-.105.526-2.183-1.249-1.909-.659Zm8.361 11.161c.008.813-1.693 2.244-1.381 2.507s2.638-.928 3.148-.903 2.643 2.175 3.096 1.916c.453-.26-.519-2.704-.332-2.988s2.262-1.307 2.166-1.794c-.095-.487-2.04-.167-2.471-.632-.43-.464-.273-2.57-.697-2.782s-1.322 1.785-2.148 2.169-2.796-.304-2.809.136 1.421 1.558 1.428 2.372Zm46.962-20.158c.633.252 1.313.624 1.683.911a7.6 7.6 0 0 0-.69-1.291c-.312.106-.654.239-.993.38" style="fill:#ff5c54"/></svg>