<svg width="143" height="140" viewBox="0 0 143 140" fill="none" xmlns="http://www.w3.org/2000/svg">
<g clip-path="url(#clip0_4009_3008)">
<path d="M124.684 77.9136C123.536 75.4376 122.554 72.8873 121.747 70.2797C121.157 68.1252 123.112 63.8163 120.578 58.8858C118.045 53.9554 110.236 28.723 92.8098 24.2173C75.3834 19.7115 49.1559 25.367 36.6937 38.1593C23.6213 51.6248 25.5242 69.2335 29.4542 81.6633C28.4451 81.275 27.4578 80.8324 26.4964 80.3374C23.8385 78.8769 19.5362 74.9512 18.2227 75.7384C16.9093 76.5257 18.8122 88.4685 23.9005 98.2569C28.9888 108.045 41.4821 113.245 46.8703 114.126C52.2585 115.006 54.0063 111.184 54.6786 107.859C54.751 107.486 54.8544 106.978 54.9578 106.388C57.5123 110.272 60.4081 114.416 64.3588 116.29C71.7844 119.812 82.0437 121.469 85.7565 123.634C89.4693 125.799 94.599 128.627 101.828 127.456C109.057 126.286 112.346 119.905 115.087 115.793C117.827 111.681 125.067 106.139 126.711 99.6346C128.528 92.3745 127.813 84.7107 124.684 77.9136Z" fill="#F9F7F3"/>
<path d="M125.925 77.5718C125.253 75.9663 124.55 74.3607 123.929 72.7345C123.442 71.7048 123.094 70.6144 122.895 69.4924C122.906 68.0761 122.999 66.6615 123.174 65.256C123.251 63.4509 122.984 61.6476 122.388 59.9423C121.861 58.4921 121.095 57.0938 120.496 55.6644C119.761 53.9242 119.037 52.1841 118.272 50.4853C114.135 41.2874 108.788 31.644 100.08 26.1024C95.2919 23.0571 89.6555 22.0213 84.0811 21.6173C77.654 21.2009 71.2001 21.6608 64.8965 22.9846C52.6205 25.4809 40.0755 30.95 32.3707 41.2563C24.4693 51.8837 23.9109 65.6392 27.0859 78.0897C27.4272 79.4155 27.8098 80.731 28.2235 82.0361L29.8059 80.441C26.8377 79.2498 24.5211 77.3335 21.8528 75.6659C20.4359 74.7544 17.6436 73.3353 16.8265 75.6659C16.237 77.3646 16.7024 79.5398 16.9713 81.2385C17.4963 84.4365 18.2956 87.5832 19.3604 90.6437C20.4411 94.1209 21.9341 97.4558 23.8074 100.577C25.4934 103.18 27.5889 105.492 30.0127 107.424C34.2803 110.861 39.1985 113.398 44.4709 114.882C47.1495 115.617 50.2004 116.031 52.6102 114.312C55.0199 112.592 55.8369 109.547 56.323 106.73L53.965 107.041C56.3023 110.593 58.8257 114.291 62.4765 116.653C66.1273 119.014 70.4502 120.061 74.463 121.19C77.8345 122.174 81.5473 122.857 84.7016 124.452C87.856 126.048 90.7001 127.788 94.1853 128.513C98.3497 129.508 102.729 129.048 106.596 127.208C109.636 125.445 112.191 122.954 114.032 119.957C114.89 118.693 115.666 117.368 116.555 116.114C117.577 114.762 118.682 113.475 119.865 112.261C122.533 109.371 125.336 106.388 127.032 102.794C129.1 98.3397 129.483 92.8396 128.883 87.992C128.395 84.3971 127.414 80.887 125.967 77.5614C125.336 76.0491 122.864 76.712 123.474 78.2554C126.287 84.9571 127.487 92.1352 125.594 99.2823C123.774 106.129 117.196 110.314 113.494 116.052C111.937 118.78 109.981 121.258 107.692 123.406C106.176 124.596 104.439 125.47 102.581 125.979C100.724 126.488 98.7835 126.62 96.8743 126.369C93.4053 125.93 90.0735 124.739 87.1114 122.878C84.4504 121.508 81.6342 120.465 78.7239 119.771C74.3227 118.665 70.0059 117.246 65.8067 115.524C61.432 113.566 58.7223 109.64 56.1575 105.756C55.599 104.917 53.996 104.886 53.7892 106.067C53.4375 108.138 53.0549 110.51 51.4208 111.95C49.7868 113.39 47.4908 112.986 45.5465 112.52C41.1499 111.333 37.0047 109.357 33.3118 106.688C31.1044 105.138 29.1208 103.291 27.4168 101.199C25.5856 98.7664 24.1188 96.0795 23.0628 93.2228C21.1495 88.4581 19.3397 83.0408 19.2156 77.8411C19.2156 77.5303 19.2156 77.0228 19.2156 76.8053C19.2156 76.9606 19.2156 76.5774 19.2156 76.6085C19.2156 76.4531 19.2156 76.4634 19.2156 76.6085C19.3397 76.4116 19.2156 76.4945 18.926 76.857C18.6364 77.2196 18.5744 76.681 18.8639 76.971C18.8639 76.971 19.3914 77.1885 19.4121 77.2092C20.0423 77.5327 20.6472 77.9032 21.2219 78.3175C22.4423 79.1462 23.6213 80.0473 24.8623 80.8553C26.2135 81.6803 27.6403 82.374 29.1233 82.9269C30.0437 83.2998 30.9952 82.2122 30.716 81.3421C27.179 70.0414 26.1861 57.2803 32.0604 46.6114C38.1416 35.4972 49.9626 29.4273 61.8146 26.3717C67.8375 24.7975 74.0404 24.0209 80.2649 24.0618C85.6635 24.0618 91.6412 24.6108 96.502 27.045C105.427 31.4575 110.981 40.8316 115.056 49.5324C116.483 52.5777 117.683 55.7473 119.079 58.7822C119.571 59.7415 119.976 60.7434 120.289 61.7757C120.659 63.4023 120.747 65.0808 120.547 66.7372C120.356 67.9327 120.325 69.1484 120.454 70.3522C120.719 71.5159 121.09 72.6531 121.561 73.7496C122.161 75.2826 122.812 76.7949 123.453 78.3072C124.095 79.8195 126.577 79.1151 125.925 77.5718Z" fill="#FF5C54"/>
<path d="M101.021 28.8368C101.021 28.8368 101.901 23.1088 103.659 20.0221C104.81 18.0513 106.297 16.2983 108.054 14.8431C108.011 13.9092 108.274 12.9869 108.805 12.2177C109.336 11.4486 110.104 10.8753 110.991 10.5859C113.773 9.55007 115.976 11.6217 116.855 13.9626C117.734 16.3035 117.155 18.8102 114.787 19.3903C113.718 19.6336 112.603 19.5835 111.56 19.2452C110.176 19.902 109.043 20.993 108.333 22.3527C107.01 24.704 107.154 32.1929 106.72 33.2183C106.286 34.2438 101.611 32.659 101.021 28.8368Z" fill="#F9F7F3"/>
<path d="M101.642 29.0027C102.304 24.7248 103.504 20.5401 106.472 17.2877C107.185 16.4901 108.54 15.7236 108.695 14.636C108.736 13.6387 109.166 12.6972 109.894 12.015C110.621 11.3329 111.588 10.9647 112.584 10.99C115.231 11.1246 117.196 14.6567 116.462 17.0702C115.976 18.6446 114.394 19.0589 112.884 18.9035C112.253 18.831 111.736 18.5203 111.146 18.7689C107.278 20.364 106.844 24.8491 106.554 28.433C106.472 29.5413 106.42 30.6703 106.317 31.7787C106.301 32.1266 106.26 32.4728 106.193 32.8145C106.141 33.0113 106.348 32.9388 106.058 32.887C104.974 32.7264 103.967 32.2324 103.176 31.4734C102.385 30.7144 101.849 29.728 101.642 28.6505C101.497 27.8322 100.246 28.1844 100.401 29.0027C100.627 30.1086 101.133 31.1379 101.87 31.992C102.607 32.8462 103.55 33.4967 104.61 33.8814C105.955 34.3889 107.278 34.3164 107.506 32.7109C107.837 30.4321 107.806 28.1015 108.116 25.8228C108.194 24.7521 108.449 23.702 108.871 22.7153C109.535 21.5672 110.478 20.6053 111.612 19.9186C111.839 19.7529 111.922 19.9186 111.612 19.8358C111.301 19.7529 111.694 19.9497 111.839 19.9808C112.597 20.1633 113.381 20.2124 114.156 20.1258C114.783 20.0817 115.391 19.8898 115.93 19.5658C116.469 19.2418 116.925 18.7949 117.259 18.2613C118.582 15.9826 117.476 12.7923 115.707 11.0832C115.064 10.456 114.262 10.0174 113.387 9.8149C112.512 9.6124 111.599 9.65379 110.746 9.93457C109.894 10.2154 109.134 10.7248 108.55 11.4076C107.966 12.0903 107.58 12.9203 107.434 13.8074C107.36 14.0735 107.332 14.3502 107.351 14.6257V14.8121C107.258 14.8121 107.796 14.3149 107.351 14.491C106.933 14.7763 106.563 15.1259 106.255 15.5268C105.665 16.1053 105.109 16.7175 104.589 17.3602C103.516 18.6923 102.658 20.1847 102.045 21.7831C101.231 23.9988 100.648 26.2934 100.308 28.6298C100.318 29.4792 101.518 29.8313 101.642 29.0027Z" fill="#FF5C54"/>
<path d="M127.859 35.0104C123.309 29.2824 116.421 34.8551 116.421 34.8551C116.421 34.8551 123.66 28.692 117.3 24.8699C110.94 21.0477 101.787 28.1119 101.787 28.1119C101.787 28.1119 103.555 16.9356 99.7184 14.8847C95.8814 12.8338 91.6515 15.6201 91.6515 15.6201C91.6515 15.6201 96.0366 5.04446 89.8727 3.71863C83.7088 2.39279 79.7581 7.97581 79.7581 7.97581C79.7581 7.97581 77.1209 -0.828574 69.3437 4.45405C64.568 7.84937 61.0049 12.6886 59.1774 18.2614C59.1774 18.2614 58.1949 11.6011 51.3588 13.362C44.5226 15.1229 39.9825 28.2466 39.9825 28.2466C39.9825 28.2466 39.9825 19.6287 35.4837 19.0486C30.9849 18.4686 27.4685 21.0063 21.8011 30.9915C18.4051 37.1667 17.1846 44.3074 18.3365 51.2623C17.6593 50.5025 16.7634 49.9719 15.7724 49.7437C14.7813 49.5155 13.744 49.6009 12.8035 49.9882C9.48366 51.3555 6.03975 55.5816 5.56401 63.9406C4.81938 75.6142 13.4447 79.9542 13.4447 79.9542C13.4447 79.9542 11.4383 79.3431 10.5075 79.9542C8.94587 80.99 6.3707 85.879 15.5441 97.4283C20.4773 103.643 26.2689 105.798 30.023 105.798C30.4988 105.798 24.852 101.219 22.1941 93.8548C19.7327 87.0081 18.3365 76.7743 18.9363 75.8731C19.2569 75.3966 24.5314 80.0163 30.3126 83.1238C33.3325 84.7707 37.3039 84.5739 40.1997 86.9873C47.7287 93.2747 51.9793 84.3771 51.3588 78.4937C51.1582 76.4412 50.447 74.4718 49.2904 72.7657C49.2904 72.7657 51.9379 72.1753 52.5791 68.3531C52.9797 66.1204 52.5413 63.8181 51.3484 61.8897C51.6764 61.9823 52.0195 62.0087 52.3578 61.9675C52.6961 61.9263 53.0228 61.8183 53.3191 61.6497C53.6154 61.4811 53.8753 61.2553 54.0839 60.9853C54.2924 60.7153 54.4453 60.4066 54.5338 60.077C55.4129 57.5289 52.5378 52.6296 52.5378 52.6296C52.5378 52.6296 57.4606 59.238 58.9499 60.077C60.4391 60.916 65.8067 63.257 68.7335 61.3407C69.5799 60.7547 70.2501 59.9477 70.6712 59.0074C71.0923 58.067 71.2484 57.0292 71.1225 56.0063C71.1225 56.0063 75.8178 61.7343 85.1981 61.7343C89.1694 61.7343 93.4097 61.7343 94.6818 58.9998C95.1428 58.1477 95.2683 57.1536 95.0334 56.2135C95.2092 56.5656 100.546 60.1702 106.834 57.6118C115.955 53.914 107.144 49.8329 107.64 50.0504C110.65 51.3762 116.576 52.122 117.393 51.863C117.755 51.7388 121.675 60.3049 121.737 65.7325C121.737 69.8758 120.206 74.6301 120.702 75.148C121.55 76.1113 123.526 69.8136 123.236 67.7627C122.947 65.7118 126.339 58.948 126.018 52.6296C125.983 51.6699 125.876 50.7142 125.698 49.7707C130.807 46.6633 132.379 40.6867 127.859 35.0104Z" fill="#FF5C54"/>
<path d="M42.8473 117.357C42.8473 117.357 48.3286 106.678 49.3007 106.875C50.2729 107.072 47.7391 114.25 48.1321 114.25C48.5251 114.25 52.8171 114.809 52.5275 115.493C52.2379 116.176 49.7868 125.581 49.2077 125.478C48.6285 125.374 48.8147 118.134 48.2252 118.041C47.6357 117.948 43.1472 118.082 42.8473 117.357Z" fill="#F9F7F3"/>
<path d="M43.4368 117.678C44.9053 114.819 46.4256 111.94 48.1631 109.236C48.5251 108.656 48.9387 108.138 49.3524 107.6C49.4145 107.517 49.4662 107.517 49.4765 107.486C49.4765 107.61 48.887 107.299 48.8974 107.289C48.9077 107.279 48.8974 108.024 48.8974 108.149C48.6285 109.982 47.9562 111.722 47.6046 113.535C47.4909 114.105 47.4185 114.705 48.1114 114.892C48.8043 115.078 49.7144 115.078 50.4797 115.244C50.9141 115.327 51.3588 115.524 51.7932 115.586C51.8927 115.628 51.9895 115.676 52.0827 115.731L51.9793 115.327C51.9793 115.327 51.9793 115.461 51.9793 115.472C51.7128 116.073 51.5251 116.707 51.4209 117.357C50.8624 119.325 50.3039 121.314 49.6524 123.261C49.5282 123.634 49.3938 124.017 49.249 124.39C49.187 124.525 48.9594 124.939 48.9594 124.97C48.9077 124.68 49.7971 124.97 49.7971 124.97C49.784 124.822 49.7527 124.676 49.7041 124.535C49.642 124.142 49.6213 123.727 49.5903 123.323C49.5076 122.163 49.4765 120.982 49.3835 119.822C49.3835 119.18 49.3835 118.092 48.8974 117.585C48.4113 117.077 47.2633 117.274 46.6428 117.253C46.0223 117.233 45.3294 117.253 44.6778 117.139C44.4 117.113 44.1237 117.072 43.8504 117.015C43.6643 117.015 43.4574 116.829 43.5402 117.015C43.1058 116.311 41.9889 116.953 42.4232 117.668C42.8576 118.382 44.1814 118.445 44.9674 118.517C45.5534 118.559 46.1429 118.59 46.7359 118.61C47.2169 118.667 47.7028 118.667 48.1838 118.61C48.5354 118.517 47.8115 118.445 47.8942 118.382C47.9198 118.543 47.9544 118.702 47.9976 118.859C48.07 119.346 48.0907 119.895 48.1217 120.33C48.1941 121.469 48.2355 122.609 48.3286 123.738C48.3286 124.349 48.3286 125.374 48.825 125.809C49.3214 126.244 49.9316 125.809 50.2005 125.333C51.0479 123.424 51.706 121.436 52.1655 119.398C52.4447 118.362 52.724 117.409 53.0135 116.425C53.179 115.886 53.5099 115.275 53.1066 114.778C52.5585 114.105 51.3071 113.97 50.5211 113.825C50.0247 113.732 49.4869 113.649 49.0111 113.587C48.8217 113.54 48.6269 113.52 48.432 113.525C48.0286 113.607 48.6905 114.219 48.8767 113.97C48.8767 113.887 49.0111 113.348 49.0629 113.141C49.187 112.623 49.3317 112.105 49.4662 111.588C49.7705 110.517 50.0191 109.431 50.2108 108.335C50.3039 107.714 50.4901 106.771 49.9109 106.263C49.3317 105.756 48.8043 106.263 48.432 106.657C47.0119 108.418 45.8039 110.341 44.8329 112.385C44.0056 113.877 43.1989 115.368 42.4232 116.881C41.9061 117.771 43.0231 118.424 43.4368 117.678Z" fill="#FF5C54"/>
<path d="M101.952 71.9682C103.883 68.759 106.567 66.0708 109.771 64.1375C114.611 61.2476 117.558 60.74 119.079 60.8022C120.599 60.8643 121.147 61.6412 121.354 62.2316C121.586 62.9804 121.586 63.7823 121.354 64.5311C121.248 64.8206 121.086 65.086 120.876 65.3119C120.666 65.5377 120.414 65.7195 120.134 65.8466C119.451 66.1884 115.387 66.3438 112.17 67.9182C108.954 69.4926 103.545 73.6048 102.387 73.843C101.797 73.9466 101.352 72.9004 101.952 71.9682Z" fill="#FF5C54"/>
<path d="M88.7454 73.0765C89.366 73.4908 89.6349 75.1481 87.825 74.9098C86.2427 74.6923 75.3111 71.647 69.7367 72.0199C66.201 72.2146 62.7146 72.9409 59.3946 74.1744C59.167 74.2838 58.9179 74.3405 58.6655 74.3405C58.4131 74.3405 58.1639 74.2838 57.9364 74.1744C57.4917 74.0708 56.3644 73.1386 56.3644 72.3618C56.3149 72.0383 56.3694 71.7074 56.52 71.4169C56.6706 71.1265 56.9094 70.8915 57.2021 70.7459C57.9777 70.1555 60.9666 67.3692 71.5259 67.8042C82.0851 68.2392 88.1353 72.6518 88.7454 73.0765Z" fill="#FF5C54"/>
<path d="M90.8242 86.4175C90.8242 83.9937 86.2944 77.9445 76.2315 77.5302C69.1265 77.2298 64.2864 80.3165 63.035 81.6735C62.1984 82.6323 61.6182 83.788 61.3487 85.0325C61.0792 86.277 61.1292 87.5696 61.4941 88.7895C62.5283 92.6841 64.1416 93.9685 65.3827 94.8179C66.6237 95.6672 69.8608 95.9883 76.3143 94.8904C82.7677 93.7924 90.8242 88.8309 90.8242 86.4175Z" fill="#F9F7F3"/>
<path d="M79.1997 88.2301L73.3047 86.4899L78.5481 82.3467C78.0154 81.0632 77.142 79.9503 76.0226 79.1286C74.9032 78.3069 73.5805 77.8079 72.1981 77.6855C68.8355 78.0669 65.663 79.4446 63.0867 81.6423C62.2501 82.6012 61.6699 83.7569 61.4004 85.0014C61.1309 86.2459 61.1809 87.5385 61.5458 88.7584C62.58 92.653 64.1933 93.9374 65.4344 94.7868C66.4686 95.4393 68.7438 95.8226 72.9944 95.3357C74.5553 94.7922 75.9482 93.8513 77.0361 92.6055C78.1241 91.3597 78.8697 89.8518 79.1997 88.2301Z" fill="#FF5C54"/>
<path d="M102.449 84.9365C101.89 83.1859 102.345 80.6171 107.196 76.2978C108.818 74.7638 110.749 73.595 112.859 72.8697C114.969 72.1444 117.21 71.8793 119.43 72.0924C122.533 72.455 123.795 75.1998 124.684 77.9344C125.718 81.0418 127.197 84.7604 121.954 89.4733C120.444 90.8302 118.655 91.027 112.501 90.9545C106.348 90.882 103.772 89.0797 102.449 84.9365Z" fill="#F9F7F3"/>
<path d="M111.777 91.4826C113.284 91.1749 114.676 90.4527 115.796 89.397C116.915 88.3413 117.719 86.9938 118.117 85.5059L112.636 83.9004L117.631 79.9644C117 78.5344 115.893 77.3682 114.499 76.6654C113.105 75.9625 111.51 75.7666 109.988 76.1112C109.095 76.2577 108.22 76.5044 107.382 76.8466C102.542 81.1659 102.076 83.7347 102.645 85.4852C103.886 89.3902 106.275 91.2443 111.777 91.4826Z" fill="#FF5C54"/>
<path d="M128.097 67.6072C127.714 67.1203 124.994 69.0573 122.378 70.4246C122.268 70.4134 122.157 70.4134 122.047 70.4246H121.747C122.781 68.9952 124.012 67.2446 123.702 67.0375C123.112 66.6439 119.565 69.192 117.734 70.3624C117.238 70.6835 116.638 71.0357 116.028 71.3982C111.184 72.9009 106.973 75.9677 104.052 80.1198C103.679 80.6584 104.434 81.4352 104.983 81.0416C107.374 79.1061 109.863 77.2946 112.439 75.614C114.921 74.1949 117.61 73.0141 120.206 73.097C123.102 73.1902 122.771 74.4953 123.309 74.2985C124.225 73.678 125.021 72.8952 125.656 71.9886C127.084 70.2278 128.397 67.9801 128.097 67.6072Z" fill="#FF5C54"/>
<path d="M90.6483 83.9007C85.8393 77.9137 77.9379 75.6142 70.6674 76.8675C70.171 76.7847 68.2577 76.5257 67.5648 76.4636C65.4964 76.2667 64.1623 75.2724 63.79 75.7592C63.6452 75.9664 64.3277 77.0954 65.0724 77.8308C64.6936 77.857 64.3135 77.857 63.9347 77.8308C60.5839 77.4994 58.8775 77.1679 58.6603 77.5408C58.4431 77.9137 59.953 78.9495 61.0803 79.6124C60.5425 79.7574 59.9841 79.7574 59.4463 79.7574C56.9538 79.9128 54.6786 79.6124 54.5338 80.2028C54.4614 80.4929 56.8297 82.1812 58.6706 82.9063C59.7048 83.3517 61.4837 83.766 62.0318 83.4138C62.1869 83.4138 69.1472 77.3958 78.2482 79.2706C82.4545 80.2065 86.3895 82.099 89.7486 84.8018C89.8745 84.8638 90.0166 84.8847 90.155 84.8617C90.2934 84.8387 90.4211 84.7729 90.5203 84.6736C90.6195 84.5742 90.6852 84.4463 90.7082 84.3077C90.7311 84.1691 90.7102 84.0268 90.6483 83.9007Z" fill="#FF5C54"/>
<path d="M98.5807 90.7474C99.3387 91.1807 100.222 91.3415 101.084 91.2032C102.118 91.0685 103.462 90.1674 104.496 90.8406C107.382 92.674 102.738 95.8022 101.642 97.0555C101.44 97.269 101.32 97.5481 101.306 97.8421C101.291 98.1361 101.382 98.4257 101.562 98.6585C101.742 98.8913 101.999 99.0519 102.287 99.1113C102.575 99.1706 102.874 99.1248 103.131 98.9821C105.913 97.4594 109.171 93.9481 107.578 90.5195C107.286 89.8664 106.835 89.2973 106.265 88.8647C105.696 88.4321 105.027 88.1499 104.321 88.0439C102.407 87.785 100.846 89.0798 98.9944 89.1626C98.8149 89.1717 98.6429 89.2377 98.5032 89.3511C98.3636 89.4645 98.2635 89.6194 98.2175 89.7934C98.1715 89.9674 98.1818 90.1516 98.2471 90.3194C98.3124 90.4871 98.4292 90.6298 98.5807 90.7267V90.7474Z" fill="#FF5C54"/>
<path d="M85.5704 109.516C85.9117 109.174 88.9936 109.62 91.6308 108.294C94.2681 106.968 94.206 105.186 96.2538 104.482C99.0358 103.446 99.9872 104.482 101.683 104.327C103.659 104.182 104.062 102.99 106.451 103.084C108.282 103.156 108.519 104.555 110.402 104.555C112.284 104.555 114.218 102.566 114.435 102.939C114.652 103.312 113.825 105.114 109.264 106.46C107.713 106.927 102.221 106.678 101.342 107.051C100.463 107.424 92.2514 110.158 91.5895 110.355C88.6937 111.101 84.9912 110.106 85.5704 109.516Z" fill="#FF5C54"/>
<path d="M89.5832 87.785C84.9396 92.5186 76.5314 95.2946 71.3604 94.4245C69.5712 94.1138 68.8059 94.0516 66.8926 93.7409C65.8935 93.5066 64.8663 93.416 63.8417 93.4716C63.3453 93.6166 62.3111 94.3624 61.2252 94.8906C59.1567 95.9264 57.6675 96.03 57.6675 96.4961C57.6675 97.1176 63.3349 96.7965 65.0931 96.2993L65.6516 96.1543C64.8449 96.9933 62.7868 98.806 63.1384 99.3342C63.3039 99.5828 66.5306 98.5781 68.5887 97.5009C69.036 97.268 69.4709 97.0122 69.8918 96.7344H69.9539L69.5919 97.1694C68.8783 98.0809 67.8544 99.1789 67.9268 99.4275C68.1544 100.184 71.1536 98.7024 72.405 97.9359L74.2355 96.8069C80.8648 96.3822 87.794 93.5544 90.2864 88.2822C90.4312 87.8782 89.9762 87.4224 89.5832 87.785Z" fill="#FF5C54"/>
<path d="M87.3079 110.573C87.008 110.573 90.8242 115.493 94.0509 115.058C97.2777 114.623 98.6014 113.214 100.432 113.069C102.263 112.924 105.055 113.442 107.03 112.189C109.006 110.935 111.653 105.508 111.364 105.725C111.074 105.943 102.159 107.165 100.36 107.341C98.5601 107.517 93.3166 111.018 87.3079 110.573Z" fill="#FF5C54"/>
<path d="M90.3588 110.013C90.3588 110.013 92.9029 115.296 94.568 118.041C96.2331 120.786 98.8703 124.256 101.994 123.323C105.117 122.391 107.371 117.937 107.671 114.612C107.971 111.287 107.868 106.481 107.278 106.326C106.689 106.17 101.797 107.59 99.9459 107.693C98.0946 107.797 90.4622 109.133 90.3588 110.013Z" fill="#F9F7F3"/>
<path d="M89.8003 110.334C91.3537 113.954 93.281 117.402 95.5505 120.62C96.895 122.371 98.829 124.235 101.208 124.111C103.586 123.986 105.262 122.153 106.379 120.32C107.586 118.289 108.272 115.99 108.375 113.628C108.648 111.317 108.578 108.979 108.168 106.688C107.775 105.093 106.182 105.725 104.982 105.994C103.214 106.457 101.418 106.803 99.6046 107.03C97.632 107.241 95.6762 107.587 93.751 108.066C92.8463 108.256 91.955 108.505 91.0827 108.812C90.5863 109.009 89.8727 109.268 89.7279 109.848C89.5418 110.656 90.7621 111.008 90.9793 110.189C90.9793 110.417 90.8862 110.293 91.1241 110.189C91.3669 110.079 91.6155 109.983 91.8687 109.899C92.603 109.661 93.3477 109.475 94.0923 109.299C95.6643 108.936 97.2673 108.636 98.8703 108.429C100.225 108.253 101.559 108.108 102.904 107.807L105.603 107.196C105.948 107.113 106.292 107.041 106.637 106.978C106.737 106.989 106.837 106.989 106.937 106.978C106.937 106.978 107.03 106.978 107.061 106.978C107.299 106.844 106.792 106.823 106.834 106.792C106.875 106.761 107.113 108.501 107.123 108.667C107.196 109.775 107.196 110.883 107.123 112.002C107.179 114.21 106.771 116.405 105.924 118.445C105.107 120.195 103.762 122.226 101.787 122.764C99.5322 123.375 97.65 121.356 96.3882 119.729C94.2346 116.586 92.3887 113.242 90.8759 109.744C90.5553 108.936 89.4487 109.589 89.8003 110.334Z" fill="#FF5C54"/>
<path d="M79.9443 107.155C82.3974 109.376 85.3952 110.906 88.6316 111.588C91.7343 112.075 94.6611 110.355 97.4328 109.319C99.2594 108.545 101.204 108.087 103.183 107.962C104.841 108.002 106.5 107.923 108.147 107.724C111.231 107.055 113.964 105.279 115.831 102.732C116.41 101.996 115.418 100.94 114.797 101.696C113.658 103.021 112.247 104.084 110.66 104.814C109.074 105.543 107.349 105.921 105.603 105.922C102.728 105.994 100.339 105.57 97.5672 106.564C95.2506 107.382 92.6444 108.957 90.2554 109.392C86.8735 110.013 83.5227 107.403 80.5441 106.191C80.0063 105.974 79.5099 106.792 79.9753 107.165L79.9443 107.155Z" fill="#FF5C54"/>
<path d="M101.352 114.322C101.487 112.396 101.445 109.609 100.235 107.983C99.6666 107.206 98.2291 107.61 98.56 108.688C99.2568 110.509 99.7662 112.397 100.08 114.322C100.1 114.477 100.176 114.62 100.293 114.723C100.41 114.826 100.56 114.883 100.716 114.883C100.872 114.883 101.023 114.826 101.14 114.723C101.257 114.62 101.333 114.477 101.352 114.322Z" fill="#FF5C54"/>
<path d="M80.9475 103.685C80.5219 104.218 80.0624 104.723 79.572 105.197C79.0859 105.618 78.4667 105.853 77.8242 105.86C77.6884 105.842 77.5503 105.85 77.4178 105.885C77.2853 105.92 77.161 105.981 77.052 106.064C76.943 106.148 76.8514 106.251 76.7825 106.37C76.7136 106.489 76.6687 106.62 76.6504 106.756C76.632 106.892 76.6406 107.03 76.6757 107.163C76.7107 107.296 76.7715 107.42 76.8546 107.529C76.9376 107.638 77.0414 107.73 77.1598 107.799C77.2783 107.868 77.4092 107.913 77.545 107.932C79.7271 108.677 81.5267 106.492 82.3954 104.824C82.8505 103.944 81.6715 102.877 80.9475 103.705V103.685Z" fill="#FF5C54"/>
<path d="M114.063 100.535C114.151 101.237 114.476 101.887 114.983 102.379C115.542 102.859 116.199 103.213 116.907 103.415C118.127 103.777 118.634 101.737 117.424 101.54C116.926 101.46 116.453 101.268 116.038 100.981C115.612 100.714 115.217 100.402 114.859 100.049C114.508 99.6653 113.99 100.049 114.063 100.504V100.535Z" fill="#FF5C54"/>
<path d="M129.173 85.7234C128.706 85.542 128.229 85.3863 127.745 85.2573C128.19 85.1434 128.645 85.0191 128.976 84.9466C130.641 84.553 132.399 84.698 132.306 84.2111C132.213 83.7243 127.011 81.9013 126.432 82.1395C126.204 82.2535 126.432 83.2996 125.522 84.5633C121.457 90.2188 113.298 91.9693 105.675 89.7424C105.189 89.6077 104.993 90.2395 105.355 90.5089C109.223 93.4298 114.808 93.3988 119.606 91.5447C120.216 91.7 121.354 91.7933 122.233 91.9797C123.609 92.2697 125.025 92.5701 125.222 92.3215C125.418 92.0729 124.632 91.0475 123.95 90.5089C123.68 90.2921 123.393 90.0981 123.092 89.9288C124.012 90.1049 125.16 90.2499 125.801 90.3121C127.073 90.4674 129.421 90.8092 129.669 90.5089C129.917 90.2085 128.438 88.748 127.518 88.1161L126.98 87.7743H127.808C130.01 87.7743 132.358 87.9608 132.451 87.6189C132.544 87.2771 129.907 86.0238 129.173 85.7234Z" fill="#FF5C54"/>
<path d="M47.6563 103.125C45.9602 101.716 47.1806 98.899 44.8329 97.8425C44.4362 97.6706 44.0086 97.5819 43.5763 97.5819C43.1441 97.5819 42.7165 97.6706 42.3198 97.8425C41.3993 98.2154 40.8822 99.5309 40.1376 99.8105C38.7828 100.349 38.2967 98.7747 37.3556 98.2775C36.6627 97.9254 36.0835 98.2154 35.3906 98.1118C31.8329 97.5939 29.2681 93.1606 28.5234 89.525C29.5299 90.0533 30.6451 90.3405 31.7812 90.364C32.4534 90.364 32.8154 89.3281 32.1432 89.0278C30.5384 88.2351 28.981 87.3498 27.4789 86.3761C27.3417 86.2991 27.187 86.2591 27.0298 86.2598C26.8726 86.2605 26.7183 86.302 26.5818 86.3802C26.4454 86.4585 26.3315 86.5708 26.2513 86.7062C26.1711 86.8416 26.1272 86.9955 26.1241 87.153C26.5378 90.54 28.5131 93.9789 30.4884 96.7135C31.0788 97.7584 31.8994 98.6547 32.8878 99.3341C34.4184 100.101 35.7319 99.0958 37.2108 100.37C37.9451 101.022 38.0071 102.058 39.1241 102.441C40.241 102.825 40.5823 102.286 41.3787 101.758L41.9164 101.188C43.4781 100.059 43.747 100.152 43.9849 101.727C44.171 102.151 44.109 102.7 44.2641 103.156C44.386 103.658 44.6435 104.117 45.0083 104.482C45.3731 104.848 45.8312 105.106 46.3325 105.228C47.5736 105.559 48.6078 103.943 47.6563 103.125Z" fill="#FF5C54"/>
<path d="M36.6627 96.9724C37.208 97.1905 37.7926 97.2928 38.3795 97.2728C38.8242 97.2728 39.5688 96.9931 39.9825 97.2728C40.3962 97.5524 40.3858 97.915 40.4789 98.2464C40.6207 98.7935 40.8004 99.3299 41.0167 99.8519C41.5648 101.105 43.7677 100.194 43.2403 98.9197C42.7128 97.6457 42.7645 96.0609 41.4511 95.2426C40.8474 94.8924 40.1494 94.7403 39.4551 94.8075C38.5863 94.8697 37.759 95.3047 36.8902 95.2944C35.856 95.2944 35.8043 96.672 36.6627 97.0242V96.9724Z" fill="#FF5C54"/>
<path d="M57.171 39.5577C58.1111 35.8929 59.3388 32.3082 60.8425 28.8371C62.1724 25.7543 63.9497 22.8852 66.1169 20.3227C65.9256 19.387 65.9589 18.4192 66.2142 17.4989C66.4696 16.5787 66.9396 15.7324 67.5855 15.0297C69.7884 12.8235 73.1599 14.1493 74.4733 15.3198C75.7868 16.4902 76.6762 19.5873 75.7971 21.0478C75.3184 21.9147 74.5791 22.6085 73.6842 23.0306C72.7894 23.4527 71.7844 23.5816 70.8122 23.3991C70.8122 23.3991 68.3198 25.6053 65.9721 31.9238C64.2864 36.4503 65.0931 41.1736 64.6483 42.4994C64.2036 43.8252 60.8425 43.5352 59.4773 43.2348C58.1121 42.9344 57.171 42.4683 57.171 39.5577Z" fill="#F9F7F3"/>
<path d="M50.9555 81.4665C51.4402 85.2967 50.7169 89.1827 48.887 92.5808C47.3564 95.3567 46.529 95.3567 45.8361 95.3567C45.1432 95.3567 44.5847 89.9395 44.5847 89.9395C44.5847 89.9395 44.4503 94.0827 43.0541 94.5281C41.6579 94.9735 41.5338 89.8048 40.9857 88.1372C40.4376 86.4695 36.9626 83.8282 38.6277 80.2132C40.2928 76.5982 50.397 77.0229 50.9555 81.4665Z" fill="#FF5C54"/>
<path d="M3.6921 47.4401L3.85758 46.9325C3.94122 46.6932 4.07763 46.4758 4.25668 46.2965C4.43572 46.1171 4.6528 45.9805 4.89178 45.8967L5.32615 45.7621C5.5847 45.6896 5.70881 45.5238 5.69847 45.3374C5.68813 45.151 5.5847 44.9852 5.32615 44.9127L4.89178 44.7781C4.6528 44.6943 4.43572 44.5577 4.25668 44.3783C4.07763 44.199 3.94122 43.9816 3.85758 43.7423L3.6921 43.2347C3.60937 42.9861 3.45423 42.8618 3.27842 42.8618C3.1026 42.8618 2.94747 42.9861 2.86474 43.2347L2.69926 43.7423C2.61495 43.9812 2.47832 44.1983 2.29936 44.3775C2.12041 44.5568 1.90368 44.6936 1.66505 44.7781L1.22034 44.9127C0.972134 44.9852 0.837687 45.151 0.848029 45.3374C0.858371 45.5238 0.972134 45.6896 1.22034 45.7621L1.66505 45.8967C1.90368 45.9812 2.12041 46.118 2.29936 46.2973C2.47832 46.4765 2.61495 46.6936 2.69926 46.9325L2.86474 47.4401C2.94747 47.6887 3.1026 47.813 3.27842 47.813C3.45423 47.813 3.60937 47.6473 3.6921 47.4401Z" fill="#FF5C54"/>
<path d="M78.3516 139.627L78.5274 139.109C78.613 138.871 78.7501 138.655 78.9289 138.476C79.1077 138.297 79.3237 138.159 79.5616 138.074L80.0064 137.949C80.2546 137.866 80.389 137.701 80.3787 137.514C80.3683 137.328 80.2546 137.172 80.0064 137.089L79.5616 136.955C79.323 136.87 79.1063 136.734 78.9273 136.554C78.7484 136.375 78.6117 136.158 78.5274 135.919L78.3516 135.411C78.3325 135.315 78.2832 135.226 78.2107 135.159C78.1382 135.092 78.0463 135.05 77.9483 135.039C77.8495 135.051 77.7569 135.093 77.6829 135.16C77.6089 135.227 77.5571 135.314 77.5346 135.411L77.3691 135.919C77.2842 136.158 77.1473 136.374 76.9684 136.554C76.7896 136.733 76.5732 136.87 76.3349 136.955L75.9005 137.089C75.642 137.172 75.5179 137.328 75.5179 137.514C75.5232 137.619 75.564 137.72 75.6335 137.799C75.7029 137.878 75.7971 137.931 75.9005 137.949L76.3349 138.074C76.5721 138.16 76.7875 138.298 76.9661 138.477C77.1448 138.656 77.2823 138.872 77.3691 139.109L77.5346 139.627C77.5571 139.724 77.6089 139.812 77.6829 139.879C77.7569 139.946 77.8495 139.988 77.9483 140C78.0463 139.989 78.1382 139.947 78.2107 139.88C78.2832 139.813 78.3325 139.724 78.3516 139.627Z" fill="#FF5C54"/>
<path d="M54.8131 4.48505L54.9889 3.96715C55.0796 3.73893 55.2193 3.53345 55.398 3.36521C55.5767 3.19697 55.7901 3.07008 56.0231 2.99349L56.4678 2.85883C56.716 2.77597 56.8505 2.61024 56.8401 2.42379C56.8298 2.23735 56.716 2.08198 56.4678 1.99911L56.0231 1.86446C55.7897 1.7855 55.5763 1.65657 55.3977 1.48664C55.2191 1.3167 55.0796 1.10984 54.9889 0.880438L54.8131 0.372891C54.792 0.269499 54.7366 0.176316 54.6558 0.10858C54.575 0.0408441 54.4737 0.00256415 54.3684 0C54.2696 0.0122574 54.1769 0.0545904 54.103 0.121278C54.029 0.187966 53.9772 0.275793 53.9547 0.372891L53.7789 0.880438C53.6939 1.11907 53.557 1.3358 53.3782 1.51494C53.1993 1.69408 52.9829 1.83116 52.7447 1.91625L52.3103 2.0509C52.0517 2.13377 51.9276 2.28914 51.938 2.47558C51.9483 2.66203 52.0517 2.82776 52.3103 2.91062L52.7447 3.04528C52.977 3.12312 53.1898 3.25047 53.3683 3.41855C53.5469 3.58663 53.6869 3.79146 53.7789 4.01894L53.9443 4.53685C53.9669 4.63394 54.0186 4.72177 54.0926 4.78846C54.1666 4.85515 54.2592 4.89748 54.358 4.90974C54.4728 4.90763 54.5828 4.86311 54.6668 4.78471C54.7508 4.70632 54.8029 4.59959 54.8131 4.48505Z" fill="#FF5C54"/>
<path d="M132.813 110.666L132.989 110.148C133.074 109.91 133.212 109.693 133.39 109.514C133.569 109.335 133.785 109.198 134.023 109.112L134.468 108.988C134.716 108.905 134.85 108.739 134.84 108.553C134.83 108.366 134.716 108.201 134.468 108.128L134.023 107.993C133.784 107.909 133.568 107.772 133.389 107.593C133.21 107.414 133.073 107.197 132.989 106.958L132.813 106.45C132.796 106.352 132.747 106.263 132.674 106.196C132.601 106.129 132.508 106.087 132.41 106.077C132.234 106.077 132.079 106.212 131.996 106.45L131.831 106.958C131.746 107.196 131.609 107.413 131.43 107.592C131.251 107.771 131.035 107.908 130.796 107.993L130.362 108.128C130.259 108.144 130.165 108.196 130.096 108.273C130.026 108.35 129.985 108.449 129.979 108.553C129.985 108.658 130.025 108.758 130.095 108.837C130.164 108.916 130.259 108.969 130.362 108.988L130.796 109.112C131.034 109.199 131.249 109.337 131.428 109.516C131.606 109.695 131.744 109.91 131.831 110.148L131.996 110.666C132.019 110.763 132.07 110.851 132.144 110.917C132.218 110.984 132.311 111.026 132.41 111.039C132.508 111.027 132.6 110.985 132.672 110.918C132.745 110.851 132.794 110.763 132.813 110.666Z" fill="#FF5C54"/>
<path d="M14.8926 113.255C15.6637 113.255 16.2888 112.629 16.2888 111.857C16.2888 111.085 15.6637 110.458 14.8926 110.458C14.1215 110.458 13.4964 111.085 13.4964 111.857C13.4964 112.629 14.1215 113.255 14.8926 113.255Z" fill="#FF5C54"/>
<path d="M128.149 20.6854C128.92 20.6854 129.545 20.0593 129.545 19.287C129.545 18.5147 128.92 17.8887 128.149 17.8887C127.378 17.8887 126.753 18.5147 126.753 19.287C126.753 20.0593 127.378 20.6854 128.149 20.6854Z" fill="#FF5C54"/>
<path d="M132.596 121.459C133.367 121.459 133.992 120.833 133.992 120.06C133.992 119.288 133.367 118.662 132.596 118.662C131.825 118.662 131.2 119.288 131.2 120.06C131.2 120.833 131.825 121.459 132.596 121.459Z" fill="#FF5C54"/>
<path d="M142.111 67.4623C142.602 67.4623 143 67.0634 143 66.5715C143 66.0795 142.602 65.6807 142.111 65.6807C141.619 65.6807 141.221 66.0795 141.221 66.5715C141.221 67.0634 141.619 67.4623 142.111 67.4623Z" fill="#FF5C54"/>
<path d="M0.889419 80.0057C1.38063 80.0057 1.77884 79.6069 1.77884 79.1149C1.77884 78.6229 1.38063 78.2241 0.889419 78.2241C0.398207 78.2241 0 78.6229 0 79.1149C0 79.6069 0.398207 80.0057 0.889419 80.0057Z" fill="#FF5C54"/>
<path d="M35.7423 124.836C36.2335 124.836 36.6317 124.437 36.6317 123.945C36.6317 123.453 36.2335 123.054 35.7423 123.054C35.2511 123.054 34.8528 123.453 34.8528 123.945C34.8528 124.437 35.2511 124.836 35.7423 124.836Z" fill="#FF5C54"/>
<path d="M63.5831 129.621C64.0744 129.621 64.4726 129.222 64.4726 128.73C64.4726 128.238 64.0744 127.839 63.5831 127.839C63.0919 127.839 62.6937 128.238 62.6937 128.73C62.6937 129.222 63.0919 129.621 63.5831 129.621Z" fill="#FF5C54"/>
<path d="M131.986 28.3607C132.477 28.3607 132.875 27.9619 132.875 27.4699C132.875 26.9779 132.477 26.5791 131.986 26.5791C131.494 26.5791 131.096 26.9779 131.096 27.4699C131.096 27.9619 131.494 28.3607 131.986 28.3607Z" fill="#FF5C54"/>
<path d="M119.596 123.862C120.087 123.862 120.485 123.463 120.485 122.971C120.485 122.479 120.087 122.081 119.596 122.081C119.105 122.081 118.706 122.479 118.706 122.971C118.706 123.463 119.105 123.862 119.596 123.862Z" fill="#FF5C54"/>
<path d="M11.035 40.5728C11.7318 40.5728 12.2967 40.007 12.2967 39.3091C12.2967 38.6112 11.7318 38.0454 11.035 38.0454C10.3382 38.0454 9.77325 38.6112 9.77325 39.3091C9.77325 40.007 10.3382 40.5728 11.035 40.5728Z" fill="#FF5C54"/>
</g>
<defs>
<clipPath id="clip0_4009_3008">
<rect width="143" height="140" fill="white"/>
</clipPath>
</defs>
</svg>
