<svg xmlns="http://www.w3.org/2000/svg" xml:space="preserve" style="fill-rule:evenodd;clip-rule:evenodd;stroke-linejoin:round;stroke-miterlimit:2" viewBox="0 0 93 84"><path d="M42.924 83.813a.964.964 0 1 1 .075-1.93.964.964 0 0 1-.076 1.931Zm-3.216-5.061a.558.558 0 1 1 .04-1.117.558.558 0 0 1-.04 1.118Zm52.516-36.525c.216.058.335.19.35.346.003.157-.102.301-.31.382l-.447.173c-.36.139-.73.561-.823.935l-.097.394c-.057.23-.196.354-.361.356-.164.016-.316-.093-.397-.315L90 44.116c-.132-.363-.545-.742-.918-.841l-.463-.124c-.216-.058-.335-.19-.35-.346-.002-.157.102-.301.31-.382l.447-.173c.36-.139.73-.56.822-.935l.097-.394c.057-.23.196-.354.361-.356.165-.016.317.093.397.316l.139.381c.132.363.545.742.918.841l.463.124ZM31.285 78.326c.216.058.335.19.35.346.003.157-.102.301-.31.382l-.447.173c-.36.139-.73.561-.823.935l-.097.394c-.057.23-.196.354-.361.356-.164.016-.316-.093-.397-.315l-.139-.382c-.132-.363-.545-.742-.918-.841l-.463-.124c-.216-.058-.335-.19-.35-.346-.002-.157.102-.301.31-.382l.447-.173c.36-.139.73-.56.822-.935l.097-.394c.057-.23.196-.354.361-.356.165-.016.317.093.397.316l.139.381c.132.363.545.742.918.841l.463.124ZM3.955 44.617c.216.058.335.19.35.346.003.157-.102.301-.31.382l-.447.173c-.36.139-.73.561-.823.935l-.097.394c-.057.23-.196.354-.361.356-.164.016-.316-.093-.397-.315l-.139-.382c-.132-.363-.545-.742-.918-.841l-.463-.124c-.216-.058-.335-.19-.35-.346-.002-.157.102-.301.31-.382l.447-.173c.36-.139.73-.56.822-.935l.097-.394c.057-.23.196-.354.361-.356.165-.016.317.093.397.316l.139.381c.132.363.545.742.918.841l.463.124ZM21.026 6.036c.216.058.335.19.35.346.003.157-.102.301-.31.382l-.447.173c-.36.139-.73.561-.823.935l-.097.394c-.057.23-.196.354-.361.356-.164.016-.316-.093-.397-.315l-.139-.382c-.132-.363-.545-.742-.918-.841l-.463-.124c-.216-.058-.335-.19-.35-.346-.002-.157.102-.301.31-.382l.447-.173c.36-.139.73-.56.822-.935l.097-.394c.057-.23.196-.354.361-.356.165-.016.317.093.397.316l.139.381c.132.363.545.742.918.841l.463.124ZM9.981 63.4a.964.964 0 1 1 .075-1.93.964.964 0 0 1-.076 1.931Zm-2.39-35.85a.964.964 0 1 1 .075-1.93.964.964 0 0 1-.076 1.931ZM25.687 8.771a.964.964 0 1 1 .075-1.93.964.964 0 0 1-.076 1.931Zm-3.414 67.261a.964.964 0 1 1 .075-1.93.964.964 0 0 1-.076 1.931ZM71.78 6.381a.964.964 0 1 1 .075-1.93.964.964 0 0 1-.076 1.931Zm18.437 22.876a.964.964 0 1 1 .075-1.93.964.964 0 0 1-.076 1.931Zm-3.414 28.339a.964.964 0 1 1 .075-1.93.964.964 0 0 1-.076 1.931Zm-71.336 5.451a.558.558 0 1 1 .04-1.117.558.558 0 0 1-.04 1.118Zm75.114-3.414a.558.558 0 1 1 .04-1.117.558.558 0 0 1-.04 1.118ZM16.15 20.027a.558.558 0 1 1 .04-1.117.558.558 0 0 1-.04 1.118ZM47.903 2.614a.558.558 0 1 1 .04-1.117.558.558 0 0 1-.04 1.118Zm-16.73 0a.558.558 0 1 1 .04-1.117.558.558 0 0 1-.04 1.118ZM83.07 23.1a.558.558 0 1 1 .04-1.117.558.558 0 0 1-.04 1.118ZM7.273 38.123a.558.558 0 1 1 .04-1.117.558.558 0 0 1-.04 1.118Zm76.48 0a.558.558 0 1 1 .04-1.117.558.558 0 0 1-.04 1.118ZM65.121 1.117A.558.558 0 1 1 65.161 0a.558.558 0 0 1-.04 1.118ZM8.98 51.098a.558.558 0 1 1 .04-1.117.558.558 0 0 1-.04 1.118Zm69.472-17.593c.126.876.254 1.894.221 2.245-.062.659-.196 3.38-.443 4.431-.103.437-.273.74-.437.945.596-.484.961-.78 1.144-.599.207.205-.461 1.764-1.143 2.745l.104-.036c1.268-.451 2.025-1.002 2.19-.723.127.215-.847 1.436-1.6 2.014a.64.64 0 0 1-.042.573c-.252.42-2.759-1.192-8.143.579q-.151.05-.298.101a4.13 4.13 0 0 1 1.879 1.191.474.474 0 0 1-.047.666c-.452.403-1.272 1.121-1.891 1.663a.48.48 0 0 0 .261.838 125 125 0 0 1 2.397.332.48.48 0 0 1 .406.544 4.62 4.62 0 0 1-1.564 2.689c.723-.116 1.572-.378 2.699-.912 1.911-.906 3.653-3.381 4.465-3.74a1 1 0 0 1 .133-.067c.545-.215 2.36-.104 2.439.147.081.258-.683.419-1.669.952-.319.172-.694.415-1.035.649 1.033.062 2.628.55 2.647.818.016.227-.401.296-1.078.417.324 1.103.73 2.397.577 5.585-.154 3.21-1.978 8.834-3.551 13.477-1.325 3.912-4.212 8.345-5.676 9.497-2.877 2.264-6.093 2.776-10.954 1.279-3.41-1.05-9.3-3.929-11.322-4.815-5.098-2.233-10.348-6.163-11.633-7.325-.095.08-.164.145-.198.191-.279.39.506 4.175-.713 4.637-.542.205-3.678-2.668-4.102-2.853-.423-.185-4.151 2.002-4.637 1.427-.975-1.157 1.645-3.899 1.605-4.458a1 1 0 0 0-.016-.098c-1.215-.318-3.226-1.334-4.264-2.221-.928-.792-2.688-1.932-3.745-3.567-1.14-1.763-1.534-4.192-2.497-5.172-.565-.575-3.635-2.959-4.637-4.458-.95-1.422-1.121-1.971-.535-2.675.277-.333.856-.526 1.514-.606-1.178-1.153-3.374-3.889-3.688-8.477-.433-6.316 3.361-11.083 3.361-11.083s-.634-1.439-.259-3.015c.374-1.576 5.317-3.545 5.317-3.545s.534-3.86 5.847-9.035c7.561-7.365 18.118-8.219 18.713-7.268s-.443 2.216-.443 2.216 8.179-3.972 14.622-3.102c5.335.721 9.047 3.44 9.305 4.431s-1.329 1.772-1.329 1.772 4.957.717 7.533 2.216c3.548 2.064 4.598 5.57 4.431 6.203s-2.216.886-2.216.886 2.305 2.319 3.102 3.988c1.046 2.192.176 5.545-.443 6.647q-.255.45-.664.857ZM31.404 68.432c-.03.773-1.711 2.054-1.427 2.318s2.548-.761 3.032-.713c.483.048 2.411 2.187 2.853 1.962.442-.226-.369-2.592-.178-2.853s2.208-1.138 2.14-1.605-1.931-.253-2.318-.713c-.388-.461-.142-2.453-.535-2.675s-1.337 1.635-2.14 1.962c-.802.327-2.642-.417-2.675 0s1.278 1.546 1.248 2.318ZM29.418 55.8c-.368-.034-.906-.166-1.581-.565-1.337-.791-2.338-.93-3.567-1.248-1.228-.318-3.232-.443-4.28-1.07s-3.249-2.232-3.745-1.427 1.463 2.723 2.497 3.388c1.034.666 1.91 1.712 2.497 2.497s1.788 3.226 2.497 4.458 2.55 3.058 3.567 3.567c.425.213.838.404 1.174.553-.155-.494-.228-.909-.104-1.088.594-.862 3.563.091 3.923 0 .692-.175 2.272-2.773 3.21-2.497.927.273 1.294 2.548 1.248 3.032-.046.483 3.218.632 3.388 1.427.1.466-.496 1.097-1.171 1.67 1.86 1.655 5.907 3.754 9.568 5.805 4.847 2.715 7.936 4.431 11.816 5.187 4.838.943 8.811.62 10.685-1.457 1.971-2.184 5.575-10.361 6.196-12.453.838-2.822 1.858-7.396 1.783-9.808a18.2 18.2 0 0 0-.44-3.48c-.847.242-1.944.689-2.51.929-1.07.778-2.783 2.021-5.578 2.402-.521.071-1.083.033-1.644-.076.693.358 1.176 1.267.899 2.186-.619 2.05-3.141 3.471-3.567 2.853-.228-.33 2.712-2.642 1.962-3.567-.508-.626-1.662.003-3.032-.713-1.779-.931-2.259-2.348-1.783-2.497s1.578 2.247 4.637 1.605q.112-.023.225-.026a10 10 0 0 1-2.045-.846c-1.682-.611-2.864-1.99-2.864-3.861 0-1.313.698-2.616 1.74-3.576.796-.852 1.943-1.735 3.56-2.509 2.146-1.027 3.587-1.684 5.893-1.753q.387-.01.766.028a17 17 0 0 0 1.261-.761c.312-.213.591-.423.84-.619-.038-.142-.278-1.035-.556-2.12-.532.372-2.198.357-4.411 1.133-1.207.423-3.859 1.815-4.749 2.246-2.09 1.012-4.409 2.655-4.476 2.252-.102-.613 2.241-3.234 4.42-4.648 2.436-1.581 3.908-1.934 4.32-2.224 1.08-.759 1.576-1.71 2.118-1.583s.737 1.257.97 1.354c.162.068 1.129.465 1.647.837a81 81 0 0 1-.607-2.544 7 7 0 0 0-.293-.977c-1.722.729-3.837 1.216-5.91 1.42-2.16.212-4.496.408-5.225-.265s.468-3.005.881-4.961c.455-2.158.388-4.902-.086-4.966-.475-.064-.319 5.565-3.988 9.748-1.816 2.07-4.56 3.675-6.203 3.545s-.886-1.329-.886-1.329-7.311 3.368-12.602 3.539c-2.208.072-3.116-.504-3.707-2.129-.646-1.778-1.919-5.254-2.302-4.512-.38.736.625.642 0 4.874a14 14 0 0 1-.312 1.517c-.892 3.384-2.79 5.572-2.79 5.572s.588 1.075 1.329 3.545c.742 2.47.302 7.63-.443 7.703-1.995.195-3.159-1.341-4.058-2.718Zm25.148-9.862c.23.481-3.217.211-5.98.477-1.177.113-4.762.333-6.24.662-3.109.692-4.76 2.041-5.394 1.543-.44-.346.817-2.411.971-2.669.153-.258-.483-1.611-.052-2.103.431-.491 1.607.217 3.208.335.611.045 2.294-.531 5.808-.406 3.144.112 7.33 1.428 7.679 2.16ZM25.341 57.375c.713 1.754 1.883 3.385 3.567 3.923 1.855.594 3.241-.372 3.923 0s.94 1.812.535 1.962-.333-.443-.713-.892c-.38-.448-1.247.055-2.318.178-1.071.124-2.538.141-3.567-.713-.919-.763-1.159-1.427-1.605-2.853-.28-.897-1.476-2.684-1.07-3.21s1.469.426 1.962 1.07c.645.842 1.214.674 1.07 1.248-.124.495-2.016-1.286-1.783-.713Zm15.477-5.918c-1.013-.406-2.86-2.153-2.717-2.482.163-.375 1.195.199 2.85.57.682.153 1.581.266 2.324.341 1.828-.919 3.923-1.187 5.963-1.428 3.775-.446 8.037 1.609 7.847 2.318-.154.571-2.645-.891-8.717-.003.423.297.798.669 1.115 1.049a.477.477 0 0 1-.049.655c-.427.391-1.194 1.086-1.798 1.632a.48.48 0 0 0 .3.836c.75.009 1.6.01 2.297.062a.478.478 0 0 1 .429.529c-.158 1.372-.74 2.429-1.589 3.146 2.6-.443 3.633-.853 5.159-2.022 2.413-1.847 2.673-3.188 3.032-3.032.476.208-1.308 3.834-3.567 5.35-1.604 1.077-4.693 1.617-6.063 1.605-.841-.008-2.139-.21-3.05-.529a10 10 0 0 0-1.35.624c-1.27.726-2.788 1.673-2.998 1.39-.131-.176.573-1.419 1.297-2.323-.357.042-.723.094-1.026.16-1.096.236-1.781.61-1.887.361-.088-.206 1.641-1.812 2.52-2.321-.582-.628-.946-1.398-.961-2.282a5.3 5.3 0 0 1 .221-1.655c-1.074-.233-3.312-1.548-3.35-1.844-.045-.354.992-.207 2.409-.417.414-.061.901-.172 1.361-.291Zm11.051 16.026-.135.057c-1.03.416-2.994.433-3.21 0s1.057-.55 2.497-1.248c1.242-.602 1.853-1.127 2.853-2.318s.888.503.357 1.427a4.8 4.8 0 0 1-.907 1.123c.643.246 1.805.566 3.047.304 1.874-.396 3.072-.49 4.815-1.427 1.665-.896 3.119-1.41 4.458-1.605s2.228-.381 3.388-.357 2.169-.177 2.853-.713c.575-.451 1.419-1.312 1.8-1.758-.56-.526-.623-1.309-.552-1.452.089-.178.94.53 1.605.713 1.22.336 2.199.197 2.318.357.267.357-1.537 1.254-2.853.713l-.042-.018c-.158.235-.394.569-.68.929-.043.099-.252.57-.617 1.155-.268 1.816-1.107 7.001-2.228 8.99-1.097 1.947-5.575 3.409-7.49 3.032s-3.826-1.869-5.707-3.21c-1.671-1.192-4.878-4.067-5.572-4.693Zm19.726-2.527c-.239.227-.498.44-.779.622-1.283.834-3.173 1.883-5.707 2.497-2.53.613-5.964.732-7.312.713-1.193-.016-2.565-.378-3.677-.789 1.65 1.06 5.041 3.071 7.065 3.107 2.751.049 6.237-.766 7.847-2.14 1.407-1.201 2.187-2.934 2.563-4.01m-.364-.843c-1.715.624-5.086.799-6.301 1.109-1.707.435-4.999 2.069-7.847 2.318-.651.057-1.241.051-1.766.006.723.168 1.518.305 2.301.35 2.531.148 6.245-.751 7.133-.892s5.322-1.88 6.242-2.675q.117-.101.237-.217Zm.624 1.364c-.588 1.62-1.549 3.918-2.466 4.56-1.46 1.022-4.824 2.221-8.025 1.962-1.789-.145-4.219-1.452-6.062-2.614.92.766 1.782 1.469 2.138 1.722.917.65 3.779 2.417 5.707 2.675 1.822.244 5.435-1.037 6.598-2.318.98-1.079 1.701-3.947 2.109-5.986Z" style="fill:#ff5c54"/></svg>