<svg width="160" height="160" viewBox="0 0 160 160" fill="none" xmlns="http://www.w3.org/2000/svg">
<g clip-path="url(#clip0_3304_3181)">
<path d="M113.031 34.0825C113.031 34.0825 114.015 27.685 115.982 24.2375C117.27 22.0363 118.934 20.0784 120.9 18.4531C120.851 17.4101 121.146 16.3799 121.74 15.5209C122.333 14.6619 123.193 14.0216 124.186 13.6983C127.299 12.5415 129.763 14.8552 130.747 17.4698C131.731 20.0843 131.083 22.8839 128.433 23.5318C127.237 23.8036 125.989 23.7476 124.822 23.3698C123.273 24.1034 122.006 25.3219 121.212 26.8405C119.731 29.4666 119.893 37.8308 119.407 38.9761C118.921 40.1214 113.691 38.3514 113.031 34.0825Z" fill="#F1562F"/>
<path d="M134.693 48.8442C137.806 50.487 140.594 53.599 140.918 60.6559C141.242 67.7129 137.447 75.2557 137.806 77.5579C138.164 79.8601 139.773 87.7731 134.693 86.3502C129.613 84.9272 116.803 70.339 118.932 57.4282C121.062 44.5175 131.569 47.2014 134.693 48.8442Z" fill="#75297F"/>
<path d="M54.3863 111.871C59.6398 114.925 63.7824 127.824 72.0908 131.758C80.3992 135.691 91.8782 137.542 96.0324 139.96C100.187 142.378 105.926 145.536 114.015 144.229C122.103 142.922 125.783 135.795 128.849 131.202C131.916 126.61 140.016 120.42 141.856 113.155C143.882 105.03 143.065 96.4569 139.541 88.8606C138.257 86.0952 137.159 83.2468 136.255 80.3344C135.596 77.9281 137.783 73.1155 134.948 67.6088C132.113 62.102 123.376 33.9205 103.878 28.8881C84.3798 23.8556 54.9996 30.2069 41.0559 44.4943C23.768 62.2177 29.8893 86.5006 35.5825 100.024C40.1764 110.992 49.1444 108.805 54.3863 111.871Z" fill="#F1562F"/>
<path d="M90.2582 110.853C91.1955 115.006 85.2709 122.202 79.3115 123.579C73.3522 124.955 66.849 123.579 65.7497 117.343C64.7314 111.559 70.2394 107.718 76.1641 106.376C82.0887 105.034 89.3325 106.7 90.2582 110.853Z" fill="#F37769"/>
<path d="M135.214 94.4253C129.173 95.2582 123.064 99.3767 123.642 103.588C124.221 107.799 132.298 112.461 138.338 111.686C140.652 111.374 141.624 111.026 142.967 109.083C143.615 105.612 143.638 98.9024 141.809 94.6566C139.641 94.1947 137.409 94.1164 135.214 94.4253Z" fill="#F37769"/>
<path d="M39.7367 118.951C39.7367 118.951 28.4198 124.562 17.3573 110.691C7.0818 97.7918 9.98626 92.3198 11.7336 91.1744C12.775 90.4919 15.0199 91.1744 15.0199 91.1744C15.0199 91.1744 5.39235 86.3271 6.21393 73.2891C6.79251 63.9531 10.6458 59.233 14.314 57.706C15.3663 57.2734 16.527 57.1779 17.6358 57.4328C18.7447 57.6877 19.7471 58.2803 20.5048 59.1289C19.216 51.3611 20.5816 43.3858 24.3813 36.4888C30.7225 25.3365 34.6568 22.4906 39.6905 23.15C44.7241 23.8094 44.7241 33.4231 44.7241 33.4231C44.7241 33.4231 49.7577 18.777 57.4644 16.7987C65.171 14.8205 66.2125 22.2708 66.2125 22.2708C68.2572 16.0466 72.2439 10.6418 77.5873 6.84959C86.2891 0.949509 89.2399 10.783 89.2399 10.783C89.2399 10.783 93.7297 4.55897 100.557 6.0282C107.384 7.49744 102.524 19.3207 102.524 19.3207C102.524 19.3207 107.292 16.1972 111.55 18.4994C115.808 20.8015 113.864 33.2727 113.864 33.2727C113.864 33.2727 124.209 25.3828 131.222 29.6517C138.234 33.9205 130.238 40.804 130.238 40.804C130.238 40.804 137.945 34.58 143.036 40.9775C148.128 47.375 146.311 54.0965 140.409 57.544C132.714 62.0211 120.229 58.5273 120.229 58.5273C120.229 58.5273 125.482 60.5519 124.001 63.4441C122.936 65.538 116.016 67.9906 111.527 66.9147C106.215 65.7578 106.215 64.4274 106.215 64.4274C106.412 64.9808 106.487 65.5701 106.435 66.1551C106.383 66.74 106.205 67.3069 105.915 67.8171C104.491 70.825 99.7469 70.8712 95.3034 70.8712C84.808 70.8712 79.5545 64.4737 79.5545 64.4737C79.6954 65.6161 79.5207 66.7753 79.0495 67.8256C78.5783 68.8758 77.8286 69.7771 76.8815 70.4316C73.6067 72.5718 67.6242 69.9457 65.9348 69.0202C64.2453 68.0947 58.7835 60.7023 58.7835 60.7023C58.7835 60.7023 62.0004 66.1743 61.0168 69.0202C60.917 69.3924 60.7434 69.7408 60.5065 70.0448C60.2695 70.3487 59.974 70.602 59.6373 70.7897C59.3007 70.9774 58.9298 71.0957 58.5466 71.1375C58.1634 71.1793 57.7757 71.1439 57.4065 71.0332C58.7355 73.1807 59.2258 75.7427 58.7835 78.229C58.0661 82.4979 55.1038 83.1573 55.1038 83.1573C56.398 85.0629 57.1936 87.2624 57.4181 89.5548C58.7835 102.651 50.7876 112.276 39.7367 118.951Z" fill="#75297F"/>
<path d="M47.1773 104.398C47.1773 104.398 47.0731 99.4808 43.7058 97.4563C40.3385 95.4318 32.6781 93.2684 29.6926 91.6025C26.7072 89.9366 21.905 85.5867 20.4354 86.4659C18.9658 87.3452 21.095 100.684 26.7882 111.616C32.4814 122.549 46.4598 128.357 52.4886 129.34C58.5174 130.323 60.473 126.054 61.2251 122.341C61.9773 118.627 65.1132 103.75 47.1773 104.398Z" fill="#F1562F"/>
<path d="M47.941 131.723C47.941 131.723 54.074 119.796 55.1617 120.015C56.2494 120.235 53.4144 128.264 53.8541 128.252C54.2938 128.241 59.096 128.877 58.772 129.641C58.448 130.404 55.7056 140.909 55.0576 140.793C54.4095 140.677 54.6178 132.591 53.9583 132.487C53.2987 132.382 48.2766 132.487 47.941 131.723Z" fill="white"/>
<path d="M114.072 82.2549C116.232 78.6706 119.235 75.6682 122.821 73.5089C128.236 70.2812 131.534 69.7143 133.235 69.7837C134.936 69.8531 135.549 70.7208 135.781 71.3802C136.041 72.2166 136.041 73.1121 135.781 73.9485C135.662 74.2718 135.48 74.5682 135.246 74.8205C135.011 75.0728 134.729 75.2758 134.415 75.4177C133.652 75.7995 129.104 75.973 125.505 77.7315C121.906 79.4899 115.854 84.0827 114.558 84.3488C113.899 84.4645 113.401 83.296 114.072 82.2549Z" fill="#75297F"/>
<path d="M114.234 82.3589C114.234 82.3589 114.165 82.3589 114.142 82.3589V82.4514L114.234 82.3589Z" fill="#75297F"/>
<path d="M113.853 82.7524C113.853 82.8681 113.934 82.9838 114.026 82.9375C114.119 82.8913 114.026 82.8334 113.922 82.7062C113.818 82.5789 114.003 82.5905 114.026 82.6136C114.049 82.6368 114.096 82.5095 114.026 82.4517C113.97 82.4857 113.926 82.5361 113.899 82.596C113.872 82.6559 113.864 82.7226 113.876 82.7872C113.876 82.7872 113.864 82.764 113.853 82.7524Z" fill="#75297F"/>
<path d="M119.696 81.3872H119.824C119.824 81.3872 119.754 81.3641 119.696 81.3872Z" fill="#75297F"/>
<path d="M117.925 82.6599L117.891 82.6829L117.88 82.7289L117.925 82.6599Z" fill="#75297F"/>
<path d="M116.514 83.5738C116.514 83.5738 116.514 83.4812 116.514 83.4465C116.526 83.4763 116.526 83.5093 116.514 83.5391V83.5738Z" fill="#75297F"/>
<path d="M114.049 82.243L114.061 82.22L114.026 82.1855L114.049 82.243Z" fill="#75297F"/>
<path d="M135.734 70.5589C135.734 70.744 135.491 70.3738 135.584 70.6398C135.596 70.5936 135.827 70.7671 135.734 70.5589Z" fill="#75297F"/>
<path d="M135.584 70.6399L135.595 70.6618L135.584 70.6399Z" fill="#75297F"/>
<path d="M132.077 76.1118L132.043 76.1003L132.008 76.1118H132.077Z" fill="#75297F"/>
<path d="M118.18 77.5579H118.03C118.03 77.5579 118.03 77.743 118.18 77.5579Z" fill="#75297F"/>
<path d="M131.511 75.5566C131.553 75.5669 131.596 75.5669 131.638 75.5566H131.511Z" fill="#75297F"/>
<path d="M117.208 78.7612C117.359 78.6108 117.208 78.6224 117.208 78.5414C117.208 78.4604 117.347 78.5414 117.44 78.5414C117.532 78.5414 117.532 78.2406 117.625 78.1596C117.625 77.9745 117.972 77.7894 118.03 77.5696C117.979 77.5595 117.934 77.5306 117.903 77.4886C117.972 77.4192 117.984 77.3151 118.065 77.3382C118.056 77.3541 118.051 77.372 118.051 77.3903C118.051 77.4086 118.056 77.4265 118.065 77.4423V77.3498C118.204 77.3498 117.995 77.4655 118.065 77.5233C118.164 77.3545 118.285 77.199 118.423 77.0606C118.516 77.0606 118.192 77.3267 118.423 77.2457L118.227 77.3845C118.47 77.3845 118.123 77.477 118.354 77.477C118.585 77.2919 118.562 77.211 118.805 77.0143C118.805 76.9333 118.724 77.0143 118.747 76.887C119.002 76.5168 119.164 76.887 119.314 76.5284C119.314 76.4243 119.314 76.3086 119.488 76.2161V76.3433C119.719 76.1582 119.488 76.1119 119.8 75.9731C119.8 76.0425 119.65 76.1466 119.685 76.1351C119.905 76.0657 119.754 75.9962 119.881 75.8921L119.962 75.95C120.194 75.7302 120.425 75.4641 120.691 75.2443C120.691 75.2443 120.691 75.3368 120.749 75.3137C121.098 75.014 121.488 74.7647 121.906 74.5733L121.987 74.4113C122.138 74.3535 121.987 74.4113 121.987 74.2956C121.987 74.1799 122.115 74.2956 122.08 74.2956C122.342 74.0112 122.661 73.7863 123.017 73.6362C123.237 73.5437 123.156 73.347 123.399 73.3007C123.824 73.0329 124.278 72.8155 124.753 72.6529C124.753 72.5025 125.239 72.4562 125.193 72.2942C125.409 72.272 125.623 72.2254 125.829 72.1554C125.933 72.1554 125.933 71.9934 126.049 71.9125V71.9934L126.176 71.8199H126.315L126.419 71.7389H126.304C126.448 71.6363 126.627 71.5947 126.801 71.6232L127.206 71.3687C127.206 71.3687 127.137 71.4497 127.091 71.496C127.287 71.3109 127.172 71.5654 127.357 71.3919C127.357 71.3919 127.357 71.334 127.357 71.3109C127.549 71.2899 127.735 71.2267 127.901 71.1258V71.1952C128.236 71.0795 128.595 70.906 128.965 70.7672C128.826 70.7672 128.815 70.6746 128.965 70.6283L129.035 70.7093C129.035 70.6283 128.907 70.7093 129.035 70.5936C129.162 70.4779 129.162 70.663 129.035 70.7209L129.197 70.6283C129.197 70.6283 129.197 70.6862 129.197 70.7209C129.197 70.7556 129.521 70.7209 129.59 70.5821C129.96 70.4779 130.134 70.397 130.435 70.316C130.435 70.235 130.55 70.2234 130.631 70.1309C130.895 70.123 131.158 70.0998 131.418 70.0615C131.603 69.992 131.418 69.992 131.546 69.9226C131.673 69.8532 131.846 69.9226 131.708 70.0268L132.552 69.8648C132.552 69.8648 132.46 69.8648 132.483 69.8648C132.506 69.8648 132.656 69.8648 132.645 69.8648C133.131 69.726 133.709 70.1077 134.068 70.0615C134.195 70.0615 134.311 70.0615 134.438 70.0615C134.566 70.0615 134.334 70.0615 134.438 70.1656C134.843 70.1656 134.936 70.4779 135.167 70.663C135.167 70.9523 135.584 71.4266 135.48 71.8199C135.48 71.9009 135.48 71.9356 135.48 72.005C135.48 72.0744 135.48 71.9009 135.549 72.005C135.633 72.3861 135.633 72.7808 135.549 73.1619C135.512 73.3412 135.446 73.5132 135.353 73.6709C135.267 73.8344 135.167 73.9893 135.052 74.1337C134.89 74.3188 135.179 74.4345 134.843 74.5848V74.446C134.682 74.6698 134.456 74.8392 134.195 74.9319C133.976 75.0129 133.64 75.0707 133.362 75.1633C133.362 75.1633 133.362 75.1633 133.443 75.0939C133.304 75.0939 132.98 75.1749 132.98 75.2327C132.98 75.2905 132.98 75.2327 132.888 75.1633C132.795 75.0939 132.575 75.3021 132.506 75.2443C132.506 75.2443 132.113 75.2443 132.205 75.36C131.974 75.36 131.777 75.4641 131.58 75.4525C131.384 75.4409 131.187 75.4525 131.164 75.6145C131.164 75.4756 130.747 75.6145 130.62 75.6145C130.493 75.6145 130.481 75.6145 130.527 75.5335C130.365 75.5335 130.215 75.6145 130.261 75.6723C129.926 75.5913 129.671 75.9268 129.463 75.7649L128.12 76.2623C128.12 76.1351 128.595 76.1235 128.549 75.9962C128.219 76.1703 127.874 76.3135 127.519 76.4243C127.415 76.4243 127.519 76.3549 127.6 76.3202C127.206 76.4535 126.82 76.608 126.443 76.7829C126.443 76.7829 126.443 76.7829 126.512 76.7135C126.581 76.6441 126.338 76.7135 126.373 76.8176C126.512 76.8176 126.165 77.0953 126.165 77.1415C126.165 76.9333 125.806 77.2457 125.91 76.968C125.91 76.968 125.818 77.049 125.841 77.0837C125.864 77.1184 125.748 77.0837 125.841 77.0837C125.609 77.2225 125.714 77.2341 125.494 77.3382C125.494 77.3382 125.494 77.3382 125.494 77.2341C125.403 77.3638 125.273 77.4611 125.123 77.5117C124.861 77.7155 124.582 77.8973 124.29 78.0555C124.29 77.8935 124.151 78.0555 124.082 78.0555L123.92 78.1827H124.012C123.85 78.2637 123.758 78.4141 123.607 78.4604L123.7 78.3563L123.411 78.5414L123.596 78.4835C123.469 78.6224 123.688 78.5876 123.469 78.6918C123.469 78.6918 123.307 78.7727 123.191 78.7727C123.131 78.8611 123.047 78.9297 122.948 78.9694C122.948 78.9694 122.948 78.8537 122.878 78.8422C122.809 78.8306 122.531 79.0851 122.485 79.2239C122.496 79.2131 122.502 79.1986 122.502 79.1834C122.502 79.1683 122.496 79.1538 122.485 79.143V79.2355C122.392 79.2355 122.381 79.2355 122.369 79.2355C122.149 79.3628 122.508 79.3049 122.219 79.4206C121.941 79.5594 121.744 79.7677 121.49 79.8834C121.235 79.999 121.687 79.733 121.559 79.7098C121.253 79.9737 120.932 80.2209 120.599 80.4502H120.668C120.668 80.6122 120.379 80.5428 120.263 80.7163C120.263 80.7163 120.263 80.6122 120.263 80.6353C119.998 80.8039 119.75 80.9976 119.523 81.2138C119.352 81.3015 119.186 81.398 119.025 81.503C119.025 81.503 118.921 81.6071 119.025 81.6187C118.47 81.7228 118.261 82.2665 117.775 82.3591C117.775 82.3591 117.868 82.2665 117.775 82.2897L117.475 82.5326C117.532 82.5326 117.532 82.5326 117.637 82.5326C117.595 82.6143 117.53 82.6825 117.451 82.7293C117.579 82.602 117.451 82.6483 117.313 82.6599C117.081 82.6599 117.313 82.7871 117.081 82.8681C117.01 82.9472 116.932 83.0207 116.85 83.0879C116.769 83.0879 116.919 82.9954 116.85 82.9375C116.78 82.8797 116.665 83.2267 116.503 83.2383C116.503 83.2383 116.63 83.1342 116.676 83.0763C116.572 83.0728 116.47 83.1055 116.387 83.1689L116.132 83.273H116.202C116.144 83.5507 115.889 83.5159 115.727 83.7705C115.878 83.5275 115.727 83.6779 115.727 83.5969C115.727 83.5159 115.565 83.5969 115.577 83.5969C115.588 83.5969 115.369 83.6548 115.264 83.8283C115.264 83.8283 115.149 83.8283 115.137 83.8283C115.126 83.8283 115.137 83.8283 115.207 83.8283C115.033 84.0365 114.64 84.0134 114.385 84.2332C114.13 84.453 114.096 84.4646 113.818 84.3258C113.818 84.2332 113.945 84.3258 113.945 84.3258C113.945 84.3258 113.795 84.1522 113.702 84.0365C113.61 83.9209 113.702 84.0365 113.76 83.9671C113.818 83.8977 113.621 83.9671 113.633 83.782C113.68 83.8028 113.727 83.826 113.772 83.8514C113.695 83.7478 113.64 83.6298 113.61 83.5044C113.61 83.5044 113.679 83.5854 113.725 83.6201C113.772 83.6548 113.725 83.2499 113.61 83.192C113.494 83.1342 113.61 83.192 113.61 83.2846C113.61 83.3771 113.679 83.2846 113.679 83.2846V83.4697V83.3771C113.517 83.4812 113.679 83.782 113.795 83.944H113.656C113.708 84.0006 113.766 84.051 113.83 84.0944C113.83 84.0944 113.83 84.2101 113.714 84.0944C113.714 84.2679 113.818 84.1869 113.853 84.3373C113.892 84.3752 113.939 84.403 113.992 84.4183C113.992 84.4183 113.992 84.5109 113.887 84.4183C114.119 84.6844 114.385 84.4993 114.478 84.5687C114.836 84.4067 114.478 84.4646 114.721 84.2911L114.975 84.4067V84.3142H115.079C115.079 84.3142 115.079 84.3142 115.079 84.1985C115.079 84.0828 115.496 83.9209 115.6 84.025C115.6 83.944 115.426 84.025 115.6 83.9324C115.727 84.0365 115.774 83.7936 115.959 83.7705C115.959 83.863 115.797 83.9093 115.959 83.8861C116.121 83.863 116.248 83.7473 116.364 83.6548C116.479 83.5622 116.595 83.4465 116.769 83.2961C116.98 83.2207 117.186 83.1278 117.382 83.0185C117.382 82.9028 117.556 82.7987 117.683 82.6946C117.81 82.5904 117.683 82.7871 117.683 82.8565L117.81 82.7755C117.81 82.7755 117.81 82.683 117.926 82.6136V82.7061C118.089 82.5485 118.272 82.4125 118.47 82.3012C118.47 82.2318 118.18 82.3012 118.389 82.0467C118.406 82.0658 118.415 82.0905 118.415 82.1161C118.415 82.1417 118.406 82.1664 118.389 82.1855C118.412 82.1436 118.449 82.111 118.493 82.093V82.2087C118.609 82.2087 118.493 82.1277 118.597 82.0814C118.701 82.0351 118.678 82.0814 118.69 82.0814C118.701 82.0814 118.609 82.0814 118.597 82.0814C118.682 82.0327 118.777 82.0049 118.875 82.0004C118.875 82.0004 118.875 82.0004 118.875 81.8848C118.875 81.7691 118.967 81.8848 119.083 81.8848C119.199 81.8848 119.233 81.7922 119.187 81.7112C119.141 81.6302 119.268 81.7112 119.303 81.7112C119.338 81.7112 119.708 81.422 119.557 81.4104C119.8 81.1443 120.182 81.0518 120.46 80.832C120.621 80.7049 120.776 80.5698 120.923 80.4271C120.923 80.4271 121.073 80.4271 121.062 80.4271C121.152 80.3252 121.268 80.2493 121.397 80.2073C121.293 80.3345 121.467 80.2073 121.282 80.323C121.467 80.2304 121.525 80.242 121.675 80.0569C121.675 80.161 121.849 80.0569 121.918 79.9875H121.768C121.851 79.9252 121.94 79.8709 122.034 79.8255V79.9296C122.45 79.8139 122.566 79.3628 122.936 79.3628C122.936 79.2471 122.716 79.4437 122.763 79.3628C122.912 79.3078 123.067 79.2728 123.226 79.2586C123.48 79.1661 123.364 79.0041 123.619 78.9C123.619 78.9 123.492 78.8306 123.619 78.6918C123.746 78.5529 123.897 78.6918 123.804 78.7843C123.712 78.8769 123.804 78.7843 123.735 78.7843C123.665 78.7843 123.631 78.8884 123.735 78.8769C123.827 78.8769 124.059 78.7265 124.036 78.8075C124.14 78.7033 124.036 78.7265 123.955 78.8075C124.186 78.7265 124.29 78.6224 124.522 78.5298C124.869 78.391 124.626 78.4025 124.846 78.2637C125.066 78.1249 124.846 78.4025 125.066 78.2637C125.285 78.1249 125.135 78.3331 125.066 78.391C125.22 78.2819 125.399 78.2106 125.586 78.1827L125.494 78.2637C125.542 78.221 125.597 78.1859 125.656 78.1596H125.563C125.633 78.1596 125.69 78.1596 125.69 78.1596C125.69 78.1596 125.598 78.0786 125.69 77.9629C125.783 77.8472 125.933 77.8125 126.003 77.8819C125.725 77.9745 126.072 77.9514 125.852 78.0671L126.014 77.9976C126.304 77.9976 126.084 77.8472 126.362 77.7431C126.362 77.801 126.466 77.801 126.5 77.7431C126.535 77.6853 126.419 77.7431 126.5 77.6043C126.581 77.4655 126.686 77.5002 126.778 77.477H126.662C126.662 77.4076 126.767 77.3845 126.882 77.3151C126.998 77.2457 126.79 77.3845 126.882 77.3845C126.975 77.3845 127.229 77.3845 127.391 77.2457C127.553 77.1068 127.391 77.3267 127.519 77.3267C127.646 77.3267 127.773 77.3267 127.982 77.1994C127.901 77.1994 127.889 77.1994 127.982 77.0606L127.611 77.2225L127.831 77.049C127.715 77.049 127.6 77.1647 127.53 77.1763C127.461 77.1878 127.623 77.1068 127.53 77.0606C127.715 77.0606 127.82 76.9102 128.016 76.9217V77.0953C128.306 77.0953 128.479 76.8755 128.838 76.8176H128.722C128.722 76.7366 128.942 76.7482 129.046 76.7019C129.15 76.6557 129.127 76.7019 129.185 76.7829C129.243 76.8639 129.451 76.7829 129.451 76.5978H129.636C129.926 76.5978 129.926 76.3664 130.215 76.3202C130.145 76.4011 130.215 76.4127 130.099 76.4937C130.192 76.4937 130.284 76.4937 130.273 76.4937C130.261 76.4937 130.516 76.3664 130.62 76.4011C130.724 76.4359 130.62 76.3086 130.759 76.2855C130.759 76.2855 130.921 76.216 130.759 76.1698C131.083 76.297 131.569 76.0078 131.916 76.1698L132.552 76.0194C132.818 76.0194 132.68 75.8343 132.992 75.8458C133.304 75.8574 132.842 75.9153 132.992 75.9384C133.142 75.9615 133.339 75.8574 133.559 75.9384C133.733 75.9384 133.918 75.7996 134.184 75.7417C134.184 75.7417 134.658 75.4178 134.843 75.2558C134.843 75.36 134.762 75.36 134.843 75.3947C134.924 75.4294 134.751 75.3137 134.924 75.1633C135.098 75.0129 135.156 75.0823 135.225 75.1633L135.052 75.3021C135.214 75.3021 135.283 75.117 135.376 75.0476C135.596 74.7815 135.515 74.7121 135.7 74.4113C135.7 74.1915 135.827 74.2956 135.839 74.0874H135.966C136.001 73.8576 136.02 73.6257 136.024 73.3933C136.071 73.591 136.071 73.7971 136.024 73.9948C136.102 73.8375 136.131 73.6598 136.105 73.4858C136.116 73.5392 136.116 73.5944 136.105 73.6478C136.062 73.4457 136.062 73.2367 136.105 73.0346C136.325 73.0346 136.186 72.3868 136.325 72.2017C136.266 71.7152 136.138 71.2398 135.943 70.7903C135.943 71.0448 135.862 70.6515 135.723 70.7903C135.684 70.7459 135.652 70.695 135.63 70.6399C135.584 70.515 135.526 70.3949 135.457 70.2813C135.457 70.1771 135.572 70.2813 135.584 70.2813C135.387 70.0615 135.584 70.1424 135.434 69.9689C135.434 70.0383 135.295 69.9689 135.156 69.8648C135.212 69.9253 135.263 69.9911 135.306 70.0615C134.936 69.9111 135.086 69.726 134.67 69.6565H134.809C134.612 69.5871 134.08 69.4252 133.871 69.5409C133.663 69.6566 133.802 69.4599 133.871 69.4599C133.409 69.3673 132.842 69.5409 132.494 69.4599C132.413 69.4599 132.356 69.5524 132.24 69.5177C132.133 69.5636 132.02 69.591 131.904 69.5987L131.997 69.5409C131.546 69.5409 131.349 69.7491 131.002 69.8417C131.002 69.726 130.631 69.7491 130.458 69.7722C130.031 69.8943 129.619 70.0651 129.231 70.2813C128.752 70.3447 128.282 70.4651 127.831 70.6399C127.901 70.6399 127.831 70.7324 127.831 70.7787C127.831 70.825 127.577 70.9754 127.553 70.8597C127.438 70.7787 127.241 70.8597 127.079 70.9523V71.1142C126.57 71.1142 126.026 71.6695 125.725 71.6001C125.644 71.6811 125.517 71.7389 125.436 71.8315V71.7505C125.18 71.8551 124.932 71.9789 124.695 72.1207V72.0281C124.499 72.1207 124.568 72.3636 124.394 72.4678L124.29 72.3868C123.937 72.5104 123.608 72.6943 123.318 72.9305C123.309 72.9169 123.304 72.9008 123.304 72.8842C123.304 72.8677 123.309 72.8515 123.318 72.838C123.168 72.9189 122.693 73.104 122.832 73.2197C122.832 73.1272 122.497 73.3933 122.358 73.5437V73.4627C122.313 73.6032 122.224 73.7251 122.103 73.8097C122.022 73.8097 122.103 73.8097 122.103 73.8097C121.93 73.8792 122.022 73.9486 121.814 74.0295V73.9486C121.64 74.0411 121.675 74.0527 121.617 74.1684C121.559 74.2841 121.305 74.3535 121.247 74.3072C121.243 74.3521 121.226 74.3951 121.2 74.4317C121.173 74.4683 121.138 74.4972 121.096 74.5154C121.096 74.5154 121.096 74.5154 121.096 74.446C120.807 74.5848 120.761 74.7931 120.541 74.8625C120.658 74.7681 120.781 74.683 120.911 74.608C120.911 74.5501 120.691 74.608 120.761 74.4807C120.65 74.6751 120.501 74.8445 120.321 74.9782L120.229 75.0707L120.078 75.1517C120.078 75.1517 119.87 75.2674 119.789 75.3253C119.708 75.3831 119.789 75.4641 119.881 75.4294L120.078 75.2674C120.064 75.3136 120.038 75.3556 120.004 75.3898C119.97 75.4241 119.928 75.4495 119.881 75.4641V75.6492C119.708 75.6492 119.465 75.7764 119.384 75.7533C119.176 75.9731 118.84 76.2508 118.805 76.4937C118.805 76.5631 118.701 76.4937 118.655 76.4937C118.609 76.4937 118.736 76.4127 118.736 76.378C118.632 76.5284 118.354 76.7366 118.4 76.8523C118.204 76.968 118.4 76.6904 118.215 76.9217V76.8639C117.66 77.1647 117.706 77.7431 117.058 78.0786C117.058 78.0786 117.127 78.0786 117.139 78.0786C116.549 78.5761 116.167 79.3049 115.588 79.8024C115.426 79.9528 115.473 80.0106 115.438 80.1494H115.334V80.3808C115.207 80.6816 114.836 80.7047 114.721 81.1096H114.802C114.709 81.2253 114.57 81.5146 114.535 81.4567C114.546 81.4721 114.551 81.4902 114.551 81.5088C114.551 81.5273 114.546 81.5455 114.535 81.5608L114.408 81.8963C114.235 82.1046 114.281 81.7575 114.061 82.093C113.992 82.2202 113.945 82.521 114.003 82.4863C114.061 82.4516 114.107 82.3706 114.154 82.3938L114.096 82.521C114.2 82.6136 114.258 82.7755 114.512 82.521V82.2897H114.605L114.501 82.4632C114.616 82.3938 114.605 82.3128 114.616 82.2202C114.634 82.2304 114.654 82.2357 114.674 82.2357C114.695 82.2357 114.715 82.2304 114.732 82.2202V81.9657C114.732 81.9657 114.732 82.1046 114.871 81.9657C115.01 81.8269 114.721 81.9657 114.778 81.8153C114.836 81.6649 114.917 81.8153 114.94 81.6765C114.964 81.5377 114.94 81.6765 114.94 81.7691C114.94 81.8616 115.091 81.5146 115.068 81.422C115.045 81.3295 115.276 81.0981 115.369 81.1791C115.379 81.0699 115.41 80.9637 115.461 80.8667C115.461 81.1096 115.704 80.5543 115.797 80.6932C115.797 80.4965 116.063 80.2536 116.155 80.0106C116.164 80.0329 116.164 80.0578 116.155 80.08C116.227 80.0157 116.305 79.9576 116.387 79.9065C116.317 79.8255 116.387 79.6404 116.456 79.5016C116.526 79.3628 116.456 79.6635 116.607 79.6982C116.526 79.6982 116.722 79.409 116.607 79.3975C116.746 79.3975 116.711 79.3975 116.827 79.3975C116.734 79.2933 116.827 79.2933 116.827 79.1545C117.012 79.0504 116.965 79.1545 117.07 79.0157C117.174 78.8769 117.208 78.7612 117.208 78.7612ZM121.015 74.9435L120.865 75.0476V74.9782C120.865 74.9782 120.969 74.9551 121.039 74.9435H121.015ZM119.962 75.036C119.962 75.036 120.032 75.036 120.055 75.036L119.962 75.117C119.962 75.117 119.974 75.0592 119.986 75.036H119.962Z" fill="#75297F"/>
<path d="M126.141 72.132L126.13 72.1206L126.107 72.1434L126.141 72.132Z" fill="#75297F"/>
<path d="M123.353 78.761L123.434 78.6685C123.434 78.6685 123.33 78.7147 123.353 78.761Z" fill="#75297F"/>
<path d="M130.585 75.7185V75.7295L130.607 75.7185H130.585Z" fill="#75297F"/>
<path d="M123.584 78.5759C123.53 78.5999 123.48 78.631 123.434 78.6685C123.491 78.6516 123.543 78.6197 123.584 78.5759Z" fill="#75297F"/>
<path d="M114.014 83.1683V83.134H114.003L114.014 83.1683Z" fill="#75297F"/>
<path d="M113.991 83.0186C113.987 83.0453 113.987 83.0728 113.991 83.0995C113.991 83.0995 114.015 83.0417 113.991 83.0186Z" fill="#75297F"/>
<path d="M114.35 84.0944C114.35 84.0944 114.35 83.9903 114.234 83.9556C114.234 83.9556 114.281 84.1291 114.35 84.0944Z" fill="#75297F"/>
<path d="M115.542 84.0134L115.299 84.1175C115.299 84.1175 115.438 84.1176 115.299 84.1985C115.716 84.1523 115.241 84.1985 115.542 84.0134Z" fill="#75297F"/>
<path d="M121.212 80.4617V80.5306C121.327 80.4617 121.224 80.5421 121.212 80.4617Z" fill="#75297F"/>
<path d="M121.953 79.5361L121.837 79.5477L121.825 79.6403L121.953 79.5361Z" fill="#75297F"/>
<path d="M122.797 79.6288L122.763 79.6635L122.902 79.5479L122.797 79.6288Z" fill="#75297F"/>
<path d="M131.835 76.2276V76.135C131.719 76.1697 131.719 76.2738 131.835 76.2276Z" fill="#75297F"/>
<path d="M135.758 74.4807C135.797 74.4609 135.83 74.4313 135.854 74.3948C135.879 74.3583 135.893 74.3162 135.896 74.2725C135.846 74.3391 135.8 74.4086 135.758 74.4807Z" fill="#75297F"/>
<path d="M126.859 70.9985L126.928 70.9407L126.79 71.0217L126.859 70.9985Z" fill="#75297F"/>
<path d="M99.2956 83.4928C99.9899 83.9555 100.291 85.8065 98.2657 85.5404C96.4953 85.2975 84.2641 81.8963 78.0271 82.3127C74.071 82.5302 70.1702 83.3414 66.4555 84.719C66.2009 84.8412 65.9221 84.9045 65.6397 84.9045C65.3573 84.9045 65.0785 84.8412 64.8239 84.719C64.3263 84.6034 63.065 83.5622 63.065 82.6945C63.0097 82.3332 63.0707 81.9636 63.2391 81.6392C63.4076 81.3148 63.6749 81.0524 64.0023 80.8898C64.8702 80.2304 68.2144 77.1183 80.029 77.6042C91.8435 78.0901 98.6129 83.0184 99.2956 83.4928Z" fill="#75297F"/>
<path d="M99.1914 83.643C99.1914 83.643 99.1914 83.5852 99.1914 83.5273H99.0641L99.1914 83.643Z" fill="#75297F"/>
<path d="M98.6476 83.0647C98.5087 83.0647 98.3351 83.0647 98.3583 83.1341C98.4739 83.1404 98.5898 83.1404 98.7054 83.1341C98.8096 83.1341 98.8559 83.2729 98.8212 83.2845C98.7864 83.2961 98.96 83.4118 99.041 83.3886C98.9434 83.2337 98.7902 83.1219 98.6129 83.0763C98.6129 83.0763 98.636 83.0763 98.6476 83.0647Z" fill="#75297F"/>
<path d="M81.4175 77.5116H81.4985C81.4406 77.5 81.4059 77.5 81.4175 77.5116Z" fill="#75297F"/>
<path d="M88.3258 78.634L88.1522 78.553C88.1522 78.553 88.2448 78.5993 88.3258 78.634Z" fill="#75297F"/>
<path d="M93.5561 80.1956C93.5561 80.1956 93.4635 80.1956 93.4288 80.2765C93.449 80.2679 93.4706 80.2635 93.4925 80.2635C93.5144 80.2635 93.536 80.2679 93.5561 80.2765C93.5561 80.2765 93.5677 80.2303 93.5561 80.1956Z" fill="#75297F"/>
<path d="M65.1363 85.1702C64.9281 85.0429 65.5413 85.1702 65.2173 85.0198C65.2405 85.0313 64.8702 85.0198 65.1363 85.1702Z" fill="#75297F"/>
<path d="M69.0475 78.252L69.0938 78.2636L69.1516 78.2405L69.0475 78.252Z" fill="#75297F"/>
<path d="M92.9427 84.0134C92.9761 84.0381 93.0037 84.0697 93.0238 84.106C93.0006 84.0134 93.3015 84.0713 92.9427 84.0134Z" fill="#75297F"/>
<path d="M95.1298 84.3721C94.8289 84.3027 94.9678 84.4415 94.8868 84.4878C94.5281 84.4878 94.7479 84.3721 94.6322 84.2911C94.5165 84.2101 94.2156 84.2911 94.0421 84.2911C93.7875 84.2911 93.3362 84.1291 93.0353 84.1754C93.0466 84.1989 93.0525 84.2246 93.0525 84.2506C93.0525 84.2767 93.0466 84.3023 93.0353 84.3258C92.8965 84.3258 92.7692 84.3258 92.7345 84.2564C92.6998 84.187 92.8271 84.2564 92.8733 84.2564H92.7229C92.6188 84.1291 92.9196 84.2564 92.9428 84.1986C92.6668 84.1902 92.3921 84.1592 92.1212 84.106C92.1212 84.0019 92.6188 84.1754 92.3526 84.0366L92.6651 84.1407C92.4568 83.9325 92.8618 84.1407 92.6651 83.9788C92.2369 83.8631 92.1675 83.9788 91.7509 83.8052C91.6468 83.8052 91.7509 83.8862 91.6583 83.9209C91.0335 83.9209 91.2302 83.5738 90.7558 83.6086C90.6792 83.6556 90.5911 83.6805 90.5012 83.6805C90.4113 83.6805 90.3232 83.6556 90.2466 83.6086L90.3855 83.5276C89.9689 83.4235 90.1077 83.6317 89.6912 83.4697C89.7722 83.4697 90.0267 83.4697 89.9689 83.4697C89.7027 83.3309 89.749 83.4697 89.5407 83.4697V83.3656L88.0943 83.1921C88.0943 83.1921 88.2216 83.1921 88.0943 83.0995C87.4446 83.0137 86.8024 82.8784 86.1734 82.6946H85.9304C85.8726 82.6946 85.8263 82.6946 85.9304 82.6252C85.699 82.5558 85.9304 82.6252 85.7916 82.6946C85.6527 82.764 85.618 82.6136 85.7106 82.6021C85.1613 82.6188 84.6124 82.5604 84.079 82.4285H84.16C83.8244 82.3476 83.755 82.5442 83.4541 82.4285C82.7135 82.3128 81.8919 82.2897 81.3249 82.1278C81.2092 82.2434 80.5843 82.0121 80.5265 82.1278C80.2347 82.0259 79.9316 81.9599 79.6239 81.9311C79.4619 81.9311 79.3809 82.0236 79.1842 82.0352V81.9311L78.918 82.0236L78.7676 81.9311H78.5825C78.6519 81.9311 78.7445 81.9311 78.7329 81.9311C78.4834 81.9771 78.2259 81.949 77.9923 81.8501L77.3096 81.9774C77.3096 81.9774 77.4369 81.9774 77.5295 81.8848C77.1707 82.0121 77.46 81.8038 77.1245 81.8848C77.1245 81.8848 77.1245 81.8848 77.1245 81.9658C76.8484 81.9223 76.5673 81.9223 76.2913 81.9658V81.8964C75.7822 81.8964 75.2151 82.0583 74.6481 82.1278C74.8564 82.1278 74.8217 82.2434 74.6481 82.2781L74.5671 82.1856C74.463 82.2666 74.7523 82.1856 74.5671 82.3013C74.382 82.417 74.4167 82.2203 74.5671 82.174L74.3126 82.2434C74.3126 82.2434 74.3126 82.2434 74.3126 82.1509C74.3126 82.0583 73.8497 82.1509 73.7224 82.255C73.1554 82.3476 72.9008 82.417 72.438 82.5211C72.438 82.6021 72.2644 82.6136 72.1371 82.7062C71.8015 82.7062 71.4197 82.7756 70.98 82.8682C70.5402 82.9607 70.9105 82.9491 70.7948 83.0301C70.6791 83.1111 70.3551 83.0301 70.5518 82.9607C70.1587 83.0644 69.7723 83.1919 69.3947 83.3425C69.4757 83.3425 69.5451 83.3425 69.5219 83.3425C69.4988 83.3425 69.2558 83.3425 69.2674 83.3425C68.6194 83.6317 67.6358 83.597 67.1498 83.9325L66.629 84.2101C66.3629 84.3027 66.7563 84.0944 66.548 84.1291C66.3904 84.2628 66.2036 84.3576 66.0026 84.4058C65.8016 84.4541 65.592 84.4544 65.3909 84.4068C65.2872 84.3094 65.1594 84.2415 65.0206 84.2101C64.6094 84.0513 64.2521 83.7784 63.9907 83.4234C63.8634 83.354 63.9097 83.2846 63.8634 83.2152C63.8172 83.1458 63.8634 83.3425 63.8634 83.2962C63.6926 83.1174 63.5693 82.8986 63.5047 82.6599C63.4657 82.403 63.4657 82.1417 63.5047 81.8848C63.5857 81.4799 64.0949 81.2254 64.5925 80.8552C65.09 80.485 64.5925 80.485 65.1479 80.2883L65.0669 80.4503C65.7849 79.9386 66.5619 79.5152 67.3812 79.1893C67.3812 79.1893 67.3812 79.1893 67.2771 79.2818C67.4622 79.2818 67.9019 79.062 67.8788 79.0042C67.8556 78.9463 67.8788 79.0042 68.0176 79.0042C68.1565 79.0042 68.4226 78.7844 68.5384 78.8191C68.6541 78.8538 68.5384 78.8191 68.4574 78.8769C68.3764 78.9348 68.9896 78.7265 68.8624 78.6803C69.1748 78.6803 69.4525 78.4952 69.7071 78.472C69.9617 78.4489 70.2509 78.391 70.2741 78.2638C70.2741 78.391 70.8527 78.2638 71.0494 78.1597C70.98 78.1597 71.223 78.1597 71.1535 78.2291C71.385 78.2291 71.5932 78.1365 71.547 78.0787C71.9867 78.1712 72.3801 77.8357 72.7041 77.9977C73.3868 77.8589 74.0233 77.7432 74.6481 77.6738C74.6481 77.7895 73.9538 77.6738 74.0001 77.8704C74.4923 77.7418 74.9964 77.6642 75.5044 77.6391C75.6549 77.6391 75.4234 77.6391 75.3771 77.72C75.9673 77.6275 76.5343 77.72 77.0435 77.6159C77.0435 77.6159 77.0434 77.6159 76.9393 77.6159C76.8352 77.6159 77.1823 77.6159 77.1592 77.6159H77.0666C76.893 77.5349 77.4716 77.4308 77.4947 77.3845C77.3212 77.5581 78.0155 77.3845 77.7377 77.6391C77.8072 77.6391 77.8882 77.6391 77.8766 77.5581C77.865 77.4771 78.0039 77.5581 77.8766 77.6391C78.2469 77.6391 78.108 77.5465 78.4552 77.5581C78.4552 77.5581 78.3858 77.5581 78.351 77.6275C78.5502 77.5522 78.7641 77.5244 78.9759 77.5465C78.9759 77.5465 78.9759 77.5465 78.9065 77.5465C79.3645 77.5051 79.8254 77.5051 80.2835 77.5465C80.1215 77.6622 80.4686 77.5465 80.4918 77.7085H80.7811H80.6653C80.9003 77.6911 81.1362 77.6911 81.3712 77.7085H81.1745H81.6489H81.3828C81.6489 77.7085 81.3828 77.5697 81.7068 77.6159C81.6374 77.6159 81.9614 77.6159 82.0887 77.7085C82.2332 77.6736 82.3839 77.6736 82.5284 77.7085C82.5284 77.7085 82.5284 77.8242 82.5284 77.8473C82.5284 77.8704 83.1301 77.8473 83.2921 77.8473C83.2342 77.8473 83.2227 77.9167 83.2921 77.9399L83.4078 77.8704C83.512 77.8704 83.5351 77.8704 83.512 77.963C83.8591 77.963 83.4078 77.8126 83.8244 77.963H83.7318C84.1484 78.044 84.5534 77.963 84.889 78.1134C84.9931 78.2406 84.5534 78.1134 84.6691 78.2059C85.235 78.2334 85.7989 78.2913 86.3586 78.3795H86.266C86.3701 78.2406 86.6479 78.5414 86.9256 78.5183C86.8561 78.5183 86.8214 78.5877 86.8446 78.5183C87.2755 78.611 87.7124 78.6729 88.1522 78.7034H88.0827C88.2794 78.7959 88.6266 78.8654 88.858 78.9463C89.0894 79.0273 89.0547 78.9463 88.9969 78.9463C89.6449 79.3281 90.3623 79.2009 90.9293 79.5711C90.8599 79.5711 90.7442 79.5711 90.802 79.5711C90.9819 79.6025 91.1597 79.645 91.3343 79.6983C91.3343 79.6173 91.3343 79.6289 91.1839 79.5479C91.3065 79.528 91.4316 79.528 91.5542 79.5479C91.2996 79.5479 91.5542 79.652 91.5542 79.7214C91.5542 79.7909 91.5542 79.7214 91.5542 79.6636C91.7972 79.8718 91.6468 79.5595 91.9939 79.7677C92.1426 79.7874 92.2896 79.8184 92.4336 79.8603C92.4336 79.9528 92.2716 79.8603 92.2369 79.8603C92.4568 79.9297 92.7113 79.8603 92.8618 80.0222C92.7692 80.0222 92.6419 79.9528 92.5493 79.9413C92.6455 80.0416 92.7646 80.117 92.8965 80.1611L93.2321 80.3346H93.1511C93.4866 80.2536 93.6949 80.4965 94.0884 80.5313C93.7065 80.5313 94.0074 80.5313 93.9495 80.6354C93.8916 80.7395 94.1462 80.7858 94.0999 80.7858C94.2851 80.7858 94.3429 80.9593 94.6091 80.9593C94.6091 80.9593 94.7827 81.0403 94.7248 81.0866C94.9447 81.1675 94.7248 81.0866 94.7248 81.0056C95.0951 81.0056 95.4307 81.4568 95.882 81.5609C96.3332 81.665 96.4142 81.665 96.8077 81.8154C96.9003 81.9195 96.6572 81.8154 96.6572 81.8154C96.8119 81.9425 96.9883 82.0405 97.178 82.1046C97.178 82.1046 97.178 82.1046 97.178 82.2087C97.178 82.3129 97.3284 82.2087 97.502 82.3128C97.4332 82.3263 97.3625 82.3263 97.2937 82.3128C97.4863 82.372 97.6756 82.4415 97.8607 82.5211C97.8607 82.5905 97.7218 82.5211 97.6408 82.5211C97.8362 82.6405 98.052 82.7228 98.2773 82.764L98.1616 82.6599C98.2426 82.6599 98.1616 82.7409 98.1616 82.6599C98.1616 82.5789 97.9301 82.498 97.9417 82.4632H98.069C98.069 82.2434 97.5598 82.1856 97.3052 82.0352H97.4673H97.1548C97.1548 82.0352 97.1548 81.8964 97.2474 81.9542C97.0854 81.7923 97.0622 81.9542 96.935 81.746L96.7382 81.6766C96.7382 81.6766 96.7382 81.5956 96.854 81.6766C96.5531 81.4452 96.2754 81.4799 96.1944 81.3295C95.7084 81.1328 96.1134 81.3295 95.72 81.3295L95.5811 81.0171H95.4885C95.4885 81.0171 95.3497 80.9477 95.3844 80.9246C95.1877 80.9246 95.3844 80.9246 95.2687 80.9246C95.0835 80.7395 94.6091 80.6701 94.6206 80.5197C94.6322 80.3693 94.8174 80.6585 94.5512 80.6007C94.5512 80.4271 94.2504 80.4966 94.0652 80.3346C94.1578 80.3346 94.3545 80.4156 94.1578 80.2652C93.9842 80.2652 93.7528 80.0569 93.5561 80.0107C93.3593 79.9644 93.1395 79.895 92.8155 79.8024C92.5451 79.6452 92.2626 79.5099 91.9708 79.3975C91.8782 79.4785 91.5773 79.3975 91.3575 79.2934C91.3575 79.2934 91.4269 79.2934 91.5542 79.2934L91.4153 79.3859C91.3234 79.4009 91.2296 79.4009 91.1376 79.3859H91.1839C90.868 79.3361 90.5579 79.2547 90.2582 79.143C90.2582 79.2124 90.478 79.4207 90.0846 79.3628C90.0846 79.3628 90.0846 79.2471 90.1887 79.2587C90.1277 79.2715 90.0646 79.2715 90.0036 79.2587H90.1772C90.0267 79.1777 90.073 79.2587 89.9457 79.2587C89.8185 79.2587 89.8647 79.1893 89.9457 79.1546C90.0267 79.1199 90.0499 79.1546 90.1077 79.1546C89.9768 79.1123 89.8551 79.0455 89.749 78.9579C89.749 78.9579 89.749 79.0273 89.6102 78.9579C89.4713 78.8885 89.5407 78.8654 89.3787 78.7959C89.2167 78.7265 89.1357 78.7959 89.101 78.7959C89.0663 78.7959 89.02 78.7265 88.9969 78.6918C88.9737 78.6571 88.3142 78.5299 88.453 78.6918C87.9554 78.6918 87.4694 78.4142 86.9834 78.3448C86.705 78.2897 86.4224 78.2587 86.1387 78.2522C86.0461 78.2522 85.942 78.1597 85.9883 78.1365C85.7959 78.1442 85.6038 78.1167 85.4213 78.0555C85.6527 78.0555 85.3518 78.0555 85.6527 78.0555C85.4432 77.9726 85.218 77.9371 84.9931 77.9514C85.1088 77.9514 84.7964 77.8242 84.6575 77.8242L84.8427 77.9167L84.4261 77.8357L84.5071 77.7547C83.9401 77.5581 83.4194 77.8242 83.0028 77.5812C82.8292 77.5812 83.3152 77.6622 83.1648 77.72C82.9501 77.6665 82.7409 77.5929 82.5399 77.5002C82.1697 77.4077 82.1812 77.6044 81.7994 77.5002C81.7994 77.5002 81.8804 77.6275 81.5911 77.6391C81.3018 77.6506 81.2671 77.4771 81.4406 77.454C81.6142 77.4308 81.5332 77.454 81.5332 77.454C81.5332 77.454 81.7299 77.454 81.6258 77.3961C81.4985 77.3961 81.1166 77.3961 81.2092 77.2804C81.0009 77.2804 81.1166 77.3383 81.2092 77.3614C80.8621 77.292 80.6654 77.3614 80.3066 77.2689C79.7859 77.1994 80.0752 77.2689 79.7165 77.2689C79.3578 77.2689 79.7975 77.1416 79.4388 77.1763C79.08 77.211 79.4388 77.0953 79.4388 77.0606C79.1706 77.0786 78.9013 77.0552 78.6403 76.9912H78.8139H78.5362L78.6403 77.0606C78.5362 77.0606 78.4552 77.0606 78.4552 77.0606C78.4552 77.0606 78.5362 77.1763 78.3279 77.2342C78.1196 77.292 77.9113 77.2342 77.865 77.1647C78.2932 77.1647 77.865 77.0722 78.1775 77.0722H77.9923C77.5757 76.9912 77.7956 77.1763 77.379 77.1763C77.379 77.1763 77.2749 77.0838 77.2055 77.0953C77.379 77.0953 77.2865 77.1763 77.136 77.2226C76.9908 77.1945 76.8415 77.1945 76.6963 77.2226H76.8583C76.8583 77.2226 76.6732 77.2226 76.488 77.2226C76.3029 77.2226 76.65 77.2226 76.5922 77.2226C76.5343 77.2226 76.1062 77.13 75.8169 77.2226C75.5276 77.3151 75.8169 77.1185 75.678 77.1069C75.354 77.1879 75.3193 77.1069 74.9837 77.1069C75.0879 77.1069 75.0994 77.1069 74.8564 77.2342L75.4234 77.1532L75.0647 77.2689C75.2383 77.2689 75.4234 77.2689 75.5276 77.2689C75.354 77.3383 75.3771 77.2689 75.4581 77.373C75.2267 77.2804 74.9953 77.454 74.7291 77.373V77.1994C74.3099 77.2176 73.8924 77.264 73.4794 77.3383H73.653C73.5836 77.4077 73.329 77.3383 73.1554 77.4193C73.1554 77.3614 73.0628 77.3498 72.9818 77.3267C72.9008 77.3036 72.6 77.3267 72.5653 77.4771H72.3223C71.8941 77.4771 71.8594 77.7085 71.4544 77.7547C71.5585 77.6738 71.3734 77.6622 71.6395 77.5696C71.5007 77.5696 71.3734 77.5696 71.385 77.6391C71.3965 77.7085 71.0147 77.7779 70.8874 77.7432C70.7601 77.7085 70.8874 77.8473 70.6791 77.8704C70.6791 77.8704 70.4477 77.963 70.5981 77.9977C70.1468 77.882 69.4409 78.2522 69.0591 78.1944C68.6772 78.1365 68.4342 78.4142 68.1681 78.4836C67.7862 78.4836 67.9945 78.6918 67.5779 78.7844C67.1613 78.8769 67.7746 78.6687 67.6358 78.6803C67.5085 78.5183 67.1498 78.8769 66.8489 78.8769C66.6175 78.8769 66.3745 79.143 66.0389 79.2818C65.7677 79.5175 65.4774 79.7303 65.171 79.9181C65.171 79.7909 65.2983 79.8024 65.171 79.7677C65.0437 79.733 65.2752 79.8487 65.0206 80.0222C64.766 80.1958 64.7082 80.1379 64.6387 80.0222L64.8817 79.8603C64.6966 79.8603 64.5577 80.0685 64.4305 80.1495C64.0602 80.4156 64.1296 80.5197 63.7477 80.7973H63.8172C63.6667 81.0519 63.5973 80.8783 63.4469 81.1213H63.308C63.0938 81.383 62.9575 81.6997 62.9146 82.0352C62.8875 81.7404 62.9744 81.4464 63.1576 81.2138C63.0072 81.3295 62.7641 81.7923 62.822 81.9079C62.8271 81.8192 62.8508 81.7325 62.8914 81.6534C62.873 81.9539 62.873 82.2553 62.8914 82.5558C62.7873 82.5558 62.7294 82.7409 62.7989 83.0532C62.8683 83.3656 63.0419 83.6317 63.0534 83.7936C63.2733 84.0366 63.4816 84.2795 63.7246 84.5109C63.988 84.7877 64.319 84.991 64.685 85.1009C64.5577 84.9737 64.685 84.9968 64.685 85.0199C64.685 85.0431 64.847 85.0199 64.847 85.0199L65.0785 85.0894C65.2436 85.1842 65.4236 85.2507 65.6108 85.286C65.7496 85.286 65.414 85.286 65.4256 85.3554C65.8769 85.3554 65.6223 85.448 65.9348 85.4596C65.8653 85.4596 66.0736 85.3439 66.305 85.2745C66.1896 85.286 66.0733 85.286 65.9579 85.2745C66.5018 85.0199 66.4786 85.2745 66.8952 84.9737L66.7679 85.0778C67.139 84.9396 67.4956 84.7653 67.8325 84.5572C67.8325 84.5572 67.9482 84.5572 67.8325 84.6382C68.4003 84.4037 68.9842 84.2104 69.5798 84.0597C69.6839 84.0597 69.7418 83.9325 69.8922 83.9325C70.0264 83.8581 70.1706 83.8035 70.3204 83.7705L70.2047 83.8515C70.6656 83.7396 71.115 83.5846 71.547 83.3887C71.547 83.516 72.0445 83.4582 72.276 83.3887C72.9587 83.2615 73.4331 83.0648 74.0348 82.9144C74.4514 82.9838 75.3887 82.7756 76.0252 82.7872C75.9326 82.7872 76.0252 82.6831 76.1524 82.6599C76.2797 82.6368 76.5574 82.5327 76.5343 82.6599C76.6616 82.764 76.9625 82.6599 77.2055 82.6599V82.5095C77.8535 82.6599 78.8486 82.3476 79.1958 82.5095C79.3462 82.5095 79.5313 82.5095 79.6818 82.5095V82.5905C80.0983 82.5905 80.3066 82.5905 80.8389 82.6599H80.7348C81.0241 82.6599 81.1166 82.4517 81.3944 82.4748L81.4638 82.6021C81.9957 82.7322 82.5376 82.8174 83.0838 82.8566C83.0838 82.8566 83.0838 82.8566 82.9797 82.8566C83.2111 82.8566 83.8938 83.0533 83.8244 82.8566C83.8244 82.9607 84.3451 82.9376 84.6344 82.926V82.9954C84.8235 82.9285 85.0251 82.9048 85.2245 82.926C85.3055 82.926 85.2824 82.9954 85.2245 82.926C85.4791 83.007 85.4444 82.926 85.7453 82.926H85.618C85.7484 82.9758 85.8926 82.9758 86.023 82.926C86.2115 82.9215 86.3956 82.9829 86.5437 83.0995C86.5987 83.0766 86.6577 83.0648 86.7173 83.0648C86.7769 83.0648 86.8358 83.0766 86.8908 83.0995C86.8908 83.0995 86.8908 83.0995 86.8214 83.0995C87.2496 83.2268 87.4926 83.0995 87.7819 83.2615L87.1801 83.1342C87.1801 83.2036 87.4463 83.2731 87.1801 83.3309C87.4831 83.2849 87.7913 83.2849 88.0943 83.3309C88.1556 83.3415 88.2182 83.3415 88.2794 83.3309L88.4993 83.3887C88.4993 83.4582 88.8117 83.4929 88.9506 83.516C89.0894 83.5391 89.1357 83.516 88.9506 83.3887H88.7539H88.4067C88.5331 83.3385 88.6738 83.3385 88.8002 83.3887C88.8695 83.3493 88.9433 83.3182 89.02 83.2962C89.1936 83.4466 89.5407 83.5738 89.587 83.6548C90.0159 83.7505 90.4566 83.7817 90.8946 83.7474C91.0219 83.7474 91.0219 83.8168 91.0682 83.8515C91.0027 83.8467 90.9369 83.8467 90.8715 83.8515C91.1145 83.8515 91.5889 83.9903 91.6699 83.8515C91.9708 83.9672 91.4732 83.8515 91.9013 83.9903H91.8319C92.6303 84.3374 93.2436 83.9903 94.1462 84.4531C94.1462 84.4531 94.0652 84.4531 94.0536 84.3837C95.0719 84.7192 96.2175 84.8001 97.2127 85.1819C97.3865 85.2327 97.5712 85.2327 97.745 85.1819V85.2745H98.0806C98.4971 85.2745 98.9021 85.6331 99.4923 85.1935C99.4585 85.2049 99.4219 85.2049 99.3881 85.1935C99.6311 85.1241 99.851 84.6613 99.8857 84.7192C99.8724 84.6922 99.8655 84.6625 99.8655 84.6324C99.8655 84.6023 99.8724 84.5726 99.8857 84.5456C99.9041 84.3577 99.8804 84.168 99.8163 83.9903C99.7469 83.5854 100.059 83.9903 99.8163 83.4003C99.7006 83.1574 99.2493 82.9491 99.3071 83.0417C99.365 83.1342 99.4691 83.2268 99.4344 83.2615C99.3853 83.2165 99.3309 83.1777 99.2724 83.1458C99.1567 83.2268 99.041 83.2846 99.1914 83.5738C99.2629 83.629 99.3287 83.691 99.3881 83.7589V83.8515C99.362 83.7876 99.331 83.7257 99.2956 83.6664C99.2956 83.7936 99.3766 83.8399 99.4344 83.9209C99.4259 83.959 99.4259 83.9985 99.4344 84.0366C99.4938 84.1115 99.5443 84.193 99.5848 84.2795C99.5848 84.2795 99.4923 84.1754 99.446 84.2795C99.3997 84.3837 99.5733 84.187 99.5848 84.3837C99.5964 84.5803 99.4691 84.3837 99.4576 84.5572C99.446 84.7307 99.4576 84.5572 99.4576 84.4762C99.4576 84.3952 99.3071 84.6845 99.3071 84.777C99.3071 84.8696 98.9021 84.939 98.8906 84.777C98.7822 84.8521 98.6519 84.8887 98.5203 84.8811C98.7748 84.7654 98.0111 84.8811 98.0921 84.6497C97.8838 84.7539 97.3747 84.5688 97.016 84.5688C97.0457 84.5571 97.0788 84.5571 97.1085 84.5688C96.9825 84.5305 96.8619 84.476 96.7498 84.4068C96.7498 84.5109 96.3795 84.4068 96.206 84.4993C95.9861 84.3374 96.3795 84.4068 96.3217 84.2795C96.3217 84.3721 95.8819 84.2795 95.9514 84.3721C95.7778 84.2564 95.801 84.3027 95.7315 84.187C95.6621 84.3142 95.5464 84.187 95.3728 84.187C95.1298 84.0482 95.3728 84.0366 95.0372 84.0135C94.7016 83.9903 95.1298 84.3721 95.1298 84.3721ZM87.481 83.007H87.7356C87.7356 83.007 87.7356 83.007 87.6661 83.007C87.5967 83.007 87.562 83.0417 87.481 83.007ZM88.6382 83.7936C88.534 83.7936 88.5109 83.7936 88.4993 83.7936H88.6613H88.6382Z" fill="#75297F"/>
<path d="M79.1958 81.9077V81.9307L79.2533 81.9077H79.1958Z" fill="#75297F"/>
<path d="M76.8351 77.8818C76.7541 77.8934 76.6847 77.905 76.8351 77.8818Z" fill="#75297F"/>
<path d="M82.0193 77.8586H81.8457C81.9383 77.9049 82.0077 77.9049 82.0193 77.8586Z" fill="#75297F"/>
<path d="M71.1068 78.4719V78.4604L71.0725 78.4719H71.1068Z" fill="#75297F"/>
<path d="M81.6027 77.8704C81.6833 77.8808 81.765 77.8808 81.8457 77.8704C81.7651 77.859 81.6833 77.859 81.6027 77.8704Z" fill="#75297F"/>
<path d="M98.0343 82.9607L98.0803 82.9952L98.0918 82.9837L98.0343 82.9607Z" fill="#75297F"/>
<path d="M98.2657 83.0532H98.15C98.15 83.0532 98.231 83.0648 98.2657 83.0532Z" fill="#75297F"/>
<path d="M96.4143 82.012C96.5228 82.0994 96.639 82.1768 96.7615 82.2433C96.7036 82.2318 96.53 82.012 96.4143 82.012Z" fill="#75297F"/>
<path d="M94.8868 80.8783L95.2108 81.0518C95.2108 81.0518 95.1067 80.9245 95.2108 80.9824C94.8868 80.7047 95.3613 81.0865 94.8868 80.8783Z" fill="#75297F"/>
<path d="M85.8722 78.0549V77.9859C85.7458 77.9744 85.8952 78.0204 85.8722 78.0549Z" fill="#75297F"/>
<path d="M84.241 78.1826L84.3798 78.252L84.4608 78.1942L84.241 78.1826Z" fill="#75297F"/>
<path d="M83.3731 77.5579L83.4426 77.5464H83.188L83.3731 77.5579Z" fill="#75297F"/>
<path d="M69.4293 78.1017V78.229C69.545 78.1364 69.545 78.0323 69.4293 78.1017Z" fill="#75297F"/>
<path d="M63.8982 80.7163C63.8393 80.7282 63.7834 80.7517 63.7337 80.7855C63.684 80.8192 63.6416 80.8626 63.6089 80.913C63.7246 80.8204 63.8519 80.7626 63.8982 80.7163Z" fill="#75297F"/>
<path d="M77.6336 82.7062L77.5063 82.7409L77.7378 82.6946L77.6336 82.7062Z" fill="#75297F"/>
<path d="M101.622 98.3932C101.622 95.6861 96.5532 88.93 85.294 88.4672C77.3444 88.1317 72.3686 91.5329 70.98 93.0022C70.0391 94.0727 69.3869 95.3655 69.0852 96.7582C68.7835 98.151 68.8422 99.5978 69.2558 100.962C70.413 105.311 72.2066 106.746 73.5952 107.683C74.9838 108.62 78.1659 109.048 85.3866 107.822C92.6073 106.596 101.622 101.089 101.622 98.3932Z" fill="white"/>
<path d="M88.615 100.418L82.0192 98.4743L87.886 93.8468C87.2899 92.4133 86.3126 91.1703 85.0602 90.2526C83.8077 89.3349 82.3278 88.7775 80.781 88.6409C77.0187 89.0668 73.4691 90.6056 70.5865 93.0601C69.6504 94.1311 69.0012 95.4219 68.6997 96.8118C68.3982 98.2018 68.4541 99.6455 68.8623 101.008C70.0195 105.358 71.8247 106.792 73.2132 107.741C74.3704 108.47 76.9161 108.898 81.6721 108.354C83.4185 107.747 84.9769 106.696 86.1942 105.305C87.4115 103.913 88.2458 102.229 88.615 100.418Z" fill="#7D3189"/>
<path d="M115.241 97.225C114.616 95.2583 115.125 92.4008 120.541 87.5651C125.575 83.0879 132.587 82.3823 135.781 83.4003C137.227 83.8746 139.252 86.0843 140.27 89.1847C141.428 92.6553 142.157 95.4203 140.051 98.9256C138.893 100.869 133.374 104.016 126.477 103.935C119.581 103.854 116.722 101.818 115.241 97.225Z" fill="white"/>
<path d="M125.065 104.051C126.751 103.707 128.308 102.9 129.561 101.721C130.814 100.542 131.714 99.0372 132.159 97.3754L126.026 95.5822L131.615 91.1861C130.909 89.589 129.671 88.2865 128.111 87.5015C126.551 86.7165 124.767 86.4977 123.064 86.8825C122.064 87.0462 121.086 87.3217 120.148 87.7039C114.732 92.5281 114.211 95.3971 114.848 97.3522C116.236 101.714 118.909 103.784 125.065 104.051Z" fill="#7D3189"/>
<path d="M143.325 77.3843C142.897 76.8406 139.854 79.004 136.926 80.5311C136.803 80.5185 136.679 80.5185 136.556 80.5311H136.22C137.378 78.9346 138.755 76.9794 138.407 76.7481C137.748 76.3085 133.779 79.1544 131.731 80.4617C131.175 80.8203 130.504 81.2136 129.821 81.6185C124.401 83.2969 119.689 86.7221 116.421 91.3594C116.005 91.961 116.85 92.8287 117.463 92.3891C120.139 90.2274 122.923 88.204 125.806 86.327C128.583 84.7421 131.592 83.4233 134.496 83.5158C137.736 83.6199 137.366 85.0776 137.968 84.8578C138.993 84.1648 139.883 83.2905 140.594 82.2779C142.191 80.3113 143.661 77.8008 143.325 77.3843Z" fill="#5B2467"/>
<path d="M101.425 95.5821C96.044 88.8954 87.2033 86.3271 79.0685 87.7269C78.513 87.6344 76.3723 87.3452 75.597 87.2757C73.2827 87.0559 71.79 85.9453 71.3734 86.4891C71.2114 86.7204 71.9751 87.9814 72.8082 88.8028C72.3845 88.832 71.9592 88.832 71.5354 88.8028C67.7862 88.4326 65.8769 88.0624 65.6339 88.4789C65.3909 88.8954 67.0803 90.0523 68.3416 90.7927C67.7399 90.9546 67.115 90.9546 66.5133 90.9546C63.7246 91.1282 61.1788 90.7927 61.0168 91.4521C60.9358 91.776 63.5857 93.6617 65.6455 94.4715C66.8026 94.969 68.7929 95.4317 69.4062 95.0384C69.5798 95.0384 77.3675 88.3169 87.5504 90.4109C92.2568 91.4562 96.6595 93.5699 100.418 96.5886C100.559 96.6578 100.718 96.6812 100.873 96.6555C101.028 96.6298 101.171 96.5564 101.281 96.4454C101.392 96.3344 101.466 96.1916 101.492 96.0367C101.517 95.8819 101.494 95.723 101.425 95.5821Z" fill="#5B2467"/>
<path d="M110.3 103.229C111.148 103.713 112.136 103.893 113.1 103.738C114.258 103.588 115.762 102.581 116.919 103.333C120.148 105.381 114.952 108.875 113.725 110.274C113.499 110.513 113.365 110.825 113.349 111.153C113.332 111.481 113.434 111.805 113.635 112.065C113.837 112.325 114.124 112.504 114.447 112.57C114.769 112.637 115.104 112.586 115.392 112.426C118.504 110.726 122.149 106.804 120.367 102.974C120.04 102.245 119.535 101.609 118.898 101.126C118.261 100.643 117.513 100.328 116.722 100.21C114.582 99.9203 112.834 101.366 110.763 101.459C110.562 101.469 110.37 101.543 110.213 101.669C110.057 101.796 109.945 101.969 109.894 102.164C109.842 102.358 109.854 102.564 109.927 102.751C110 102.938 110.131 103.098 110.3 103.206V103.229Z" fill="#5B2467"/>
<path d="M95.7432 124.192C96.125 123.81 99.5733 124.307 102.524 122.827C105.475 121.346 105.405 119.356 107.697 118.569C110.809 117.412 111.874 118.569 113.772 118.396C115.982 118.234 116.433 116.903 119.106 117.007C121.154 117.088 121.42 118.65 123.526 118.65C125.633 118.65 127.796 116.429 128.039 116.845C128.282 117.262 127.357 119.275 122.254 120.779C120.518 121.299 114.373 121.022 113.39 121.438C112.406 121.855 103.218 124.909 102.478 125.129C99.2378 125.962 95.0951 124.851 95.7432 124.192Z" fill="#B062A7"/>
<path d="M100.233 99.9205C95.0373 105.207 85.6296 108.308 79.8438 107.336C77.8419 106.989 76.9856 106.92 74.8449 106.573C73.7271 106.311 72.5777 106.21 71.4313 106.272C70.8759 106.434 69.7187 107.267 68.5037 107.857C66.1894 109.014 64.5231 109.129 64.5231 109.65C64.5231 110.344 70.8643 109.985 72.8315 109.43L73.4563 109.268C72.5537 110.205 70.251 112.23 70.6444 112.82C70.8296 113.097 74.4399 111.975 76.7426 110.772C77.2431 110.512 77.7297 110.226 78.2007 109.916H78.2701L77.8651 110.402C77.0666 111.42 75.9211 112.646 76.0021 112.924C76.2566 113.768 79.6124 112.114 81.0126 111.258L83.0607 109.997C90.4781 109.523 98.231 106.364 101.02 100.476C101.182 100.025 100.673 99.5156 100.233 99.9205Z" fill="#5B2467"/>
<path d="M97.6872 125.372C97.3516 125.372 101.622 130.867 105.232 130.381C108.842 129.895 110.323 128.322 112.371 128.16C114.42 127.998 117.544 128.576 119.754 127.176C121.964 125.777 124.927 119.715 124.603 119.958C124.279 120.2 114.304 121.566 112.29 121.762C110.277 121.959 104.41 125.869 97.6872 125.372Z" fill="#B062A7"/>
<path d="M101.101 124.747C101.101 124.747 103.947 130.647 105.81 133.713C107.673 136.779 110.624 140.654 114.119 139.613C117.613 138.572 120.136 133.597 120.472 129.884C120.807 126.17 120.691 120.802 120.032 120.628C119.372 120.455 113.899 122.04 111.828 122.156C109.756 122.271 101.216 123.764 101.101 124.747Z" fill="#E086B7"/>
<path d="M89.4482 121.554C92.1929 124.035 95.5471 125.744 99.1683 126.505C102.64 127.049 105.915 125.129 109.016 123.972C111.059 123.107 113.235 122.595 115.449 122.456C117.305 122.501 119.161 122.412 121.004 122.19C124.454 121.443 127.512 119.46 129.602 116.614C130.25 115.793 129.139 114.613 128.444 115.457C127.17 116.937 125.591 118.125 123.816 118.939C122.041 119.754 120.111 120.176 118.157 120.177C114.94 120.258 112.267 119.784 109.166 120.895C106.574 121.808 103.658 123.567 100.985 124.053C97.2011 124.747 93.4519 121.832 90.1193 120.478C89.5176 120.235 88.9622 121.149 89.4829 121.566L89.4482 121.554Z" fill="#5B2467"/>
<path d="M113.401 129.56C113.552 127.408 113.505 124.296 112.152 122.48C111.515 121.612 109.907 122.063 110.277 123.266C111.057 125.301 111.627 127.41 111.978 129.56C112 129.733 112.085 129.892 112.216 130.007C112.347 130.122 112.515 130.186 112.69 130.186C112.864 130.186 113.033 130.122 113.164 130.007C113.295 129.892 113.379 129.733 113.401 129.56Z" fill="#5B2467"/>
<path d="M90.5707 117.679C90.0944 118.274 89.5804 118.838 89.0317 119.368C88.4877 119.838 87.7949 120.1 87.0761 120.108C86.9241 120.088 86.7696 120.097 86.6214 120.136C86.4731 120.176 86.334 120.244 86.2121 120.336C86.0901 120.429 85.9877 120.545 85.9106 120.678C85.8335 120.81 85.7832 120.957 85.7627 121.109C85.7422 121.261 85.7518 121.415 85.791 121.563C85.8302 121.712 85.8982 121.851 85.9912 121.973C86.0841 122.094 86.2002 122.197 86.3327 122.274C86.4652 122.351 86.6117 122.401 86.7636 122.422C89.2052 123.255 91.2187 120.814 92.1907 118.951C92.6998 117.968 91.3807 116.776 90.5707 117.702V117.679Z" fill="#5B2467"/>
<path d="M127.623 114.162C127.722 114.945 128.085 115.672 128.653 116.221C129.278 116.757 130.013 117.152 130.805 117.378C132.17 117.783 132.737 115.504 131.384 115.284C130.827 115.194 130.297 114.98 129.833 114.659C129.356 114.361 128.914 114.012 128.514 113.618C128.12 113.19 127.542 113.618 127.623 114.127V114.162Z" fill="#5B2467"/>
<path d="M144.529 97.6182C144.007 97.4155 143.473 97.2417 142.932 97.0976C143.43 96.9703 143.939 96.8315 144.309 96.7505C146.172 96.3109 148.139 96.4729 148.035 95.9292C147.931 95.3854 142.11 93.3493 141.462 93.6154C141.208 93.7427 141.462 94.9111 140.444 96.3225C135.896 102.639 126.767 104.594 118.238 102.107C117.694 101.956 117.475 102.662 117.88 102.963C122.207 106.225 128.456 106.191 133.825 104.12C134.508 104.293 135.781 104.398 136.764 104.606C138.303 104.93 139.889 105.265 140.109 104.988C140.328 104.71 139.449 103.565 138.685 102.963C138.384 102.721 138.062 102.504 137.725 102.315C138.755 102.512 140.039 102.674 140.757 102.743C142.18 102.917 144.807 103.298 145.084 102.963C145.362 102.627 143.707 100.996 142.677 100.291L142.076 99.9088H143.001C145.466 99.9088 148.093 100.117 148.197 99.7353C148.301 99.3535 145.35 97.9537 144.529 97.6182Z" fill="#5B2467"/>
<path d="M53.3217 117.054C51.424 115.48 52.7894 112.334 50.1627 111.154C49.7188 110.962 49.2404 110.863 48.7567 110.863C48.2731 110.863 47.7947 110.962 47.3508 111.154C46.3209 111.57 45.7424 113.039 44.9092 113.352C43.3933 113.953 42.8495 112.195 41.7965 111.639C41.0212 111.246 40.3732 111.57 39.5979 111.454C35.6172 110.876 32.7475 105.925 31.9143 101.864C33.0405 102.454 34.2882 102.775 35.5594 102.801C36.3115 102.801 36.7165 101.644 35.9644 101.309C34.1689 100.423 32.4263 99.4344 30.7456 98.347C30.5922 98.261 30.419 98.2162 30.2431 98.2171C30.0672 98.2179 29.8945 98.2642 29.7419 98.3516C29.5892 98.439 29.4618 98.5644 29.3721 98.7156C29.2823 98.8669 29.2333 99.0388 29.2297 99.2146C29.6926 102.998 31.9028 106.838 34.1129 109.893C34.7735 111.06 35.6917 112.061 36.7975 112.82C38.5101 113.676 39.9797 112.553 41.6345 113.976C42.456 114.705 42.5255 115.862 43.7752 116.29C45.0249 116.718 45.4068 116.117 46.2978 115.527L46.8995 114.89C48.6468 113.629 48.9477 113.733 49.2138 115.492C49.4221 115.966 49.3527 116.579 49.5263 117.088C49.6627 117.649 49.9508 118.162 50.3589 118.57C50.7671 118.978 51.2797 119.266 51.8406 119.402C53.2292 119.772 54.3863 117.968 53.3217 117.054Z" fill="#5B2467"/>
<path d="M41.0212 110.182C41.6314 110.425 42.2855 110.54 42.9421 110.517C43.4397 110.517 44.2728 110.205 44.7357 110.517C45.1986 110.83 45.187 111.235 45.2911 111.605C45.4498 112.216 45.6509 112.815 45.8929 113.398C46.5062 114.798 48.9709 113.78 48.3807 112.357C47.7906 110.934 47.8485 109.164 46.3789 108.25C45.7034 107.859 44.9225 107.689 44.1456 107.764C43.1735 107.833 42.2478 108.319 41.2758 108.308C40.1187 108.308 40.0608 109.846 41.0212 110.24V110.182Z" fill="#5B2467"/>
<path d="M63.9677 46.0562C65.0195 41.9631 66.3931 37.9594 68.0756 34.0825C69.5636 30.6394 71.5522 27.435 73.9771 24.573C73.7629 23.5279 73.8003 22.4469 74.0859 21.4191C74.3716 20.3913 74.8975 19.4461 75.6202 18.6613C78.085 16.1972 81.8573 17.678 83.3269 18.9852C84.7965 20.2925 85.7916 23.7516 84.808 25.3828C84.2724 26.351 83.4452 27.1259 82.444 27.5973C81.4427 28.0688 80.3183 28.2128 79.2305 28.0089C79.2305 28.0089 76.4418 30.473 73.8151 37.53C71.9289 42.5856 72.8315 47.8609 72.3339 49.3417C71.8363 50.8225 68.0756 50.4986 66.5481 50.1631C65.0207 49.8276 63.9677 49.307 63.9677 46.0562Z" fill="#F1562F"/>
<path d="M57.013 92.8634C57.5554 97.1412 56.7462 101.481 54.6987 105.277C52.9861 108.377 52.0604 108.377 51.2851 108.377C50.5098 108.377 49.885 102.327 49.885 102.327C49.885 102.327 49.7345 106.954 48.1724 107.452C46.6102 107.949 46.4714 102.176 45.8581 100.314C45.2448 98.4511 41.3567 95.5011 43.2197 91.4636C45.0828 87.4261 56.3882 87.9004 57.013 92.8634Z" fill="#75297F"/>
<path d="M54.2475 140.7C54.237 140.685 54.2314 140.667 54.2314 140.648C54.2314 140.63 54.237 140.612 54.2475 140.596C54.2438 140.631 54.2438 140.666 54.2475 140.7Z" fill="#75297F"/>
<path d="M4.13104 54.86L4.31619 54.2931C4.40978 54.0258 4.56241 53.783 4.76274 53.5827C4.96306 53.3824 5.20594 53.2298 5.47334 53.1362L5.95935 52.9858C6.24864 52.9049 6.3875 52.7198 6.37593 52.5115C6.36436 52.3033 6.24864 52.1182 5.95935 52.0372L5.47334 51.8868C5.20594 51.7932 4.96306 51.6406 4.76274 51.4404C4.56241 51.2401 4.40978 50.9973 4.31619 50.7299L4.13104 50.1631C4.03847 49.8854 3.8649 49.7466 3.66818 49.7466C3.47146 49.7466 3.29789 49.8854 3.20532 50.1631L3.02017 50.7299C2.92584 50.9969 2.77296 51.2393 2.57273 51.4395C2.37251 51.6397 2.13001 51.7925 1.86302 51.8868L1.36544 52.0372C1.08772 52.1182 0.937292 52.3033 0.948864 52.5115C0.960435 52.7198 1.08772 52.9049 1.36544 52.9858L1.86302 53.1362C2.13001 53.2305 2.37251 53.3834 2.57273 53.5836C2.77296 53.7837 2.92584 54.0262 3.02017 54.2931L3.20532 54.86C3.29789 55.1376 3.47146 55.2765 3.66818 55.2765C3.8649 55.2765 4.03847 55.0914 4.13104 54.86Z" fill="#75297F"/>
<path d="M87.6662 157.822L87.8629 157.244C87.9587 156.978 88.1121 156.736 88.3121 156.536C88.5122 156.336 88.7539 156.183 89.0201 156.087L89.5177 155.948C89.7954 155.856 89.9458 155.67 89.9342 155.462C89.9227 155.254 89.7954 155.08 89.5177 154.988L89.0201 154.837C88.7531 154.743 88.5106 154.59 88.3104 154.39C88.1101 154.19 87.9573 153.948 87.8629 153.681L87.6662 153.114C87.6449 153.005 87.5896 152.907 87.5085 152.832C87.4274 152.757 87.3246 152.71 87.2149 152.697C87.1044 152.711 87.0008 152.758 86.918 152.833C86.8352 152.907 86.7773 153.005 86.7521 153.114L86.5669 153.681C86.4719 153.947 86.3187 154.189 86.1186 154.389C85.9185 154.589 85.6763 154.742 85.4098 154.837L84.9238 154.988C84.6345 155.08 84.4956 155.254 84.4956 155.462C84.5016 155.58 84.5472 155.692 84.6249 155.78C84.7027 155.868 84.808 155.927 84.9238 155.948L85.4098 156.087C85.6752 156.184 85.9162 156.338 86.116 156.538C86.3159 156.738 86.4697 156.978 86.5669 157.244L86.7521 157.822C86.7773 157.931 86.8352 158.029 86.918 158.103C87.0008 158.178 87.1044 158.225 87.2149 158.239C87.3246 158.226 87.4274 158.179 87.5085 158.104C87.5896 158.029 87.6449 157.931 87.6662 157.822Z" fill="#75297F"/>
<path d="M61.3293 6.88428L61.526 6.30584C61.6275 6.05095 61.7837 5.82145 61.9837 5.63355C62.1836 5.44564 62.4224 5.30392 62.6831 5.21838L63.1807 5.06798C63.4584 4.97543 63.6089 4.79033 63.5973 4.58209C63.5857 4.37386 63.4584 4.20032 63.1807 4.10777L62.6831 3.95738C62.422 3.8692 62.1832 3.7252 61.9834 3.5354C61.7835 3.3456 61.6274 3.11456 61.526 2.85835L61.3293 2.29148C61.3057 2.176 61.2437 2.07192 61.1533 1.99627C61.0629 1.92062 60.9495 1.87786 60.8317 1.875C60.7212 1.88869 60.6175 1.93597 60.5347 2.01045C60.4519 2.08494 60.394 2.18303 60.3688 2.29148L60.1721 2.85835C60.077 3.12487 59.9239 3.36693 59.7238 3.56701C59.5236 3.76709 59.2815 3.92019 59.0149 4.01522L58.5289 4.16562C58.2396 4.25817 58.1008 4.4317 58.1124 4.63994C58.1239 4.84818 58.2396 5.03328 58.5289 5.12583L59.0149 5.27622C59.2749 5.36316 59.513 5.50539 59.7128 5.69312C59.9125 5.88085 60.0692 6.10962 60.1721 6.36369L60.3572 6.94213C60.3825 7.05057 60.4404 7.14867 60.5232 7.22315C60.6059 7.29763 60.7096 7.34491 60.8201 7.3586C60.9486 7.35625 61.0716 7.30652 61.1656 7.21897C61.2596 7.13141 61.3179 7.01221 61.3293 6.88428Z" fill="#75297F"/>
<path d="M148.602 125.476L148.799 124.897C148.894 124.631 149.048 124.39 149.248 124.19C149.448 123.99 149.69 123.836 149.956 123.74L150.453 123.602C150.731 123.509 150.882 123.324 150.87 123.116C150.858 122.908 150.731 122.722 150.453 122.641L149.956 122.491C149.689 122.397 149.446 122.244 149.246 122.044C149.046 121.844 148.893 121.601 148.799 121.334L148.602 120.767C148.582 120.658 148.528 120.559 148.446 120.483C148.365 120.408 148.261 120.362 148.151 120.351C147.954 120.351 147.78 120.501 147.688 120.767L147.503 121.334C147.408 121.601 147.255 121.843 147.054 122.043C146.854 122.243 146.612 122.396 146.346 122.491L145.86 122.641C145.745 122.66 145.64 122.717 145.562 122.803C145.484 122.889 145.438 123 145.431 123.116C145.437 123.233 145.483 123.345 145.561 123.433C145.638 123.522 145.744 123.581 145.86 123.602L146.346 123.74C146.611 123.838 146.852 123.991 147.052 124.191C147.252 124.391 147.406 124.632 147.503 124.897L147.688 125.476C147.713 125.584 147.771 125.682 147.854 125.757C147.937 125.831 148.04 125.879 148.151 125.892C148.26 125.88 148.363 125.832 148.444 125.758C148.525 125.683 148.581 125.584 148.602 125.476Z" fill="#75297F"/>
<path d="M16.663 128.368C17.5257 128.368 18.2252 127.669 18.2252 126.806C18.2252 125.944 17.5257 125.244 16.663 125.244C15.8002 125.244 15.1008 125.944 15.1008 126.806C15.1008 127.669 15.8002 128.368 16.663 128.368Z" fill="#75297F"/>
<path d="M143.383 24.9778C144.246 24.9778 144.945 24.2786 144.945 23.416C144.945 22.5535 144.246 21.8542 143.383 21.8542C142.52 21.8542 141.821 22.5535 141.821 23.416C141.821 24.2786 142.52 24.9778 143.383 24.9778Z" fill="#75297F"/>
<path d="M148.359 137.531C149.222 137.531 149.921 136.831 149.921 135.969C149.921 135.106 149.222 134.407 148.359 134.407C147.496 134.407 146.797 135.106 146.797 135.969C146.797 136.831 147.496 137.531 148.359 137.531Z" fill="#75297F"/>
<path d="M159.005 77.2225C159.554 77.2225 160 76.7771 160 76.2276C160 75.6781 159.554 75.2327 159.005 75.2327C158.455 75.2327 158.01 75.6781 158.01 76.2276C158.01 76.7771 158.455 77.2225 159.005 77.2225Z" fill="#75297F"/>
<path d="M0.995154 91.2323C1.54476 91.2323 1.99031 90.7868 1.99031 90.2373C1.99031 89.6879 1.54476 89.2424 0.995154 89.2424C0.445546 89.2424 0 89.6879 0 90.2373C0 90.7868 0.445546 91.2323 0.995154 91.2323Z" fill="#75297F"/>
<path d="M39.9914 141.302C40.541 141.302 40.9865 140.856 40.9865 140.307C40.9865 139.757 40.541 139.312 39.9914 139.312C39.4418 139.312 38.9962 139.757 38.9962 140.307C38.9962 140.856 39.4418 141.302 39.9914 141.302Z" fill="#75297F"/>
<path d="M71.142 146.647C71.6916 146.647 72.1372 146.201 72.1372 145.652C72.1372 145.102 71.6916 144.657 71.142 144.657C70.5924 144.657 70.1469 145.102 70.1469 145.652C70.1469 146.201 70.5924 146.647 71.142 146.647Z" fill="#75297F"/>
<path d="M147.676 33.5504C148.226 33.5504 148.671 33.1049 148.671 32.5555C148.671 32.006 148.226 31.5605 147.676 31.5605C147.127 31.5605 146.681 32.006 146.681 32.5555C146.681 33.1049 147.127 33.5504 147.676 33.5504Z" fill="#75297F"/>
<path d="M133.814 140.214C134.363 140.214 134.809 139.769 134.809 139.22C134.809 138.67 134.363 138.225 133.814 138.225C133.264 138.225 132.818 138.67 132.818 139.22C132.818 139.769 133.264 140.214 133.814 140.214Z" fill="#75297F"/>
<path d="M12.3469 47.19C13.1266 47.19 13.7586 46.5581 13.7586 45.7786C13.7586 44.9991 13.1266 44.3672 12.3469 44.3672C11.5672 44.3672 10.9352 44.9991 10.9352 45.7786C10.9352 46.5581 11.5672 47.19 12.3469 47.19Z" fill="#75297F"/>
</g>
<defs>
<clipPath id="clip0_3304_3181">
<rect width="160" height="156.364" fill="white" transform="translate(0 1.875)"/>
</clipPath>
</defs>
</svg>
