<svg width="160" height="157" viewBox="0 0 160 157" fill="none" xmlns="http://www.w3.org/2000/svg">
<g clip-path="url(#clip0_3212_1564)">
<path d="M113.031 32.2075C113.031 32.2075 114.015 25.81 115.982 22.3625C117.27 20.1613 118.934 18.2034 120.9 16.5781C120.851 15.5351 121.146 14.5049 121.74 13.6459C122.333 12.7869 123.193 12.1466 124.186 11.8233C127.299 10.6664 129.763 12.9802 130.747 15.5947C131.731 18.2093 131.083 21.0089 128.433 21.6568C127.237 21.9286 125.989 21.8726 124.822 21.4948C123.273 22.2284 122.006 23.4468 121.212 24.9654C119.731 27.5916 119.893 35.9558 119.407 37.1011C118.921 38.2464 113.691 36.4764 113.031 32.2075Z" fill="#F1562F"/>
<path d="M134.693 46.9693C137.806 48.612 140.595 51.724 140.919 58.781C141.243 65.8379 137.447 73.3808 137.806 75.683C138.165 77.9852 139.773 85.8982 134.693 84.4753C129.613 83.0523 116.803 68.4641 118.933 55.5533C121.062 42.6425 131.569 45.3265 134.693 46.9693Z" fill="#75297F"/>
<path d="M54.3864 109.996C59.6399 113.05 63.7826 125.949 72.0909 129.883C80.3993 133.816 91.8783 135.667 96.0325 138.085C100.187 140.503 105.926 143.661 114.015 142.354C122.103 141.047 125.783 133.92 128.849 129.327C131.916 124.735 140.016 118.545 141.856 111.28C143.882 103.155 143.065 94.582 139.542 86.9857C138.257 84.2203 137.159 81.3718 136.255 78.4595C135.596 76.0532 137.783 71.2406 134.948 65.7338C132.113 60.2271 123.376 32.0455 103.878 27.0131C84.3799 21.9807 54.9997 28.332 41.056 42.6194C23.7681 60.3428 29.8894 84.6256 35.5827 98.1496C40.1766 109.117 49.1445 106.93 54.3864 109.996Z" fill="#F1562F"/>
<path d="M90.2582 108.978C91.1955 113.131 85.2709 120.327 79.3115 121.704C73.3522 123.08 66.849 121.704 65.7497 115.468C64.7314 109.684 70.2394 105.843 76.1641 104.501C82.0887 103.159 89.3325 104.825 90.2582 108.978Z" fill="#F37769"/>
<path d="M135.214 92.5503C129.173 93.3832 123.064 97.5017 123.642 101.713C124.221 105.924 132.298 110.586 138.338 109.811C140.652 109.499 141.624 109.151 142.967 107.208C143.615 103.737 143.638 97.0274 141.809 92.7816C139.641 92.3197 137.409 92.2414 135.214 92.5503Z" fill="#F37769"/>
<path d="M39.7369 117.076C39.7369 117.076 28.4199 122.687 17.3575 108.816C7.08192 95.9168 9.98638 90.4447 11.7337 89.2994C12.7751 88.6169 15.02 89.2994 15.02 89.2994C15.02 89.2994 5.39247 84.4521 6.21405 71.4141C6.79263 62.0781 10.646 57.358 14.3141 55.831C15.3664 55.3984 16.5271 55.3029 17.636 55.5578C18.7448 55.8127 19.7473 56.4053 20.5049 57.2539C19.2162 49.4861 20.5817 41.5108 24.3814 34.6138C30.7226 23.4615 34.6569 20.6156 39.6906 21.275C44.7242 21.9344 44.7242 31.5481 44.7242 31.5481C44.7242 31.5481 49.7578 16.902 57.4645 14.9237C65.1712 12.9455 66.2126 20.3958 66.2126 20.3958C68.2573 14.1716 72.244 8.76676 77.5874 4.97459C86.2893 -0.925491 89.24 8.90797 89.24 8.90797C89.24 8.90797 93.7298 2.68397 100.557 4.1532C107.384 5.62244 102.524 17.4457 102.524 17.4457C102.524 17.4457 107.292 14.3222 111.55 16.6244C115.808 18.9265 113.864 31.3977 113.864 31.3977C113.864 31.3977 124.209 23.5078 131.222 27.7767C138.234 32.0455 130.238 38.929 130.238 38.929C130.238 38.929 137.945 32.705 143.036 39.1025C148.128 45.5 146.311 52.2215 140.409 55.669C132.714 60.1461 120.229 56.6523 120.229 56.6523C120.229 56.6523 125.482 58.6769 124.001 61.5691C122.936 63.663 116.017 66.1156 111.527 65.0397C106.215 63.8828 106.215 62.5524 106.215 62.5524C106.412 63.1058 106.487 63.6951 106.435 64.2801C106.383 64.865 106.206 65.4319 105.915 65.9421C104.491 68.95 99.747 68.9962 95.3035 68.9962C84.8081 68.9962 79.5546 62.5987 79.5546 62.5987C79.6955 63.7411 79.5209 64.9003 79.0497 65.9506C78.5785 67.0008 77.8287 67.9021 76.8816 68.5566C73.6068 70.6968 67.6243 68.0707 65.9349 67.1452C64.2454 66.2197 58.7837 58.8273 58.7837 58.8273C58.7837 58.8273 62.0006 64.2993 61.017 67.1452C60.9171 67.5174 60.7436 67.8658 60.5066 68.1698C60.2696 68.4737 59.9741 68.727 59.6374 68.9147C59.3008 69.1024 58.9299 69.2207 58.5467 69.2625C58.1635 69.3043 57.7759 69.2689 57.4066 69.1582C58.7356 71.3057 59.2259 73.8677 58.7837 76.354C58.0662 80.6229 55.1039 81.2823 55.1039 81.2823C56.3981 83.1879 57.1938 85.3874 57.4182 87.6798C58.7837 100.776 50.7877 110.401 39.7369 117.076Z" fill="#75297F"/>
<path d="M47.1774 102.523C47.1774 102.523 47.0732 97.6058 43.7059 95.5813C40.3386 93.5567 32.6782 91.3934 29.6927 89.7275C26.7073 88.0615 21.9051 83.7117 20.4355 84.5909C18.9659 85.4701 21.0951 98.8089 26.7883 109.741C32.4815 120.674 46.4599 126.481 52.4887 127.465C58.5175 128.448 60.4731 124.179 61.2253 120.466C61.9774 116.752 65.1133 101.875 47.1774 102.523Z" fill="#F1562F"/>
<path d="M47.9409 129.848C47.9409 129.848 54.0738 117.921 55.1616 118.14C56.2493 118.36 53.4143 126.389 53.854 126.377C54.2937 126.366 59.0959 127.002 58.7719 127.766C58.4479 128.529 55.7054 139.034 55.0574 138.918C54.4094 138.802 54.6177 130.716 53.9581 130.612C53.2986 130.507 48.2765 130.612 47.9409 129.848Z" fill="white"/>
<path d="M114.073 80.3799C116.232 76.7956 119.235 73.7932 122.821 71.6339C128.236 68.4062 131.534 67.8393 133.235 67.9087C134.936 67.9782 135.549 68.8458 135.781 69.5052C136.041 70.3416 136.041 71.2371 135.781 72.0735C135.662 72.3968 135.48 72.6933 135.246 72.9455C135.012 73.1978 134.729 73.4008 134.415 73.5427C133.652 73.9245 129.104 74.098 125.505 75.8565C121.906 77.6149 115.855 82.2077 114.559 82.4738C113.899 82.5895 113.401 81.4211 114.073 80.3799Z" fill="#75297F"/>
<path d="M114.234 80.484C114.234 80.484 114.165 80.484 114.142 80.484V80.5766L114.234 80.484Z" fill="#75297F"/>
<path d="M113.853 80.8774C113.853 80.993 113.934 81.1087 114.026 81.0625C114.119 81.0162 114.026 80.9583 113.922 80.8311C113.818 80.7038 114.003 80.7154 114.026 80.7385C114.049 80.7617 114.096 80.6344 114.026 80.5766C113.97 80.6107 113.926 80.661 113.899 80.7209C113.872 80.7808 113.864 80.8475 113.876 80.9121C113.876 80.9121 113.864 80.8889 113.853 80.8774Z" fill="#75297F"/>
<path d="M119.696 79.5122H119.824C119.824 79.5122 119.754 79.4891 119.696 79.5122Z" fill="#75297F"/>
<path d="M117.925 80.7848L117.891 80.8078L117.879 80.8537L117.925 80.7848Z" fill="#75297F"/>
<path d="M116.514 81.6987C116.514 81.6987 116.514 81.6062 116.514 81.5715C116.526 81.6012 116.526 81.6343 116.514 81.664V81.6987Z" fill="#75297F"/>
<path d="M114.049 80.3679L114.061 80.345L114.026 80.3105L114.049 80.3679Z" fill="#75297F"/>
<path d="M135.734 68.6839C135.734 68.869 135.491 68.4988 135.584 68.7648C135.596 68.7186 135.827 68.8921 135.734 68.6839Z" fill="#75297F"/>
<path d="M135.584 68.7648L135.595 68.7867L135.584 68.7648Z" fill="#75297F"/>
<path d="M132.077 74.2368L132.043 74.2253L132.008 74.2368H132.077Z" fill="#75297F"/>
<path d="M118.18 75.683H118.03C118.03 75.683 118.03 75.8681 118.18 75.683Z" fill="#75297F"/>
<path d="M131.511 73.6816C131.553 73.6919 131.596 73.6919 131.638 73.6816H131.511Z" fill="#75297F"/>
<path d="M117.208 76.8861C117.359 76.7357 117.208 76.7473 117.208 76.6663C117.208 76.5853 117.347 76.6663 117.44 76.6663C117.532 76.6663 117.532 76.3655 117.625 76.2845C117.625 76.0994 117.972 75.9143 118.03 75.6945C117.979 75.6844 117.933 75.6555 117.903 75.6136C117.972 75.5441 117.984 75.44 118.065 75.4632C118.055 75.479 118.051 75.4969 118.051 75.5152C118.051 75.5335 118.055 75.5514 118.065 75.5673V75.4747C118.203 75.4747 117.995 75.5904 118.065 75.6483C118.164 75.4794 118.285 75.3239 118.423 75.1855C118.516 75.1855 118.192 75.4516 118.423 75.3706L118.227 75.5094C118.47 75.5094 118.122 75.602 118.354 75.602C118.585 75.4169 118.562 75.3359 118.805 75.1392C118.805 75.0582 118.724 75.1392 118.747 75.012C119.002 74.6418 119.164 75.012 119.314 74.6533C119.314 74.5492 119.314 74.4335 119.488 74.341V74.4682C119.719 74.2831 119.488 74.2369 119.8 74.098C119.8 74.1675 119.65 74.2716 119.685 74.26C119.904 74.1906 119.754 74.1212 119.881 74.0171L119.962 74.0749C120.194 73.8551 120.425 73.589 120.691 73.3692C120.691 73.3692 120.691 73.4618 120.749 73.4386C121.098 73.1389 121.488 72.8897 121.906 72.6982L121.987 72.5363C122.138 72.4784 121.987 72.5363 121.987 72.4206C121.987 72.3049 122.115 72.4206 122.08 72.4206C122.341 72.1361 122.661 71.9113 123.017 71.7611C123.237 71.6686 123.156 71.4719 123.399 71.4257C123.824 71.1578 124.278 70.9404 124.753 70.7778C124.753 70.6274 125.239 70.5811 125.193 70.4192C125.409 70.3969 125.623 70.3503 125.829 70.2803C125.933 70.2803 125.933 70.1184 126.049 70.0374V70.1184L126.176 69.9448H126.315L126.419 69.8639H126.304C126.448 69.7612 126.626 69.7197 126.801 69.7482L127.206 69.4937C127.206 69.4937 127.137 69.5747 127.09 69.6209C127.287 69.4358 127.171 69.6903 127.357 69.5168C127.357 69.5168 127.357 69.459 127.357 69.4358C127.549 69.4148 127.735 69.3516 127.9 69.2507V69.3201C128.236 69.2044 128.595 69.0309 128.965 68.8921C128.826 68.8921 128.815 68.7995 128.965 68.7533L129.034 68.8342C129.034 68.7533 128.907 68.8342 129.034 68.7186C129.162 68.6029 129.162 68.788 129.034 68.8458L129.196 68.7533C129.196 68.7533 129.196 68.8111 129.196 68.8458C129.196 68.8805 129.52 68.8458 129.59 68.707C129.96 68.6029 130.134 68.5219 130.435 68.4409C130.435 68.3599 130.55 68.3484 130.631 68.2558C130.895 68.2479 131.157 68.2247 131.418 68.1864C131.603 68.117 131.418 68.117 131.545 68.0476C131.673 67.9782 131.846 68.0476 131.707 68.1517L132.552 67.9897C132.552 67.9897 132.46 67.9897 132.483 67.9897C132.506 67.9897 132.656 67.9897 132.645 67.9897C133.131 67.8509 133.709 68.2327 134.068 68.1864C134.195 68.1864 134.311 68.1864 134.438 68.1864C134.566 68.1864 134.334 68.1864 134.438 68.2905C134.843 68.2905 134.936 68.6029 135.167 68.788C135.167 69.0772 135.584 69.5515 135.48 69.9448C135.48 70.0258 135.48 70.0605 135.48 70.1299C135.48 70.1994 135.48 70.0258 135.549 70.1299C135.633 70.5111 135.633 70.9057 135.549 71.2868C135.512 71.4662 135.446 71.6381 135.353 71.7959C135.267 71.9593 135.166 72.1143 135.052 72.2586C134.89 72.4437 135.179 72.5594 134.843 72.7098V72.571C134.681 72.7947 134.456 72.9641 134.195 73.0569C133.975 73.1378 133.64 73.1957 133.362 73.2882C133.362 73.2882 133.362 73.2882 133.443 73.2188C133.304 73.2188 132.98 73.2998 132.98 73.3576C132.98 73.4155 132.98 73.3576 132.888 73.2882C132.795 73.2188 132.575 73.4271 132.506 73.3692C132.506 73.3692 132.112 73.3692 132.205 73.4849C131.974 73.4849 131.777 73.589 131.58 73.5774C131.383 73.5659 131.187 73.5774 131.164 73.7394C131.164 73.6006 130.747 73.7394 130.62 73.7394C130.492 73.7394 130.481 73.7394 130.527 73.6584C130.365 73.6584 130.215 73.7394 130.261 73.7973C129.925 73.7163 129.671 74.0518 129.463 73.8898L128.12 74.3873C128.12 74.26 128.595 74.2484 128.548 74.1212C128.219 74.2952 127.874 74.4385 127.519 74.5492C127.414 74.5492 127.519 74.4798 127.6 74.4451C127.206 74.5785 126.82 74.7329 126.442 74.9079C126.442 74.9079 126.442 74.9079 126.512 74.8384C126.581 74.769 126.338 74.8384 126.373 74.9426C126.512 74.9426 126.165 75.2202 126.165 75.2665C126.165 75.0582 125.806 75.3706 125.91 75.093C125.91 75.093 125.818 75.1739 125.841 75.2086C125.748 75.2086 125.864 75.2434 125.841 75.2086C125.609 75.3475 125.713 75.359 125.494 75.4632C125.494 75.4632 125.494 75.4632 125.494 75.359C125.403 75.4888 125.273 75.5861 125.123 75.6367C124.861 75.8404 124.582 76.0223 124.29 76.1804C124.29 76.0185 124.151 76.1804 124.082 76.1804L123.92 76.3077H124.012C123.85 76.3887 123.758 76.5391 123.607 76.5853L123.7 76.4812L123.411 76.6663L123.596 76.6085C123.469 76.7473 123.688 76.7126 123.469 76.8167C123.469 76.8167 123.307 76.8977 123.191 76.8977C123.131 76.9861 123.047 77.0546 122.948 77.0944C122.948 77.0944 122.948 76.9787 122.878 76.9671C122.809 76.9555 122.531 77.21 122.485 77.3489C122.496 77.3381 122.501 77.3235 122.501 77.3084C122.501 77.2932 122.496 77.2787 122.485 77.2679V77.3604C122.392 77.3604 122.381 77.3604 122.369 77.3604C122.149 77.4877 122.508 77.4298 122.219 77.5455C121.941 77.6844 121.744 77.8926 121.49 78.0083C121.235 78.124 121.686 77.8579 121.559 77.8348C121.253 78.0987 120.932 78.3458 120.599 78.5752H120.668C120.668 78.7371 120.379 78.6677 120.263 78.8412C120.263 78.8412 120.263 78.7371 120.263 78.7603C119.998 78.9288 119.75 79.1225 119.523 79.3387C119.352 79.4264 119.186 79.5229 119.025 79.6279C119.025 79.6279 118.921 79.732 119.025 79.7436C118.47 79.8477 118.261 80.3915 117.775 80.484C117.775 80.484 117.868 80.3915 117.775 80.4146L117.474 80.6575C117.532 80.6575 117.532 80.6575 117.636 80.6575C117.595 80.7393 117.53 80.8075 117.451 80.8542C117.579 80.727 117.451 80.7732 117.312 80.7848C117.081 80.7848 117.312 80.9121 117.081 80.993C117.01 81.0721 116.932 81.1456 116.85 81.2128C116.769 81.2128 116.919 81.1203 116.85 81.0624C116.78 81.0046 116.664 81.3517 116.502 81.3632C116.502 81.3632 116.63 81.2591 116.676 81.2013C116.572 81.1978 116.47 81.2305 116.387 81.2938L116.132 81.3979H116.202C116.144 81.6756 115.889 81.6409 115.727 81.8954C115.878 81.6525 115.727 81.8028 115.727 81.7219C115.727 81.6409 115.565 81.7219 115.577 81.7219C115.588 81.7219 115.368 81.7797 115.264 81.9532C115.264 81.9532 115.149 81.9532 115.137 81.9532C115.125 81.9532 115.137 81.9532 115.206 81.9532C115.033 82.1615 114.639 82.1383 114.385 82.3582C114.13 82.578 114.096 82.5895 113.818 82.4507C113.818 82.3581 113.945 82.4507 113.945 82.4507C113.945 82.4507 113.795 82.2772 113.702 82.1615C113.61 82.0458 113.702 82.1615 113.76 82.0921C113.818 82.0227 113.621 82.0921 113.633 81.907C113.68 81.9278 113.726 81.9509 113.772 81.9764C113.695 81.8727 113.64 81.7547 113.61 81.6293C113.61 81.6293 113.679 81.7103 113.725 81.745C113.772 81.7797 113.725 81.3748 113.61 81.317C113.494 81.2591 113.61 81.317 113.61 81.4095C113.61 81.5021 113.679 81.4095 113.679 81.4095V81.5946V81.5021C113.517 81.6062 113.679 81.907 113.795 82.0689H113.656C113.708 82.1255 113.766 82.176 113.829 82.2193C113.829 82.2193 113.829 82.335 113.714 82.2193C113.714 82.3929 113.818 82.3119 113.853 82.4623C113.892 82.5001 113.939 82.5279 113.991 82.5433C113.991 82.5433 113.991 82.6358 113.887 82.5433C114.119 82.8093 114.385 82.6242 114.477 82.6937C114.836 82.5317 114.477 82.5895 114.72 82.416L114.975 82.5317V82.4391H115.079C115.079 82.4391 115.079 82.4391 115.079 82.3234C115.079 82.2078 115.496 82.0458 115.6 82.1499C115.6 82.0689 115.426 82.1499 115.6 82.0574C115.727 82.1615 115.773 81.9185 115.959 81.8954C115.959 81.988 115.797 82.0342 115.959 82.0111C116.121 81.9879 116.248 81.8723 116.364 81.7797C116.479 81.6872 116.595 81.5715 116.769 81.4211C116.98 81.3457 117.185 81.2528 117.382 81.1434C117.382 81.0277 117.555 80.9236 117.683 80.8195C117.81 80.7154 117.683 80.9121 117.683 80.9815L117.81 80.9005C117.81 80.9005 117.81 80.8079 117.926 80.7385V80.8311C118.089 80.6735 118.272 80.5374 118.47 80.4262C118.47 80.3567 118.18 80.4262 118.389 80.1717C118.406 80.1907 118.415 80.2155 118.415 80.2411C118.415 80.2667 118.406 80.2914 118.389 80.3105C118.412 80.2686 118.448 80.2359 118.493 80.2179V80.3336C118.608 80.3336 118.493 80.2526 118.597 80.2064C118.701 80.1601 118.678 80.2064 118.689 80.2064C118.701 80.2064 118.608 80.2064 118.597 80.2064C118.682 80.1576 118.777 80.1298 118.875 80.1254C118.875 80.1254 118.875 80.1254 118.875 80.0097C118.875 79.894 118.967 80.0097 119.083 80.0097C119.199 80.0097 119.233 79.9171 119.187 79.8362C119.141 79.7552 119.268 79.8362 119.303 79.8362C119.337 79.8362 119.708 79.5469 119.557 79.5354C119.8 79.2693 120.182 79.1767 120.46 78.9569C120.621 78.8299 120.775 78.6947 120.923 78.552C120.923 78.552 121.073 78.552 121.062 78.552C121.152 78.4502 121.268 78.3743 121.397 78.3322C121.293 78.4595 121.467 78.3322 121.281 78.4479C121.467 78.3554 121.524 78.3669 121.675 78.1818C121.675 78.2859 121.848 78.1818 121.918 78.1124H121.767C121.851 78.0501 121.94 77.9959 122.034 77.9504V78.0546C122.45 77.9389 122.566 77.4877 122.936 77.4877C122.936 77.372 122.716 77.5687 122.763 77.4877C122.912 77.4328 123.067 77.3978 123.226 77.3836C123.48 77.291 123.364 77.1291 123.619 77.0249C123.619 77.0249 123.492 76.9555 123.619 76.8167C123.746 76.6779 123.897 76.8167 123.804 76.9093C123.712 77.0018 123.804 76.9093 123.735 76.9093C123.665 76.9093 123.631 77.0134 123.735 77.0018C123.827 77.0018 124.059 76.8514 124.036 76.9324C124.14 76.8283 124.036 76.8514 123.955 76.9324C124.186 76.8514 124.29 76.7473 124.522 76.6547C124.869 76.5159 124.626 76.5275 124.846 76.3887C125.065 76.2498 124.846 76.5275 125.065 76.3887C125.285 76.2498 125.135 76.4581 125.065 76.5159C125.22 76.4069 125.399 76.3355 125.586 76.3077L125.494 76.3887C125.542 76.3459 125.597 76.3108 125.656 76.2845H125.563C125.632 76.2845 125.69 76.2845 125.69 76.2845C125.69 76.2845 125.598 76.2036 125.69 76.0879C125.783 75.9722 125.933 75.9375 126.003 76.0069C125.725 76.0994 126.072 76.0763 125.852 76.192L126.014 76.1226C126.304 76.1226 126.084 75.9722 126.361 75.8681C126.361 75.9259 126.466 75.9259 126.5 75.8681C126.535 75.8102 126.419 75.8681 126.5 75.7292C126.581 75.5904 126.685 75.6251 126.778 75.602H126.662C126.662 75.5326 126.766 75.5094 126.882 75.44C126.998 75.3706 126.79 75.5094 126.882 75.5094C126.975 75.5094 127.229 75.5094 127.391 75.3706C127.553 75.2318 127.391 75.4516 127.519 75.4516C127.646 75.4516 127.773 75.4516 127.981 75.3243C127.9 75.3243 127.889 75.3243 127.981 75.1855L127.611 75.3475L127.831 75.1739C127.715 75.1739 127.6 75.2896 127.53 75.3012C127.461 75.3128 127.623 75.2318 127.53 75.1855C127.715 75.1855 127.819 75.0351 128.016 75.0467V75.2202C128.305 75.2202 128.479 75.0004 128.838 74.9426H128.722C128.722 74.8616 128.942 74.8732 129.046 74.8269C129.15 74.7806 129.127 74.8269 129.185 74.9079C129.243 74.9888 129.451 74.9079 129.451 74.7228H129.636C129.925 74.7228 129.925 74.4914 130.215 74.4451C130.145 74.5261 130.215 74.5377 130.099 74.6186C130.192 74.6186 130.284 74.6186 130.273 74.6186C130.261 74.6186 130.516 74.4914 130.62 74.5261C130.724 74.5608 130.62 74.4335 130.759 74.4104C130.759 74.4104 130.921 74.341 130.759 74.2947C131.083 74.422 131.569 74.1328 131.916 74.2947L132.552 74.1443C132.818 74.1443 132.679 73.9592 132.992 73.9708C133.304 73.9824 132.841 74.0402 132.992 74.0633C133.142 74.0865 133.339 73.9824 133.559 74.0633C133.732 74.0633 133.918 73.9245 134.184 73.8667C134.184 73.8667 134.658 73.5427 134.843 73.3808C134.843 73.4849 134.762 73.4849 134.843 73.5196C134.924 73.5543 134.751 73.4386 134.924 73.2882C135.098 73.1378 135.156 73.2072 135.225 73.2882L135.052 73.4271C135.214 73.4271 135.283 73.242 135.376 73.1725C135.596 72.9065 135.515 72.837 135.7 72.5363C135.7 72.3165 135.827 72.4206 135.839 72.2123H135.966C136.001 71.9825 136.02 71.7506 136.024 71.5182C136.071 71.716 136.071 71.922 136.024 72.1198C136.102 71.9625 136.131 71.7847 136.105 71.6108C136.116 71.6641 136.116 71.7194 136.105 71.7727C136.062 71.5706 136.062 71.3617 136.105 71.1596C136.325 71.1596 136.186 70.5117 136.325 70.3266C136.266 69.8401 136.138 69.3647 135.943 68.9152C135.943 69.1697 135.862 68.7764 135.723 68.9152C135.683 68.8709 135.652 68.82 135.63 68.7648C135.584 68.6399 135.526 68.5198 135.457 68.4062C135.457 68.3021 135.572 68.4062 135.584 68.4062C135.387 68.1864 135.584 68.2674 135.434 68.0938C135.434 68.1633 135.295 68.0938 135.156 67.9897C135.212 68.0502 135.263 68.1161 135.306 68.1864C134.936 68.036 135.086 67.8509 134.67 67.7815H134.809C134.612 67.7121 134.08 67.5501 133.871 67.6658C133.663 67.7815 133.802 67.5848 133.871 67.5848C133.408 67.4923 132.841 67.6658 132.494 67.5848C132.413 67.5848 132.355 67.6774 132.24 67.6427C132.133 67.6886 132.02 67.7159 131.904 67.7236L131.997 67.6658C131.545 67.6658 131.349 67.874 131.002 67.9666C131.002 67.8509 130.631 67.874 130.458 67.8972C130.031 68.0192 129.619 68.19 129.231 68.4062C128.752 68.4696 128.282 68.59 127.831 68.7648C127.9 68.7648 127.831 68.8574 127.831 68.9037C127.831 68.9499 127.576 69.1003 127.553 68.9846C127.438 68.9037 127.241 68.9846 127.079 69.0772V69.2392C126.57 69.2392 126.026 69.7945 125.725 69.725C125.644 69.806 125.517 69.8639 125.436 69.9564V69.8754C125.18 69.9801 124.932 70.1038 124.695 70.2456V70.1531C124.498 70.2456 124.568 70.4886 124.394 70.5927L124.29 70.5117C123.937 70.6353 123.608 70.8193 123.318 71.0555C123.309 71.0419 123.304 71.0257 123.304 71.0092C123.304 70.9926 123.309 70.9765 123.318 70.9629C123.168 71.0439 122.693 71.229 122.832 71.3447C122.832 71.2521 122.496 71.5182 122.358 71.6686V71.5876C122.313 71.7281 122.224 71.8501 122.103 71.9347C122.022 71.9347 122.103 71.9347 122.103 71.9347C121.929 72.0041 122.022 72.0735 121.814 72.1545V72.0735C121.64 72.1661 121.675 72.1776 121.617 72.2933C121.559 72.409 121.305 72.4784 121.247 72.4321C121.242 72.4771 121.226 72.52 121.2 72.5566C121.173 72.5932 121.138 72.6221 121.096 72.6404C121.096 72.6404 121.096 72.6404 121.096 72.571C120.807 72.7098 120.761 72.918 120.541 72.9874C120.657 72.893 120.781 72.8079 120.911 72.7329C120.911 72.6751 120.691 72.7329 120.761 72.6057C120.65 72.8001 120.5 72.9694 120.321 73.1031L120.228 73.1957L120.078 73.2767C120.078 73.2767 119.87 73.3923 119.789 73.4502C119.708 73.508 119.789 73.589 119.881 73.5543L120.078 73.3923C120.064 73.4385 120.038 73.4805 120.004 73.5148C119.97 73.549 119.928 73.5745 119.881 73.589V73.7741C119.708 73.7741 119.465 73.9014 119.384 73.8782C119.175 74.098 118.84 74.3757 118.805 74.6186C118.805 74.6881 118.701 74.6186 118.655 74.6186C118.608 74.6186 118.736 74.5377 118.736 74.503C118.632 74.6533 118.354 74.8616 118.4 74.9773C118.203 75.093 118.4 74.8153 118.215 75.0467V74.9888C117.66 75.2896 117.706 75.8681 117.058 76.2036C117.058 76.2036 117.127 76.2036 117.139 76.2036C116.549 76.701 116.167 77.4299 115.588 77.9273C115.426 78.0777 115.473 78.1356 115.438 78.2744H115.334V78.5057C115.206 78.8065 114.836 78.8297 114.72 79.2346H114.801C114.709 79.3503 114.57 79.6395 114.535 79.5816C114.546 79.597 114.551 79.6151 114.551 79.6337C114.551 79.6523 114.546 79.6704 114.535 79.6858L114.408 80.0213C114.234 80.2295 114.281 79.8824 114.061 80.2179C113.991 80.3452 113.945 80.646 114.003 80.6113C114.061 80.5766 114.107 80.4956 114.153 80.5187L114.096 80.646C114.2 80.7385 114.258 80.9005 114.512 80.646V80.4146H114.605L114.501 80.5881C114.616 80.5187 114.605 80.4377 114.616 80.3452C114.634 80.3553 114.654 80.3607 114.674 80.3607C114.694 80.3607 114.714 80.3553 114.732 80.3452V80.0907C114.732 80.0907 114.732 80.2295 114.871 80.0907C115.01 79.9518 114.72 80.0907 114.778 79.9403C114.836 79.7899 114.917 79.9403 114.94 79.8015C114.963 79.6626 114.94 79.8014 114.94 79.894C114.94 79.9865 115.091 79.6395 115.068 79.5469C115.044 79.4544 115.276 79.223 115.368 79.304C115.378 79.1948 115.41 79.0886 115.461 78.9916C115.461 79.2346 115.704 78.6793 115.797 78.8181C115.797 78.6214 116.063 78.3785 116.155 78.1355C116.164 78.1578 116.164 78.1827 116.155 78.205C116.227 78.1406 116.305 78.0825 116.387 78.0314C116.317 77.9504 116.387 77.7653 116.456 77.6265C116.526 77.4877 116.456 77.7885 116.607 77.8232C116.526 77.8232 116.722 77.534 116.607 77.5224C116.745 77.5224 116.711 77.5224 116.826 77.5224C116.734 77.4183 116.826 77.4183 116.826 77.2795C117.012 77.1753 116.965 77.2795 117.069 77.1406C117.174 77.0018 117.208 76.8861 117.208 76.8861ZM121.015 73.0684L120.865 73.1725V73.1031C120.865 73.1031 120.969 73.08 121.038 73.0684H121.015ZM119.962 73.161C119.962 73.161 120.032 73.161 120.055 73.161L119.962 73.242C119.962 73.242 119.974 73.1841 119.985 73.161H119.962Z" fill="#75297F"/>
<path d="M126.141 70.257L126.13 70.2456L126.107 70.2685L126.141 70.257Z" fill="#75297F"/>
<path d="M123.353 76.8861L123.434 76.7936C123.434 76.7936 123.33 76.8399 123.353 76.8861Z" fill="#75297F"/>
<path d="M130.585 73.8435V73.8545L130.607 73.8435H130.585Z" fill="#75297F"/>
<path d="M123.584 76.701C123.53 76.725 123.48 76.7561 123.434 76.7936C123.491 76.7767 123.543 76.7447 123.584 76.701Z" fill="#75297F"/>
<path d="M114.014 81.2934V81.2591H114.003L114.014 81.2934Z" fill="#75297F"/>
<path d="M113.991 81.1434C113.987 81.1702 113.987 81.1976 113.991 81.2244C113.991 81.2244 114.015 81.1666 113.991 81.1434Z" fill="#75297F"/>
<path d="M114.35 82.2193C114.35 82.2193 114.35 82.1152 114.234 82.0805C114.234 82.0805 114.281 82.254 114.35 82.2193Z" fill="#75297F"/>
<path d="M115.542 82.1383L115.299 82.2425C115.299 82.2425 115.438 82.2425 115.299 82.3234C115.716 82.2772 115.241 82.3234 115.542 82.1383Z" fill="#75297F"/>
<path d="M121.212 78.5867V78.6557C121.327 78.5867 121.224 78.6672 121.212 78.5867Z" fill="#75297F"/>
<path d="M121.953 77.6612L121.837 77.6728L121.825 77.7653L121.953 77.6612Z" fill="#75297F"/>
<path d="M122.797 77.7538L122.763 77.7885L122.902 77.6728L122.797 77.7538Z" fill="#75297F"/>
<path d="M131.835 74.3526V74.26C131.719 74.2947 131.719 74.3988 131.835 74.3526Z" fill="#75297F"/>
<path d="M135.758 72.6057C135.797 72.5859 135.83 72.5563 135.854 72.5198C135.879 72.4833 135.893 72.4412 135.896 72.3974C135.846 72.4641 135.8 72.5336 135.758 72.6057Z" fill="#75297F"/>
<path d="M126.859 69.1235L126.928 69.0656L126.79 69.1466L126.859 69.1235Z" fill="#75297F"/>
<path d="M99.2956 81.6178C99.9899 82.0805 100.291 83.9315 98.2657 83.6654C96.4953 83.4225 84.2641 80.0213 78.0271 80.4377C74.071 80.6552 70.1702 81.4664 66.4555 82.844C66.2009 82.9662 65.9221 83.0295 65.6397 83.0295C65.3573 83.0295 65.0785 82.9662 64.8239 82.844C64.3263 82.7284 63.065 81.6872 63.065 80.8195C63.0097 80.4582 63.0707 80.0886 63.2391 79.7642C63.4076 79.4398 63.6749 79.1774 64.0023 79.0148C64.8702 78.3554 68.2144 75.2433 80.029 75.7292C91.8435 76.2151 98.6129 81.1434 99.2956 81.6178Z" fill="#75297F"/>
<path d="M99.1915 81.7682C99.1915 81.7682 99.1915 81.7103 99.1915 81.6525H99.0642L99.1915 81.7682Z" fill="#75297F"/>
<path d="M98.6476 81.1897C98.5087 81.1897 98.3351 81.1897 98.3583 81.2591C98.4739 81.2654 98.5898 81.2654 98.7054 81.2591C98.8096 81.2591 98.8559 81.3979 98.8212 81.4095C98.7864 81.4211 98.96 81.5368 99.041 81.5136C98.9434 81.3587 98.7902 81.2469 98.6129 81.2013C98.6129 81.2013 98.636 81.2013 98.6476 81.1897Z" fill="#75297F"/>
<path d="M81.4175 75.6367H81.4985C81.4406 75.6251 81.4059 75.6251 81.4175 75.6367Z" fill="#75297F"/>
<path d="M88.3257 76.7589L88.1521 76.6779C88.1521 76.6779 88.2447 76.7242 88.3257 76.7589Z" fill="#75297F"/>
<path d="M93.556 78.3206C93.556 78.3206 93.4634 78.3206 93.4287 78.4016C93.4488 78.393 93.4705 78.3886 93.4924 78.3886C93.5142 78.3886 93.5359 78.393 93.556 78.4016C93.556 78.4016 93.5676 78.3554 93.556 78.3206Z" fill="#75297F"/>
<path d="M65.1362 83.2952C64.9279 83.168 65.5412 83.2952 65.2172 83.1448C65.2404 83.1564 64.8701 83.1448 65.1362 83.2952Z" fill="#75297F"/>
<path d="M69.0476 76.3771L69.0939 76.3887L69.1518 76.3655L69.0476 76.3771Z" fill="#75297F"/>
<path d="M92.9429 82.1383C92.9762 82.163 93.0038 82.1946 93.0239 82.2309C93.0007 82.1383 93.3016 82.1962 92.9429 82.1383Z" fill="#75297F"/>
<path d="M95.1298 82.497C94.8289 82.4276 94.9678 82.5664 94.8868 82.6127C94.5281 82.6127 94.7479 82.497 94.6322 82.416C94.5165 82.335 94.2156 82.416 94.0421 82.416C93.7875 82.416 93.3362 82.254 93.0354 82.3003C93.0466 82.3238 93.0525 82.3495 93.0525 82.3755C93.0525 82.4015 93.0466 82.4272 93.0354 82.4507C92.8965 82.4507 92.7692 82.4507 92.7345 82.3813C92.6998 82.3119 92.8271 82.3813 92.8733 82.3813H92.7229C92.6188 82.254 92.9196 82.3813 92.9428 82.3234C92.6668 82.3151 92.3921 82.2841 92.1212 82.2309C92.1212 82.1268 92.6188 82.3003 92.3526 82.1615L92.6651 82.2656C92.4568 82.0574 92.8618 82.2656 92.6651 82.1036C92.2369 81.9879 92.1675 82.1036 91.7509 81.9301C91.6468 81.9301 91.7509 82.0111 91.6583 82.0458C91.0335 82.0458 91.2302 81.6987 90.7558 81.7334C90.6792 81.7805 90.5911 81.8054 90.5012 81.8054C90.4113 81.8054 90.3232 81.7805 90.2466 81.7334L90.3855 81.6525C89.9689 81.5483 90.1077 81.7566 89.6912 81.5946C89.7722 81.5946 90.0267 81.5946 89.9689 81.5946C89.7027 81.4558 89.749 81.5946 89.5407 81.5946V81.4905L88.0943 81.317C88.0943 81.317 88.2216 81.317 88.0943 81.2244C87.4446 81.1386 86.8024 81.0033 86.1734 80.8195H85.9304C85.8726 80.8195 85.8263 80.8195 85.9304 80.7501C85.699 80.6807 85.9304 80.7501 85.7916 80.8195C85.6527 80.8889 85.618 80.7385 85.7106 80.7269C85.1613 80.7437 84.6124 80.6853 84.079 80.5534H84.16C83.8244 80.4724 83.755 80.6691 83.4541 80.5534C82.7135 80.4377 81.8919 80.4146 81.3249 80.2526C81.2092 80.3683 80.5843 80.1369 80.5265 80.2526C80.2347 80.1508 79.9316 80.0848 79.6239 80.056C79.4619 80.056 79.3809 80.1485 79.1842 80.1601V80.056L78.918 80.1485L78.7676 80.056H78.5825C78.6519 80.056 78.7445 80.056 78.7329 80.056C78.4834 80.102 78.2259 80.0738 77.9923 79.975L77.3096 80.1022C77.3096 80.1022 77.4369 80.1022 77.5295 80.0097C77.1707 80.1369 77.46 79.9287 77.1245 80.0097C77.1245 80.0097 77.1245 80.0097 77.1245 80.0907C76.8484 80.0471 76.5673 80.0471 76.2913 80.0907V80.0212C75.7822 80.0212 75.2151 80.1832 74.6481 80.2526C74.8564 80.2526 74.8217 80.3683 74.6481 80.403L74.5671 80.3105C74.463 80.3914 74.7523 80.3105 74.5671 80.4262C74.382 80.5418 74.4167 80.3452 74.5671 80.2989L74.3126 80.3683C74.3126 80.3683 74.3126 80.3683 74.3126 80.2758C74.3126 80.1832 73.8497 80.2758 73.7224 80.3799C73.1554 80.4724 72.9008 80.5418 72.438 80.646C72.438 80.7269 72.2644 80.7385 72.1371 80.8311C71.8015 80.8311 71.4197 80.9005 70.98 80.993C70.5402 81.0856 70.9105 81.074 70.7948 81.155C70.6791 81.236 70.3551 81.155 70.5518 81.0856C70.1587 81.1893 69.7723 81.3168 69.3947 81.4673C69.4757 81.4673 69.5451 81.4673 69.5219 81.4673C69.4988 81.4673 69.2558 81.4673 69.2674 81.4673C68.6194 81.7566 67.6358 81.7219 67.1498 82.0574L66.6291 82.335C66.3629 82.4276 66.7563 82.2193 66.548 82.254C66.3904 82.3877 66.2036 82.4825 66.0026 82.5307C65.8016 82.5789 65.592 82.5793 65.3909 82.5317C65.2872 82.4343 65.1594 82.3664 65.0206 82.335C64.6094 82.1762 64.2521 81.9033 63.9907 81.5483C63.8634 81.4789 63.9097 81.4095 63.8634 81.3401C63.8172 81.2707 63.8634 81.4673 63.8634 81.4211C63.6926 81.2422 63.5693 81.0235 63.5047 80.7848C63.4657 80.5279 63.4657 80.2666 63.5047 80.0097C63.5857 79.6048 64.0949 79.3503 64.5925 78.9801C65.09 78.6099 64.5925 78.6099 65.1479 78.4132L65.0669 78.5752C65.7849 78.0635 66.5619 77.6401 67.3812 77.3142C67.3812 77.3142 67.3812 77.3142 67.2771 77.4067C67.4622 77.4067 67.9019 77.1869 67.8788 77.1291C67.8556 77.0712 67.8788 77.1291 68.0176 77.1291C68.1565 77.1291 68.4226 76.9093 68.5384 76.944C68.6541 76.9787 68.5384 76.944 68.4574 77.0018C68.3764 77.0596 68.9896 76.8514 68.8624 76.8051C69.1748 76.8051 69.4525 76.62 69.7071 76.5969C69.9617 76.5738 70.2509 76.5159 70.2741 76.3887C70.2741 76.5159 70.8527 76.3887 71.0494 76.2845C70.98 76.2845 71.223 76.2845 71.1535 76.3539C71.385 76.3539 71.5932 76.2614 71.547 76.2036C71.9867 76.2961 72.3801 75.9606 72.7041 76.1226C73.3868 75.9838 74.0233 75.8681 74.6481 75.7986C74.6481 75.9143 73.9538 75.7986 74.0001 75.9953C74.4923 75.8667 74.9964 75.7891 75.5044 75.7639C75.6549 75.7639 75.4234 75.7639 75.3771 75.8449C75.9673 75.7524 76.5343 75.8449 77.0435 75.7408C77.0435 75.7408 77.0434 75.7408 76.9393 75.7408C76.8352 75.7408 77.1823 75.7408 77.1592 75.7408H77.0666C76.893 75.6598 77.4716 75.5557 77.4947 75.5094C77.3212 75.683 78.0155 75.5094 77.7377 75.7639C77.8072 75.7639 77.8882 75.7639 77.8766 75.683C77.865 75.602 78.0039 75.683 77.8766 75.7639C78.2469 75.7639 78.108 75.6714 78.4552 75.683C78.4552 75.683 78.3858 75.683 78.351 75.7524C78.5502 75.677 78.7641 75.6493 78.9759 75.6714C78.9759 75.6714 78.9759 75.6714 78.9065 75.6714C79.3645 75.63 79.8254 75.63 80.2835 75.6714C80.1215 75.7871 80.4686 75.6714 80.4918 75.8334H80.7811H80.6653C80.9003 75.816 81.1362 75.816 81.3712 75.8334H81.1745H81.6489H81.3828C81.6489 75.8334 81.3828 75.6945 81.7068 75.7408C81.6374 75.7408 81.9614 75.7408 82.0887 75.8334C82.2332 75.7985 82.3839 75.7985 82.5284 75.8334C82.5284 75.8334 82.5284 75.949 82.5284 75.9722C82.5284 75.9953 83.1301 75.9722 83.2921 75.9722C83.2342 75.9722 83.2227 76.0416 83.2921 76.0647L83.4078 75.9953C83.512 75.9953 83.5351 75.9953 83.512 76.0879C83.8591 76.0879 83.4078 75.9375 83.8244 76.0879H83.7318C84.1484 76.1688 84.5534 76.0879 84.889 76.2383C84.9931 76.3655 84.5534 76.2383 84.6691 76.3308C85.235 76.3582 85.7989 76.4162 86.3586 76.5043H86.266C86.3701 76.3655 86.6479 76.6663 86.9256 76.6432C86.8561 76.6432 86.8214 76.7126 86.8446 76.6432C87.2755 76.7359 87.7124 76.7978 88.1522 76.8283H88.0827C88.2794 76.9208 88.6266 76.9902 88.858 77.0712C89.0894 77.1522 89.0547 77.0712 88.9969 77.0712C89.6449 77.453 90.3623 77.3257 90.9293 77.6959C90.8599 77.6959 90.7442 77.6959 90.802 77.6959C90.9819 77.7274 91.1597 77.7699 91.3343 77.8232C91.3343 77.7422 91.3343 77.7538 91.1839 77.6728C91.3065 77.6529 91.4316 77.6529 91.5542 77.6728C91.2996 77.6728 91.5542 77.7769 91.5542 77.8463C91.5542 77.9157 91.5542 77.8463 91.5542 77.7885C91.7972 77.9967 91.6468 77.6844 91.9939 77.8926C92.1426 77.9123 92.2896 77.9433 92.4336 77.9851C92.4336 78.0777 92.2716 77.9851 92.2369 77.9851C92.4568 78.0546 92.7113 77.9851 92.8618 78.1471C92.7692 78.1471 92.6419 78.0777 92.5493 78.0661C92.6455 78.1665 92.7646 78.2419 92.8965 78.2859L93.2321 78.4595H93.1511C93.4866 78.3785 93.6949 78.6214 94.0884 78.6561C93.7065 78.6561 94.0074 78.6561 93.9495 78.7603C93.8916 78.8644 94.1462 78.9106 94.0999 78.9106C94.2851 78.9106 94.3429 79.0842 94.6091 79.0842C94.6091 79.0842 94.7827 79.1652 94.7248 79.2114C94.9447 79.2924 94.7248 79.2114 94.7248 79.1305C95.0951 79.1305 95.4307 79.5816 95.882 79.6858C96.3332 79.7899 96.4142 79.7899 96.8077 79.9403C96.9003 80.0444 96.6572 79.9403 96.6572 79.9403C96.8119 80.0674 96.9883 80.1654 97.178 80.2295C97.178 80.2295 97.178 80.2295 97.178 80.3336C97.178 80.4377 97.3284 80.3336 97.502 80.4377C97.4332 80.4511 97.3625 80.4511 97.2937 80.4377C97.4863 80.4969 97.6756 80.5664 97.8607 80.646C97.8607 80.7154 97.7218 80.646 97.6408 80.646C97.8362 80.7654 98.052 80.8477 98.2773 80.8889L98.1616 80.7848C98.1616 80.8658 98.2426 80.7848 98.1616 80.7848C98.1616 80.7038 97.9301 80.6228 97.9417 80.5881H98.069C98.069 80.3683 97.5598 80.3105 97.3052 80.1601H97.4673H97.1548C97.1548 80.1601 97.1548 80.0213 97.2474 80.0791C97.0854 79.9171 97.0622 80.0791 96.935 79.8709L96.7382 79.8014C96.7382 79.8014 96.7382 79.7205 96.854 79.8014C96.5531 79.5701 96.2754 79.6048 96.1944 79.4544C95.7084 79.2577 96.1134 79.4544 95.72 79.4544L95.5811 79.142H95.4885C95.4885 79.142 95.3497 79.0726 95.3844 79.0495C95.1877 79.0495 95.3844 79.0495 95.2687 79.0495C95.0835 78.8644 94.6091 78.795 94.6206 78.6446C94.6322 78.4942 94.8174 78.7834 94.5512 78.7256C94.5512 78.552 94.2504 78.6214 94.0652 78.4595C94.1578 78.4595 94.3545 78.5404 94.1578 78.3901C93.9842 78.3901 93.7528 78.1818 93.5561 78.1355C93.3594 78.0893 93.1395 78.0199 92.8155 77.9273C92.5451 77.7701 92.2626 77.6347 91.9708 77.5224C91.8782 77.6034 91.5773 77.5224 91.3575 77.4183C91.3575 77.4183 91.4269 77.4183 91.5542 77.4183L91.4153 77.5108C91.3234 77.5257 91.2296 77.5257 91.1376 77.5108H91.1839C90.868 77.4609 90.5579 77.3796 90.2582 77.2679C90.2582 77.3373 90.478 77.5455 90.0846 77.4877C90.0846 77.4877 90.0846 77.372 90.1887 77.3836C90.1277 77.3964 90.0646 77.3964 90.0036 77.3836H90.1772C90.0267 77.3026 90.073 77.3836 89.9457 77.3836C89.8185 77.3836 89.8647 77.3142 89.9457 77.2795C90.0267 77.2447 90.0499 77.2795 90.1077 77.2795C89.9768 77.2372 89.8551 77.1704 89.749 77.0828C89.749 77.0828 89.749 77.1522 89.6102 77.0828C89.4713 77.0134 89.5407 76.9902 89.3787 76.9208C89.2167 76.8514 89.1357 76.9208 89.101 76.9208C89.0663 76.9208 89.02 76.8514 88.9969 76.8167C88.9737 76.782 88.3142 76.6547 88.453 76.8167C87.9554 76.8167 87.4694 76.539 86.9834 76.4696C86.705 76.4145 86.4224 76.3836 86.1387 76.3771C86.0461 76.3771 85.942 76.2845 85.9883 76.2614C85.7959 76.269 85.6038 76.2416 85.4213 76.1804C85.6527 76.1804 85.3518 76.1804 85.6527 76.1804C85.4432 76.0975 85.218 76.0619 84.9931 76.0763C85.1088 76.0763 84.7964 75.949 84.6575 75.949L84.8427 76.0416L84.4261 75.9606L84.5071 75.8796C83.9401 75.683 83.4194 75.949 83.0028 75.7061C82.8292 75.7061 83.3152 75.7871 83.1648 75.8449C82.9501 75.7913 82.7409 75.7177 82.5399 75.6251C82.1697 75.5326 82.1812 75.7292 81.7994 75.6251C81.7994 75.6251 81.8804 75.7524 81.5911 75.7639C81.3018 75.7755 81.2671 75.602 81.4406 75.5788C81.6142 75.5557 81.5332 75.5788 81.5332 75.5788C81.5332 75.5788 81.7299 75.5788 81.6258 75.521C81.4985 75.521 81.1166 75.521 81.2092 75.4053C81.0009 75.4053 81.1166 75.4632 81.2092 75.4863C80.8621 75.4169 80.6654 75.4863 80.3066 75.3937C79.7859 75.3243 80.0752 75.3937 79.7165 75.3937C79.3578 75.3937 79.7975 75.2665 79.4388 75.3012C79.08 75.3359 79.4388 75.2202 79.4388 75.1855C79.1706 75.2035 78.9013 75.1801 78.6403 75.1161H78.8139H78.5362L78.6403 75.1855C78.5362 75.1855 78.4552 75.1855 78.4552 75.1855C78.4552 75.1855 78.5362 75.3012 78.3279 75.359C78.1196 75.4169 77.9113 75.359 77.865 75.2896C78.2932 75.2896 77.865 75.1971 78.1775 75.1971H77.9923C77.5757 75.1161 77.7956 75.3012 77.379 75.3012C77.379 75.3012 77.2749 75.2086 77.2055 75.2202C77.379 75.2202 77.2865 75.3012 77.136 75.3475C76.9908 75.3194 76.8415 75.3194 76.6963 75.3475H76.8583C76.8583 75.3475 76.6732 75.3475 76.488 75.3475C76.3029 75.3475 76.65 75.3475 76.5922 75.3475C76.5343 75.3475 76.1062 75.2549 75.8169 75.3475C75.5276 75.44 75.8169 75.2433 75.678 75.2318C75.354 75.3128 75.3193 75.2318 74.9837 75.2318C75.0879 75.2318 75.0994 75.2318 74.8564 75.359L75.4234 75.2781L75.0647 75.3937C75.2383 75.3937 75.4234 75.3937 75.5276 75.3937C75.354 75.4631 75.3771 75.3937 75.4581 75.4979C75.2267 75.4053 74.9953 75.5788 74.7291 75.4979V75.3243C74.3099 75.3425 73.8924 75.3889 73.4794 75.4632H73.653C73.5836 75.5326 73.329 75.4632 73.1554 75.5441C73.1554 75.4863 73.0628 75.4747 72.9818 75.4516C72.9008 75.4284 72.6 75.4516 72.5653 75.602H72.3223C71.8941 75.602 71.8594 75.8333 71.4544 75.8796C71.5585 75.7986 71.3734 75.7871 71.6395 75.6945C71.5007 75.6945 71.3734 75.6945 71.385 75.7639C71.3965 75.8334 71.0147 75.9028 70.8874 75.8681C70.7601 75.8334 70.8874 75.9722 70.6791 75.9953C70.6791 75.9953 70.4477 76.0879 70.5981 76.1226C70.1468 76.0069 69.4409 76.3771 69.0591 76.3192C68.6772 76.2614 68.4342 76.539 68.1681 76.6085C67.7862 76.6085 67.9945 76.8167 67.5779 76.9093C67.1613 77.0018 67.7746 76.7936 67.6358 76.8051C67.5085 76.6432 67.1498 77.0018 66.8489 77.0018C66.6175 77.0018 66.3745 77.2679 66.0389 77.4067C65.7677 77.6424 65.4774 77.8552 65.171 78.043C65.171 77.9157 65.2983 77.9273 65.171 77.8926C65.0437 77.8579 65.2752 77.9736 65.0206 78.1471C64.766 78.3206 64.7082 78.2628 64.6387 78.1471L64.8817 77.9851C64.6966 77.9851 64.5577 78.1934 64.4305 78.2744C64.0602 78.5405 64.1296 78.6446 63.7477 78.9222H63.8172C63.6667 79.1767 63.5973 79.0032 63.4469 79.2461H63.308C63.0938 79.5079 62.9575 79.8246 62.9146 80.1601C62.8875 79.8653 62.9744 79.5713 63.1576 79.3387C63.0072 79.4544 62.7641 79.9171 62.822 80.0328C62.8271 79.9441 62.8508 79.8574 62.8914 79.7783C62.873 80.0788 62.873 80.3802 62.8914 80.6807C62.7873 80.6807 62.7294 80.8658 62.7989 81.1781C62.8683 81.4905 63.0419 81.7566 63.0534 81.9185C63.2733 82.1615 63.4816 82.4044 63.7246 82.6358C63.988 82.9126 64.319 83.1159 64.685 83.2258C64.5577 83.0985 64.685 83.1217 64.685 83.1448C64.685 83.168 64.847 83.1448 64.847 83.1448L65.0785 83.2142C65.2436 83.3091 65.4236 83.3756 65.6108 83.4109C65.7496 83.4109 65.414 83.4109 65.4256 83.4803C65.8769 83.4803 65.6223 83.5729 65.9348 83.5844C65.8653 83.5844 66.0736 83.4687 66.305 83.3993C66.1896 83.4109 66.0733 83.4109 65.9579 83.3993C66.5018 83.1448 66.4786 83.3993 66.8952 83.0985L66.7679 83.2027C67.139 83.0645 67.4956 82.8901 67.8325 82.6821C67.8325 82.6821 67.9482 82.6821 67.8325 82.7631C68.4003 82.5286 68.9842 82.3352 69.5798 82.1846C69.6839 82.1846 69.7418 82.0574 69.8922 82.0574C70.0264 81.9829 70.1706 81.9284 70.3204 81.8954L70.2047 81.9764C70.6656 81.8645 71.115 81.7095 71.547 81.5136C71.547 81.6409 72.0445 81.583 72.276 81.5136C72.9587 81.3864 73.4331 81.1897 74.0348 81.0393C74.4514 81.1087 75.3887 80.9005 76.0252 80.912C75.9326 80.912 76.0252 80.8079 76.1524 80.7848C76.2797 80.7617 76.5574 80.6575 76.5343 80.7848C76.6616 80.8889 76.9625 80.7848 77.2055 80.7848V80.6344C77.8535 80.7848 78.8486 80.4724 79.1958 80.6344C79.3462 80.6344 79.5313 80.6344 79.6818 80.6344V80.7154C80.0983 80.7154 80.3066 80.7154 80.8389 80.7848H80.7348C81.0241 80.7848 81.1166 80.5766 81.3944 80.5997L81.4638 80.7269C81.9957 80.8571 82.5376 80.9422 83.0838 80.9815C83.0838 80.9815 83.0838 80.9815 82.9797 80.9815C83.2111 80.9815 83.8938 81.1781 83.8244 80.9815C83.8244 81.0856 84.3451 81.0624 84.6344 81.0509V81.1203C84.8235 81.0534 85.0251 81.0296 85.2245 81.0509C85.2824 81.1203 85.3055 81.0509 85.2245 81.0509C85.4791 81.1319 85.4444 81.0509 85.7453 81.0509H85.618C85.7484 81.1007 85.8926 81.1007 86.023 81.0509C86.2115 81.0464 86.3956 81.1077 86.5437 81.2244C86.5987 81.2015 86.6577 81.1897 86.7173 81.1897C86.7769 81.1897 86.8358 81.2015 86.8908 81.2244C86.8908 81.2244 86.8908 81.2244 86.8214 81.2244C87.2496 81.3517 87.4926 81.2244 87.7819 81.3864L87.1801 81.2591C87.1801 81.3285 87.4463 81.3979 87.1801 81.4558C87.4831 81.4098 87.7913 81.4098 88.0943 81.4558C88.1556 81.4664 88.2182 81.4664 88.2794 81.4558L88.4993 81.5136C88.4993 81.583 88.8117 81.6177 88.9506 81.6409C89.0894 81.664 89.1357 81.6409 88.9506 81.5136H88.7539H88.4067C88.5331 81.4634 88.6738 81.4634 88.8002 81.5136C88.8695 81.4742 88.9433 81.4431 89.02 81.4211C89.1936 81.5715 89.5407 81.6987 89.587 81.7797C90.0159 81.8754 90.4566 81.9065 90.8946 81.8723C91.0219 81.8723 91.0219 81.9417 91.0682 81.9764C91.0027 81.9716 90.9369 81.9716 90.8715 81.9764C91.1145 81.9764 91.5889 82.1152 91.6699 81.9764C91.9708 82.0921 91.4732 81.9764 91.9013 82.1152H91.8319C92.6303 82.4623 93.2436 82.1152 94.1462 82.5779C94.1462 82.5779 94.0652 82.578 94.0536 82.5085C95.0719 82.844 96.2175 82.925 97.2127 83.3068C97.3865 83.3576 97.5712 83.3576 97.745 83.3068V83.3993H98.0806C98.4971 83.3993 98.9021 83.758 99.4923 83.3183C99.4585 83.3298 99.4219 83.3298 99.3881 83.3183C99.6311 83.2489 99.851 82.7862 99.8857 82.844C99.8724 82.817 99.8655 82.7874 99.8655 82.7573C99.8655 82.7272 99.8724 82.6975 99.8857 82.6705C99.9041 82.4825 99.8804 82.2929 99.8163 82.1152C99.7469 81.7103 100.059 82.1152 99.8163 81.5252C99.7006 81.2822 99.2493 81.074 99.3071 81.1666C99.365 81.2591 99.4691 81.3517 99.4344 81.3864C99.3853 81.3414 99.3309 81.3025 99.2724 81.2707C99.1567 81.3517 99.041 81.4095 99.1914 81.6987C99.2629 81.7539 99.3287 81.8159 99.3881 81.8838V81.9764C99.362 81.9124 99.331 81.8506 99.2956 81.7913C99.2956 81.9185 99.3766 81.9648 99.4344 82.0458C99.4259 82.0839 99.4259 82.1234 99.4344 82.1615C99.4938 82.2364 99.5443 82.3179 99.5848 82.4044C99.5848 82.4044 99.4923 82.3003 99.446 82.4044C99.3997 82.5085 99.5733 82.3119 99.5848 82.5085C99.5964 82.7052 99.4691 82.5085 99.4576 82.6821C99.446 82.8556 99.4576 82.6821 99.4576 82.6011C99.4576 82.5201 99.3071 82.8093 99.3071 82.9019C99.3071 82.9944 98.9021 83.0638 98.8906 82.9019C98.7822 82.977 98.6519 83.0136 98.5203 83.006C98.7748 82.8903 98.0111 83.006 98.0921 82.7746C97.8838 82.8787 97.3747 82.6936 97.016 82.6936C97.0457 82.682 97.0788 82.682 97.1085 82.6936C96.9825 82.6553 96.8619 82.6009 96.7498 82.5317C96.7498 82.6358 96.3795 82.5317 96.206 82.6242C95.9861 82.4623 96.3795 82.5317 96.3217 82.4044C96.3217 82.497 95.882 82.4044 95.9514 82.497C95.7778 82.3813 95.801 82.4276 95.7315 82.3119C95.6621 82.4391 95.5464 82.3119 95.3728 82.3119C95.1298 82.173 95.3728 82.1615 95.0372 82.1383C94.7016 82.1152 95.1298 82.497 95.1298 82.497ZM87.481 81.1319H87.7356C87.7356 81.1319 87.7356 81.1319 87.6661 81.1319C87.5967 81.1319 87.562 81.1666 87.481 81.1319ZM88.6382 81.9185C88.534 81.9185 88.5109 81.9185 88.4993 81.9185H88.6613H88.6382Z" fill="#75297F"/>
<path d="M79.1958 80.0328V80.0558L79.2533 80.0328H79.1958Z" fill="#75297F"/>
<path d="M76.8352 76.0069C76.6848 76.03 76.7542 76.0185 76.8352 76.0069V76.0069Z" fill="#75297F"/>
<path d="M82.0193 75.9838H81.8457C81.9383 76.03 82.0077 76.03 82.0193 75.9838Z" fill="#75297F"/>
<path d="M71.1068 76.5967V76.5853L71.0725 76.5967H71.1068Z" fill="#75297F"/>
<path d="M81.6025 75.9953C81.6832 76.0057 81.7649 76.0057 81.8456 75.9953C81.765 75.9839 81.6831 75.9839 81.6025 75.9953Z" fill="#75297F"/>
<path d="M98.0342 81.0856L98.0802 81.12L98.0916 81.1086L98.0342 81.0856Z" fill="#75297F"/>
<path d="M98.2656 81.1781H98.1499C98.1499 81.1781 98.2309 81.1897 98.2656 81.1781Z" fill="#75297F"/>
<path d="M96.4143 80.1369C96.5228 80.2243 96.639 80.3018 96.7615 80.3683C96.7036 80.3567 96.53 80.1369 96.4143 80.1369Z" fill="#75297F"/>
<path d="M94.8867 79.0032L95.2107 79.1767C95.2107 79.1767 95.1066 79.0495 95.2107 79.1073C94.8867 78.8296 95.3611 79.2114 94.8867 79.0032Z" fill="#75297F"/>
<path d="M85.8722 76.1799V76.111C85.7458 76.0995 85.8952 76.1455 85.8722 76.1799Z" fill="#75297F"/>
<path d="M84.241 76.3077L84.3798 76.3771L84.4608 76.3192L84.241 76.3077Z" fill="#75297F"/>
<path d="M83.3731 75.6829L83.4426 75.6714H83.188L83.3731 75.6829Z" fill="#75297F"/>
<path d="M69.4294 76.2267V76.354C69.5452 76.2614 69.5452 76.1573 69.4294 76.2267Z" fill="#75297F"/>
<path d="M63.8982 78.8412C63.8393 78.8531 63.7834 78.8766 63.7337 78.9104C63.684 78.9442 63.6416 78.9875 63.6089 79.0379C63.7246 78.9454 63.8519 78.8875 63.8982 78.8412Z" fill="#75297F"/>
<path d="M77.6336 80.8311L77.5063 80.8658L77.7378 80.8195L77.6336 80.8311Z" fill="#75297F"/>
<path d="M101.621 96.5183C101.621 93.8112 96.553 87.0551 85.2939 86.5923C77.3442 86.2568 72.3685 89.658 70.9799 91.1273C70.039 92.1978 69.3868 93.4905 69.0851 94.8833C68.7834 96.2761 68.8421 97.7228 69.2557 99.0866C70.4129 103.436 72.2065 104.871 73.5951 105.808C74.9836 106.745 78.1658 107.173 85.3865 105.947C92.6071 104.721 101.621 99.2139 101.621 96.5183Z" fill="white"/>
<path d="M88.615 98.5429L82.0192 96.5993L87.886 91.9718C87.2899 90.5383 86.3126 89.2953 85.0602 88.3776C83.8077 87.4599 82.3278 86.9025 80.781 86.7659C77.0187 87.1918 73.4691 88.7306 70.5865 91.1851C69.6504 92.2561 69.0012 93.5469 68.6997 94.9368C68.3982 96.3268 68.4541 97.7705 68.8623 99.1329C70.0195 103.483 71.8247 104.917 73.2132 105.866C74.3704 106.595 76.9161 107.023 81.6721 106.479C83.4185 105.872 84.9769 104.821 86.1942 103.43C87.4115 102.038 88.2458 100.354 88.615 98.5429Z" fill="#7D3189"/>
<path d="M115.241 95.3499C114.616 93.3832 115.126 90.5257 120.541 85.6899C125.575 81.2128 132.587 80.5071 135.781 81.5252C137.227 81.9995 139.252 84.2091 140.271 87.3096C141.428 90.7802 142.157 93.5451 140.051 97.0505C138.894 98.994 133.374 102.141 126.477 102.06C119.581 101.979 116.722 99.9427 115.241 95.3499Z" fill="white"/>
<path d="M125.066 102.175C126.752 101.832 128.308 101.025 129.561 99.8461C130.814 98.667 131.714 97.1621 132.159 95.5003L126.026 93.7071L131.615 89.311C130.91 87.7139 129.671 86.4115 128.111 85.6264C126.551 84.8414 124.767 84.6226 123.064 85.0074C122.064 85.1711 121.086 85.4466 120.148 85.8288C114.732 90.653 114.211 93.522 114.848 95.4772C116.236 99.8386 118.909 101.909 125.066 102.175Z" fill="#7D3189"/>
<path d="M143.325 75.5094C142.897 74.9657 139.854 77.129 136.926 78.6561C136.803 78.6436 136.679 78.6436 136.556 78.6561H136.22C137.378 77.0596 138.755 75.1045 138.407 74.8731C137.748 74.4335 133.779 77.2794 131.731 78.5867C131.175 78.9453 130.504 79.3387 129.821 79.7436C124.401 81.4219 119.689 84.8471 116.421 89.4845C116.005 90.0861 116.85 90.9537 117.463 90.5141C120.139 88.3524 122.923 86.3291 125.806 84.4521C128.583 82.8672 131.592 81.5483 134.496 81.6409C137.736 81.745 137.366 83.2027 137.968 82.9829C138.993 82.2898 139.883 81.4156 140.594 80.403C142.191 78.4363 143.661 75.9259 143.325 75.5094Z" fill="#5B2467"/>
<path d="M101.425 93.7071C96.0441 87.0204 87.2034 84.4521 79.0686 85.8519C78.5132 85.7594 76.3724 85.4702 75.5971 85.4007C73.2828 85.1809 71.7901 84.0703 71.3735 84.6141C71.2115 84.8454 71.9752 86.1064 72.8084 86.9278C72.3846 86.957 71.9593 86.957 71.5355 86.9278C67.7863 86.5576 65.877 86.1874 65.634 86.6039C65.391 87.0204 67.0805 88.1773 68.3418 88.9177C67.74 89.0796 67.1152 89.0796 66.5134 89.0796C63.7247 89.2532 61.179 88.9177 61.0169 89.5771C60.9359 89.901 63.5858 91.7867 65.6456 92.5965C66.8027 93.094 68.793 93.5567 69.4063 93.1634C69.5799 93.1634 77.3676 86.4419 87.5505 88.5359C92.2569 89.5812 96.6596 91.6949 100.418 94.7136C100.559 94.7828 100.718 94.8062 100.873 94.7805C101.028 94.7548 101.171 94.6814 101.282 94.5704C101.393 94.4594 101.466 94.3166 101.492 94.1617C101.517 94.0069 101.494 93.848 101.425 93.7071Z" fill="#5B2467"/>
<path d="M110.3 101.354C111.148 101.838 112.136 102.018 113.1 101.863C114.258 101.713 115.762 100.706 116.919 101.458C120.148 103.506 114.952 107 113.725 108.399C113.499 108.638 113.365 108.95 113.349 109.278C113.332 109.606 113.434 109.93 113.635 110.19C113.837 110.45 114.124 110.629 114.447 110.696C114.769 110.762 115.104 110.711 115.392 110.551C118.504 108.851 122.149 104.929 120.367 101.1C120.04 100.37 119.535 99.7345 118.898 99.2514C118.261 98.7682 117.513 98.453 116.722 98.3347C114.582 98.0454 112.834 99.4915 110.763 99.5841C110.562 99.5942 110.37 99.668 110.213 99.7946C110.057 99.9212 109.945 100.094 109.894 100.289C109.842 100.483 109.854 100.689 109.927 100.876C110 101.063 110.131 101.223 110.3 101.331V101.354Z" fill="#5B2467"/>
<path d="M95.7432 122.317C96.125 121.935 99.5733 122.432 102.524 120.952C105.475 119.471 105.405 117.481 107.697 116.694C110.809 115.537 111.874 116.694 113.772 116.521C115.982 116.359 116.433 115.028 119.106 115.132C121.154 115.213 121.42 116.775 123.526 116.775C125.633 116.775 127.796 114.554 128.039 114.971C128.282 115.387 127.357 117.4 122.254 118.904C120.518 119.425 114.373 119.147 113.39 119.563C112.406 119.98 103.218 123.034 102.478 123.254C99.2378 124.087 95.0951 122.976 95.7432 122.317Z" fill="#B062A7"/>
<path d="M100.233 98.0454C95.0372 103.332 85.6295 106.433 79.8437 105.461C77.8418 105.114 76.9855 105.045 74.8448 104.697C73.7269 104.436 72.5776 104.335 71.4312 104.397C70.8757 104.559 69.7186 105.392 68.5036 105.982C66.1893 107.138 64.5229 107.254 64.5229 107.775C64.5229 108.469 70.8642 108.11 72.8313 107.555L73.4562 107.393C72.5536 108.33 70.2509 110.355 70.6443 110.945C70.8295 111.222 74.4398 110.1 76.7425 108.897C77.243 108.637 77.7296 108.351 78.2005 108.041H78.27L77.865 108.527C77.0665 109.545 75.9209 110.771 76.0019 111.049C76.2565 111.893 79.6123 110.239 81.0124 109.383L83.0606 108.122C90.478 107.647 98.2309 104.489 101.02 98.6007C101.182 98.1495 100.673 97.6405 100.233 98.0454Z" fill="#5B2467"/>
<path d="M97.6871 123.497C97.3515 123.497 101.621 128.992 105.232 128.506C108.842 128.02 110.323 126.447 112.371 126.285C114.42 126.123 117.544 126.701 119.754 125.301C121.964 123.902 124.927 117.84 124.603 118.083C124.279 118.325 114.304 119.691 112.29 119.887C110.277 120.084 104.41 123.994 97.6871 123.497Z" fill="#B062A7"/>
<path d="M101.101 122.872C101.101 122.872 103.947 128.772 105.81 131.838C107.673 134.904 110.624 138.779 114.119 137.738C117.613 136.697 120.136 131.722 120.472 128.009C120.807 124.295 120.691 118.927 120.032 118.754C119.372 118.58 113.899 120.165 111.828 120.281C109.756 120.396 101.217 121.889 101.101 122.872Z" fill="#E086B7"/>
<path d="M89.4481 119.679C92.1928 122.16 95.547 123.869 99.1682 124.63C102.64 125.174 105.914 123.254 109.016 122.097C111.059 121.233 113.235 120.72 115.449 120.581C117.305 120.626 119.161 120.537 121.004 120.315C124.454 119.568 127.512 117.585 129.601 114.739C130.249 113.918 129.139 112.738 128.444 113.582C127.17 115.062 125.591 116.25 123.816 117.064C122.041 117.879 120.11 118.301 118.157 118.302C114.94 118.383 112.267 117.909 109.166 119.02C106.574 119.934 103.658 121.692 100.985 122.178C97.201 122.872 93.4518 119.957 90.1192 118.603C89.5175 118.36 88.9621 119.274 89.4828 119.691L89.4481 119.679Z" fill="#5B2467"/>
<path d="M113.401 127.685C113.552 125.533 113.506 122.421 112.152 120.605C111.515 119.737 109.907 120.188 110.277 121.391C111.057 123.426 111.627 125.534 111.978 127.685C112 127.858 112.085 128.017 112.216 128.132C112.347 128.247 112.515 128.311 112.69 128.311C112.864 128.311 113.033 128.247 113.164 128.132C113.295 128.017 113.379 127.858 113.401 127.685Z" fill="#5B2467"/>
<path d="M90.5707 115.804C90.0944 116.399 89.5804 116.963 89.0317 117.493C88.4877 117.963 87.7949 118.225 87.0761 118.233C86.9241 118.212 86.7696 118.222 86.6214 118.261C86.4731 118.3 86.334 118.368 86.2121 118.461C86.0901 118.554 85.9877 118.67 85.9106 118.803C85.8335 118.935 85.7832 119.082 85.7627 119.234C85.7422 119.386 85.7518 119.54 85.791 119.688C85.8302 119.836 85.8982 119.975 85.9912 120.097C86.0841 120.219 86.2002 120.322 86.3327 120.399C86.4652 120.476 86.6117 120.526 86.7636 120.547C89.2052 121.38 91.2187 118.939 92.1907 117.076C92.6998 116.093 91.3807 114.901 90.5707 115.827V115.804Z" fill="#5B2467"/>
<path d="M127.623 112.287C127.722 113.07 128.085 113.797 128.653 114.346C129.278 114.882 130.012 115.277 130.805 115.503C132.17 115.908 132.737 113.629 131.383 113.409C130.826 113.319 130.297 113.105 129.833 112.784C129.356 112.486 128.914 112.137 128.514 111.743C128.12 111.315 127.542 111.743 127.623 112.252V112.287Z" fill="#5B2467"/>
<path d="M144.529 95.7432C144.006 95.5406 143.473 95.3668 142.932 95.2226C143.429 95.0954 143.939 94.9566 144.309 94.8756C146.172 94.436 148.139 94.5979 148.035 94.0542C147.931 93.5105 142.11 91.4744 141.462 91.7404C141.208 91.8677 141.462 93.0361 140.444 94.4475C135.896 100.764 126.766 102.719 118.238 100.232C117.694 100.082 117.474 100.787 117.879 101.088C122.207 104.35 128.456 104.316 133.825 102.245C134.508 102.418 135.781 102.523 136.764 102.731C138.303 103.055 139.889 103.39 140.108 103.113C140.328 102.835 139.449 101.69 138.685 101.088C138.383 100.846 138.062 100.629 137.725 100.44C138.755 100.637 140.039 100.799 140.756 100.868C142.18 101.042 144.806 101.424 145.084 101.088C145.362 100.753 143.707 99.1213 142.677 98.4156L142.076 98.0339H143.001C145.466 98.0339 148.093 98.2421 148.197 97.8603C148.301 97.4785 145.35 96.0787 144.529 95.7432Z" fill="#5B2467"/>
<path d="M53.3217 115.179C51.424 113.605 52.7894 110.459 50.1627 109.279C49.7188 109.087 49.2404 108.988 48.7567 108.988C48.2731 108.988 47.7947 109.087 47.3508 109.279C46.3209 109.695 45.7424 111.164 44.9092 111.477C43.3933 112.078 42.8495 110.32 41.7965 109.765C41.0212 109.371 40.3732 109.695 39.5979 109.579C35.6172 109.001 32.7475 104.05 31.9143 99.989C33.0405 100.579 34.2882 100.9 35.5594 100.926C36.3115 100.926 36.7165 99.7692 35.9644 99.4337C34.1689 98.5484 32.4263 97.5595 30.7456 96.4721C30.5922 96.3861 30.419 96.3413 30.2431 96.3421C30.0672 96.343 29.8945 96.3893 29.7419 96.4767C29.5892 96.5641 29.4618 96.6895 29.3721 96.8407C29.2823 96.992 29.2333 97.1639 29.2297 97.3397C29.6926 101.123 31.9028 104.964 34.1129 108.018C34.7735 109.185 35.6917 110.186 36.7975 110.945C38.5101 111.801 39.9797 110.679 41.6345 112.101C42.456 112.83 42.5255 113.987 43.7752 114.415C45.0249 114.843 45.4068 114.242 46.2978 113.652L46.8995 113.015C48.6468 111.754 48.9477 111.859 49.2138 113.617C49.4221 114.091 49.3527 114.704 49.5263 115.213C49.6627 115.774 49.9508 116.287 50.3589 116.695C50.7671 117.103 51.2797 117.391 51.8406 117.527C53.2292 117.897 54.3863 116.093 53.3217 115.179Z" fill="#5B2467"/>
<path d="M41.0212 108.307C41.6314 108.551 42.2855 108.665 42.9421 108.642C43.4397 108.642 44.2728 108.33 44.7357 108.642C45.1986 108.955 45.187 109.36 45.2911 109.73C45.4498 110.341 45.6509 110.94 45.8929 111.523C46.5062 112.923 48.9709 111.905 48.3807 110.482C47.7906 109.059 47.8485 107.289 46.3789 106.375C45.7034 105.984 44.9225 105.814 44.1456 105.889C43.1735 105.958 42.2478 106.444 41.2758 106.433C40.1187 106.433 40.0608 107.971 41.0212 108.365V108.307Z" fill="#5B2467"/>
<path d="M63.9675 44.1812C65.0194 40.088 66.393 36.0844 68.0754 32.2075C69.5635 28.7644 71.5521 25.56 73.9769 22.6979C73.7628 21.6529 73.8001 20.5719 74.0858 19.5441C74.3715 18.5163 74.8974 17.5711 75.6201 16.7863C78.0848 14.3221 81.8572 15.8029 83.3268 17.1102C84.7963 18.4175 85.7915 21.8766 84.8079 23.5078C84.2723 24.476 83.4451 25.2509 82.4438 25.7223C81.4426 26.1937 80.3182 26.3377 79.2304 26.1339C79.2304 26.1339 76.4417 28.598 73.8149 35.655C71.9288 40.7105 72.8313 45.9859 72.3338 47.4667C71.8362 48.9475 68.0754 48.6236 66.548 48.2881C65.0205 47.9526 63.9675 47.432 63.9675 44.1812Z" fill="#F1562F"/>
<path d="M57.013 90.9885C57.5554 95.2663 56.7462 99.6065 54.6987 103.402C52.9861 106.502 52.0604 106.502 51.2851 106.502C50.5098 106.502 49.885 100.452 49.885 100.452C49.885 100.452 49.7345 105.079 48.1724 105.577C46.6102 106.074 46.4714 100.301 45.8581 98.4387C45.2448 96.5762 41.3567 93.6261 43.2197 89.5886C45.0828 85.5511 56.3882 86.0254 57.013 90.9885Z" fill="#75297F"/>
<path d="M54.2475 138.825C54.237 138.81 54.2314 138.792 54.2314 138.773C54.2314 138.755 54.237 138.737 54.2475 138.721C54.2438 138.756 54.2438 138.791 54.2475 138.825Z" fill="#75297F"/>
<path d="M4.13104 52.985L4.31619 52.4181C4.40978 52.1508 4.56241 51.908 4.76274 51.7077C4.96306 51.5074 5.20594 51.3548 5.47334 51.2613L5.95935 51.1109C6.24864 51.0299 6.3875 50.8448 6.37593 50.6366C6.36436 50.4283 6.24864 50.2432 5.95935 50.1622L5.47334 50.0118C5.20594 49.9183 4.96306 49.7657 4.76274 49.5654C4.56241 49.3651 4.40978 49.1223 4.31619 48.855L4.13104 48.2881C4.03847 48.0104 3.8649 47.8716 3.66818 47.8716C3.47146 47.8716 3.29789 48.0104 3.20532 48.2881L3.02017 48.855C2.92584 49.1219 2.77296 49.3643 2.57273 49.5645C2.37251 49.7647 2.13001 49.9175 1.86302 50.0118L1.36544 50.1622C1.08772 50.2432 0.937292 50.4283 0.948864 50.6366C0.960435 50.8448 1.08772 51.0299 1.36544 51.1109L1.86302 51.2613C2.13001 51.3556 2.37251 51.5084 2.57273 51.7086C2.77296 51.9088 2.92584 52.1512 3.02017 52.4181L3.20532 52.985C3.29789 53.2627 3.47146 53.4015 3.66818 53.4015C3.8649 53.4015 4.03847 53.2164 4.13104 52.985Z" fill="#75297F"/>
<path d="M87.6662 155.947L87.8629 155.369C87.9587 155.103 88.1121 154.861 88.3121 154.661C88.5122 154.461 88.7539 154.308 89.0201 154.212L89.5177 154.073C89.7954 153.98 89.9458 153.795 89.9342 153.587C89.9227 153.379 89.7954 153.205 89.5177 153.113L89.0201 152.962C88.7531 152.868 88.5106 152.715 88.3104 152.515C88.1101 152.315 87.9573 152.072 87.8629 151.806L87.6662 151.239C87.6449 151.13 87.5896 151.032 87.5085 150.957C87.4274 150.882 87.3246 150.835 87.2149 150.822C87.1044 150.836 87.0008 150.883 86.918 150.958C86.8352 151.032 86.7773 151.13 86.7521 151.239L86.5669 151.806C86.4719 152.072 86.3187 152.314 86.1186 152.514C85.9185 152.714 85.6763 152.867 85.4098 152.962L84.9238 153.113C84.6345 153.205 84.4956 153.379 84.4956 153.587C84.5016 153.705 84.5472 153.817 84.6249 153.905C84.7027 153.993 84.808 154.052 84.9238 154.073L85.4098 154.212C85.6752 154.309 85.9162 154.463 86.116 154.663C86.3159 154.862 86.4697 155.103 86.5669 155.369L86.7521 155.947C86.7773 156.056 86.8352 156.154 86.918 156.228C87.0008 156.303 87.1044 156.35 87.2149 156.364C87.3246 156.351 87.4274 156.304 87.5085 156.229C87.5896 156.154 87.6449 156.055 87.6662 155.947Z" fill="#75297F"/>
<path d="M61.3294 5.00928L61.5261 4.43084C61.6276 4.17595 61.7838 3.94645 61.9838 3.75855C62.1837 3.57064 62.4225 3.42892 62.6832 3.34338L63.1808 3.19298C63.4585 3.10043 63.609 2.91533 63.5974 2.70709C63.5858 2.49886 63.4585 2.32532 63.1808 2.23277L62.6832 2.08238C62.4221 1.9942 62.1833 1.8502 61.9835 1.6604C61.7836 1.4706 61.6276 1.23956 61.5261 0.983346L61.3294 0.416476C61.3058 0.300999 61.2438 0.196924 61.1534 0.121271C61.063 0.0456181 60.9496 0.00286385 60.8318 0C60.7213 0.0136901 60.6176 0.0609711 60.5348 0.135453C60.4521 0.209936 60.3942 0.308029 60.3689 0.416476L60.1722 0.983346C60.0772 1.24987 59.924 1.49193 59.7239 1.69201C59.5238 1.89209 59.2817 2.04519 59.0151 2.14022L58.5291 2.29062C58.2398 2.38317 58.1009 2.5567 58.1125 2.76494C58.1241 2.97318 58.2398 3.15828 58.5291 3.25083L59.0151 3.40122C59.2751 3.48816 59.5131 3.63039 59.7129 3.81812C59.9127 4.00585 60.0694 4.23462 60.1722 4.48869L60.3574 5.06713C60.3826 5.17557 60.4405 5.27367 60.5233 5.34815C60.6061 5.42263 60.7097 5.46991 60.8202 5.4836C60.9487 5.48125 61.0717 5.43152 61.1657 5.34397C61.2597 5.25641 61.318 5.13721 61.3294 5.00928Z" fill="#75297F"/>
<path d="M148.602 123.601L148.799 123.022C148.894 122.756 149.048 122.515 149.248 122.315C149.448 122.115 149.69 121.961 149.956 121.866L150.453 121.727C150.731 121.634 150.882 121.449 150.87 121.241C150.858 121.033 150.731 120.847 150.453 120.767L149.956 120.616C149.689 120.522 149.446 120.369 149.246 120.169C149.046 119.969 148.893 119.726 148.799 119.459L148.602 118.892C148.582 118.783 148.528 118.684 148.446 118.608C148.365 118.533 148.261 118.487 148.151 118.476C147.954 118.476 147.78 118.626 147.688 118.892L147.503 119.459C147.408 119.726 147.255 119.968 147.054 120.168C146.854 120.368 146.612 120.521 146.346 120.616L145.86 120.767C145.745 120.785 145.64 120.842 145.562 120.928C145.484 121.014 145.438 121.125 145.431 121.241C145.437 121.358 145.483 121.47 145.561 121.558C145.638 121.647 145.744 121.706 145.86 121.727L146.346 121.866C146.611 121.963 146.852 122.117 147.052 122.316C147.252 122.516 147.406 122.757 147.503 123.022L147.688 123.601C147.713 123.709 147.771 123.807 147.854 123.882C147.937 123.956 148.04 124.004 148.151 124.017C148.26 124.005 148.363 123.958 148.444 123.883C148.525 123.808 148.581 123.709 148.602 123.601Z" fill="#75297F"/>
<path d="M16.663 126.493C17.5257 126.493 18.2252 125.794 18.2252 124.931C18.2252 124.069 17.5257 123.37 16.663 123.37C15.8002 123.37 15.1008 124.069 15.1008 124.931C15.1008 125.794 15.8002 126.493 16.663 126.493Z" fill="#75297F"/>
<path d="M143.383 23.1028C144.246 23.1028 144.945 22.4036 144.945 21.5411C144.945 20.6785 144.246 19.9793 143.383 19.9793C142.52 19.9793 141.821 20.6785 141.821 21.5411C141.821 22.4036 142.52 23.1028 143.383 23.1028Z" fill="#75297F"/>
<path d="M148.359 135.656C149.222 135.656 149.921 134.956 149.921 134.094C149.921 133.231 149.222 132.532 148.359 132.532C147.496 132.532 146.797 133.231 146.797 134.094C146.797 134.956 147.496 135.656 148.359 135.656Z" fill="#75297F"/>
<path d="M159.005 75.3475C159.555 75.3475 160 74.902 160 74.3525C160 73.8031 159.555 73.3576 159.005 73.3576C158.455 73.3576 158.01 73.8031 158.01 74.3525C158.01 74.902 158.455 75.3475 159.005 75.3475Z" fill="#75297F"/>
<path d="M0.995154 89.3573C1.54476 89.3573 1.99031 88.9118 1.99031 88.3623C1.99031 87.8129 1.54476 87.3674 0.995154 87.3674C0.445546 87.3674 0 87.8129 0 88.3623C0 88.9118 0.445546 89.3573 0.995154 89.3573Z" fill="#75297F"/>
<path d="M39.9912 139.427C40.5409 139.427 40.9864 138.982 40.9864 138.432C40.9864 137.883 40.5409 137.437 39.9912 137.437C39.4416 137.437 38.9961 137.883 38.9961 138.432C38.9961 138.982 39.4416 139.427 39.9912 139.427Z" fill="#75297F"/>
<path d="M71.1419 144.772C71.6915 144.772 72.137 144.326 72.137 143.777C72.137 143.227 71.6915 142.782 71.1419 142.782C70.5923 142.782 70.1467 143.227 70.1467 143.777C70.1467 144.326 70.5923 144.772 71.1419 144.772Z" fill="#75297F"/>
<path d="M147.676 31.6753C148.226 31.6753 148.671 31.2299 148.671 30.6804C148.671 30.1309 148.226 29.6855 147.676 29.6855C147.127 29.6855 146.681 30.1309 146.681 30.6804C146.681 31.2299 147.127 31.6753 147.676 31.6753Z" fill="#75297F"/>
<path d="M133.814 138.339C134.363 138.339 134.809 137.894 134.809 137.345C134.809 136.795 134.363 136.35 133.814 136.35C133.264 136.35 132.818 136.795 132.818 137.345C132.818 137.894 133.264 138.339 133.814 138.339Z" fill="#75297F"/>
<path d="M12.3468 45.3149C13.1265 45.3149 13.7585 44.683 13.7585 43.9035C13.7585 43.124 13.1265 42.4921 12.3468 42.4921C11.5671 42.4921 10.9351 43.124 10.9351 43.9035C10.9351 44.683 11.5671 45.3149 12.3468 45.3149Z" fill="#75297F"/>
</g>
<defs>
<clipPath id="clip0_3212_1564">
<rect width="160" height="156.364" fill="white"/>
</clipPath>
</defs>
</svg>
