<svg xmlns="http://www.w3.org/2000/svg" width="177" height="173" fill="none"><g fill-rule="evenodd" clip-path="url(#a)" clip-rule="evenodd"><path fill="#F9F7F3" d="M20.953 61.454c-.013-.272-.027-.55-.043-.823-.27-4.774-.365-12.47 3.614-20.054 2.127-4.052 4.805-9.855 8.47-13.694 2.9-3.036 6.395-4.903 10.563-4.512 3.974.373 5.696 3.917 6.38 7.785.186-.433.38-.881.585-1.341 1.248-2.808 2.851-5.97 5.036-8.474 2.475-2.836 5.665-4.854 9.817-5 4.367-.152 6.598 1.624 8.032 3.47.882-1.988 2.195-4.636 3.746-6.776 2.716-3.746 6.822-7.26 10.02-8.9 1.846-.945 3.51-1.273 4.673-1.105 3.802.548 5.777 2.885 7.033 5.077.082.143.167.295.252.45 1.036-.906 2.452-2.058 3.7-2.772 3.421-1.957 7.705-2.225 10.324-1.201 1.357.53 2.288 1.525 2.832 2.898.53 1.338.64 3.164.433 5.123-.163 1.547-.547 3.613-.875 5.229.762-.308 1.6-.536 2.529-.579 4.783-.218 5.541.576 7.007 1.76.086.069.171.146.255.231.991-1.056 1.964-2.089 2.593-2.756a13.33 13.33 0 0 1 .378-2.719c.58-2.313 1.971-4.929 4.986-6.32 5.949-2.745 13.081.636 15.718 3.865 1.633 2 2.352 4.965 2.307 7.86-.044 2.806-.797 5.497-1.771 7.049-1.294 2.061-2.88 3.265-4.506 3.872l.099.045c1.851.86 3.146 2.107 3.805 3.367 1.041 1.992.863 4.216-.021 6.342-.2.482-.44.958-.699 1.42 2.084-.38 4.475-.853 6.673-.944 4.281-.177 8.383 1.767 9.973 4.995 1.519 3.086 1.582 6.792.157 11.243-1.144 3.573-2.6 4.994-4.079 6.888.065 2.312 1.594 5.061.94 10.443-.279 2.294-1.506 7.854-2.214 9.767.279-.093 1.928-.515 2.128-.56.496-.11.899-.12 1.18-.093l1.032.296.507.34.401.43.304.53.185.657c.05.333.035 1.166-.485 2.224-.765 1.556-2.983 4.924-4.458 6.938.406 1.892.441 4.134.099 6.424l.205.067c1.993.666 4.225 1.748 4.777 2.26l.613.793.263.766.022.794-.257.852-.427.588c.251.22.429.424.543.585l.331.616.164.659-.012.712-.231.746-.357.555-.498.465-1.12.516c-.307.085-.774.163-1.347.23l.103.415-.004.653-.122.517-.478.837-.594.518-.209.092a68.624 68.624 0 0 1-.769 9.18c-.669 4.36-3.584 8.748-6.304 12.004-3.386 4.052-4.832 5.516-8.148 9.657-1.542 1.926-5.389 8.427-8.158 11.558-3.356 3.793-9.437 6.469-15.706 6.523-4.63.04-8.759-1.43-12.407-3.223-3.246-1.596-6.067-3.456-8.51-4.436-5.578-2.237-16.944-3.538-26.57-9.399-2.673-1.628-4.571-3.351-6.13-5.132-.161.3-.31.562-.431.764a9.554 9.554 0 0 1-.113.181c.491 1.281.584 2.694.263 3.649-.753 2.242-1.843 5.482-3.97 10.085-.666 1.442-2.352 2.792-4.724 2.524-2.343-.264-3.396-2.106-3.664-4.345-.138-1.152-.138-3.111-.116-4.474-1.357.039-3.133.083-3.514.054-1.015-.079-2.867-.6-3.684-2.023-.45-.782-.804-1.978-.136-3.749-3.465-1.661-10.298-5.32-15.981-10.711-.706-.669-1.426-1.497-2.144-2.45-3-1.213-7.316-3.575-10.922-7.046-5.804-5.584-10.377-15.192-10.625-20.32-.097-1.995.48-3.273 1.223-4.148.446-.525.98-.923 1.569-1.215-2.763-2.944-6.574-8.509-7.01-17.092C5 75.547 6.557 70.206 8.802 66.469c1.754-2.919 4-4.854 6.073-5.414 2.457-.665 4.454-.236 6.078.399Zm135.382 41.597c-.286-.376-.557-.956-.254-1.32 2.049-2.463 2.138-7.802-4.425-10.14-.555-.197-.993-1.335-.136-2.956 1.506-2.85 2.576-8.045 2.426-11.712-.27-6.584-.871-15.13-.871-15.13a1.513 1.513 0 0 1 .185-1.715s3.014-3.477 5.004-7.306c.629-1.21 1.157-2.454 1.428-3.629.221-.956.287-1.854-.014-2.603-.484-1.206-1.541-1.82-2.802-2.145-1.586-.41-3.48-.369-5.318-.168-3.196.349-6.237 1.202-7.515 1.438-.363.066-.64.09-.814.087l-.347-.038-.376-.125-.334-.208-.304-.313-.212-.377-.104-.373-.021-.357.059-.407c.063-.252.205-.588.445-.978.547-.891 1.795-2.372 2.69-4.036.668-1.24 1.231-2.594.603-3.796-.319-.61-1.01-1.141-1.908-1.558-1.633-.758-3.925-1.067-6.473-.507h-.002l-.403.053a1.514 1.514 0 0 1-1.385-2.127c.089-.2.175-.405.26-.622.704-1.8 2.326-3.89 2.326-3.89.361-.46.955-.674 1.527-.545 0 0 .848.184 2.597.318 1.434.11 3.028-.548 4.224-2.453.68-1.085 1.117-2.989 1.148-4.95.03-1.91-.313-3.903-1.391-5.223-1.822-2.232-6.733-4.638-10.844-2.74-1.697.782-2.413 2.307-2.739 3.61-.352 1.407-.254 2.603-.254 2.603.038.43-.11.857-.407 1.172 0 0-3.222 3.412-5.266 5.607-.2.215-.394.44-.581.67a1.517 1.517 0 0 1-2.672-.715c-.092-.567-.204-1.072-.356-1.48-.068-.184-.108-.35-.212-.434-.881-.71-1.382-.99-4.257-.859-1.377.063-2.381.933-3.257 1.3-1.275.533-2.385.535-3.486-.532l-.272-.334-.213-.464a2.945 2.945 0 0 1-.116-.883c.007-1.19.718-3.787 1.187-6.436.254-1.438.435-2.894.298-4.085-.079-.686-.185-1.299-.733-1.513-1.732-.677-4.547-.352-6.809.942-2.197 1.258-3.95 3.311-4.917 3.965a3.246 3.246 0 0 1-.539.3l-.526.153-.383.018-.447-.082-.464-.212-.504-.401c-.343-.348-.689-.92-1.053-1.629-.765-1.49-1.754-3.935-4.763-4.37-.327-.046-.733.07-1.203.243-.668.245-1.414.636-2.2 1.13-2.518 1.586-5.395 4.22-7.403 6.99-2.746 3.788-3.876 7.835-4.67 9.27-.143.26-.285.466-.418.62l-.51.444-.461.204-.595.064c-.93-.06-1.783-.768-2.544-2.046-.83-1.392-1.92-3.701-5.74-3.567-3.449.12-5.898 2.172-7.77 4.71-2.071 2.808-3.452 6.226-4.552 8.774-.769 1.78-1.454 3.18-2.074 3.866-.3.332-.61.556-.906.694l-.44.152-.502.055-.612-.087-.566-.243-.454-.35a2.813 2.813 0 0 1-.336-.393c-.388-.545-.683-1.423-.884-2.507-.283-1.533-.431-3.588-.994-5.302-.388-1.181-.949-2.233-2.253-2.355-2.88-.27-5.226 1.17-7.229 3.267-3.408 3.57-5.832 9.007-7.81 12.774-4.554 8.682-3.049 17.548-2.995 20.949.015.952-.118 1.627-.302 1.996l-.255.39-.267.262-.616.318c-.708.206-1.579.058-2.593-.397-1.196-.537-2.839-1.629-5.167-1-1.3.352-2.54 1.747-3.641 3.578-1.877 3.125-3.186 7.589-2.975 11.731.538 10.585 6.178 14.738 8.214 16.522.594.52.956.963 1.106 1.277l.14.397.045.34-.1.65-.168.352-.227.301-.508.397c-.386.216-1.021.347-1.788.396-.403.026-.864.042-1.316.121-.362.064-.748.132-.967.458-.188.28-.24.688-.213 1.255.216 4.457 4.338 12.731 9.382 17.584 3.438 3.309 7.608 5.473 10.241 6.442.286.106.534.295.71.543.702.984 1.402 1.835 2.093 2.491 6.823 6.471 15.427 10.258 16.778 10.83A1.513 1.513 0 0 1 54 143.267a29.25 29.25 0 0 0-.885 1.648 3.395 3.395 0 0 0-.205.565c.13.028.292.059.369.065.499.039 2.67-.147 4.145-.144.988.003 1.764.156 2.062.311l.33.223.328.366.25.499c.06.17.113.377.15.617.195 1.266-.133 4.185.099 6.126.029.244.13.624.176.789.216.005.394-.053.457-.19 2.04-4.416 3.084-7.524 3.806-9.675.061-.181.007-.43-.067-.676-.084-.284-.22-.575-.444-.756a1.512 1.512 0 0 1 .08-2.418c.23-.161.431-.42.66-.797.546-.898 1.654-3.185 2-4.046a1.517 1.517 0 0 1 2.643-.315c1.83 2.568 3.792 5.087 7.53 7.364 9.398 5.721 20.522 6.913 25.967 9.097 2.522 1.012 5.443 2.914 8.792 4.561 3.112 1.53 6.62 2.839 10.57 2.805 5.045-.044 9.982-2.095 12.683-5.147 2.731-3.087 6.509-9.506 8.029-11.405 3.339-4.169 4.794-5.644 8.202-9.723 2.283-2.733 4.843-6.353 5.404-10.012.604-3.932.771-7.631.727-10.678a1.51 1.51 0 0 1 .185-.747 1.502 1.502 0 0 1-.225-.736 51.977 51.977 0 0 0-.088-1.65c-.028-.414-.376-3.39-.404-3.539-.078-.427-.704-2.222-.991-2.598Z"/><path fill="#FF5C54" d="M4.303 58.622c-.103.256-.295.461-.513.461-.218 0-.41-.153-.513-.46l-.205-.628a2.103 2.103 0 0 0-1.282-1.28l-.551-.166c-.308-.09-.449-.295-.462-.525-.012-.23.154-.435.462-.525l.551-.166a2.109 2.109 0 0 0 1.282-1.28l.205-.627c.103-.308.295-.461.513-.461.218 0 .41.153.513.46l.205.628a2.089 2.089 0 0 0 1.282 1.28l.539.166c.32.09.448.295.461.525.013.23-.14.435-.461.525l-.539.166a2.094 2.094 0 0 0-1.282 1.28l-.205.627ZM96.857 172.54a.576.576 0 0 1-.5.461.602.602 0 0 1-.513-.461l-.205-.64a2.15 2.15 0 0 0-1.282-1.28l-.539-.153a.58.58 0 0 1-.474-.538c0-.23.154-.422.474-.525l.539-.166c.295-.105.564-.274.786-.495.222-.222.39-.491.496-.785l.205-.627a.602.602 0 0 1 .513-.461.576.576 0 0 1 .5.461l.218.627a2.113 2.113 0 0 0 1.282 1.28l.551.166c.308.103.449.295.462.525.012.23-.154.435-.462.538l-.551.153a2.136 2.136 0 0 0-1.282 1.28l-.218.64ZM67.677 5.542a.57.57 0 0 1-.183.37.573.573 0 0 1-.382.155.604.604 0 0 1-.513-.46l-.204-.64a2.1 2.1 0 0 0-1.283-1.204l-.538-.166c-.32-.103-.449-.307-.462-.538-.012-.23.141-.422.462-.525l.538-.166a2.113 2.113 0 0 0 1.282-1.28l.218-.627A.604.604 0 0 1 67.125 0a.572.572 0 0 1 .551.46l.218.628a2.101 2.101 0 0 0 1.283 1.216l.55.166c.309.103.45.295.462.525.013.23-.153.435-.461.538l-.551.166a2.067 2.067 0 0 0-1.283 1.203l-.217.64Zm96.694 131.209a.57.57 0 0 1-.5.461.604.604 0 0 1-.512-.461l-.206-.64a2.147 2.147 0 0 0-1.282-1.28l-.538-.153a.575.575 0 0 1-.474-.538.564.564 0 0 1 .474-.525l.538-.166a2.1 2.1 0 0 0 1.282-1.28l.206-.627c.102-.294.294-.461.512-.461a.568.568 0 0 1 .329.147c.089.084.15.194.171.314l.218.627a2.117 2.117 0 0 0 1.282 1.28l.552.166c.307.09.449.295.461.525.013.231-.154.435-.461.538l-.552.153a2.141 2.141 0 0 0-1.282 1.28l-.218.64Zm-146.183 3.2a1.729 1.729 0 1 1 0-3.456c.955 0 1.73.774 1.73 1.728a1.73 1.73 0 0 1-1.73 1.728Zm140.401-114.39a1.73 1.73 0 1 1 0-3.456 1.728 1.728 0 1 1 0 3.456Zm5.513 124.528a1.73 1.73 0 1 1 0-3.456 1.73 1.73 0 0 1 1.731 1.728 1.73 1.73 0 0 1-1.731 1.728Zm11.795-66.725a1.101 1.101 0 1 1 0-2.202 1.102 1.102 0 1 1 0 2.202ZM.829 98.864a1.102 1.102 0 1 1-.002-2.203 1.102 1.102 0 0 1 .002 2.204Zm43.206 55.397a1.101 1.101 0 1 1 0-2.201 1.101 1.101 0 1 1 0 2.201Zm34.514 5.914a1.102 1.102 0 1 1-.002-2.204 1.102 1.102 0 0 1 .002 2.204Zm84.797-125.13a1.102 1.102 0 1 1-.002-2.204 1.102 1.102 0 0 1 .002 2.204Zm-15.36 118.013a1.101 1.101 0 1 1-.001-2.203 1.101 1.101 0 0 1 .001 2.203ZM13.406 50.136a1.563 1.563 0 1 1 0-3.123 1.563 1.563 0 1 1 0 3.123ZM157.402 93.534c.54 2.904.665 6.702.14 8.6l.028-.003c1.042-.106 6.562 1.989 6.328 2.456-.147.295-2.89.661-5.081.788.03.163.06.341.09.535 2.447.821 5.54 2.207 5.341 2.622-.152.316-2.565.51-5.006.552.037.531.068 1.097.091 1.695.924.678 1.569 1.249 1.447 1.393-.076.09-.612.128-1.407.127a66.384 66.384 0 0 1-.743 10.929c-.602 3.919-3.293 7.825-5.739 10.753-3.4 4.068-4.851 5.539-8.181 9.698-1.529 1.909-5.333 8.359-8.078 11.462-2.944 3.327-8.306 5.61-13.806 5.658-8.406.072-14.954-5.475-19.94-7.475-5.495-2.203-16.708-3.436-26.19-9.209-3.956-2.408-6.042-5.063-7.978-7.779-.364.909-1.535 3.322-2.11 4.269-.367.604-.718.994-1.086 1.251.91.732 1.281 2.247.998 3.092-.734 2.185-1.796 5.342-3.867 9.827-.294.634-1.066 1.171-2.11 1.053-1.044-.117-1.287-1.108-1.406-2.106-.288-2.406.303-6.328-.351-6.668-.654-.34-4.892.057-5.625 0-.733-.057-2.65-.283-1.406-2.808.276-.56.59-1.141.93-1.733a.962.962 0 0 1-.326-.034s-9.8-3.972-17.433-11.211c-.753-.714-1.519-1.639-2.283-2.71-2.768-1.02-7.154-3.294-10.77-6.773-5.326-5.126-9.615-13.895-9.843-18.602-.227-4.706 4.87-2.728 5.273-3.86.404-1.132-8.776-4.526-9.491-18.601-.377-7.407 3.766-15.774 7.734-16.846 3.967-1.073 6.31 1.816 7.734 1.403 1.424-.413-2.38-11.93 3.515-23.163 3.387-6.456 8.126-17.634 16.523-16.846 5.615.526 3.368 11.198 5.976 11.23 2.608.033 4.893-17.855 16.171-18.25 6.704-.235 6.658 5.5 8.437 5.616.885.058 1.834-5.161 5.327-9.98 3.535-4.876 9.626-9.351 12.25-8.972 5.219.752 5.663 6.23 7.031 6.668.697.223 2.8-2.626 5.596-4.226 2.692-1.54 6.053-1.844 8.115-1.039 4.202 1.643-.653 13.066.351 14.039 1.45 1.405 2.98-1.073 5.619-1.194 3.583-.163 4.181.307 5.279 1.194.551.445.892 1.494 1.112 2.85.207-.256.423-.505.646-.744 2.046-2.199 5.273-5.616 5.273-5.616s-.507-5.703 3.867-7.72c4.794-2.213 10.531.555 12.656 3.158 2.568 3.145 1.93 9.417.351 11.933s-3.73 3.304-5.625 3.158c-1.894-.145-2.812-.35-2.812-.35s-1.473 1.883-2.109 3.509a17.09 17.09 0 0 1-.287.685l.076-.017c4.884-1.076 8.941.713 10.054 2.842 2.145 4.102-4.559 9.682-3.515 10.178.746.354 14.79-4.739 17.929 1.754 4.135 8.555-4.922 15.794-4.922 15.794s3.053 3.987 2.812 10.88c-.174 5.003-1.881 12.55-3.121 15.071 2.722-1.285 6.47-3.054 6.988-2.788.491.252-4.238 7.304-5.441 8.601ZM55.247 110.493c-.112 1.274-.665 6.315-2.438 6.378-1.49.053-2.308-5.272-2.638-8.105a9.323 9.323 0 0 0-1.224-.788c-2.345-1.27-6.768-2.791-11.089-3.344-1.445-.185-3.337-1.241-5.299-2.698-2.567-1.906-5.337-4.472-7.411-5.92a9.88 9.88 0 0 0-1.197-.687c-.28.804-.345 1.884-.318 3.057.058 2.51.65 5.419 1.379 7.467 1.255 3.529 7.207 18.128 12.284 22.944 6.794 6.444 16.61 9.827 17.634 10.168 1.824-2.674 3.319-4.847 4.207-5.95.891-1.104 1.21-1.298 2.11-1.052.9.246.543 2.813.351 4.211-.223 1.625-.448 2.895-.477 3.707.182-.125.395-.21.629-.242 1.33-.183 2.287-1.391 3.056-2.657 1.393-2.293 2.047-5.011 2.047-5.011a1.465 1.465 0 0 1 2.692-.391s4.303 7.469 10 10.692c7.611 4.305 19.02 6.168 24.433 8.339 4.723 1.894 11.229 6.263 21.191 5.862 4.589-.185 7.864-2.596 10.322-5.374 2.658-3.004 4.405-6.45 5.761-8.391 1.957-2.802 6.283-7.164 9.741-11.303 2.126-2.545 3.859-5.373 4.462-8.608.526-2.819.646-7.122.411-10.642a68.16 68.16 0 0 1-2.662-.228c1.089 1.056 2.113 2.281 1.871 2.469-.344.267-5.107-.49-6.968-1.144-2.023 1.017-4.203 1.519-7.059 1.496-2.775-.021-4.97-.082-6.867-.626-.14 2.734-2.39 5.699-4.032 6.961-2.254 1.732-3.659 1.793-4.218.702-.559-1.092 1.094-2.62 1.758-3.159.663-.54 1.678-1.537 2.109-2.808.431-1.27.432-3.066-1.055-3.509-.739-.221-3.953.933-5.624.351-1.264-.441-1.408-.62-1.407-1.404.001-.785 1.567-.871 2.461-1.053.699-.143 2.534-.711 4.077-.948-.657-1.297-1.112-3.058-.909-5.489.478-5.732 5.75-10.086 10.743-12.85a22.03 22.03 0 0 1 4.52-1.889c1.008-.927 3.217-2.373 4.771-3.392.583-.382 1.356-.9 2.196-1.456.04-.86.075-1.846.064-2.988-.46.214-1.075.406-1.908.584-2.461.524-6.221 1.408-9.844 3.158-3.622 1.75-5.635 3.402-7.382 4.563-1.034.687-3.275 2.326-4.219 1.755-.943-.571 1.055-3.86 1.055-3.86s5.862-6.892 12.656-9.828c5.282-2.283 6.74-2.023 8.437-2.106.022 0-1.289-4.387-4.922-8.072-2.416-2.451-9.843-5.264-9.843-5.264s5.504 4.71 1.406 7.72c-9.862 7.247-17.226-.701-17.226-.701s1.502 6.325-9.491 7.37c-13.422 1.277-20.038-7.02-20.038-7.02s.652 7.521-8.438 7.371c-9.09-.15-14.764-11.582-14.764-11.582s3.171 8.802 1.757 10.53c-1.414 1.727-3.515 1.052-3.515 1.052s2.4 4.963 1.406 8.774c-.993 3.811-4.219 4.563-4.219 4.563s2.092 3.223 2.461 5.966c.37 2.744.48 6.34-.351 11.582-.832 5.242-3.129 11.345-5.625 10.88-2.21-.411-1.885-6.698-1.781-8.133Zm0 0c.016-.185.023-.29.023-.29s-.01.104-.023.29Zm-22.476-3.449c1.275-.773 5.705 2.635 6.328 2.808.623.172 1.309 1.042.703 1.755-.605.712-.365.38-1.406.351-1.041-.03-2.704-1.388-3.164-1.053-.46.335 1.695 5.255 2.461 6.317.766 1.062 1.882 1.963 3.867 3.51 1.985 1.546 3.25.8 4.218 1.053.97.253 1.579.622 2.461 1.754.883 1.133 1.232.357 1.758 0 .526-.356.15-2.233-.352-2.807-.502-.574-.916-.136-2.46-.351-1.545-.216-2.103-.039-2.461-1.053-.358-1.014.965-1.29 1.758-1.404.792-.114 4.049-.264 5.273.351 1.224.615 1.098 3.137 1.406 3.159.308.022 1.704-.797 2.812.351 1.108 1.147 1.14 1.881 1.407 3.86.266 1.979 1.155 1.429 1.406 2.457.25 1.028.502 1.244 0 1.755-.502.51-.529 1.028-2.461 0-1.932-1.029-1.33-4.892-2.813-5.265-1.482-.373-2.942 2.271-4.57 2.457-1.628.186-2.83-2.512-3.867-3.159-1.036-.646-2.367-.257-3.867-.702-1.499-.444-2.037-.677-3.515-3.158-1.478-2.481-2.766-4.161-3.867-6.318-1.101-2.156-2.01-6.089-1.055-6.668Zm66.937 26.282c-.172.179-.34.317-.495.391-.503.242-2.17.814-3.163.351-.994-.462-1.207-1.035-1.055-2.105.104-.729 1.416-.555 2.46-1.053 1.046-.498 1.384-.763 2.11-1.755.726-.993 1.456-1.222 2.109-.702.57.454.545 1.392 0 2.106-.245.321-.606.916-1.003 1.509 1.366.901 3.851 2.248 6.628 2.351 3.123.116 3.756.191 5.625-1.053 1.869-1.243 3.016-2.37 5.624-3.158 2.609-.789 4.853-.132 6.68-.351 1.827-.22 3.475-1.74 5.976-2.106 2.506-.367 4.495 1.467 6.679 1.404 2.029-.059 3.237-1.337 3.994-2.339-.681-.845-1.092-2.671-.127-2.926.68-.179 1.089 1.022 2.11 1.755.989.711 2.214.441 2.461 1.053.407 1.008.186 1.488-1.055 1.755-.896.193-1.613-.178-2.329-.722-.6 1.129-1.584 2.664-2.522 3.914-.486 1.082-1.346 2.751-2.285 4.93-.891 2.066-1.693 3.759-3.059 5.215-2.787 2.968-5.716 2.057-7.382 2.105-1.667.049-3.367 1.05-6.328 1.404-2.961.355-5.013.126-7.383-1.755-2.749-2.182-4.642-3.6-8.085-5.615-.506-.296-.94-.576-1.312-.84-2.418-1.274-4.32-2.856-4.873-3.763Zm34.441 1.361c-.909-.008-1.707-.055-2.242.083-1.987.514-3.705-.859-5.976-.351-5.209 1.166-5.385 2.532-9.661 3.134 1.164.224 2.196.365 2.982.376 2.647.036 5.337-1.191 7.03-1.404 1.694-.213 2.251-.05 5.274-.702.802-.173 1.691-.595 2.593-1.136Zm-23.686-42.383c-.527.877-1.789.96-3.516.35-1.726-.608-13.21-3.126-17.577-3.158-9.97-.072-12.796 1.498-14.765 2.106-2.762.852-4.413-.081-4.57-.702-.238-.945-.48-2.45 1.758-3.86 3.063-1.932 8.18-3.31 17.929-2.809 9.087.468 15.595 3.68 17.929 4.563 2.758 1.043 3.098 3.034 2.812 3.51ZM77.97 99.975a50.085 50.085 0 0 0-1.255-.652c-2.064-1.03-4.247-2.812-3.868-3.159.38-.347 2.133-.03 4.922.351 1.425.195 2.959.377 4.198.584-1.644-1.235-3.029-3.04-2.792-3.392.493-.73 2.71.492 8.086 1.404l.107.02c1.435-.281 3.243-.536 5.518-.722 4.568-.372 11.328 2.76 13.288 4.174 2.026 1.461 4.423 3.461 5.26 4.781 1.389 2.19.271 2.243-1.674.872-1.102-.776-4.109-3.063-7.734-4.211-3.008-.953-5.35-1.343-7.532-1.383 1.162.939 2.028 2.14 2.625 3.509l-6.343 4.893 7.248 2.246c-.505 3.168-2.381 5.893-5.013 7.567a44.447 44.447 0 0 0 3.39-.337c8.811-1.2 14.532-8.11 15.117-7.721 1.054.702-2.665 6.887-12.305 10.178-2.369.809-5.143 1.198-7.82 1.208-.498.501-1.256 1.056-2.374 1.6-2.159 1.049-4.958 2.186-5.274 1.754-.315-.432 1.061-1.716 1.758-2.456.303-.322.663-.828 1.037-1.327-.878.632-2.12 1.26-3.146 1.678-1.662.676-5.04 2.039-5.273 1.754-.233-.285 1.899-2.773 2.46-3.509l.11-.145a35.69 35.69 0 0 1-3.625.496c-2.053.172-5.39.351-5.625 0-.234-.351 1.89-1.417 4.219-2.808 1.565-.934 2.587-1.481 3.315-1.817-2.047-2.003-3.315-4.774-3.315-7.834 0-.955.123-1.874.355-2.747-5.224-.946-8.4-3.534-8.09-4.448.12-.349 2.408-.351 6.232-.388 1.608-.015 2.844-.054 3.813-.013Zm63.767 12.438c.245-.03.484-.065.717-.104 3.654-.617 6.194-.837 9.524-4.618 3.122-3.546 4.875-9.754 2.428-12.93-1.12-1.455-2.815-2.44-6.31-2.44-2.46 0-5.142.526-8.253 1.993 2.537.617 4.676 2.31 5.943 4.588l-6.145 5.334 7.038 2.082c-.728 2.689-2.553 4.905-4.942 6.095Zm-8.04-93.772a24.723 24.723 0 0 0-3.196 3.47c-3.286 4.32-4.251 5.94-4.57 7.02-.319 1.079-1.165 4.903.351 5.264 1.517.36 6.68-2.457 6.68-2.457s.432-3.495 2.461-5.616a54.589 54.589 0 0 1 2.195-2.158 4.625 4.625 0 0 0 1.867.403c3.19 0 5.096-.535 5.781-3.47.703-3.013-1.692-8.501-6.132-8.501-3.191 0-5.469 2.446-5.469 5.459 0 .194.011.39.032.586ZM54.567 145.3s4.57-.234 5.625 0c.647.144.746.607.703 1.404-.08 1.497 0 4.914 0 4.914s-.235.929.351 1.052c.587.124 1.407-4.211 1.407-4.211l1.406-4.212s.377-.739-.352-1.053c-.729-.313-3.867-.351-3.867-.351s-.92-.119-.703-1.052c.136-.582 1.055-6.318 1.055-6.318s.45-.468 0-.702c-.45-.233-.703.702-.703.702l-4.922 8.774s-.763.945 0 1.053Zm27.44-119.793c-1.934 1.965-4.285 4.845-5.996 8.538-3.445 7.437-4.57 10.236-5.273 13.336-.314 1.388-.924 4.263 1.055 5.265 1.979 1.002 4.578 1.851 5.976 1.403 1.398-.447 2.242-.575 2.461-1.754.219-1.18.842-9.017 2.11-13.688.764-2.82 3.425-6.584 5.413-9.125h.035c3.59 0 6.504-1.699 6.504-5.089 0-3.39-1.508-7.195-6.504-7.195-3.59 0-6.152 2.752-6.152 6.142 0 .763.13 1.493.372 2.167Z"/></g><defs><clipPath id="a"><path fill="#fff" d="M0 0h177v173H0z"/></clipPath></defs></svg>