<svg xmlns="http://www.w3.org/2000/svg" xml:space="preserve" style="fill-rule:evenodd;clip-rule:evenodd;stroke-linejoin:round;stroke-miterlimit:2" viewBox="0 0 115 118"><path d="m3.225 42.624 3.379 1.085c1.151.37 1.671-.187 1.866-.794.35-1.089-.684-1.612-.937-1.844a.75.75 0 0 1-.235-.799c.107-.334.442-.568.912-.417l1.621.521c.594.191.863.714.672 1.308l-1.805 5.578c-.151.47-.536.606-.87.499a.75.75 0 0 1-.513-.656c-.041-.341-.041-.723-.833-.977l-3.973-1.276c-.792-.254-1.015.056-1.246.31a.75.75 0 0 1-.799.235c-.334-.107-.568-.442-.417-.912l.962-2.995c.151-.47.536-.606.87-.499a.75.75 0 0 1 .513.656c.041.341.041.723.833.977m11.093-13.538.133.148c.577.64.94.326 1.241.161a.75.75 0 0 1 .832.035c.282.209.395.602.1.998l-1.877 2.525c-.295.396-.703.401-.985.191a.75.75 0 0 1-.274-.787c.071-.336.156-.645-.396-1.298l-2.799-3.36c-1.16-1.381-1.236-2.782-.593-3.648.651-.876 2.01-1.244 3.695-.525l4.024 1.712c.784.34 1.056.17 1.357.005a.75.75 0 0 1 .832.035c.282.209.395.602.1.998l-1.877 2.525c-.295.396-.703.401-.985.191a.75.75 0 0 1-.274-.787c.071-.336.267-.773-.512-1.142l-.18-.085a.63.63 0 0 0-.779.198l-.822 1.106a.63.63 0 0 0 .035.803Zm-.825-3.205-.678-.374c-1.001-.55-1.304-.403-1.421-.246-.132.177-.185.51.63 1.31l.554.541c.217.21.469.219.655-.031l.419-.563c.186-.25.105-.489-.159-.636ZM42.087 2.064c.592-.196 1.118.068 1.314.66l.536 1.617c.155.469-.075.806-.409.916a.75.75 0 0 1-.801-.227c-.234-.251-.754-1.284-1.347-1.088-.358.119-.552.525-.171 1.673l1.116 3.369c.262.79.644.786.985.824.353.034.579.26.661.507.11.333-.022.719-.491.875l-2.986.99c-.469.155-.806-.075-.916-.409a.75.75 0 0 1 .227-.801c.251-.234.56-.459.298-1.249l-1.116-3.369c-.38-1.148-.779-1.358-1.137-1.239-.592.196-.393 1.335-.43 1.677a.75.75 0 0 1-.507.661c-.333.11-.719-.022-.875-.491l-.536-1.617c-.196-.592.068-1.118.66-1.314l5.923-1.963ZM57.459 6.64c.026.832.393.937.709 1.071a.75.75 0 0 1 .489.674c.011.351-.226.683-.72.699l-3.145.097c-.494.015-.751-.302-.761-.653a.75.75 0 0 1 .447-.703c.307-.153.668-.281.642-1.112l-.129-4.171c-.026-.832-.393-.937-.709-1.071a.75.75 0 0 1-.489-.674c-.011-.351.226-.683.72-.699l3.145-.097c.494-.015.751.302.761.653a.75.75 0 0 1-.447.703c-.307.153-.668.281-.642 1.112zm15.805 1.217c-.123.478-.499.637-.852.546-.844-.217-.33-1.225-.959-1.387-.164-.042-.313.067-.364.269l-.087.34c-.301 1.171.286 1.657.903 1.816 1.108.285 1.569-.778 1.785-1.045a.75.75 0 0 1 .784-.282c.34.087.593.407.47.886l-.424 1.649c-.155.604-.662.904-1.266.749l-5.675-1.471c-.478-.123-.637-.499-.55-.839a.75.75 0 0 1 .625-.551c.338-.061.719-.084.926-.89l1.038-4.042c.207-.806-.117-1.01-.383-1.226a.75.75 0 0 1-.282-.784c.087-.34.407-.593.886-.47l5.679 1.458c.604.155.904.662.749 1.266l-.424 1.649c-.123.478-.499.637-.839.55a.75.75 0 0 1-.551-.625c-.061-.338.047-1.491-1.061-1.776-.617-.158-1.365-.015-1.666 1.156l-.074.29c-.052.201.026.369.19.411.63.162.665-.97 1.509-.753.353.091.606.411.483.889l-.569 2.216Zm13.737 9.158.246-3.466c.013-.256-.016-.4-.081-.443-.076-.05-.198.041-.363.29l-.823 1.248c-.458.695-.219.993-.037 1.284a.75.75 0 0 1 .011.833c-.193.293-.578.428-.991.156l-2.626-1.732c-.412-.272-.44-.679-.246-.972a.75.75 0 0 1 .77-.317c.339.052.707.155 1.166-.539l2.305-3.494c.458-.695.219-.993.037-1.284a.75.75 0 0 1-.011-.833c.193-.293.578-.428.991-.156l1.682 1.11c.662.437.564.964.523 1.591l-.276 4.101c-.01.227.063.259.191.064l1.16-1.758c.458-.695.219-.993.037-1.284a.75.75 0 0 1-.011-.833c.193-.293.578-.428.991-.156l2.626 1.732c.412.272.44.679.246.972a.75.75 0 0 1-.77.317c-.339-.052-.707-.155-1.166.539l-3.085 4.677c-.344.521-.92.639-1.441.295l-.532-.351c-.662-.437-.564-.964-.523-1.591M98.41 29.296l-2.157-2.851c-.369-.487-.288-.94-.008-1.152.207-.157.545-.184.902.051.349.225.717.517 1.381.015l3.327-2.518c.663-.502.482-.936.361-1.333-.129-.408-.011-.725.196-.882.28-.212.727-.159 1.096.328l1.922 2.54c1.663 2.198 1.418 4.975-.811 6.662-1.783 1.349-4.429 1.494-6.21-.859Zm1.236-.952c.704.951 2.426.642 3.649-.284.964-.73 1.961-2.234 1.043-3.447-.259-.342-.584-.276-.843-.08l-3.97 3.005c-.114.086-.154.443.121.805Zm8.353 12.96-.197.026c-.854.114-.801.59-.835.932a.75.75 0 0 1-.5.666c-.332.114-.72-.015-.879-.482l-1.019-2.977c-.16-.467.068-.806.4-.92a.75.75 0 0 1 .803.22c.236.249.444.494 1.294.409l4.355-.405c1.795-.175 2.993.556 3.343 1.577.354 1.033-.113 2.361-1.659 3.343l-3.69 2.348c-.724.454-.738.775-.772 1.116a.75.75 0 0 1-.5.666c-.332.114-.72-.015-.879-.482l-1.019-2.977c-.16-.467.068-.806.4-.92a.75.75 0 0 1 .803.22c.236.249.486.658 1.231.225l.172-.1a.63.63 0 0 0 .278-.755l-.446-1.304a.63.63 0 0 0-.682-.426Zm3.109 1.135.692-.347c1.02-.514 1.07-.847 1.007-1.032-.072-.209-.316-.441-1.437-.223l-.759.15c-.296.06-.446.263-.345.558l.227.664c.101.295.344.363.614.229ZM13.253 88.571l-2.83.119c-.401.011-.854-.038-1.026-.329-.132-.224-.122-.563.167-1.096l1.382-2.616c.289-.533.154-.378-.249-.14l-1.962 1.177c-.716.424-.432 1.132-.397 1.474a.75.75 0 0 1-.354.754c-.302.179-.708.132-.959-.293l-1.603-2.707c-.252-.425-.098-.803.204-.982a.75.75 0 0 1 .831.052c.282.196.767.785 1.483.361l3.602-2.133c.716-.424.432-1.132.397-1.474a.75.75 0 0 1 .354-.754c.302-.179.708-.132.959.293l.98 1.656c.404.682.213 1.355-.094 1.883l-1.131 1.969c-.394.687-.619.971-.553 1.083.06.101.388.042 1.079.011l2.353-.109c.616-.032 1.16-.082 1.71.846l.841 1.421c.252.425.098.803-.204.982a.75.75 0 0 1-.831-.052c-.282-.196-.568-.449-1.284-.025l-3.602 2.133c-.716.424-.631.797-.595 1.138a.75.75 0 0 1-.354.754c-.302.179-.708.132-.959-.293l-1.603-2.707c-.252-.425-.098-.803.204-.982a.75.75 0 0 1 .831.052c.282.196.568.449 1.284.025l1.958-1.159c.28-.166.396-.25.37-.294-.02-.034-.16-.041-.399-.036Zm8.507 13.107-.154.126c-.668.544-.373.922-.223 1.231a.75.75 0 0 1-.077.829c-.223.271-.621.364-1.002.05l-2.427-2.002c-.381-.314-.365-.722-.142-.993a.75.75 0 0 1 .799-.234c.332.088.637.188 1.317-.33l3.497-2.626c1.438-1.089 2.841-1.095 3.673-.408.842.695 1.141 2.07.339 3.717l-1.912 3.933c-.379.766-.223 1.046-.073 1.355a.75.75 0 0 1-.077.829c-.223.271-.621.364-1.002.05l-2.427-2.002c-.381-.314-.365-.722-.142-.993a.75.75 0 0 1 .799-.234c.332.088.759.306 1.166-.454l.094-.175a.63.63 0 0 0-.159-.788l-1.063-.877a.63.63 0 0 0-.804-.006Zm3.242-.662.408-.658c.599-.972.468-1.282.317-1.406-.17-.141-.5-.21-1.34.563l-.568.526c-.22.206-.242.457-.002.656l.542.447c.241.199.483.129.644-.126Zm15.572 11.61c.042 1.199.705 1.286.945 1.531s.284.568.191.811c-.125.328-.472.543-.934.366l-1.53-.585a1.59 1.59 0 0 1-1.011-1.431l-.075-3.369a.33.33 0 0 0-.132-.092.293.293 0 0 0-.386.172l-.488 1.275c-.297.777.001 1.016.241 1.261.252.25.284.568.191.811-.125.328-.472.543-.934.366l-2.938-1.124c-.461-.177-.576-.568-.45-.896a.75.75 0 0 1 .683-.476c.343-.022.724-.001 1.022-.778l1.492-3.897c.297-.777-.001-1.016-.241-1.261a.75.75 0 0 1-.191-.811c.125-.328.472-.543.934-.366l4.189 1.603c1.348.516 2.036 1.809 1.501 3.205-.348.911-1.148 1.398-1.955 1.507-.253.042-.2.16-.192.428l.067 1.752Zm-1.87-4.279.522.2c.486.186.939-.016 1.129-.514.186-.486-.016-.939-.502-1.125l-.267-.102c-.401-.153-.694-.043-.838.334l-.269.704c-.084.219.006.42.225.504Zm14.973 9.554c-2.824-.236-4.076-2.74-3.877-5.124.201-2.41 1.84-4.699 4.69-4.461 1.853.155 2.889 1.337 2.828 2.062-.042.505-.569.722-.984.688-.92-.077-1.016-1.115-2-1.198-1.295-.108-1.937 1.482-2.073 3.114-.134 1.606.25 3.256 1.546 3.364.985.082 1.289-.91 2.209-.833.44.037.863.294.818.825-.061.725-1.278 1.72-3.157 1.563m15.228-3.653c.146.819.525.87.858.956.345.084.536.34.582.596.062.346-.124.709-.61.796l-3.097.554c-.486.087-.787-.19-.848-.535a.75.75 0 0 1 .339-.761c.282-.196.62-.375.473-1.194l-.734-4.108c-.146-.819-.525-.87-.858-.956a.75.75 0 0 1-.582-.596c-.062-.346.124-.709.61-.796l3.097-.554c.486-.087.787.19.848.535a.75.75 0 0 1-.339.761c-.282.196-.62.375-.473 1.194zm12.476-4.297.052.192c.226.832.691.716 1.034.705a.75.75 0 0 1 .726.408c.157.314.08.715-.362.935l-2.816 1.403c-.442.22-.808.04-.965-.275a.75.75 0 0 1 .112-.825c.215-.267.431-.505.234-1.337l-.976-4.263c-.41-1.756.156-3.04 1.121-3.522.977-.487 2.355-.2 3.533 1.203l2.815 3.347c.546.658.865.629 1.208.618a.75.75 0 0 1 .726.408c.157.314.08.715-.362.935l-2.816 1.403c-.442.22-.808.04-.965-.275a.75.75 0 0 1 .112-.825c.215-.267.588-.569.06-1.25l-.122-.157a.63.63 0 0 0-.785-.176l-1.233.614a.63.63 0 0 0-.332.732Zm.714-3.231-.435-.64c-.644-.943-.981-.949-1.156-.862-.198.099-.396.372-.031 1.453l.249.733c.098.285.319.407.598.268l.628-.313c.279-.139.315-.389.146-.639Zm16.882-7.448-3.352-.916c-.249-.063-.396-.062-.45-.006-.064.065.001.202.214.412l1.064 1.05c.592.585.931.408 1.252.286a.75.75 0 0 1 .819.151c.25.247.308.651-.04 1.002l-2.21 2.239c-.347.352-.752.299-1.002.052a.75.75 0 0 1-.161-.817c.117-.322.29-.664-.302-1.248l-2.979-2.941c-.592-.585-.931-.408-1.252-.286a.75.75 0 0 1-.819-.151c-.25-.247-.308-.651.04-1.002l1.416-1.434c.557-.564 1.055-.365 1.663-.204l3.969 1.069c.221.054.267-.011.1-.175l-1.499-1.48c-.592-.585-.931-.408-1.252-.286a.75.75 0 0 1-.819-.151c-.25-.247-.308-.651.04-1.002l2.21-2.239c.347-.352.752-.299 1.002-.052a.75.75 0 0 1 .161.817c-.117.322-.29.664.302 1.248l3.987 3.937c.444.438.448 1.027.009 1.471l-.448.453c-.557.564-1.055.365-1.663.204Zm7.768-13.369.156.123c.678.532.982.162 1.25-.052a.75.75 0 0 1 .826-.107c.313.158.492.526.269.966l-1.42 2.807c-.223.441-.624.515-.938.356a.75.75 0 0 1-.404-.729c.013-.343.044-.663-.611-1.212l-3.33-2.835c-1.378-1.163-1.692-2.531-1.205-3.494.493-.974 1.769-1.567 3.552-1.146l4.257 1.002c.83.202 1.07-.013 1.338-.226a.75.75 0 0 1 .826-.107c.313.158.492.526.269.966l-1.42 2.807c-.223.441-.624.515-.938.356a.75.75 0 0 1-.404-.729c.013-.343.132-.808-.699-1.038l-.192-.053a.63.63 0 0 0-.734.328l-.622 1.23a.63.63 0 0 0 .171.786Zm-1.358-3.018-.731-.253c-1.08-.371-1.354-.175-1.442-.001-.1.197-.095.534.843 1.184l.637.439c.249.17.499.136.64-.142l.317-.626c.141-.278.02-.5-.265-.6Zm-6.89-43.843c.184.049.286.161.298.294.003.134-.086.256-.264.325l-.38.148c-.307.119-.62.479-.698.798l-.082.335c-.048.196-.166.302-.307.304-.14.014-.269-.078-.339-.268l-.119-.325c-.113-.309-.465-.63-.783-.714l-.394-.105c-.184-.049-.286-.161-.298-.294-.002-.134.086-.256.264-.325l.38-.148c.306-.119.62-.478.698-.798l.082-.335c.048-.196.166-.302.307-.304.14-.014.27.078.339.268l.119.324c.113.309.465.63.783.714l.394.105Zm-65.43 50.927c.184.049.286.161.298.293.003.134-.086.256-.263.326l-.38.148c-.306.12-.62.479-.698.798l-.082.335c-.048.196-.166.302-.307.304-.14.014-.269-.078-.339-.267l-.119-.324c-.113-.308-.466-.63-.783-.714L30 90.763c-.184-.049-.286-.161-.298-.293-.002-.134.086-.256.263-.326l.38-.148c.306-.12.62-.479.697-.798l.082-.335c.048-.196.166-.302.307-.304.14-.014.27.078.339.268l.119.324c.113.308.466.63.783.714l.394.105Zm81.01-26.638c.235.062.365.206.381.375.003.171-.11.327-.337.416l-.485.189c-.392.153-.793.612-.892 1.019l-.104.429c-.061.251-.212.385-.392.388-.179.017-.344-.1-.433-.342l-.152-.415c-.144-.394-.594-.805-1-.913l-.503-.134c-.235-.062-.365-.206-.381-.375-.003-.171.11-.327.337-.416l.486-.189c.391-.153.792-.611.892-1.019l.104-.429c.061-.251.212-.385.392-.388.179-.017.345.1.433.342l.152.414c.144.394.594.805 1 .913l.503.134ZM94.473 46.627a.984.984 0 1 1-.122-1.963.984.984 0 0 1 .122 1.963M15.27 63.505a.984.984 0 1 1-.122-1.963.984.984 0 0 1 .122 1.963m41.05-44.858a.984.984 0 1 1-.122-1.963.984.984 0 0 1 .122 1.963M18.631 45.74a.706.706 0 1 1-.087-1.41.706.706 0 0 1 .087 1.41m79.09 4.409a.706.706 0 1 1-.087-1.41.706.706 0 0 1 .087 1.41M50.912 94.795a.706.706 0 1 1-.087-1.41.706.706 0 0 1 .087 1.41M28.004 15.078c.225.06.348.197.363.359.003.163-.106.312-.322.396l-.464.18c-.374.145-.758.582-.854.971l-.101.409c-.059.239-.204.367-.375.37-.171.016-.328-.096-.412-.327l-.144-.396c-.137-.377-.566-.77-.953-.874l-.48-.129c-.225-.06-.348-.197-.363-.359-.002-.163.106-.312.322-.396l.464-.18c.374-.145.758-.582.854-.971l.101-.409c.059-.239.204-.367.375-.37.171-.016.329.096.412.328l.144.396c.137.377.566.77.953.874zM5.42 63.359c.225.06.348.197.363.359.003.163-.106.312-.322.396l-.464.18c-.374.145-.758.582-.854.971l-.101.409c-.059.239-.204.367-.375.37-.171.016-.328-.096-.412-.327l-.144-.396c-.137-.377-.566-.77-.953-.874l-.48-.129c-.225-.06-.348-.197-.363-.359-.002-.163.106-.312.322-.396l.464-.18c.374-.145.758-.582.854-.971l.101-.409c.059-.239.204-.367.375-.37.171-.016.329.096.412.328l.144.396c.137.377.566.77.953.874l.48.129Zm33.741 24.338c-1.327-.165-4.403-1.229-5.633-2.181-1.014-.785-2.92-1.893-4.114-3.556-1.287-1.793-1.823-4.324-2.884-5.305-.623-.575-4.746-3.723-5.873-5.247-1.07-1.446-1-1.868-.697-2.782.521-1.576 3.035-1.279 4.422-.796-1.877-2.119-5.324-6.558-5.855-11.097-.736-6.288 4.14-10.976 4.14-10.976s-1.339-1.599.161-4.044c1.519-2.474 4.575-2.753 4.575-2.753s-.683-5.281 4.686-10.397c8.967-8.546 20.531-7.963 21.171-7.041s-.336 2.234-.336 2.234 10.158-4.142 16.636-3.583c5.363.463 9.202 3.001 9.508 3.978s-1.242 1.834-1.242 1.834 4.986.477 7.631 1.85c3.643 1.891 4.861 5.342 4.725 5.983s-2.17.992-2.17.992 2.9 2.129 3.144 5.286c.247 3.196-1.377 5.023-2.222 6.193.29.596.574 1.345.711 2.183.35 2.138-.348 4.498-1.072 6.229.078-.02.143-.01.196.038.216.195-.375 1.784-1.009 2.797l.103-.041c1.244-.512 1.975-1.099 2.153-.828.136.208-.766 1.459-1.488 2.078a.71.71 0 0 1-.027.586c-.231.432-2.813-1.058-8.106.97q-.149.057-.293.116a4.1 4.1 0 0 1 1.934 1.099.475.475 0 0 1-.015.668c-.432.424-1.216 1.181-1.809 1.752a.48.48 0 0 0 .3.824c.778.061 1.679.145 2.411.216a.48.48 0 0 1 .432.524 4.6 4.6 0 0 1-1.433 2.761c.716-.151 1.552-.454 2.652-1.041 1.865-.997 3.486-3.553 4.28-3.95a1 1 0 0 1 .13-.073c.534-.241 2.352-.217 2.444.03.094.254-.662.452-1.621 1.032a10 10 0 0 0-.598.399c1.158.027 2.908.476 2.943.77.031.259-.458.358-1.245.538.861 1.557 1.449 3.382.929 6.726-.49 3.147-2.436 7.467-4.39 13.76-1.354 4.362-3.442 7.566-5.842 9.646-2.271 1.968-5.565 3.107-8.557 2.834-3.328-.303-6.148-2.758-11.411-4.655-5.494-1.979-12.246-5.493-13.662-6.485-.172.15-.297.268-.344.342-.273.424.743 4.359-.514 4.906-.559.243-3.998-2.616-4.452-2.789s-4.258 2.313-4.797 1.733c-.902-.971.76-3.223 1.3-4.287Zm49.172-20.921c.633.252 1.313.624 1.683.911a7.6 7.6 0 0 0-.69-1.291c-.312.106-.654.239-.993.38M41.371 86.934c.008.813-1.693 2.244-1.381 2.507s2.638-.928 3.148-.903 2.643 2.175 3.096 1.916c.453-.26-.519-2.704-.332-2.988s2.262-1.307 2.166-1.794c-.095-.487-2.04-.167-2.471-.632-.43-.464-.273-2.57-.697-2.782s-1.322 1.785-2.148 2.169-2.796-.304-2.809.136 1.421 1.558 1.428 2.372Zm-2.617-12.718c-.383-.22-1.594-1.608-2.775-1.849-1.601-.327-2.503-.859-3.809-1.13-1.306-.272-3.896.227-5.029-.378s-3.5-1.675-3.981-.804 1.675 2.785 2.794 3.432 2.092 1.702 2.749 2.496c.393.475 1.047 1.564 1.682 2.631.425.715.842 1.42 1.166 1.925.807 1.258 2.833 3.082 3.926 3.565.963.425 2.642 1.047 3.028 1.189-.367-.827-.681-1.656-.498-1.949.581-.935 3.746-.085 4.12-.199.718-.219 2.246-3.027 3.245-2.785.987.24 1.488 2.611 1.465 3.121-.024.51 3.412.5 3.631 1.327.093.353-.196.816-.623 1.288 1.328 1.191 1.955 1.136 5.656 2.981 2.653 1.323 4.455 2.126 7.376 3.212 3.977 1.478 7.001 3.551 9.557 3.926 3.908.573 8.351-1.442 10.123-3.607 1.863-2.276 4.306-8.602 4.825-10.721.701-2.859 3.352-9.564 3.161-11.97a7.4 7.4 0 0 0-.351-1.757c-.3.152-1.221-.023-2.485.023-.469.017-1.038.081-1.571.156-1.139.697-2.838 1.471-5.076 1.888a4.5 4.5 0 0 1-.954.066c.55.5.916 1.339.724 2.107-.519 2.077-3.382 3.589-3.837 2.993-.244-.319 2.581-2.77 1.788-3.657-.537-.6-1.66.083-3.062-.566-1.822-.844-2.369-2.236-1.902-2.408.44-.161 1.805 1.667 4.484 1.226a10 10 0 0 1-1.636-.63c-1.71-.529-2.957-1.85-3.047-3.719-.041-.855.214-1.719.671-2.496.676-1.499 2.07-3.356 4.628-4.735 1.849-.997 2.964-1.284 4.783-1.462.173-.143.337-.285.483-.421 1.245-1.151 1.85-2.166 2.179-1.923.187.137-.048 1.203-.418 2.172q.249-.169.465-.332.313-.238.581-.464c-.147-.608-.333-1.374-.526-2.158-.819.137-2.032.273-3.485.737-1.218.389-3.908 1.707-4.81 2.112-2.117.953-4.481 2.531-4.537 2.126-.085-.616 2.33-3.17 4.548-4.523 2.479-1.512 3.96-1.824 4.38-2.102 1.101-.728 1.624-1.665 2.161-1.523.538.142.702 1.277.931 1.381.057.026.213.096.414.192-.162-.645-.311-1.231-.427-1.666a7 7 0 0 0-.34-.961c-1.684.811-3.774 1.4-5.835 1.703-2.147.316-4.471.624-5.232-.013s.323-3.024.641-4.997c.351-2.177.152-4.915-.326-4.956-.477-.041-.05 5.574-3.514 9.929-1.714 2.155-4.378 3.891-6.025 3.84s-.949-1.285-.949-1.285-7.14 3.716-12.416 4.142c-2.202.178-3.137-.354-3.805-1.948-.731-1.744-2.17-5.156-2.517-4.396-.344.753.655.611.235 4.868a14 14 0 0 1-.239 1.531c-.728 3.423-3.903 6.322-3.903 6.322s1.682 3.286 1.738 5.865c.097 4.438-1.381 6.966-2.129 6.931-.835-.039-1.467-1.515-2.269-2.909Zm-5.744 1.557c.838 1.806 2.149 3.459 3.944 3.94 1.978.529 3.281-.878 4.072-.676 1.213.308 1.127 2.333.709 2.511s-.372-.449-.794-.9-1.785.169-2.903.353-2.659.276-3.782-.568c-1.004-.755-1.815-1.869-2.356-3.345-.34-.928-1.23-2.807-.809-3.365.83-1.098 2.042.325 2.592.976.72.852 1.357 1.124 1.235 1.734-.105.526-2.183-1.249-1.909-.659Zm17.908-8.188q.037-.088.084-.179c-1.062-.484-2.735-1.947-2.617-2.26.145-.382 1.204.141 2.874.432.374.065.811.115 1.252.154l.072-.055c-.806-.602-1.53-1.327-1.451-1.537.145-.382 1.204.141 2.874.432l.231.037c1.277-.672 2.585-1.019 4.226-1.294 3.749-.627 9.125 1.999 8.969 2.717-.126.578-3.07-1.262-9.107-.076q-.224.044-.438.092c.779.252 1.464.81 2.003 1.394a.476.476 0 0 1-.018.656c-.408.411-1.141 1.142-1.717 1.717a.48.48 0 0 0 .34.82c.75-.027 1.599-.067 2.297-.049a.48.48 0 0 1 .454.509c-.092 1.378-.622 2.462-1.435 3.219 2.576-.568 3.588-1.027 5.056-2.268 2.322-1.961 2.517-3.313 2.882-3.174.485.185-.509 4.567-4.409 6.521-1.727.866-3.505.836-4.874.889-.322.013-.713 0-1.124-.036q-.286.209-.582.468c-1.094.971-2.386 2.209-2.649 1.975-.166-.147.278-1.531.807-2.567a8 8 0 0 0-.842.467c-1.233.786-2.704 1.805-2.927 1.532-.139-.17.504-1.445 1.183-2.382-.354.059-.718.129-1.017.209-1.083.289-1.75.695-1.867.452-.097-.202 1.551-1.889 2.405-2.44-.611-.599-1.013-1.351-1.07-2.233a5.3 5.3 0 0 1 .141-1.664c-1.084-.181-3.382-1.386-3.435-1.681-.062-.351.981-.255 2.386-.532.321-.063.685-.159 1.045-.266Zm12.185 16.004-.108.089c-.736.587-2.393.547-2.674.271s.724-.697 1.724-1.606c.862-.784 1.23-1.346 1.752-2.52s.909.718.704 1.565a4 4 0 0 1-.169.516c.627.219 1.866.532 3.162.192 1.853-.486 3.045-.637 4.741-1.657 1.62-.975 3.048-1.559 4.376-1.818s2.207-.488 3.367-.519 2.158-.282 2.816-.85c.378-.327.873-.852 1.262-1.299-.376-.504-.543-1.66-.447-1.854.11-.222.503.396 1.243.818.638.364 1.102.376 1.907.46s-.453.899-1.001.941c-.406.031-.779.089-1.146-.016q-.116.173-.249.359a9 9 0 0 1-.448.976c-.083.567-1.152 7.71-2.422 10.067-1.06 1.967-5.51 3.513-7.432 3.172-1.921-.341-3.86-1.797-5.766-3.102-1.443-.988-4.023-3.178-5.192-4.183Zm19.477-2.786c-.557 1.631-1.475 3.946-2.38 4.605-1.441 1.049-4.781 2.312-7.987 2.112-1.971-.123-4.95-1.86-7.024-3.236 1.225.99 2.606 2.092 3.085 2.418.929.633 3.824 2.345 5.756 2.567 1.826.21 5.414-1.139 6.553-2.442.96-1.097 1.626-3.978 1.996-6.025Zm-.374-2.134c-1.683.706-5.042 1.043-6.24 1.411-1.684.517-4.893 2.308-7.726 2.694-.647.088-1.237.111-1.763.091.731.133 1.531.231 2.315.239 2.536.025 6.201-1.051 7.082-1.234s5.225-2.135 6.105-2.973q.111-.107.227-.228m.308.923a5.3 5.3 0 0 1-.653.561c-1.242.895-3.079 2.033-5.58 2.769-2.498.734-5.922 1.018-7.269 1.065-1.659.057-3.696-.536-4.892-1.041 1.697 1.134 5.758 3.69 7.898 3.687 2.751-.003 6.221-.883 7.805-2.287 1.748-1.549 2.48-3.928 2.69-4.753ZM65.985 60.499c.265.463-4.867.233-7.602.703-1.165.2-4.724.685-6.173 1.123-3.049.92-4.595 2.389-5.265 1.939-.465-.312.636-2.465.77-2.734s-.602-1.571-.208-2.093c.393-.522 1.619.097 3.224.097.613 0 2.248-.7 5.762-.836 3.144-.121 9.089 1.097 9.492 1.801" style="fill:#ff5c54"/></svg>