<svg xmlns="http://www.w3.org/2000/svg" width="143" height="140" fill="none"><g clip-path="url(#a)"><path fill="#F9F7F3" d="M124.684 77.914a61.08 61.08 0 0 1-2.937-7.634c-.59-2.155 1.365-6.464-1.169-11.394-2.533-4.93-10.342-30.163-27.768-34.669-17.427-4.505-43.654 1.15-56.116 13.942-13.073 13.466-11.17 31.075-7.24 43.504a29.987 29.987 0 0 1-2.958-1.326c-2.657-1.46-6.96-5.386-8.273-4.599-1.314.788.59 12.73 5.678 22.519 5.088 9.788 17.581 14.988 22.97 15.869 5.387.88 7.135-2.942 7.808-6.267.072-.373.175-.881.279-1.471 2.554 3.884 5.45 8.028 9.4 9.902 7.426 3.522 17.686 5.179 21.398 7.344 3.713 2.165 8.843 4.993 16.072 3.822 7.229-1.17 10.518-7.551 13.259-11.663 2.74-4.112 9.98-9.654 11.624-16.158a32.866 32.866 0 0 0-2.027-21.721Z"/><path fill="#FF5C54" d="M125.925 77.572c-.672-1.606-1.375-3.211-1.996-4.838a12.82 12.82 0 0 1-1.034-3.242c.011-1.416.104-2.83.279-4.236a14.264 14.264 0 0 0-.786-5.314c-.527-1.45-1.293-2.848-1.892-4.278-.735-1.74-1.459-3.48-2.224-5.179-4.137-9.198-9.484-18.841-18.192-24.383-4.788-3.045-10.424-4.08-15.999-4.485a71.007 71.007 0 0 0-19.184 1.368C52.62 25.48 40.075 30.95 32.37 41.256c-7.902 10.628-8.46 24.383-5.285 36.834a74.684 74.684 0 0 0 1.138 3.946l1.582-1.595c-2.968-1.191-5.285-3.108-7.953-4.775-1.417-.912-4.21-2.33-5.027 0-.589 1.699-.124 3.874.145 5.573a56.454 56.454 0 0 0 2.39 9.405 45.603 45.603 0 0 0 4.446 9.933 28.727 28.727 0 0 0 6.206 6.847 40.58 40.58 0 0 0 14.458 7.458c2.679.735 5.73 1.149 8.14-.57 2.409-1.72 3.226-4.765 3.712-7.582l-2.358.311c2.337 3.552 4.86 7.25 8.511 9.612 3.651 2.361 7.974 3.408 11.987 4.537 3.372.984 7.084 1.667 10.239 3.262 3.154 1.596 5.998 3.336 9.483 4.061 4.165.995 8.544.535 12.411-1.305a21.221 21.221 0 0 0 7.436-7.251c.858-1.264 1.634-2.589 2.523-3.843a40.599 40.599 0 0 1 3.31-3.853c2.668-2.89 5.471-5.873 7.167-9.467 2.068-4.454 2.451-9.954 1.851-14.802a39.44 39.44 0 0 0-2.916-10.43c-.631-1.513-3.103-.85-2.493.693 2.813 6.702 4.013 13.88 2.12 21.027-1.82 6.847-8.398 11.032-12.1 16.77a31.493 31.493 0 0 1-5.802 7.354 14.465 14.465 0 0 1-10.818 2.963 24.02 24.02 0 0 1-9.763-3.491 37.148 37.148 0 0 0-8.387-3.107 95.19 95.19 0 0 1-12.917-4.247c-4.375-1.958-7.085-5.884-9.65-9.768-.558-.839-2.161-.87-2.368.311-.352 2.071-.734 4.443-2.368 5.883-1.634 1.44-3.93 1.036-5.874.57a37.632 37.632 0 0 1-12.235-5.832 29.375 29.375 0 0 1-5.895-5.489 31.317 31.317 0 0 1-4.354-7.976C21.15 88.458 19.34 83.04 19.216 77.84v-1.233c0-.155 0-.145 0 0 .124-.196 0-.114-.29.249s-.352-.176-.062.114c0 0 .527.218.548.238.63.324 1.235.694 1.81 1.108 1.22.83 2.4 1.73 3.64 2.538a24.805 24.805 0 0 0 4.261 2.072c.92.373 1.872-.715 1.593-1.585-3.537-11.3-4.53-24.062 1.344-34.73 6.082-11.115 17.903-17.185 29.755-20.24a71.113 71.113 0 0 1 18.45-2.31c5.398 0 11.376.549 16.237 2.983 8.925 4.412 14.479 13.787 18.554 22.487 1.427 3.046 2.627 6.215 4.023 9.25.492.96.897 1.961 1.21 2.994.37 1.626.458 3.305.258 4.961a13.677 13.677 0 0 0-.093 3.615c.265 1.164.636 2.301 1.107 3.398.6 1.533 1.251 3.045 1.892 4.557.642 1.513 3.124.808 2.472-.735Z"/><path fill="#F9F7F3" d="M101.021 28.837s.88-5.728 2.638-8.815a19.478 19.478 0 0 1 4.395-5.179 4.264 4.264 0 0 1 2.937-4.257c2.782-1.036 4.985 1.036 5.864 3.377.879 2.34.3 4.847-2.068 5.427a6.084 6.084 0 0 1-3.227-.145 7.052 7.052 0 0 0-3.227 3.108c-1.323 2.351-1.179 9.84-1.613 10.865-.434 1.026-5.109-.559-5.699-4.381Z"/><path fill="#FF5C54" d="M101.642 29.003c.662-4.278 1.862-8.463 4.83-11.715.713-.798 2.068-1.564 2.223-2.652a3.805 3.805 0 0 1 1.199-2.621 3.792 3.792 0 0 1 2.69-1.025c2.647.135 4.612 3.667 3.878 6.08-.486 1.575-2.068 1.989-3.578 1.834-.631-.073-1.148-.384-1.738-.135-3.868 1.595-4.302 6.08-4.592 9.664-.082 1.108-.134 2.237-.237 3.346a7.07 7.07 0 0 1-.124 1.036c-.052.196.155.124-.135.072a5.28 5.28 0 0 1-2.882-1.414 5.297 5.297 0 0 1-1.534-2.822c-.145-.819-1.396-.467-1.241.352a6.598 6.598 0 0 0 4.209 4.878c1.345.508 2.668.435 2.896-1.17.331-2.279.3-4.61.61-6.888.078-1.07.333-2.121.755-3.108a7.884 7.884 0 0 1 2.741-2.796c.227-.166.31 0 0-.083-.311-.083.082.114.227.145a6.713 6.713 0 0 0 2.317.145 3.987 3.987 0 0 0 3.103-1.865c1.323-2.278.217-5.469-1.552-7.178a4.906 4.906 0 0 0-7.157.325 4.921 4.921 0 0 0-1.116 2.4 2.43 2.43 0 0 0-.083.818v.186c-.093 0 .445-.497 0-.321a4.78 4.78 0 0 0-1.096 1.036c-.59.578-1.146 1.19-1.666 1.833a16.426 16.426 0 0 0-2.544 4.423 34.094 34.094 0 0 0-1.737 6.847c.01.85 1.21 1.201 1.334.373Z"/><path fill="#FF5C54" d="M127.859 35.01c-4.55-5.728-11.438-.155-11.438-.155s7.239-6.163.879-9.985c-6.36-3.822-15.513 3.242-15.513 3.242s1.768-11.176-2.069-13.227c-3.837-2.051-8.067.735-8.067.735S96.037 5.044 89.873 3.72c-6.164-1.326-10.115 4.257-10.115 4.257S77.121-.83 69.344 4.454a27.425 27.425 0 0 0-10.167 13.807s-.982-6.66-7.818-4.899c-6.836 1.76-11.377 14.885-11.377 14.885s0-8.618-4.498-9.198c-4.5-.58-8.016 1.957-13.683 11.942a31.416 31.416 0 0 0-3.464 20.271 4.911 4.911 0 0 0-5.534-1.274c-3.32 1.367-6.763 5.594-7.239 13.953-.745 11.673 7.88 16.013 7.88 16.013s-2.006-.61-2.937 0c-1.561 1.036-4.136 5.925 5.037 17.474 4.933 6.215 10.725 8.37 14.479 8.37.476 0-5.171-4.579-7.829-11.943-2.461-6.847-3.857-17.08-3.258-17.982.32-.476 5.595 4.143 11.377 7.25 3.02 1.648 6.99 1.45 9.887 3.864 7.529 6.288 11.78-2.61 11.159-8.493a12.349 12.349 0 0 0-2.069-5.728s2.648-.59 3.29-4.413a9.199 9.199 0 0 0-1.232-6.463 2.571 2.571 0 0 0 3.186-1.813c.879-2.548-1.996-7.447-1.996-7.447s4.923 6.608 6.412 7.447c1.49.839 6.857 3.18 9.784 1.264a5.643 5.643 0 0 0 2.389-5.335s4.695 5.728 14.075 5.728c3.971 0 8.212 0 9.484-2.734a3.88 3.88 0 0 0 .351-2.786c.176.352 5.513 3.956 11.801 1.398 9.121-3.698.31-7.78.806-7.562 3.01 1.326 8.936 2.072 9.753 1.813.362-.124 4.282 8.442 4.344 13.87 0 4.143-1.531 8.897-1.035 9.415.848.963 2.824-5.334 2.534-7.385-.289-2.051 3.103-8.815 2.782-15.133a19.195 19.195 0 0 0-.32-2.86c5.109-3.107 6.681-9.083 2.161-14.76Z"/><path fill="#F9F7F3" d="M42.847 117.357s5.482-10.679 6.454-10.482c.972.197-1.562 7.375-1.169 7.375s4.685.559 4.396 1.243c-.29.683-2.741 10.088-3.32 9.985-.58-.104-.393-7.344-.983-7.437-.59-.093-5.078.041-5.378-.684Z"/><path fill="#FF5C54" d="M43.437 117.678c1.468-2.859 2.989-5.738 4.726-8.442.362-.58.776-1.098 1.19-1.636.061-.083.113-.083.123-.114 0 .124-.589-.187-.579-.197.01-.01 0 .735 0 .86-.268 1.833-.94 3.573-1.292 5.386-.114.57-.186 1.17.506 1.357.693.186 1.603.186 2.369.352.434.083.879.28 1.313.342.1.042.197.09.29.145l-.104-.404v.145a7.631 7.631 0 0 0-.558 1.885c-.559 1.968-1.117 3.957-1.769 5.904-.124.373-.258.756-.403 1.129-.062.135-.29.549-.29.58-.051-.29.838 0 .838 0a1.83 1.83 0 0 0-.093-.435c-.062-.393-.083-.808-.114-1.212-.082-1.16-.114-2.341-.207-3.501 0-.642 0-1.73-.486-2.237-.486-.508-1.634-.311-2.254-.332-.62-.02-1.314 0-1.965-.114a7.454 7.454 0 0 1-.828-.124c-.186 0-.393-.186-.31 0-.434-.704-1.551-.062-1.117.653.435.714 1.758.777 2.544.849.586.042 1.176.073 1.769.093.48.057.967.057 1.448 0 .351-.093-.372-.165-.29-.228.026.161.06.32.104.477.072.487.093 1.036.124 1.471.072 1.139.114 2.279.207 3.408 0 .611 0 1.636.496 2.071.496.435 1.107 0 1.375-.476a31.948 31.948 0 0 0 1.965-5.935c.28-1.036.559-1.989.849-2.973.165-.539.496-1.15.093-1.647-.548-.673-1.8-.808-2.586-.953a28.413 28.413 0 0 0-1.51-.238 2.172 2.172 0 0 0-.579-.062c-.403.082.258.694.445.445 0-.083.134-.622.186-.829.124-.518.269-1.036.403-1.553.304-1.071.553-2.157.745-3.253.093-.621.28-1.564-.3-2.072-.58-.507-1.107 0-1.479.394a28.837 28.837 0 0 0-3.6 5.728 156.573 156.573 0 0 0-2.409 4.496c-.517.89.6 1.543 1.014.797ZM101.952 71.968a22.986 22.986 0 0 1 7.819-7.83c4.84-2.89 7.787-3.398 9.308-3.336 1.52.062 2.068.84 2.275 1.43.232.748.232 1.55 0 2.3a2.315 2.315 0 0 1-1.22 1.315c-.683.341-4.747.497-7.964 2.071-3.216 1.575-8.625 5.687-9.783 5.925-.59.104-1.035-.943-.435-1.875ZM88.745 73.076c.621.415.89 2.072-.92 1.834-1.582-.218-12.514-3.263-18.088-2.89a35.262 35.262 0 0 0-10.342 2.154 1.683 1.683 0 0 1-1.459 0c-.444-.103-1.572-1.035-1.572-1.812a1.545 1.545 0 0 1 .838-1.616c.776-.59 3.765-3.377 14.324-2.942 10.56.435 16.61 4.848 17.22 5.272Z"/><path fill="#F9F7F3" d="M90.824 86.418c0-2.424-4.53-8.474-14.593-8.888-7.105-.3-11.945 2.787-13.196 4.144a7.535 7.535 0 0 0-1.54 7.115c1.033 3.895 2.647 5.18 3.888 6.029 1.24.85 4.478 1.17 10.931.072 6.454-1.098 14.51-6.06 14.51-8.472Z"/><path fill="#FF5C54" d="m79.2 88.23-5.895-1.74 5.243-4.143a7.61 7.61 0 0 0-6.35-4.661 16.99 16.99 0 0 0-9.111 3.956 7.535 7.535 0 0 0-1.541 7.116c1.034 3.895 2.647 5.18 3.888 6.029 1.035.652 3.31 1.036 7.56.549a9.524 9.524 0 0 0 4.042-2.73A9.545 9.545 0 0 0 79.2 88.23Z"/><path fill="#F9F7F3" d="M102.449 84.936c-.559-1.75-.104-4.319 4.747-8.638a15.642 15.642 0 0 1 12.234-4.206c3.103.363 4.365 3.108 5.254 5.842 1.034 3.108 2.513 6.826-2.73 11.54-1.51 1.356-3.299 1.553-9.453 1.48-6.153-.072-8.729-1.874-10.052-6.017Z"/><path fill="#FF5C54" d="M111.777 91.483a8.273 8.273 0 0 0 6.34-5.977l-5.481-1.606 4.995-3.936a6.742 6.742 0 0 0-3.132-3.299 6.723 6.723 0 0 0-4.511-.554 12.06 12.06 0 0 0-2.606.736c-4.84 4.319-5.306 6.888-4.737 8.638 1.241 3.905 3.63 5.76 9.132 5.998Z"/><path fill="#FF5C54" d="M128.097 67.607c-.383-.487-3.103 1.45-5.719 2.818a1.635 1.635 0 0 0-.331 0h-.3c1.034-1.43 2.265-3.18 1.955-3.388-.59-.393-4.137 2.155-5.968 3.325-.496.322-1.096.674-1.706 1.036a22.963 22.963 0 0 0-11.976 8.722c-.373.538.382 1.315.931.922a90.072 90.072 0 0 1 7.456-5.428c2.482-1.42 5.171-2.6 7.767-2.517 2.896.093 2.565 1.398 3.103 1.202a9.089 9.089 0 0 0 2.347-2.31c1.428-1.761 2.741-4.009 2.441-4.382ZM90.648 83.9c-4.809-5.986-12.71-8.286-19.98-7.032a70.96 70.96 0 0 0-3.103-.404c-2.069-.197-3.403-1.192-3.775-.705-.145.207.538 1.336 1.282 2.072a8.244 8.244 0 0 1-1.137 0c-3.351-.332-5.058-.663-5.275-.29-.217.373 1.293 1.409 2.42 2.071-.538.145-1.096.145-1.634.145-2.492.156-4.767-.145-4.912.446-.073.29 2.296 1.978 4.137 2.703 1.034.446 2.813.86 3.36.508.156 0 7.116-6.018 16.217-4.143a28.07 28.07 0 0 1 11.5 5.53.67.67 0 0 0 .96-.493.674.674 0 0 0-.06-.407ZM98.58 90.747a3.823 3.823 0 0 0 2.504.456c1.034-.135 2.378-1.036 3.412-.362 2.886 1.833-1.758 4.961-2.854 6.215a1.23 1.23 0 0 0-.08 1.603 1.23 1.23 0 0 0 1.569.323c2.782-1.523 6.04-5.034 4.447-8.463a4.259 4.259 0 0 0-3.257-2.475c-1.914-.259-3.475 1.036-5.327 1.119a.847.847 0 0 0-.747 1.156.85.85 0 0 0 .334.408v.02ZM85.57 109.516c.342-.342 3.424.104 6.06-1.222 2.638-1.326 2.576-3.108 4.624-3.812 2.782-1.036 3.733 0 5.429-.155 1.976-.145 2.379-1.337 4.768-1.243 1.831.072 2.068 1.471 3.951 1.471 1.882 0 3.816-1.989 4.033-1.616.217.373-.61 2.175-5.171 3.521-1.551.467-7.043.218-7.922.591-.879.373-9.09 3.107-9.752 3.304-2.896.746-6.599-.249-6.02-.839ZM89.583 87.785c-4.643 4.734-13.052 7.51-18.223 6.64-1.789-.311-2.554-.373-4.467-.684-1-.234-2.027-.325-3.051-.27-.497.146-1.53.891-2.617 1.42-2.068 1.035-3.558 1.139-3.558 1.605 0 .622 5.668.3 7.426-.197l.559-.145c-.807.84-2.865 2.652-2.514 3.18.166.249 3.393-.756 5.45-1.833.448-.233.883-.489 1.304-.767h.062l-.362.435c-.714.912-1.738 2.01-1.665 2.258.227.757 3.227-.725 4.478-1.491l1.83-1.13c6.63-.424 13.559-3.252 16.051-8.524.145-.404-.31-.86-.703-.497Z"/><path fill="#FF5C54" d="M87.308 110.573c-.3 0 3.516 4.92 6.743 4.485 3.227-.435 4.55-1.844 6.381-1.989 1.831-.145 4.623.373 6.598-.88 1.976-1.254 4.623-6.681 4.334-6.464-.29.218-9.205 1.44-11.004 1.616-1.8.176-7.043 3.677-13.052 3.232Z"/><path fill="#F9F7F3" d="M90.359 110.013s2.544 5.283 4.209 8.028c1.665 2.745 4.302 6.215 7.426 5.282 3.123-.932 5.377-5.386 5.677-8.711.3-3.325.197-8.131-.393-8.286-.589-.156-5.481 1.264-7.332 1.367-1.851.104-9.484 1.44-9.587 2.32Z"/><path fill="#FF5C54" d="M89.8 110.334a56.52 56.52 0 0 0 5.75 10.286c1.345 1.751 3.279 3.615 5.658 3.491 2.378-.125 4.054-1.958 5.171-3.791a14.32 14.32 0 0 0 1.996-6.692 23.645 23.645 0 0 0-.207-6.94c-.393-1.595-1.986-.963-3.186-.694a41.64 41.64 0 0 1-5.377 1.036 43.332 43.332 0 0 0-5.854 1.036 21.1 21.1 0 0 0-2.668.746c-.497.197-1.21.456-1.355 1.036-.186.808 1.034 1.16 1.251.341 0 .228-.093.104.145 0 .243-.11.492-.206.745-.29a28.283 28.283 0 0 1 2.223-.6 49.467 49.467 0 0 1 4.778-.87c1.355-.176 2.689-.321 4.034-.622l2.699-.611c.345-.083.689-.155 1.034-.218.1.011.2.011.3 0h.124c.238-.134-.269-.155-.227-.186.041-.031.279 1.709.289 1.875a25.42 25.42 0 0 1 0 3.335 15.76 15.76 0 0 1-1.199 6.443c-.817 1.75-2.162 3.781-4.137 4.319-2.255.611-4.137-1.408-5.399-3.035a59.33 59.33 0 0 1-5.512-9.985c-.32-.808-1.427-.155-1.076.59Z"/><path fill="#FF5C54" d="M79.944 107.155a18.685 18.685 0 0 0 8.688 4.433c3.102.487 6.03-1.233 8.8-2.269a17.578 17.578 0 0 1 5.751-1.357c1.658.04 3.317-.039 4.964-.238a12.926 12.926 0 0 0 7.684-4.992c.579-.736-.413-1.792-1.034-1.036a12.125 12.125 0 0 1-9.194 4.226c-2.875.072-5.264-.352-8.036.642-2.316.818-4.923 2.393-7.312 2.828-3.381.621-6.732-1.989-9.71-3.201-.539-.217-1.035.601-.57.974l-.03-.01Z"/><path fill="#FF5C54" d="M101.352 114.322c.135-1.926.093-4.713-1.117-6.339-.568-.777-2.006-.373-1.675.705a28.675 28.675 0 0 1 1.52 5.634.645.645 0 0 0 .636.561.642.642 0 0 0 .636-.561ZM80.948 103.685a15.909 15.909 0 0 1-1.376 1.512 2.715 2.715 0 0 1-1.748.663 1.05 1.05 0 0 0-.772.204 1.051 1.051 0 0 0-.376 1.099 1.04 1.04 0 0 0 .484.636c.118.069.25.114.385.133 2.182.745 3.982-1.44 4.85-3.108.456-.88-.724-1.947-1.447-1.119v-.02ZM114.063 100.535c.088.702.413 1.352.92 1.844.559.48 1.216.834 1.924 1.036 1.22.362 1.727-1.678.517-1.875a3.38 3.38 0 0 1-1.386-.559 6.888 6.888 0 0 1-1.179-.932c-.351-.384-.869 0-.796.455v.031ZM129.173 85.723a13.664 13.664 0 0 0-1.428-.466c.445-.114.9-.238 1.231-.31 1.665-.394 3.423-.249 3.33-.736-.093-.487-5.295-2.31-5.874-2.072-.228.115 0 1.16-.91 2.424-4.065 5.656-12.224 7.406-19.847 5.18-.486-.135-.682.497-.32.766 3.868 2.92 9.453 2.89 14.251 1.036.61.155 1.748.248 2.627.435 1.376.29 2.792.59 2.989.341.196-.248-.59-1.273-1.272-1.812a6.315 6.315 0 0 0-.858-.58c.92.176 2.068.32 2.709.383 1.272.155 3.62.497 3.868.197.248-.3-1.231-1.761-2.151-2.393l-.538-.342h.828c2.202 0 4.55.187 4.643-.155.093-.342-2.544-1.595-3.278-1.896ZM47.656 103.125c-1.696-1.409-.475-4.226-2.823-5.282a3.16 3.16 0 0 0-2.513 0c-.92.372-1.438 1.688-2.182 1.968-1.355.538-1.841-1.036-2.782-1.534-.693-.352-1.273-.062-1.965-.165-3.558-.518-6.123-4.951-6.868-8.587a7.336 7.336 0 0 0 3.258.839c.672 0 1.034-1.036.362-1.336a46.149 46.149 0 0 1-4.664-2.652.91.91 0 0 0-1.355.777c.414 3.387 2.39 6.826 4.364 9.56a7.89 7.89 0 0 0 2.4 2.621c1.53.767 2.844-.238 4.323 1.036.734.652.796 1.688 1.913 2.071 1.117.384 1.458-.155 2.255-.683l.537-.57c1.562-1.129 1.831-1.036 2.069.539.186.424.124.973.28 1.429a2.816 2.816 0 0 0 2.068 2.072c1.24.331 2.275-1.285 1.323-2.103Z"/><path fill="#FF5C54" d="M36.663 96.972c.545.219 1.13.32 1.717.3.444 0 1.189-.279 1.602 0 .414.28.404.643.497.974.142.547.321 1.084.538 1.606.548 1.253 2.75.342 2.223-.932-.527-1.274-.476-2.86-1.789-3.677a3.337 3.337 0 0 0-1.996-.435c-.869.062-1.696.497-2.565.486-1.034 0-1.086 1.378-.227 1.73v-.052Z"/><path fill="#F9F7F3" d="M57.171 39.558a71.935 71.935 0 0 1 3.672-10.72 34.105 34.105 0 0 1 5.274-8.515 6.039 6.039 0 0 1 1.468-5.293c2.203-2.207 5.575-.88 6.888.29 1.314 1.17 2.203 4.267 1.324 5.728a4.708 4.708 0 0 1-4.985 2.351s-2.492 2.206-4.84 8.525c-1.686 4.526-.879 9.25-1.324 10.575-.444 1.326-3.805 1.036-5.17.736-1.366-.3-2.307-.767-2.307-3.677Z"/><path fill="#FF5C54" d="M50.956 81.466a18.535 18.535 0 0 1-2.069 11.115c-1.53 2.776-2.358 2.776-3.05 2.776-.694 0-1.252-5.418-1.252-5.418s-.135 4.144-1.53 4.59c-1.397.445-1.521-4.724-2.07-6.392-.547-1.668-4.022-4.309-2.357-7.924s11.769-3.19 12.328 1.254ZM3.692 47.44l.166-.508a1.689 1.689 0 0 1 1.034-1.035l.434-.135c.259-.072.383-.238.372-.425-.01-.186-.113-.352-.372-.424l-.434-.135a1.685 1.685 0 0 1-1.034-1.036l-.166-.507c-.083-.249-.238-.373-.414-.373-.175 0-.33.124-.413.373l-.166.507a1.7 1.7 0 0 1-1.034 1.036l-.445.135c-.248.072-.382.238-.372.424.01.187.124.353.372.425l.445.135a1.696 1.696 0 0 1 1.034 1.035l.166.508c.082.249.238.373.413.373.176 0 .331-.166.414-.373ZM78.352 139.627l.175-.518a1.719 1.719 0 0 1 1.035-1.035l.444-.125c.249-.083.383-.248.373-.435-.01-.186-.124-.342-.373-.425l-.444-.134a1.695 1.695 0 0 1-1.035-1.036l-.175-.508a.469.469 0 0 0-.404-.372.481.481 0 0 0-.413.372l-.166.508a1.714 1.714 0 0 1-1.034 1.036l-.434.134c-.259.083-.383.239-.383.425a.468.468 0 0 0 .382.435l.435.125a1.744 1.744 0 0 1 1.034 1.035l.166.518a.49.49 0 0 0 .413.373.463.463 0 0 0 .404-.373ZM54.813 4.485l.176-.518a1.678 1.678 0 0 1 1.034-.974l.445-.134c.248-.083.382-.249.372-.435-.01-.187-.124-.342-.372-.425l-.445-.135A1.696 1.696 0 0 1 54.99.88l-.176-.507A.467.467 0 0 0 54.368 0a.485.485 0 0 0-.413.373l-.176.507a1.71 1.71 0 0 1-1.034 1.036l-.435.135c-.258.083-.382.238-.372.425.01.186.114.352.372.435l.435.134a1.696 1.696 0 0 1 1.034.974l.165.518a.487.487 0 0 0 .414.373.465.465 0 0 0 .455-.425ZM132.813 110.666l.176-.518a1.724 1.724 0 0 1 1.034-1.036l.445-.124c.248-.083.382-.249.372-.435-.01-.187-.124-.352-.372-.425l-.445-.135a1.688 1.688 0 0 1-1.034-1.035l-.176-.508a.46.46 0 0 0-.403-.373c-.176 0-.331.135-.414.373l-.165.508a1.711 1.711 0 0 1-1.035 1.035l-.434.135a.455.455 0 0 0-.383.425.467.467 0 0 0 .383.435l.434.124a1.736 1.736 0 0 1 1.035 1.036l.165.518a.485.485 0 0 0 .414.373.468.468 0 0 0 .403-.373ZM14.893 113.255a1.398 1.398 0 0 0 0-2.797 1.398 1.398 0 0 0 0 2.797ZM128.149 20.685a1.397 1.397 0 1 0-.002-2.8 1.397 1.397 0 0 0 .002 2.8ZM132.596 121.459c.771 0 1.396-.626 1.396-1.399a1.397 1.397 0 1 0-2.792 0c0 .773.625 1.399 1.396 1.399ZM142.111 67.462a.89.89 0 1 0-.002-1.78.89.89 0 0 0 .002 1.78ZM.89 80.006a.89.89 0 1 0-.002-1.78.89.89 0 0 0 .001 1.78ZM35.742 124.836a.89.89 0 1 0-.001-1.78.89.89 0 0 0 .001 1.78ZM63.583 129.621a.89.89 0 1 0-.001-1.78.89.89 0 0 0 .001 1.78ZM131.986 28.36a.89.89 0 1 0-.002-1.779.89.89 0 0 0 .002 1.78ZM119.596 123.862a.89.89 0 1 0-.002-1.78.89.89 0 0 0 .002 1.78ZM11.035 40.573a1.263 1.263 0 1 0-.002-2.526 1.263 1.263 0 0 0 .002 2.526Z"/></g><defs><clipPath id="a"><path fill="#fff" d="M0 0h143v140H0z"/></clipPath></defs></svg>