<svg width="176" height="172" viewBox="0 0 176 172" fill="none" xmlns="http://www.w3.org/2000/svg">
<g clip-path="url(#clip0_3337_25167)">
<g clip-path="url(#clip1_3337_25167)">
<mask id="mask0_3337_25167" style="mask-type:luminance" maskUnits="userSpaceOnUse" x="-1134" y="-414" width="1538" height="996">
<path d="M-1133.47 -413.207H403.164V581.087H-1133.47V-413.207Z" fill="white"/>
</mask>
<g mask="url(#mask0_3337_25167)">
<path d="M153.059 96.2785C151.16 91.769 150.211 89.6323 149.499 87.021C148.787 84.411 151.16 79.1885 148.075 73.2553C144.99 67.321 135.495 36.7012 114.37 31.2426C93.2461 25.7828 61.3772 32.5834 46.2494 48.0954C30.3884 64.3569 32.6934 85.7129 37.5192 100.816C36.0805 100.244 34.8138 99.7033 33.9312 99.2162C30.7023 97.436 25.4797 92.688 23.9368 93.6384C22.3939 94.5875 24.6499 109.066 30.8203 120.934C36.9919 132.801 52.1825 139.092 58.7095 140.159C65.2377 141.228 67.3719 136.595 68.1879 132.573C68.2796 132.12 68.4038 131.504 68.5231 130.785C71.624 135.49 75.1367 140.513 79.9374 142.787C88.9563 147.059 101.4 149.073 105.91 151.684C110.42 154.294 116.642 157.74 125.425 156.317C134.207 154.892 138.19 147.173 141.513 142.189C144.836 137.205 153.624 130.477 155.628 122.602C158.773 110.244 154.958 100.788 153.059 96.2785Z" fill="#F3F0E4"/>
</g>
<mask id="mask1_3337_25167" style="mask-type:luminance" maskUnits="userSpaceOnUse" x="-1134" y="-414" width="1538" height="996">
<path d="M-1133.47 -413.207H403.164V581.087H-1133.47V-413.207Z" fill="white"/>
</mask>
<g mask="url(#mask1_3337_25167)">
<path d="M154.573 95.8611C153.752 93.9127 152.903 91.9718 152.144 89.9983C151.668 88.7604 151.056 87.3983 150.936 86.0713C150.783 84.3878 151.215 82.6202 151.265 80.9341C151.33 78.7572 151.073 76.5376 150.319 74.4863C149.674 72.7287 148.745 71.0339 148.019 69.3102C147.129 67.1986 146.248 65.0832 145.317 62.9904C140.355 51.846 133.808 40.1505 123.237 33.4415C117.425 29.7518 110.588 28.4914 103.812 28.0005C96.0337 27.4368 88.1572 28.1122 80.523 29.6589C65.6274 32.6795 50.3502 39.3094 41.0487 51.8008C31.4535 64.6852 30.7769 81.3635 34.6298 96.4499C35.0403 98.0568 35.5048 99.6512 36.0057 101.233C36.6497 100.589 37.2925 99.9462 37.9365 99.3022C34.3285 97.856 31.5163 95.5711 28.271 93.5059C26.5511 92.4099 23.1678 90.6837 22.1684 93.5787C21.4616 95.6313 22.0266 98.2702 22.3517 100.333C22.9619 104.206 23.9863 108.024 25.2467 111.733C26.6465 115.854 28.2974 120.093 30.6526 123.773C32.6814 126.943 35.3027 129.715 38.2341 132.065C43.3248 136.145 49.3421 139.329 55.643 141.074C58.9008 141.977 62.6043 142.479 65.5295 140.386C68.5073 138.258 69.4439 134.615 70.0364 131.201C69.0811 131.327 68.1244 131.451 67.169 131.577C70.0126 135.883 73.067 140.41 77.5037 143.229C81.8248 145.978 87.237 147.36 92.1093 148.773C96.2082 149.962 100.71 150.795 104.543 152.73C108.332 154.644 111.826 156.769 116.05 157.653C120.999 158.687 126.509 158.435 131.055 156.074C134.873 154.093 137.7 150.744 140.083 147.247C141.128 145.71 142.068 144.099 143.143 142.584C144.33 140.911 145.781 139.419 147.167 137.914C150.398 134.408 153.808 130.797 155.867 126.442C158.421 121.036 158.834 114.372 158.108 108.507C157.563 104.104 156.286 99.9374 154.573 95.8611C153.802 94.0269 150.764 94.8329 151.546 96.6959C154.959 104.816 156.416 113.519 154.115 122.185C151.913 130.483 143.922 135.56 139.435 142.504C137.372 145.696 135.331 148.952 132.389 151.425C128.722 154.508 123.994 155.394 119.305 154.989C115.035 154.62 111.131 152.86 107.453 150.761C104.279 148.949 100.767 147.976 97.2703 146.979C91.9938 145.477 86.6193 144.079 81.5989 141.831C76.2872 139.454 72.9917 134.708 69.8782 129.992C69.2066 128.974 67.2582 128.941 67.0109 130.368C66.5828 132.828 66.1183 135.76 64.1334 137.506C62.1361 139.264 59.3641 138.799 57.0051 138.189C51.6935 136.817 46.6103 134.285 42.1485 131.117C39.4945 129.234 37.0402 127.013 34.9989 124.475C32.6776 121.588 31.0782 118.181 29.7035 114.763C27.3785 108.984 25.189 102.419 25.0421 96.1247C25.0333 95.7481 25.0572 95.1279 25.0685 94.8932C25.0584 95.0827 25.1036 94.6119 25.1212 94.6484C25.179 94.4688 25.1651 94.4826 25.0798 94.6898C25.2241 94.4475 25.1074 94.5492 24.7295 94.9923C24.383 95.4719 24.2989 94.7739 24.6492 95.1329C24.6793 95.1631 25.2907 95.4004 25.317 95.4129C26.0854 95.7858 26.8047 96.2804 27.5103 96.7575C28.9954 97.7631 30.4203 98.8565 31.9256 99.8332C33.5451 100.884 35.3152 101.612 37.1017 102.329C38.2203 102.777 39.3677 101.457 39.0325 100.398C34.6988 86.7354 33.5024 71.2686 40.6093 58.2888C47.9862 44.8131 62.3382 37.4601 76.719 33.7529C84.0243 31.8685 91.5694 30.8817 99.117 30.9508C105.672 31.011 112.874 31.6161 118.836 34.5639C129.669 39.9182 136.389 51.2735 141.349 61.8254C143.084 65.5163 144.544 69.3227 146.233 73.0325C146.778 74.2289 147.375 75.3726 147.709 76.6582C148.223 78.6317 148.189 80.6567 148.017 82.6741C147.894 84.1242 147.643 85.603 147.908 87.0531C148.164 88.4629 148.731 89.8501 149.252 91.1796C149.978 93.0326 150.773 94.8605 151.546 96.6959C152.319 98.5289 155.357 97.7229 154.573 95.8611Z" fill="#5B2467"/>
</g>
<mask id="mask2_3337_25167" style="mask-type:luminance" maskUnits="userSpaceOnUse" x="-1134" y="-414" width="1538" height="996">
<path d="M-1133.47 -413.207H403.164V581.087H-1133.47V-413.207Z" fill="white"/>
</mask>
<g mask="url(#mask2_3337_25167)">
<path d="M124.339 36.7908C124.339 36.7908 125.408 29.8483 127.543 26.1096C129.68 22.371 132.884 19.879 132.884 19.879C132.884 19.879 132.535 16.1566 136.444 14.7167C139.827 13.47 142.498 15.9621 143.565 18.8106C144.633 21.6592 143.921 24.686 141.073 25.3978C139.059 25.9012 137.157 25.2195 137.157 25.2195C137.157 25.2195 134.842 26.1096 133.24 28.9582C131.638 31.8067 131.817 40.8847 131.282 42.1313C130.748 43.378 125.051 41.4195 124.339 36.7908Z" fill="#F3F0E4"/>
</g>
<mask id="mask3_3337_25167" style="mask-type:luminance" maskUnits="userSpaceOnUse" x="-1134" y="-414" width="1538" height="996">
<path d="M-1133.47 -413.207H403.164V581.087H-1133.47V-413.207Z" fill="white"/>
</mask>
<g mask="url(#mask3_3337_25167)">
<path d="M156.917 44.2676C151.398 37.3251 143.032 44.0893 143.032 44.0893C143.032 44.0893 151.754 36.6132 144.1 31.9845C136.444 27.3558 125.223 35.9077 125.223 35.9077C125.223 35.9077 127.365 22.3717 122.738 19.8785C118.109 17.3865 112.947 20.7686 112.947 20.7686C112.947 20.7686 118.287 7.95198 110.81 6.35006C103.334 4.74814 98.5268 11.5124 98.5268 11.5124C98.5268 11.5124 95.323 0.831222 85.8873 7.24015C76.4528 13.6478 73.5452 23.9737 73.5452 23.9737C73.5452 23.9737 72.3576 15.9038 64.0504 18.0393C55.7433 20.176 50.2835 36.0784 50.2835 36.0784C50.2835 36.0784 50.2835 25.6346 44.8249 24.9228C39.3651 24.2109 35.0929 27.2968 28.2094 39.4015C21.3259 51.5063 24.0113 63.9739 24.0113 63.9739C24.0113 63.9739 21.3259 60.7638 17.291 62.4247C13.2561 64.0869 9.08556 69.209 8.45032 79.3365C7.56022 93.514 18.0028 98.7403 18.0028 98.7403C18.0028 98.7403 15.5661 98.0046 14.4424 98.7403C12.5443 99.9869 9.39942 105.921 20.5551 119.926C26.5485 127.449 33.5726 130.073 38.1549 130.073C38.7399 130.073 31.8665 124.515 28.6475 115.593C25.6697 107.334 23.9749 94.8862 24.6992 93.8002C25.0821 93.2252 31.4911 98.7805 38.4474 102.576C42.1145 104.577 46.9315 104.331 50.4417 107.256C59.5899 114.88 64.7434 104.092 63.9914 96.9601C63.5433 92.708 61.4994 90.0176 61.4994 90.0176C61.4994 90.0176 64.7033 89.3058 65.4917 84.6771C66.2813 80.0483 63.9914 76.8445 63.9914 76.8445C63.9914 76.8445 66.84 77.7346 67.9071 74.6525C68.9755 71.5705 65.4917 65.6298 65.4917 65.6298C65.4917 65.6298 71.4675 73.6407 73.2477 74.6525C75.0278 75.6644 81.5711 78.5067 85.1164 76.1917C88.6605 73.8779 88.024 69.7237 88.024 69.7237C88.024 69.7237 93.7198 76.6662 105.114 76.6662C109.924 76.6662 115.082 76.6072 116.625 73.3431C117.423 71.6546 117.18 70.4167 117.042 69.9673C117.264 70.3929 123.743 74.7668 131.377 71.6696C142.44 67.1803 131.749 62.2364 132.348 62.5C136.005 64.1095 143.195 65.0272 144.195 64.6945C144.635 64.5476 149.39 74.9287 149.461 81.5147C149.515 86.5363 147.599 92.2987 148.145 92.9227C149.168 94.0927 155.438 85.9312 155.76 83.4342C156.93 74.3663 156.638 72.0262 154.603 65.6298C154.215 64.4133 154.403 63.2081 154.207 62.1573C160.501 58.3948 162.394 51.1573 156.917 44.2676Z" fill="#5B2467"/>
</g>
<mask id="mask4_3337_25167" style="mask-type:luminance" maskUnits="userSpaceOnUse" x="-1134" y="-414" width="1538" height="996">
<path d="M-1133.47 -413.207H403.164V581.087H-1133.47V-413.207Z" fill="white"/>
</mask>
<g mask="url(#mask4_3337_25167)">
<path d="M91.7713 3.94556C87.9937 3.76227 84.5444 6.40254 81.8929 8.79035C79.0067 11.3891 76.6058 14.5573 74.7654 17.9733C74.3445 18.7543 73.9474 19.5661 73.573 20.387C71.8308 17.5647 68.5379 16.0224 64.991 16.5709C58.2557 17.6129 54.1053 24.6222 51.3986 30.2327C51.2547 30.5312 51.1251 30.8388 50.9845 31.14C50.6992 29.8703 50.3114 28.6295 49.7497 27.4972C47.9808 23.9331 44.3027 22.8932 40.6168 23.9566C36.3773 25.1794 33.3913 29.039 30.9985 32.5077C26.8594 38.5098 23.6412 44.9349 22.6381 52.2201C22.2325 55.1694 22.0607 58.2739 22.3472 61.2933C20.2148 60.44 17.7072 60.6775 15.63 61.8403C12.258 63.7285 10.0908 67.1976 8.82034 70.7517C5.80859 79.1781 6.57331 89.3905 12.8002 96.1623C13.2377 96.6377 13.7155 97.1025 14.2103 97.555C13.5276 97.8483 12.9159 98.3245 12.4323 99.0537C11.3739 100.649 11.1556 102.685 11.3477 104.55C11.7168 108.131 13.3641 111.512 15.2159 114.547C18.033 119.167 21.4893 123.583 25.8782 126.801C29.4097 129.391 33.7195 131.278 38.1549 131.328C39.7707 131.347 39.7719 128.837 38.1549 128.818C30.0173 128.725 23.5462 122.235 19.1899 116.031C17.1298 113.098 15.1827 109.906 14.2411 106.416C13.7879 104.735 13.5162 102.817 14.1602 101.144C14.3222 100.725 14.619 100.24 14.8864 99.9938C15.1614 99.7402 15.0808 99.7329 15.7437 99.6702C16.3777 99.6087 17.0637 99.7744 17.67 99.9514C19.0108 100.341 19.9264 98.31 18.6371 97.6571C15.1746 95.9046 12.4586 92.3147 11.0626 88.7882C9.41676 84.6315 9.35257 80.0241 10.1322 75.6677C10.8038 71.9166 12.1708 68.0444 15.0194 65.3829C17.2728 63.2776 20.8236 62.1856 23.1236 64.8609C23.9986 65.879 25.4611 64.7694 25.2214 63.6396C23.3633 54.8604 26.0177 45.4743 30.4996 37.9631C32.792 34.1203 35.4395 29.545 39.4167 27.1986C41.7091 25.8466 45.295 25.292 47.0162 27.7727C48.603 30.0613 49.0204 33.3461 49.0292 36.0792C49.0342 37.5392 51.0411 37.7243 51.493 36.4124C52.7924 32.6499 54.6401 28.968 56.8772 25.6826C58.454 23.3689 60.4178 21.0026 62.9876 19.761C65.3478 18.621 68.5313 18.4671 70.4734 20.4545C71.464 21.4688 72.1196 22.9061 72.3343 24.3072C72.5314 25.5902 74.4406 25.4094 74.7557 24.3072C76.5071 18.1657 80.9354 12.2526 86.1039 8.61313C88.7918 6.71995 92.258 5.34278 94.9421 7.94275C96.0531 9.0199 96.9086 10.511 97.3153 11.8456C97.6505 12.9415 98.9907 13.0073 99.6096 12.1461C99.6335 12.1122 99.5258 12.2359 99.7907 11.9245C100.082 11.5818 100.385 11.2501 100.704 10.9325C101.618 10.0248 102.637 9.24361 103.769 8.62469C106.145 7.32407 110.862 6.25794 112.724 8.94831C114.079 10.9093 113.567 13.903 113.085 16.0624C112.754 17.5463 112.317 19.0291 111.736 20.4352C111.312 21.4609 112.717 22.4066 113.58 21.853C115.494 20.6214 118.05 19.9076 120.304 20.3369C122.965 20.8441 123.758 22.7164 124.178 25.1683C124.747 28.4851 124.484 32.5639 124.013 35.5744C123.867 36.5022 124.878 37.7355 125.858 36.9922C129.804 34.0031 135.506 31.1166 140.572 31.9991C143.924 32.5829 147.026 35.152 145.542 38.7337C144.836 40.4385 143.533 42.0001 142.144 43.2028C140.905 44.275 142.682 45.9675 143.92 44.977C143.872 45.0147 143.755 45.0932 144.037 44.8961C144.308 44.7053 144.582 44.5209 144.864 44.3451C145.638 43.8631 146.452 43.4296 147.304 43.1007C149.865 42.1127 152.706 42.0486 154.879 43.9368C157.441 46.1639 159.143 49.9448 158.853 53.347C158.568 56.7028 156.346 59.3562 153.573 61.0736C153.061 61.39 152.896 61.9253 152.997 62.4914C153.269 64.0293 153.271 65.5048 153.738 66.9837C154.267 68.6622 154.659 70.389 154.913 72.129C155.735 77.7043 155.051 83.5052 151.741 88.1929C150.807 89.5149 152.983 90.7724 153.908 89.4605C157.389 84.5304 158.214 78.3856 157.477 72.5027C157.23 70.5292 156.841 68.5735 156.268 66.6678C155.876 65.3649 155.741 64.0802 155.553 62.7573C158.557 60.6815 160.83 57.6904 161.297 53.9731C161.82 49.8151 159.947 45.3784 156.99 42.4747C154.313 39.8462 150.793 39.4829 147.497 40.4154C148.606 38.19 148.977 35.7171 147.561 33.519C143.645 27.4453 135.124 29.1825 129.719 31.7699C128.73 32.2433 127.758 32.7742 126.81 33.3456C127.178 29.8963 127.205 26.2794 126.269 23.0319C125.4 20.0202 123.447 18.2306 120.276 17.8038C118.588 17.577 116.799 17.8371 115.125 18.3952C115.95 15.6708 116.38 12.7032 115.82 10.0213C114.477 3.59228 106.388 4.04661 101.914 6.7985C100.833 7.46261 99.8159 8.2765 98.9065 9.1891C97.4834 6.41336 94.9787 4.10028 91.7713 3.94556Z" fill="#F3F0E4"/>
</g>
<mask id="mask5_3337_25167" style="mask-type:luminance" maskUnits="userSpaceOnUse" x="-1134" y="-414" width="1538" height="996">
<path d="M-1133.47 -413.207H403.164V581.087H-1133.47V-413.207Z" fill="white"/>
</mask>
<g mask="url(#mask5_3337_25167)">
<path d="M53.7257 144.076C53.7257 144.076 60.3719 131.14 61.5583 131.378C62.7459 131.615 59.6613 140.319 60.1346 140.315C60.6079 140.312 65.8305 140.99 65.4752 141.821C65.1187 142.653 62.1521 154.045 61.4403 153.926C60.7272 153.808 60.9657 145.025 60.2526 144.907C59.5408 144.788 54.0822 144.907 53.7257 144.076Z" fill="#F3F0E4"/>
</g>
<mask id="mask6_3337_25167" style="mask-type:luminance" maskUnits="userSpaceOnUse" x="-1134" y="-414" width="1538" height="996">
<path d="M-1133.47 -413.207H403.164V581.087H-1133.47V-413.207Z" fill="white"/>
</mask>
<g mask="url(#mask6_3337_25167)">
<path d="M54.4031 144.472C56.1883 141.001 58.025 137.518 60.1341 134.233C60.5836 133.535 61.082 132.903 61.5854 132.251C61.6607 132.153 61.726 132.156 61.7285 132.12C61.716 132.266 61.0179 131.886 61.033 131.878C61.0167 131.888 60.9991 132.763 60.9765 132.92C60.6564 135.138 59.8366 137.248 59.406 139.442C59.2704 140.131 59.1888 140.865 60.0299 141.086C60.9439 141.326 61.9733 141.317 62.9074 141.512C63.4321 141.621 63.9682 141.853 64.493 141.932C64.5557 141.941 64.842 142.109 64.8457 142.106C64.803 141.941 64.7604 141.777 64.7177 141.612C64.7139 141.625 64.7089 141.637 64.7039 141.649C64.6888 141.652 64.6499 141.809 64.6449 141.817C64.2657 142.398 64.1615 143.441 63.972 144.099C63.2852 146.493 62.6174 148.897 61.8202 151.258C61.6657 151.716 61.5101 152.177 61.3255 152.624C61.2552 152.797 60.9778 153.296 60.9853 153.335C60.9163 152.984 61.9997 153.364 61.9934 153.384C62.0223 153.286 61.903 152.975 61.8842 152.861C61.8076 152.376 61.7812 151.88 61.7461 151.391C61.6469 149.975 61.603 148.555 61.4938 147.139C61.4335 146.364 61.4925 145.052 60.9087 144.434C60.3375 143.831 58.9164 144.06 58.1719 144.034C57.3772 144.005 56.58 143.974 55.7879 143.891C55.4514 143.856 55.1099 143.819 54.781 143.738C54.5538 143.68 54.3014 143.513 54.4031 143.68C53.8784 142.819 52.52 143.607 53.0485 144.472C53.6197 145.409 55.1827 145.41 56.1356 145.491C56.8512 145.553 57.568 145.582 58.2849 145.607C58.7707 145.623 59.5704 145.799 60.045 145.67C60.4643 145.557 59.593 145.474 59.6859 145.402C59.6797 145.407 59.804 145.947 59.8077 145.972C59.9006 146.56 59.9282 147.162 59.9672 147.755C60.0575 149.133 60.1002 150.514 60.2145 151.89C60.276 152.632 60.2333 153.869 60.8158 154.44C61.4774 155.088 62.1604 154.474 62.4868 153.859C63.643 151.672 64.1841 149.023 64.8683 146.663C65.2161 145.463 65.5525 144.26 65.9053 143.062C66.0986 142.407 66.5092 141.671 66.0082 141.062C65.3466 140.256 63.8276 140.091 62.8822 139.911C62.2709 139.797 61.657 139.703 61.0405 139.624C60.8573 139.6 60.5308 139.506 60.345 139.543C59.8542 139.646 60.6564 140.393 60.8748 140.087C60.9451 139.988 61.038 139.334 61.1008 139.083C61.2577 138.454 61.4297 137.828 61.5954 137.201C61.9394 135.898 62.2985 134.587 62.5019 133.251C62.6174 132.5 62.8371 131.357 62.1353 130.811C61.4837 130.302 60.7982 130.791 60.335 131.29C58.5159 133.256 57.2554 135.909 55.9661 138.23C54.9656 140.032 53.9901 141.847 53.0485 143.68C52.5878 144.576 53.9411 145.371 54.4031 144.472Z" fill="#5B2467"/>
</g>
<mask id="mask7_3337_25167" style="mask-type:luminance" maskUnits="userSpaceOnUse" x="-1134" y="-414" width="1538" height="996">
<path d="M-1133.47 -413.207H403.164V581.087H-1133.47V-413.207Z" fill="white"/>
</mask>
<g mask="url(#mask7_3337_25167)">
<path d="M125.467 89.0685C126.346 87.7064 129.086 83.0752 134.961 79.5738C140.836 76.0737 144.412 75.456 146.265 75.5389C148.253 75.628 148.757 76.5482 149.025 77.26C149.291 77.9719 149.321 79.3365 149.025 80.0496C148.727 80.7614 148.372 81.236 147.541 81.6515C146.71 82.067 141.785 82.2441 137.869 84.1435C133.952 86.0417 127.41 91.0421 126 91.3233C125.287 91.4664 124.74 90.1959 125.467 89.0685Z" fill="#5B2467"/>
</g>
<mask id="mask8_3337_25167" style="mask-type:luminance" maskUnits="userSpaceOnUse" x="-1134" y="-414" width="1538" height="996">
<path d="M-1133.47 -413.207H403.164V581.087H-1133.47V-413.207Z" fill="white"/>
</mask>
<g mask="url(#mask8_3337_25167)">
<path d="M109.445 90.4037C110.187 90.9084 110.513 92.9258 108.318 92.6283C106.406 92.3709 93.1284 88.6737 86.3617 89.1282C79.8008 89.5688 74.6724 91.3239 73.8414 91.7395C73.0103 92.1537 72.596 91.8575 72.0612 91.7395C71.5276 91.6202 70.163 90.4928 70.163 89.5437C70.163 88.5934 70.222 88.2971 71.1711 87.5853C72.1202 86.8734 75.7408 83.4901 88.5574 84.0249C101.375 84.5584 108.703 89.899 109.445 90.4037Z" fill="#5B2467"/>
</g>
<mask id="mask9_3337_25167" style="mask-type:luminance" maskUnits="userSpaceOnUse" x="-1134" y="-414" width="1538" height="996">
<path d="M-1133.47 -413.207H403.164V581.087H-1133.47V-413.207Z" fill="white"/>
</mask>
<g mask="url(#mask9_3337_25167)">
<path d="M111.967 106.574C111.967 103.636 106.465 96.3068 94.2543 95.8034C85.6208 95.4481 79.7454 99.1855 78.2327 100.789C76.4951 102.628 75.4042 105.79 76.3633 109.422C77.61 114.139 79.5684 115.742 81.0812 116.721C82.594 117.699 86.5109 118.145 94.3435 116.809C102.176 115.475 111.967 109.511 111.967 106.574Z" fill="#F3F0E4"/>
</g>
<mask id="mask10_3337_25167" style="mask-type:luminance" maskUnits="userSpaceOnUse" x="-1134" y="-414" width="1538" height="996">
<path d="M-1133.47 -413.207H403.164V581.087H-1133.47V-413.207Z" fill="white"/>
</mask>
<g mask="url(#mask10_3337_25167)">
<path d="M97.8563 108.78L90.6941 106.668L97.0666 101.667C95.6907 98.5722 92.9777 96.4078 89.3571 96.0475C83.4214 96.8849 79.4392 99.5125 78.2328 100.789C76.4953 102.628 75.4043 105.791 76.3635 109.423C77.6101 114.141 79.5673 115.743 81.0813 116.722C82.3029 117.513 85.0962 117.953 90.2522 117.391C94.1339 116.039 97.0566 112.767 97.8563 108.78Z" fill="#5B2467"/>
</g>
<mask id="mask11_3337_25167" style="mask-type:luminance" maskUnits="userSpaceOnUse" x="-1134" y="-414" width="1538" height="996">
<path d="M-1133.47 -413.207H403.164V581.087H-1133.47V-413.207Z" fill="white"/>
</mask>
<g mask="url(#mask11_3337_25167)">
<path d="M126.078 104.758C125.395 102.633 125.953 99.5271 131.834 94.2857C137.293 89.4197 143.066 88.7682 146.682 89.1925C150.412 89.6319 151.991 92.896 153.06 96.2781C154.264 100.093 156.115 104.55 149.753 110.255C147.92 111.898 145.749 112.147 138.272 112.057C130.796 111.968 127.68 109.742 126.078 104.758Z" fill="#F3F0E4"/>
</g>
<mask id="mask12_3337_25167" style="mask-type:luminance" maskUnits="userSpaceOnUse" x="-1134" y="-414" width="1538" height="996">
<path d="M-1133.47 -413.207H403.164V581.087H-1133.47V-413.207Z" fill="white"/>
</mask>
<g mask="url(#mask12_3337_25167)">
<path d="M137.403 112.717C141.187 111.928 144.156 109.085 145.097 105.479L138.434 103.515L144.51 98.7465C142.99 95.407 139.655 93.3394 135.225 94.0775C134.094 94.2671 133.035 94.5697 132.061 94.9714C132.059 94.9739 132.056 94.9764 132.054 94.9789C126.172 100.22 125.614 103.326 126.297 105.452C127.819 110.186 130.713 112.427 137.403 112.717Z" fill="#5B2467"/>
</g>
<mask id="mask13_3337_25167" style="mask-type:luminance" maskUnits="userSpaceOnUse" x="-1134" y="-414" width="1538" height="996">
<path d="M-1133.47 -413.207H403.164V581.087H-1133.47V-413.207Z" fill="white"/>
</mask>
<g mask="url(#mask13_3337_25167)">
<path d="M157.213 83.7874C156.741 83.1973 153.452 85.5412 150.265 87.2009C150.141 87.1745 150.01 87.1582 149.864 87.1607C149.744 87.1632 149.626 87.1745 149.506 87.1783C150.765 85.4558 152.251 83.3266 151.873 83.0756C151.161 82.601 146.889 85.6868 144.634 87.1105C144.026 87.4934 143.298 87.9202 142.561 88.3483C136.73 90.1448 131.542 93.8847 128.022 98.9202C127.563 99.5781 128.485 100.516 129.145 100.043C132.149 97.882 134.991 95.3749 138.202 93.5282C141.213 91.7995 144.531 90.3733 147.626 90.4712C151.148 90.583 150.748 92.1623 151.393 91.9275C151.968 91.7179 153.167 90.4813 154.247 89.1279C155.973 86.9636 157.57 84.2331 157.213 83.7874Z" fill="#5B2467"/>
</g>
<mask id="mask14_3337_25167" style="mask-type:luminance" maskUnits="userSpaceOnUse" x="-1134" y="-414" width="1538" height="996">
<path d="M-1133.47 -413.207H403.164V581.087H-1133.47V-413.207Z" fill="white"/>
</mask>
<g mask="url(#mask14_3337_25167)">
<path d="M111.754 103.532C105.876 96.269 96.3239 93.4418 87.4882 95.0035C86.8982 94.9056 84.5731 94.5917 83.7898 94.5151C81.2626 94.2703 79.6619 93.0664 79.2112 93.6677C79.0305 93.9088 79.8565 95.286 80.7629 96.1999C80.2997 96.2125 79.8364 96.2037 79.3895 96.1597C75.3119 95.7517 73.248 95.3588 72.9806 95.8032C72.8211 96.0693 74.5524 97.5118 75.9195 98.3643C75.2039 98.4484 74.4959 98.5262 73.8719 98.5626C70.8451 98.7409 68.0857 98.3843 67.9074 99.0974C67.8208 99.4452 70.6995 101.499 72.8689 102.38C74.172 102.91 76.2798 103.417 76.9427 102.992C77.131 103.009 85.5825 95.6965 96.639 97.9889C101.619 99.0221 106.631 101.517 110.596 104.69C111.42 105.352 112.423 104.358 111.754 103.532Z" fill="#5B2467"/>
</g>
<mask id="mask15_3337_25167" style="mask-type:luminance" maskUnits="userSpaceOnUse" x="-1134" y="-414" width="1538" height="996">
<path d="M-1133.47 -413.207H403.164V581.087H-1133.47V-413.207Z" fill="white"/>
</mask>
<g mask="url(#mask15_3337_25167)">
<path d="M121.373 111.821C122.383 112.359 123.273 112.542 124.417 112.385C125.683 112.211 127.306 111.149 128.56 111.942C132.058 114.158 126.427 117.954 125.09 119.443C123.969 120.691 125.374 122.621 126.898 121.787C130.285 119.933 134.233 115.687 132.297 111.524C131.565 109.948 130.079 108.816 128.35 108.579C126.02 108.26 124.122 109.848 121.886 109.927C120.923 109.961 120.445 111.328 121.373 111.821Z" fill="#5B2467"/>
</g>
<mask id="mask16_3337_25167" style="mask-type:luminance" maskUnits="userSpaceOnUse" x="-1134" y="-414" width="1538" height="996">
<path d="M-1133.47 -413.207H403.164V581.087H-1133.47V-413.207Z" fill="white"/>
</mask>
<g mask="url(#mask16_3337_25167)">
<path d="M105.588 134.582C106.004 134.166 109.742 134.701 112.946 133.098C116.15 131.496 116.071 129.384 118.554 128.47C121.936 127.224 123.091 128.444 125.14 128.292C127.544 128.114 128.031 126.663 130.926 126.778C133.151 126.867 133.507 128.558 135.732 128.558C137.958 128.558 140.361 126.155 140.628 126.601C140.894 127.046 139.886 129.241 134.398 130.873C132.518 131.432 125.852 131.141 124.785 131.585C123.716 132.031 113.742 135.389 112.946 135.591C109.376 136.498 104.879 135.291 105.588 134.582Z" fill="#5B2467"/>
</g>
<mask id="mask17_3337_25167" style="mask-type:luminance" maskUnits="userSpaceOnUse" x="-1134" y="-414" width="1538" height="996">
<path d="M-1133.47 -413.207H403.164V581.087H-1133.47V-413.207Z" fill="white"/>
</mask>
<g mask="url(#mask17_3337_25167)">
<path d="M110.451 108.232C104.821 113.97 94.5469 117.376 88.2736 116.284C86.1055 115.906 85.1752 115.827 82.8514 115.461C81.0348 115.174 79.7417 114.961 79.1441 115.134C78.5453 115.309 77.2924 116.215 75.9654 116.846C73.3981 118.068 71.6455 118.231 71.6455 118.797C71.6468 119.548 78.529 119.154 80.6657 118.56C80.8892 118.499 81.1177 118.437 81.3487 118.378C80.3619 119.404 77.8636 121.597 78.2917 122.24C78.4901 122.535 82.4158 121.32 84.9078 120.014C85.5367 119.685 86.0552 119.376 86.4871 119.086C86.5147 119.089 86.5423 119.092 86.57 119.095C86.4168 119.271 86.2661 119.448 86.1243 119.629C85.2643 120.726 84.0177 122.062 84.1068 122.358C84.3818 123.274 88.0212 121.482 89.5365 120.547C90.3274 120.062 91.1083 119.597 91.7636 119.18C99.8046 118.673 108.226 115.247 111.249 108.848C111.484 108.35 110.879 107.796 110.451 108.232Z" fill="#5B2467"/>
</g>
<mask id="mask18_3337_25167" style="mask-type:luminance" maskUnits="userSpaceOnUse" x="-1134" y="-414" width="1538" height="996">
<path d="M-1133.47 -413.207H403.164V581.087H-1133.47V-413.207Z" fill="white"/>
</mask>
<g mask="url(#mask18_3337_25167)">
<path d="M107.695 135.858C107.328 135.831 111.967 141.821 115.884 141.287C119.8 140.753 121.403 139.061 123.627 138.884C125.853 138.706 129.235 139.329 131.638 137.816C134.041 136.302 137.246 129.716 136.89 129.984C136.533 130.25 125.719 131.726 123.538 131.941C121.357 132.157 114.994 136.391 107.695 135.858Z" fill="#5B2467"/>
</g>
<mask id="mask19_3337_25167" style="mask-type:luminance" maskUnits="userSpaceOnUse" x="-1134" y="-414" width="1538" height="996">
<path d="M-1133.47 -413.207H403.164V581.087H-1133.47V-413.207Z" fill="white"/>
</mask>
<g mask="url(#mask19_3337_25167)">
<path d="M111.403 135.175C111.403 135.175 114.489 141.584 116.507 144.907C118.524 148.23 121.728 152.383 125.526 151.315C129.323 150.248 132.054 144.788 132.409 140.753C132.766 136.718 132.646 130.903 131.935 130.666C131.223 130.428 125.288 132.209 123.034 132.327C120.779 132.446 111.523 134.107 111.403 135.175Z" fill="#F3F0E4"/>
</g>
<mask id="mask20_3337_25167" style="mask-type:luminance" maskUnits="userSpaceOnUse" x="-1134" y="-414" width="1538" height="996">
<path d="M-1133.47 -413.207H403.164V581.087H-1133.47V-413.207Z" fill="white"/>
</mask>
<g mask="url(#mask20_3337_25167)">
<path d="M110.726 135.571C112.772 139.817 114.8 144.299 117.697 148.04C119.337 150.155 121.677 152.419 124.567 152.261C127.336 152.11 129.492 149.894 130.86 147.667C132.381 145.189 133.106 142.438 133.283 139.558C133.448 136.868 133.7 133.795 133.035 131.148C132.549 129.216 130.615 129.98 129.163 130.305C126.995 130.792 124.848 131.372 122.631 131.573C120.246 131.79 117.857 132.257 115.525 132.791C114.437 133.039 113.335 133.301 112.289 133.702C111.682 133.934 110.815 134.248 110.647 134.966C110.417 135.949 111.93 136.368 112.159 135.384C112.095 135.66 112.053 135.51 112.342 135.377C112.635 135.239 112.937 135.128 113.245 135.025C114.128 134.734 115.036 134.51 115.942 134.303C117.854 133.866 119.792 133.5 121.737 133.244C123.391 133.027 125.007 132.856 126.643 132.492C127.734 132.249 128.82 131.985 129.912 131.745C130.325 131.654 130.741 131.558 131.16 131.492C131.271 131.475 131.41 131.472 131.516 131.441C131.557 131.428 131.641 131.452 131.676 131.43C131.96 131.255 131.344 131.24 131.401 131.195C131.386 131.206 131.735 133.27 131.748 133.465C131.832 134.81 131.834 136.161 131.801 137.508C131.733 140.223 131.501 142.831 130.337 145.325C129.346 147.448 127.72 149.906 125.318 150.558C122.58 151.303 120.257 148.85 118.771 146.879C116.015 143.227 114.059 138.886 112.08 134.779C111.642 133.87 110.289 134.665 110.726 135.571Z" fill="#5B2467"/>
</g>
<mask id="mask21_3337_25167" style="mask-type:luminance" maskUnits="userSpaceOnUse" x="-1134" y="-414" width="1538" height="996">
<path d="M-1133.47 -413.207H403.164V581.087H-1133.47V-413.207Z" fill="white"/>
</mask>
<g mask="url(#mask21_3337_25167)">
<path d="M98.7555 131.708C101.648 134.182 105.476 136.482 109.301 137.093C113.002 137.683 116.614 135.595 119.981 134.337C122.361 133.448 124.372 132.804 126.965 132.691C128.986 132.603 130.99 132.785 132.992 132.409C136.788 131.694 139.946 129.355 142.297 126.356C142.997 125.464 141.791 124.186 141.022 125.081C138.147 128.428 134.25 130.101 129.867 130.207C126.379 130.289 123.473 129.785 120.105 130.984C117.296 131.983 114.138 133.885 111.232 134.417C107.129 135.169 103.057 132.004 99.4409 130.529C98.7906 130.264 98.2395 131.266 98.7555 131.708Z" fill="#5B2467"/>
</g>
<mask id="mask22_3337_25167" style="mask-type:luminance" maskUnits="userSpaceOnUse" x="-1134" y="-414" width="1538" height="996">
<path d="M-1133.47 -413.207H403.164V581.087H-1133.47V-413.207Z" fill="white"/>
</mask>
<g mask="url(#mask22_3337_25167)">
<path d="M124.754 140.397C124.913 138.059 124.872 134.694 123.403 132.714C122.705 131.772 120.959 132.269 121.365 133.573C122.071 135.834 122.97 138.013 123.212 140.397C123.313 141.375 124.685 141.4 124.754 140.397Z" fill="#5B2467"/>
</g>
<mask id="mask23_3337_25167" style="mask-type:luminance" maskUnits="userSpaceOnUse" x="-1134" y="-414" width="1538" height="996">
<path d="M-1133.47 -413.207H403.164V581.087H-1133.47V-413.207Z" fill="white"/>
</mask>
<g mask="url(#mask23_3337_25167)">
<path d="M99.9791 127.511C99.4443 128.131 98.9044 128.787 98.3006 129.34C97.6666 129.917 97.0138 130.07 96.1839 130.147C94.7615 130.278 94.4301 132.178 95.8437 132.659C98.4914 133.559 100.676 130.91 101.73 128.861C102.279 127.794 100.848 126.502 99.9791 127.511Z" fill="#5B2467"/>
</g>
<mask id="mask24_3337_25167" style="mask-type:luminance" maskUnits="userSpaceOnUse" x="-1134" y="-414" width="1538" height="996">
<path d="M-1133.47 -413.207H403.164V581.087H-1133.47V-413.207Z" fill="white"/>
</mask>
<g mask="url(#mask24_3337_25167)">
<path d="M140.175 123.692C140.331 124.552 140.632 125.333 141.294 125.925C141.97 126.532 142.752 126.961 143.624 127.218C145.106 127.656 145.726 125.189 144.25 124.942C143.631 124.838 143.085 124.637 142.569 124.273C142.069 123.919 141.548 123.589 141.134 123.133C140.717 122.675 140.081 123.172 140.175 123.692Z" fill="#5B2467"/>
</g>
<mask id="mask25_3337_25167" style="mask-type:luminance" maskUnits="userSpaceOnUse" x="-1134" y="-414" width="1538" height="996">
<path d="M-1133.47 -413.207H403.164V581.087H-1133.47V-413.207Z" fill="white"/>
</mask>
<g mask="url(#mask25_3337_25167)">
<path d="M158.519 105.743C158.049 105.555 157.383 105.336 156.777 105.178C157.327 105.04 157.876 104.889 158.281 104.794C160.299 104.319 162.436 104.496 162.316 103.904C162.198 103.31 155.895 101.107 155.183 101.463C154.916 101.596 155.183 102.869 154.082 104.397C149.151 111.245 139.246 113.368 129.993 110.712C129.4 110.542 129.167 111.314 129.601 111.641C134.3 115.177 141.081 115.143 146.901 112.875C147.647 113.062 149.026 113.169 150.092 113.397C151.755 113.754 153.474 114.11 153.712 113.813C154.031 113.415 153 112.27 152.17 111.617C151.768 111.303 151.439 111.075 151.137 110.905C152.243 111.119 153.693 111.296 154.425 111.38C155.968 111.558 158.815 111.974 159.113 111.617C159.327 111.36 157.629 109.482 156.501 108.709C156.279 108.558 156.066 108.424 155.859 108.301C156.218 108.294 156.563 108.288 156.858 108.294C159.527 108.354 162.375 108.532 162.495 108.117C162.613 107.701 159.409 106.099 158.519 105.743Z" fill="#5B2467"/>
</g>
<mask id="mask26_3337_25167" style="mask-type:luminance" maskUnits="userSpaceOnUse" x="-1134" y="-414" width="1538" height="996">
<path d="M-1133.47 -413.207H403.164V581.087H-1133.47V-413.207Z" fill="white"/>
</mask>
<g mask="url(#mask26_3337_25167)">
<path d="M59.5627 126.826C57.4988 125.127 58.9852 121.709 56.1341 120.421C55.1587 119.98 54.0551 120.045 53.0797 120.442C51.9674 120.894 51.3359 122.482 50.4408 122.83C48.7874 123.474 48.2036 121.529 47.0624 120.962C46.2175 120.541 45.5107 120.89 44.6721 120.769C40.351 120.138 37.24 114.763 36.3349 110.361C37.5363 110.978 38.7942 111.334 40.2907 111.377C41.1055 111.401 41.5373 110.114 40.7288 109.757C38.9574 108.978 36.7291 107.549 35.0732 106.536C34.4266 106.142 33.3281 106.639 33.4298 107.48C33.9307 111.595 36.3248 115.759 38.7277 119.077C39.5324 120.189 40.3685 121.606 41.6378 122.245C43.497 123.18 45.0801 121.956 46.8791 123.544C47.778 124.338 47.8458 125.587 49.2105 126.009C50.4571 126.394 50.9768 125.829 51.936 125.185C52.1569 124.955 52.3766 124.726 52.5976 124.495C54.4895 123.125 54.8159 123.284 55.1662 125.141C55.3897 125.663 55.3156 126.329 55.5127 126.885C56.0174 128.309 56.6589 128.958 58.0788 129.374C59.4673 129.781 60.7704 127.82 59.5627 126.826Z" fill="#5B2467"/>
</g>
<mask id="mask27_3337_25167" style="mask-type:luminance" maskUnits="userSpaceOnUse" x="-1134" y="-414" width="1538" height="996">
<path d="M-1133.47 -413.207H403.164V581.087H-1133.47V-413.207Z" fill="white"/>
</mask>
<g mask="url(#mask27_3337_25167)">
<path d="M46.2129 119.37C46.8695 119.641 47.5913 119.761 48.3031 119.739C48.838 119.723 49.7481 119.395 50.2528 119.674C50.6583 119.897 50.7374 120.45 50.8479 120.854C51.0324 121.529 51.2233 122.16 51.507 122.802C52.1736 124.314 54.8376 123.217 54.2036 121.665C53.5684 120.107 53.6249 118.208 52.0292 117.215C51.3086 116.765 50.4461 116.633 49.6113 116.687C48.5467 116.758 47.5474 117.295 46.4966 117.277C45.2023 117.255 45.1709 118.941 46.2129 119.37Z" fill="#5B2467"/>
</g>
<mask id="mask28_3337_25167" style="mask-type:luminance" maskUnits="userSpaceOnUse" x="-1134" y="-414" width="1538" height="996">
<path d="M-1133.47 -413.207H403.164V581.087H-1133.47V-413.207Z" fill="white"/>
</mask>
<g mask="url(#mask28_3337_25167)">
<path d="M71.1119 49.786C71.1119 49.786 72.7139 43.1988 75.5624 36.7911C78.4411 30.3144 81.9713 26.4653 81.9713 26.4653C81.9713 26.4653 81.0812 22.7279 83.7515 20.0576C86.4218 17.3873 90.5157 18.9892 92.1177 20.4129C93.7196 21.8378 94.7879 25.5752 93.7196 27.3554C92.6525 29.1356 90.8723 30.5605 87.6672 30.2039C87.6672 30.2039 84.6416 32.8742 81.7931 40.5285C79.7505 46.0172 80.7247 51.7444 80.1911 53.3464C79.6563 54.9483 75.5624 54.593 73.9605 54.2365C72.3586 53.8799 71.1119 53.3464 71.1119 49.786Z" fill="#F3F0E4"/>
</g>
<mask id="mask29_3337_25167" style="mask-type:luminance" maskUnits="userSpaceOnUse" x="-1134" y="-414" width="1538" height="996">
<path d="M-1133.47 -413.207H403.164V581.087H-1133.47V-413.207Z" fill="white"/>
</mask>
<g mask="url(#mask29_3337_25167)">
<path d="M63.5643 100.58C64.2372 105.967 62.8914 110.682 61.0384 114.05C59.1867 117.417 58.1773 117.417 57.3349 117.417C56.4925 117.417 55.8196 110.851 55.8196 110.851C55.8196 110.851 55.6514 115.902 53.9679 116.406C52.2844 116.911 52.1161 110.682 51.442 108.662C50.7691 106.642 46.5596 103.443 48.5796 99.0651C50.6008 94.6875 62.8914 95.1934 63.5643 100.58Z" fill="#5B2467"/>
</g>
<mask id="mask30_3337_25167" style="mask-type:luminance" maskUnits="userSpaceOnUse" x="-1134" y="-414" width="1538" height="996">
<path d="M-1133.47 -413.207H403.164V581.087H-1133.47V-413.207Z" fill="white"/>
</mask>
<g mask="url(#mask30_3337_25167)">
<path d="M5.97016 58.6498L6.17354 58.0284C6.33675 57.5274 6.88411 56.9914 7.38754 56.8382L7.91858 56.6775C8.22741 56.5834 8.3856 56.3838 8.37681 56.159C8.3856 55.9331 8.22741 55.7347 7.91858 55.6405L7.38754 55.4786C6.88411 55.3254 6.33675 54.7906 6.17354 54.2897L5.97016 53.667C5.87475 53.377 5.68644 53.2239 5.47302 53.2163C5.2596 53.2239 5.07003 53.377 4.97587 53.667L4.77249 54.2897C4.60803 54.7906 4.06192 55.3254 3.55724 55.4786L3.02746 55.6405C2.71862 55.7347 2.55918 55.9331 2.56797 56.159C2.55918 56.3838 2.71862 56.5834 3.02746 56.6775L3.55724 56.8382C4.06192 56.9914 4.60803 57.5274 4.77249 58.0284L4.97587 58.6498C5.07003 58.9411 5.2596 59.093 5.47302 59.1017C5.68644 59.093 5.87475 58.9411 5.97016 58.6498Z" fill="#F3F0E4"/>
</g>
<mask id="mask31_3337_25167" style="mask-type:luminance" maskUnits="userSpaceOnUse" x="-1134" y="-414" width="1538" height="996">
<path d="M-1133.47 -413.207H403.164V581.087H-1133.47V-413.207Z" fill="white"/>
</mask>
<g mask="url(#mask31_3337_25167)">
<path d="M96.6085 170.375L96.8118 169.753C96.9751 169.252 97.5224 168.716 98.0258 168.563L98.5569 168.402C98.8657 168.308 99.0239 168.109 99.0151 167.884C99.0239 167.658 98.8657 167.459 98.5569 167.365L98.0258 167.203C97.5224 167.05 96.9751 166.515 96.8118 166.015L96.6085 165.392C96.5131 165.102 96.3247 164.949 96.1113 164.941C95.8979 164.949 95.7083 165.102 95.6142 165.392L95.4108 166.015C95.2463 166.515 94.7002 167.05 94.1955 167.203L93.6658 167.365C93.3569 167.459 93.1975 167.658 93.2063 167.884C93.1975 168.109 93.3569 168.308 93.6658 168.402L94.1955 168.563C94.7002 168.716 95.2463 169.252 95.4108 169.753L95.6142 170.375C95.7083 170.666 95.8979 170.818 96.1113 170.827C96.3247 170.818 96.5131 170.666 96.6085 170.375Z" fill="#F3F0E4"/>
</g>
<mask id="mask32_3337_25167" style="mask-type:luminance" maskUnits="userSpaceOnUse" x="-1134" y="-414" width="1538" height="996">
<path d="M-1133.47 -413.207H403.164V581.087H-1133.47V-413.207Z" fill="white"/>
</mask>
<g mask="url(#mask32_3337_25167)">
<path d="M67.9855 6.58034L68.1889 5.9589C68.3521 5.45799 68.8995 4.92192 69.4029 4.76876L69.934 4.60807C70.2428 4.51391 70.401 4.3143 70.3922 4.08958C70.401 3.8636 70.2428 3.66525 69.934 3.57109L69.4029 3.40914C68.8995 3.25598 68.3521 2.72117 68.1889 2.22026L67.9855 1.59757C67.8901 1.30756 67.7018 1.1544 67.4884 1.14687C67.275 1.1544 67.0854 1.30756 66.9913 1.59757L66.7879 2.22026C66.6234 2.72117 66.0773 3.25598 65.5726 3.40914L65.0428 3.57109C64.734 3.66525 64.5746 3.8636 64.5834 4.08958C64.5746 4.3143 64.734 4.51391 65.0428 4.60807L65.5726 4.76876C66.0773 4.92192 66.6234 5.45799 66.7879 5.9589L66.9913 6.58034C67.0854 6.87159 67.275 7.0235 67.4884 7.03229C67.7018 7.0235 67.8901 6.87159 67.9855 6.58034Z" fill="#F3F0E4"/>
</g>
<mask id="mask33_3337_25167" style="mask-type:luminance" maskUnits="userSpaceOnUse" x="-1134" y="-414" width="1538" height="996">
<path d="M-1133.47 -413.207H403.164V581.087H-1133.47V-413.207Z" fill="white"/>
</mask>
<g mask="url(#mask33_3337_25167)">
<path d="M162.719 135.272L162.923 134.65C163.086 134.149 163.633 133.613 164.137 133.46L164.668 133.299C164.976 133.205 165.135 133.006 165.126 132.781C165.135 132.555 164.976 132.356 164.668 132.262L164.137 132.1C163.633 131.947 163.086 131.412 162.923 130.911L162.719 130.289C162.624 129.999 162.435 129.846 162.222 129.838C162.009 129.846 161.819 129.999 161.725 130.289L161.522 130.911C161.357 131.412 160.811 131.947 160.306 132.1L159.776 132.262C159.466 132.356 159.308 132.555 159.317 132.781C159.308 133.006 159.466 133.205 159.776 133.299L160.306 133.46C160.811 133.613 161.357 134.149 161.522 134.65L161.725 135.272C161.819 135.563 162.009 135.715 162.222 135.724C162.435 135.715 162.624 135.563 162.719 135.272Z" fill="#F3F0E4"/>
</g>
<mask id="mask34_3337_25167" style="mask-type:luminance" maskUnits="userSpaceOnUse" x="-1134" y="-414" width="1538" height="996">
<path d="M-1133.47 -413.207H403.164V581.087H-1133.47V-413.207Z" fill="white"/>
</mask>
<g mask="url(#mask34_3337_25167)">
<path d="M19.5002 138.411C18.5649 138.375 17.8368 137.588 17.8719 136.653C17.9084 135.719 18.6955 134.991 19.6295 135.026C20.5636 135.061 21.293 135.848 21.2566 136.783C21.2214 137.718 20.4343 138.446 19.5002 138.411Z" fill="#F3F0E4"/>
</g>
<mask id="mask35_3337_25167" style="mask-type:luminance" maskUnits="userSpaceOnUse" x="-1134" y="-414" width="1538" height="996">
<path d="M-1133.47 -413.207H403.164V581.087H-1133.47V-413.207Z" fill="white"/>
</mask>
<g mask="url(#mask35_3337_25167)">
<path d="M156.989 26.2084C156.054 26.1733 155.325 25.3861 155.361 24.4508C155.397 23.5168 156.184 22.7887 157.118 22.8238C158.052 22.859 158.782 23.6461 158.746 24.5814C158.71 25.5154 157.924 26.2436 156.989 26.2084Z" fill="#F3F0E4"/>
</g>
<mask id="mask36_3337_25167" style="mask-type:luminance" maskUnits="userSpaceOnUse" x="-1134" y="-414" width="1538" height="996">
<path d="M-1133.47 -413.207H403.164V581.087H-1133.47V-413.207Z" fill="white"/>
</mask>
<g mask="url(#mask36_3337_25167)">
<path d="M162.38 148.355C161.445 148.319 160.717 147.532 160.752 146.597C160.788 145.663 161.575 144.935 162.509 144.97C163.443 145.005 164.173 145.792 164.136 146.728C164.101 147.662 163.314 148.39 162.38 148.355Z" fill="#F3F0E4"/>
</g>
<mask id="mask37_3337_25167" style="mask-type:luminance" maskUnits="userSpaceOnUse" x="-1134" y="-414" width="1538" height="996">
<path d="M-1133.47 -413.207H403.164V581.087H-1133.47V-413.207Z" fill="white"/>
</mask>
<g mask="url(#mask37_3337_25167)">
<path d="M173.954 82.911C173.357 82.8884 172.89 82.3849 172.912 81.7861C172.935 81.1885 173.438 80.7215 174.037 80.7441C174.635 80.7679 175.102 81.2714 175.079 81.869C175.057 82.4678 174.553 82.9336 173.954 82.911Z" fill="#F3F0E4"/>
</g>
<mask id="mask38_3337_25167" style="mask-type:luminance" maskUnits="userSpaceOnUse" x="-1134" y="-414" width="1538" height="996">
<path d="M-1133.47 -413.207H403.164V581.087H-1133.47V-413.207Z" fill="white"/>
</mask>
<g mask="url(#mask38_3337_25167)">
<path d="M2.53473 98.1221C1.9359 98.0995 1.47013 97.5961 1.49273 96.9973C1.51533 96.3997 2.01875 95.9327 2.61759 95.9565C3.21517 95.9791 3.68219 96.4826 3.65959 97.0801C3.63699 97.679 3.13357 98.1447 2.53473 98.1221Z" fill="#F3F0E4"/>
</g>
<mask id="mask39_3337_25167" style="mask-type:luminance" maskUnits="userSpaceOnUse" x="-1134" y="-414" width="1538" height="996">
<path d="M-1133.47 -413.207H403.164V581.087H-1133.47V-413.207Z" fill="white"/>
</mask>
<g mask="url(#mask39_3337_25167)">
<path d="M44.8323 152.449C44.2348 152.426 43.7677 151.923 43.7903 151.324C43.8129 150.727 44.3164 150.26 44.9152 150.283C45.5128 150.306 45.9798 150.809 45.9572 151.407C45.9346 152.006 45.4312 152.472 44.8323 152.449Z" fill="#F3F0E4"/>
</g>
<mask id="mask40_3337_25167" style="mask-type:luminance" maskUnits="userSpaceOnUse" x="-1134" y="-414" width="1538" height="996">
<path d="M-1133.47 -413.207H403.164V581.087H-1133.47V-413.207Z" fill="white"/>
</mask>
<g mask="url(#mask40_3337_25167)">
<path d="M78.6369 158.254C78.0393 158.231 77.5723 157.728 77.5949 157.129C77.6175 156.532 78.1209 156.065 78.7198 156.088C79.3173 156.111 79.7844 156.614 79.7618 157.212C79.7392 157.811 79.2357 158.277 78.6369 158.254Z" fill="#F3F0E4"/>
</g>
<mask id="mask41_3337_25167" style="mask-type:luminance" maskUnits="userSpaceOnUse" x="-1134" y="-414" width="1538" height="996">
<path d="M-1133.47 -413.207H403.164V581.087H-1133.47V-413.207Z" fill="white"/>
</mask>
<g mask="url(#mask41_3337_25167)">
<path d="M161.668 35.5219C161.071 35.4993 160.604 34.9959 160.626 34.3971C160.649 33.7995 161.152 33.3325 161.751 33.3551C162.349 33.3789 162.816 33.8823 162.793 34.4799C162.771 35.0788 162.266 35.5445 161.668 35.5219Z" fill="#F3F0E4"/>
</g>
<mask id="mask42_3337_25167" style="mask-type:luminance" maskUnits="userSpaceOnUse" x="-1134" y="-414" width="1538" height="996">
<path d="M-1133.47 -413.207H403.164V581.087H-1133.47V-413.207Z" fill="white"/>
</mask>
<g mask="url(#mask42_3337_25167)">
<path d="M146.631 151.279C146.033 151.256 145.566 150.753 145.589 150.154C145.612 149.557 146.115 149.09 146.714 149.113C147.311 149.136 147.778 149.639 147.756 150.237C147.733 150.836 147.23 151.302 146.631 151.279Z" fill="#F3F0E4"/>
</g>
<mask id="mask43_3337_25167" style="mask-type:luminance" maskUnits="userSpaceOnUse" x="-1134" y="-414" width="1538" height="996">
<path d="M-1133.47 -413.207H403.164V581.087H-1133.47V-413.207Z" fill="white"/>
</mask>
<g mask="url(#mask43_3337_25167)">
<path d="M14.8326 50.3172C13.9903 50.2846 13.3349 49.5765 13.3663 48.7341C13.399 47.893 14.107 47.2364 14.9494 47.269C15.7905 47.3004 16.4471 48.0097 16.4157 48.8509C16.3831 49.6932 15.675 50.3498 14.8326 50.3172Z" fill="#F3F0E4"/>
</g>
<path d="M33.3738 127.258C33.3738 127.258 36.4251 131.203 39.384 132.99C42.3429 134.778 41.7573 131.973 41.7573 131.973C41.7573 131.973 38.5518 128.398 38.2436 128.275C37.9354 128.151 34.206 126.734 33.3738 127.258Z" fill="#5B2467"/>
</g>
</g>
<defs>
<clipPath id="clip0_3337_25167">
<rect width="176" height="172" fill="white"/>
</clipPath>
<clipPath id="clip1_3337_25167">
<rect width="176" height="172" fill="white"/>
</clipPath>
</defs>
</svg>
