<svg width="240" height="236" viewBox="0 0 240 236" fill="none" xmlns="http://www.w3.org/2000/svg">
<path fill-rule="evenodd" clip-rule="evenodd" d="M63.2451 85.2559C66.182 81.1161 69.5085 77.4047 73.1734 74.5926C78.4917 70.5117 83.5356 67.0562 88.6384 64.3179C84.754 59.1119 79.7294 50.8049 76.53 47.603C71.3484 42.4175 59.2473 28.2577 55.1843 24.9293C51.1202 21.6009 45.1873 21.6473 40.6702 19.1445C36.1525 16.6411 36.1757 15.5692 37.6266 11.9963C39.0775 8.42327 42.8695 12.5245 42.8695 12.5245C42.8695 12.5245 48.9968 17.9915 50.4846 16.6876C51.9712 15.3837 47.8629 10.8104 47.8629 10.8104C47.8629 10.8104 44.5943 4.19036 46.5441 2.60785C48.4939 1.02534 52.1515 4.34641 53.4374 7.56363C54.7233 10.7809 55.4508 18.1374 58.538 17.6182C61.6263 17.099 58.1915 10.702 59.7144 7.50063C61.2374 4.30043 61.1784 0.0153778 64.328 5.77193e-05C67.4781 -0.0146949 68.4295 2.79852 66.4099 8.44654C64.3909 14.0951 64.3422 18.8931 62.5443 22.9371C60.7458 26.9816 73.9615 36.1947 80.7324 42.2161C86.6987 47.5219 95.5833 57.9146 97.6091 60.3074C102.15 58.6931 106.879 57.6468 112.008 57.2275C136.125 55.2546 160.614 80.2911 160.614 80.2911C160.614 80.2911 166.01 76.7459 176.622 74.9733C187.234 73.2007 188.211 75.4488 191.935 73.1122C195.076 71.141 197.035 67.9958 201.853 63.7663C207.424 58.8764 212.51 55.4174 215.024 56.765C218.746 58.7595 216.368 67.2587 213.68 73.0282C211.835 76.987 209.906 82.3735 209.906 82.3735C209.906 82.3735 217.615 77.7269 221.551 75.5486C232.576 69.4467 237.935 69.6192 239.622 71.2976C241.6 73.2642 235.487 81.9298 228.871 90.1748C224.84 95.1992 222.669 98.9198 222.041 99.7119C220.496 101.662 223.636 111.961 222.808 119.08C221.981 126.199 215.568 134.46 213.034 136.526C210.5 138.591 212.163 146.012 207.738 149.312C204.83 151.48 204.613 143.261 201.509 145.293C198.405 147.326 195.34 155.756 192.172 156.62C189.004 157.483 190.034 147.265 190.034 147.265C175.821 148.062 168.919 138.288 165.487 137.873C162.054 137.458 157.839 148.887 134.027 158.194C121.54 163.075 107.074 161.523 105.056 162.592C103.039 163.661 102.195 165.833 106.051 169.58C109.906 173.328 116.003 186.778 110.453 193.137C104.904 199.496 97.8609 191.121 94.7334 192.08C91.6065 193.038 102.863 207.828 91.7556 219.537C80.9751 230.9 70.9594 210.313 67.951 211.518C64.9431 212.721 64.6608 224.064 60.0819 229.318C55.5035 234.573 48.7723 237.576 39.1342 235.144C29.4967 232.711 32.403 219.457 32.403 219.457C32.2862 213.757 42.9715 181.701 47.1179 173.897C51.2636 166.094 55.9214 152.245 55.4173 146.056C54.9144 139.868 47.2284 125.004 49.7895 114.697C51.2063 108.992 53.8672 101.675 57.5781 94.5802C53.2384 89.0468 47.2125 78.914 43.4705 75.169C37.8063 69.5006 24.5793 54.0233 20.1376 50.385C15.6964 46.7462 9.21187 46.7979 4.27405 44.0613C-0.664348 41.3252 -0.638304 40.154 0.947538 36.2486C2.53338 32.3431 6.67802 36.8256 6.67802 36.8256C6.67802 36.8256 13.3752 42.8016 15.0013 41.3763C16.6263 39.9509 12.1358 34.952 12.1358 34.952C12.1358 34.952 8.56266 27.7164 10.6939 25.9863C12.8264 24.2563 16.8236 27.8866 18.2285 31.4034C19.6341 34.9197 20.429 42.961 23.8048 42.3936C27.1795 41.8262 23.426 34.8334 25.0907 31.3348C26.7548 27.8355 26.6907 23.1527 30.1334 23.1357C33.5761 23.1198 34.616 26.1952 32.4093 32.3686C30.202 38.5426 30.1487 43.7866 28.183 48.2073C26.2173 52.628 40.6634 62.699 48.0642 69.2804C52.8075 73.4986 59.2382 80.6582 63.2451 85.2559ZM210.334 65.4549C208.989 65.2172 199.366 75.8545 198.253 77.8461C196.581 80.8375 197.172 82.5057 198.446 85.3456C199.72 88.1861 199.014 86.6222 200.818 87.2169C202.716 87.8422 204.162 81.9927 205.914 77.9295C208.822 71.1886 211.297 65.6252 210.334 65.4549ZM66.4156 201.561C69.5073 201.703 80.1643 215.548 86.8433 209.705C93.5223 203.861 85.6005 186.959 88.0487 184.372C90.4964 181.785 100.15 188.937 102.615 186.4C105.08 183.864 106.458 179.422 102.379 173.455C98.3003 167.487 93.1844 159.553 96.0397 156.965C98.8945 154.377 120.368 159.204 139.304 148.905C158.238 138.606 159.462 130.807 163.215 128.986C166.969 127.164 165.147 129.448 172.215 133.93C179.281 138.413 189.254 143.434 205.618 132.353C221.982 121.272 214.935 102.824 211.853 99.873C208.771 96.923 205.504 101.01 198.816 95.5164C192.129 90.0233 197.204 86.6325 191.549 83.6944C185.894 80.7575 183.397 80.5453 174.018 82.3428C164.64 84.141 162.65 90.0142 159.583 91.1315C156.517 92.2487 146.757 68.953 111.852 68.8515C99.8856 68.8169 80.8373 78.296 69.8792 91.6455C58.9212 104.995 59.8494 114.988 59.0052 121.978C58.1621 128.968 62.9684 141.709 64.0439 146.012C65.1183 150.314 62.4314 163.606 56.3443 175.798C50.2572 187.991 41.8064 211.19 41.1351 217.374C40.4632 223.56 46.319 229.364 54.2091 222.274C62.0992 215.185 60.1794 201.274 66.4156 201.561ZM99.8419 107.867C99.8419 107.867 85.7984 112.314 87.2402 118.752C88.6815 125.191 98.493 122.48 99.4745 125.427C100.456 128.374 87.0304 134.604 91.3451 140.441C94.2492 144.368 102.699 136.518 106.88 134.119C108.911 132.954 113.244 135.326 106.156 141.15C104.794 142.269 90.2412 152.092 85.6306 146.056C81.0193 140.021 83.0967 138 83.9409 135.453C84.7852 132.905 89.9271 130.909 89.4979 129.191C89.0687 127.474 79.2435 125.579 77.6798 120.198C76.1166 114.816 81.9905 104.806 99.4643 100.537C116.938 96.2671 133.573 101.169 134.276 103.287C134.981 105.405 135.063 106.919 130.898 106.364C128.912 106.099 114.428 103.711 99.8419 107.867ZM181.02 120.472C181.02 120.472 180 118.567 181.091 117.845C182.182 117.123 183.286 118.226 183.286 118.226C183.286 118.226 187.573 122.741 192.133 121.359C196.694 119.977 198.737 115.858 198.31 113.549C197.883 111.239 196.631 107.012 192.362 106.779C188.093 106.546 187.054 109.006 186.592 110.387C186.129 111.766 186.936 115.43 189.049 115.684C191.162 115.938 192.912 115.455 192.784 113.961C192.656 112.468 191.248 114.053 190.338 112.632C189.427 111.212 190.745 110.144 192.739 110.662C195.504 111.381 196.98 115.029 194.365 117.208C192.722 118.576 186.905 120.284 183.947 114.703C180.99 109.123 185.149 103.95 189.095 103.169C192.828 102.429 201.482 104.068 202.204 113.118C202.727 119.679 197.1 124.482 193.257 125.32C191.6 125.682 183.301 126.024 181.02 120.472ZM204.703 92.5795C205.135 94.1649 208.632 94.5178 210.946 95.4688C213.26 96.4192 215.723 94.027 216.729 93.2712C217.735 92.5142 231.732 79.4728 230.952 78.6921C230.489 78.2285 222.232 82.5959 214.903 86.6273C209.886 89.3861 204.392 91.439 204.703 92.5795Z" fill="#333333"/>
</svg>
