<svg xmlns="http://www.w3.org/2000/svg" width="32" height="32" fill="none"><path fill="#333" fill-rule="evenodd" d="m1.87 11.567.912.294c.31.1.451-.05.504-.215.094-.296-.185-.437-.253-.5a.2.2 0 0 1-.064-.217c.03-.09.12-.154.246-.113l.438.141c.16.052.233.194.181.355l-.487 1.514c-.04.127-.144.164-.235.135a.2.2 0 0 1-.138-.178c-.011-.092-.011-.196-.225-.265l-1.072-.346c-.214-.07-.274.015-.336.084a.2.2 0 0 1-.216.064c-.09-.03-.153-.12-.112-.248l.26-.813c.04-.127.144-.164.234-.135a.2.2 0 0 1 .138.178c.012.093.012.196.225.265m2.994-3.674.036.04c.155.174.253.089.335.044a.2.2 0 0 1 .224.01c.076.056.107.163.027.27l-.506.686c-.08.107-.19.108-.266.051a.2.2 0 0 1-.074-.213c.019-.091.042-.175-.107-.352l-.755-.912c-.313-.375-.334-.755-.16-.99.175-.238.542-.338.997-.143L5.7 6.85c.211.092.285.046.366.001a.2.2 0 0 1 .224.01c.076.056.107.163.027.27l-.506.686c-.08.107-.19.109-.266.052a.2.2 0 0 1-.074-.214c.02-.091.072-.21-.138-.31l-.049-.023a.17.17 0 0 0-.21.054l-.222.3a.17.17 0 0 0 .01.218m-.223-.87-.183-.101c-.27-.15-.352-.11-.383-.067-.036.048-.05.139.17.356l.15.146c.058.057.126.06.176-.008l.113-.153c.05-.068.028-.133-.043-.173M12.357.56c.16-.053.302.018.355.18l.145.438c.042.127-.02.219-.11.249a.2.2 0 0 1-.217-.062c-.063-.068-.203-.349-.363-.295-.097.032-.15.142-.046.454l.3.914c.071.214.174.213.266.224.096.009.157.07.179.137.03.09-.006.195-.133.238l-.806.268c-.126.042-.217-.02-.247-.11a.21.21 0 0 1 .062-.218c.067-.064.15-.125.08-.34l-.301-.913c-.103-.312-.21-.369-.307-.337-.16.054-.106.363-.116.456a.2.2 0 0 1-.137.179c-.09.03-.194-.006-.236-.133l-.145-.44c-.053-.16.019-.303.178-.356zm4.149 1.242c.007.226.106.254.191.29a.2.2 0 0 1 .132.183c.003.096-.061.186-.194.19l-.85.026c-.132.004-.202-.082-.204-.177a.21.21 0 0 1 .12-.19c.083-.042.18-.077.173-.302L15.84.69c-.007-.226-.106-.255-.192-.29a.2.2 0 0 1-.132-.184c-.003-.095.061-.185.195-.19L16.559 0c.134-.004.203.082.206.177a.21.21 0 0 1-.12.191c-.084.042-.181.076-.174.302zm4.265.33c-.034.13-.135.173-.23.148-.228-.059-.09-.332-.259-.376-.044-.012-.084.018-.098.073l-.024.092c-.08.318.078.45.244.493.299.077.423-.211.482-.284a.2.2 0 0 1 .211-.076c.092.023.16.11.127.24l-.114.448c-.042.164-.179.245-.342.203l-1.531-.4c-.13-.033-.172-.135-.149-.227a.2.2 0 0 1 .169-.15c.091-.016.194-.022.25-.24l.28-1.098c.056-.219-.032-.274-.104-.333a.2.2 0 0 1-.076-.212c.024-.093.11-.161.24-.128l1.532.396c.163.042.244.18.202.343l-.114.448c-.034.13-.135.173-.227.15a.2.2 0 0 1-.148-.17c-.017-.092.012-.405-.287-.482-.166-.043-.368-.004-.45.313l-.02.079c-.013.055.008.1.052.112.17.043.18-.264.407-.205.096.025.164.112.13.241zm3.707 2.485.066-.94q.005-.104-.022-.12-.03-.022-.098.078l-.222.339c-.123.189-.059.27-.01.348a.2.2 0 0 1 .003.226c-.052.08-.156.117-.267.043l-.709-.47c-.111-.074-.119-.185-.066-.264a.2.2 0 0 1 .207-.086c.092.014.191.042.315-.146l.622-.949c.124-.188.06-.269.01-.348a.21.21 0 0 1-.003-.226c.052-.08.156-.116.268-.042l.454.3c.178.12.152.262.14.433l-.074 1.113c-.002.061.017.07.052.017l.313-.477c.123-.189.059-.27.01-.349a.2.2 0 0 1-.003-.226c.052-.08.156-.116.267-.042l.709.47c.111.074.119.184.066.264a.2.2 0 0 1-.207.086c-.092-.014-.191-.042-.315.146l-.833 1.27c-.093.14-.248.173-.389.08l-.143-.096c-.179-.118-.152-.262-.141-.432m3.078 3.333-.582-.774c-.1-.132-.077-.255-.002-.312.056-.043.147-.05.244.014.094.06.193.14.372.004l.898-.684c.18-.136.13-.254.098-.361-.035-.111-.003-.197.053-.24.075-.057.196-.043.295.09l.519.689c.449.596.383 1.35-.219 1.808-.481.366-1.195.405-1.676-.234m.334-.258c.19.258.655.174.985-.077.26-.198.529-.607.281-.936-.07-.093-.157-.075-.227-.021l-1.072.815c-.03.023-.041.12.033.219m2.254 3.517-.053.007c-.23.03-.216.16-.225.253a.2.2 0 0 1-.135.18c-.09.032-.195-.003-.237-.13l-.275-.808c-.044-.127.018-.219.107-.25a.2.2 0 0 1 .217.06c.064.067.12.134.35.11l1.175-.109c.484-.047.807.15.902.428.095.28-.03.64-.448.907l-.996.637c-.195.124-.199.21-.208.303a.2.2 0 0 1-.135.18c-.09.032-.194-.003-.237-.13l-.275-.808c-.043-.127.018-.219.108-.25a.2.2 0 0 1 .216.06c.064.068.132.179.333.061l.046-.027a.17.17 0 0 0 .075-.205l-.12-.354a.17.17 0 0 0-.184-.115m.84.308.186-.094c.275-.14.289-.23.272-.28-.02-.057-.086-.12-.388-.06l-.205.04c-.08.016-.12.071-.093.151l.061.18c.027.08.093.099.166.063M4.575 24.036l-.763.032c-.109.003-.23-.01-.277-.089-.036-.06-.033-.153.045-.297l.373-.71c.078-.145.041-.103-.067-.038l-.53.32c-.193.114-.116.306-.107.4a.21.21 0 0 1-.096.204c-.081.048-.19.035-.258-.08l-.433-.734c-.068-.116-.026-.218.055-.267a.2.2 0 0 1 .224.014c.077.053.207.213.4.098l.973-.579c.193-.115.116-.307.107-.4a.2.2 0 0 1 .095-.204c.082-.049.191-.036.26.08l.264.449c.109.185.057.367-.026.51l-.305.535c-.106.186-.167.264-.15.294.017.027.105.011.292.003l.635-.03c.166-.008.313-.022.461.23l.227.386c.068.115.027.217-.055.266a.2.2 0 0 1-.224-.014c-.076-.053-.153-.122-.346-.007l-.973.579c-.193.115-.17.216-.16.309a.2.2 0 0 1-.096.204c-.081.049-.19.036-.258-.08l-.433-.734c-.068-.115-.026-.218.055-.266a.2.2 0 0 1 .224.014c.076.053.154.122.347.007l.528-.315c.076-.045.107-.068.1-.08q-.009-.012-.108-.01m2.296 3.557-.042.034c-.18.148-.1.25-.06.334a.21.21 0 0 1-.02.225c-.06.074-.168.099-.27.014l-.656-.543c-.103-.086-.098-.197-.038-.27A.2.2 0 0 1 6 27.323c.09.024.172.052.356-.09l.944-.712c.388-.295.766-.297.99-.11.228.188.309.561.092 1.008l-.516 1.068c-.102.208-.06.284-.02.367a.21.21 0 0 1-.02.225c-.06.074-.168.1-.27.014L6.9 28.55c-.102-.086-.098-.196-.038-.27a.2.2 0 0 1 .216-.063c.09.024.205.083.314-.124l.026-.047a.17.17 0 0 0-.043-.214l-.287-.238a.17.17 0 0 0-.217-.002zm.875-.18.11-.178c.162-.264.126-.348.086-.382-.046-.038-.135-.057-.362.153l-.153.143c-.06.056-.066.124 0 .178l.145.121c.065.054.13.035.174-.034m4.202 3.151c.011.325.19.349.255.416a.21.21 0 0 1 .052.22c-.034.089-.128.147-.252.099l-.413-.159a.43.43 0 0 1-.273-.388l-.02-.915a.1.1 0 0 0-.067-.03.08.08 0 0 0-.057.025.1.1 0 0 0-.016.027l-.132.346c-.08.211 0 .276.065.342a.21.21 0 0 1 .052.22c-.034.09-.128.148-.252.1l-.793-.305c-.125-.048-.156-.154-.122-.243a.2.2 0 0 1 .185-.13c.092-.006.195 0 .276-.21l.402-1.058c.08-.211 0-.276-.065-.342a.2.2 0 0 1-.051-.22c.033-.09.127-.148.252-.1l1.13.435c.364.14.55.491.405.87a.64.64 0 0 1-.527.409c-.069.011-.054.043-.052.116zm-.505-1.161.141.054c.131.05.254-.004.305-.14.05-.131-.004-.254-.136-.305l-.072-.027c-.108-.042-.187-.012-.226.09l-.072.191c-.023.06.001.114.06.137m4.041 2.593c-.762-.064-1.1-.744-1.046-1.391.054-.654.496-1.275 1.265-1.21.5.041.78.362.764.559-.012.137-.154.196-.266.187-.248-.021-.274-.303-.54-.325-.35-.03-.522.402-.56.845-.035.435.068.883.418.912.266.023.348-.246.596-.226.119.01.233.08.221.224-.017.197-.345.467-.852.424m4.11-.992c.039.222.141.236.231.26a.2.2 0 0 1 .157.161c.017.094-.033.193-.165.216l-.835.15c-.131.024-.213-.05-.23-.145a.21.21 0 0 1 .092-.206c.076-.053.168-.102.128-.324l-.198-1.115c-.04-.222-.142-.236-.232-.26a.2.2 0 0 1-.157-.161c-.017-.094.034-.192.165-.216l.836-.15c.13-.024.212.051.229.145a.21.21 0 0 1-.092.206c-.076.053-.167.102-.128.324zm3.366-1.166.014.052c.061.226.187.194.28.191a.2.2 0 0 1 .195.111c.043.085.022.194-.098.254l-.76.38c-.119.06-.217.011-.26-.074a.21.21 0 0 1 .03-.224c.058-.072.117-.137.064-.363l-.264-1.156c-.11-.477.042-.826.303-.956.263-.133.635-.055.953.326l.76.908c.147.179.233.171.326.168a.2.2 0 0 1 .196.11c.042.086.021.195-.098.255l-.76.38c-.12.06-.218.011-.26-.074a.21.21 0 0 1 .03-.224c.058-.073.158-.155.016-.34l-.033-.042a.17.17 0 0 0-.212-.048l-.332.167a.17.17 0 0 0-.09.198zm.193-.877-.118-.173c-.173-.256-.264-.258-.312-.234-.053.027-.106.1-.008.394l.067.199c.027.077.086.11.162.073l.17-.085c.074-.038.084-.106.039-.174m4.555-2.021-.904-.249q-.1-.024-.121-.001-.028.026.057.112l.287.285c.16.158.252.11.338.077a.2.2 0 0 1 .221.041c.068.067.083.177-.01.272l-.597.608c-.093.095-.203.08-.27.014a.2.2 0 0 1-.044-.222c.032-.087.078-.18-.081-.339l-.804-.798c-.16-.159-.251-.11-.338-.077a.2.2 0 0 1-.221-.041c-.068-.067-.083-.177.01-.272l.383-.39c.15-.152.285-.098.449-.055l1.07.29c.06.015.073-.003.028-.047l-.405-.402c-.16-.159-.251-.11-.338-.077a.2.2 0 0 1-.22-.041c-.068-.067-.084-.177.01-.272l.596-.608c.094-.095.204-.081.27-.014a.21.21 0 0 1 .044.222c-.031.087-.078.18.082.338l1.076 1.069c.12.119.12.279.002.399l-.12.123c-.151.153-.285.099-.45.055m2.097-3.628.042.033c.183.145.265.044.337-.014a.2.2 0 0 1 .223-.029c.085.043.133.143.073.262l-.384.762c-.06.12-.168.14-.253.097a.2.2 0 0 1-.109-.198c.004-.093.012-.18-.165-.329l-.898-.77c-.372-.315-.457-.686-.325-.948.133-.264.477-.425.958-.31l1.149.271c.224.055.289-.003.361-.061a.2.2 0 0 1 .223-.029c.084.043.133.143.072.262l-.383.762c-.06.12-.168.14-.253.096a.2.2 0 0 1-.109-.197c.004-.093.036-.22-.188-.282l-.052-.014a.17.17 0 0 0-.198.089l-.168.333a.17.17 0 0 0 .046.214m-.367-.819-.197-.069c-.291-.1-.365-.047-.39 0-.026.053-.025.145.228.321l.172.12c.068.046.135.036.173-.04l.086-.169c.038-.075.005-.136-.072-.163M27.58 10.595c.05.013.077.044.08.08.001.036-.023.07-.07.088l-.103.04a.35.35 0 0 0-.189.217l-.022.09c-.013.054-.045.083-.083.083-.038.004-.072-.021-.091-.073l-.032-.088a.35.35 0 0 0-.212-.194l-.106-.028c-.05-.013-.077-.044-.08-.08 0-.036.023-.07.07-.088l.104-.04a.35.35 0 0 0 .188-.217l.022-.09c.013-.054.045-.083.083-.083.038-.004.073.021.091.072l.032.088c.03.084.126.171.212.194zM9.923 24.415c.05.014.078.044.08.08s-.022.07-.07.088l-.103.04a.35.35 0 0 0-.188.217l-.022.091c-.013.053-.045.082-.083.082-.038.004-.073-.02-.092-.072l-.032-.088a.35.35 0 0 0-.211-.194l-.106-.028c-.05-.013-.078-.044-.08-.08-.001-.036.022-.07.07-.088l.103-.04a.35.35 0 0 0 .188-.217l.022-.09c.013-.054.045-.083.083-.083.038-.004.073.02.091.072l.032.088a.35.35 0 0 0 .212.194zm21.861-7.228c.064.016.099.055.103.101.001.047-.03.089-.09.113l-.132.051a.45.45 0 0 0-.24.277l-.028.116c-.017.069-.058.105-.106.106-.049.004-.093-.027-.117-.093l-.041-.113a.45.45 0 0 0-.27-.248l-.136-.036c-.063-.017-.098-.056-.102-.102-.001-.046.03-.088.09-.113l.132-.05a.45.45 0 0 0 .24-.277l.028-.117c.017-.068.058-.104.106-.105.049-.005.093.027.117.093l.041.112c.039.107.16.218.27.248zm-5.29-4.534a.264.264 0 0 1-.29-.249.27.27 0 0 1 .257-.283.265.265 0 0 1 .272.25.27.27 0 0 1-.239.282m-21.373 4.58a.265.265 0 0 1-.291-.248.27.27 0 0 1 .258-.284.265.265 0 0 1 .272.25.27.27 0 0 1-.24.283M16.198 5.06a.26.26 0 0 1-.263-.146.27.27 0 0 1 .127-.362.264.264 0 0 1 .375.226.27.27 0 0 1-.239.282m-10.17 7.353a.19.19 0 0 1-.202-.18.19.19 0 0 1 .178-.203.19.19 0 0 1 .202.18.19.19 0 0 1-.178.203m21.343 1.196a.19.19 0 0 1-.202-.18.19.19 0 0 1 .106-.183.19.19 0 0 1 .21.028.192.192 0 0 1-.114.335M14.739 25.725a.19.19 0 0 1-.202-.18.2.2 0 0 1 .047-.138.2.2 0 0 1 .131-.065.19.19 0 0 1 .202.18.19.19 0 0 1-.178.203M8.557 4.092c.06.016.094.053.098.097 0 .044-.029.085-.087.108l-.125.048a.43.43 0 0 0-.23.264l-.028.11c-.016.066-.055.1-.101.101-.046.005-.089-.026-.111-.088l-.04-.108a.43.43 0 0 0-.256-.237l-.13-.035c-.06-.016-.094-.054-.098-.097 0-.045.029-.085.087-.108l.125-.049c.101-.04.205-.158.23-.263l.028-.111c.016-.065.055-.1.101-.1.046-.005.09.025.111.088l.04.108a.43.43 0 0 0 .256.237zM2.463 17.194c.06.016.093.053.098.098 0 .044-.03.084-.087.107l-.126.049a.43.43 0 0 0-.23.263l-.027.111c-.016.065-.055.1-.101.1-.047.005-.089-.025-.112-.088l-.039-.107a.43.43 0 0 0-.257-.238l-.13-.035c-.06-.016-.093-.053-.097-.097 0-.044.028-.085.087-.108l.125-.048c.1-.04.204-.158.23-.264l.028-.11c.016-.066.055-.1.1-.101.047-.005.09.026.112.089l.039.107a.43.43 0 0 0 .257.237zm9.105 6.605c-.358-.045-1.188-.334-1.52-.592-.274-.213-.788-.514-1.11-.965-.348-.487-.492-1.174-.779-1.44-.168-.156-1.28-1.01-1.585-1.424-.288-.392-.27-.507-.188-.755.14-.427.82-.347 1.194-.216-.507-.575-1.437-1.78-1.58-3.011-.199-1.707 1.117-2.979 1.117-2.979s-.362-.434.043-1.097c.41-.672 1.235-.747 1.235-.747S8.21 9.14 9.659 7.75c2.42-2.319 5.54-2.16 5.714-1.91.172.25-.091.606-.091.606s2.741-1.124 4.49-.973c1.446.126 2.482.815 2.565 1.08s-.335.498-.335.498 1.345.13 2.06.502c.982.513 1.31 1.45 1.274 1.623s-.585.27-.585.27.782.577.848 1.434c.067.867-.372 1.363-.6 1.68.079.162.155.366.192.593.095.58-.094 1.22-.289 1.69q.031-.008.053.01c.058.054-.101.485-.272.76l.027-.011c.336-.14.533-.298.581-.225.037.056-.206.396-.401.564a.2.2 0 0 1-.008.159c-.062.117-.759-.287-2.187.263l-.079.032c.198.049.379.152.522.298a.13.13 0 0 1-.004.181l-.488.476a.13.13 0 0 0 .08.223c.21.017.454.04.651.059a.13.13 0 0 1 .112.091.1.1 0 0 1 .005.051 1.25 1.25 0 0 1-.387.75 2.7 2.7 0 0 0 .716-.283c.503-.27.94-.964 1.155-1.072l.035-.02c.144-.065.635-.059.66.008.025.07-.18.123-.438.28a3 3 0 0 0-.161.109c.312.007.784.129.794.209.008.07-.124.097-.336.145.232.423.39.918.25 1.826-.132.854-.657 2.026-1.184 3.734-.366 1.184-.929 2.053-1.577 2.618-.613.534-1.501.843-2.309.769-.898-.082-1.659-.749-3.08-1.264-1.482-.537-3.304-1.49-3.686-1.76a.6.6 0 0 0-.093.093c-.073.115.2 1.183-.139 1.332-.15.066-1.078-.71-1.2-.757-.123-.047-1.15.628-1.295.47-.244-.263.205-.874.35-1.163zm13.27-5.678c.17.069.354.17.453.248a2 2 0 0 0-.186-.35 4 4 0 0 0-.268.102m-12.674 5.47c.002.221-.457.61-.373.681s.712-.252.85-.245.713.59.835.52c.123-.07-.14-.734-.09-.81.051-.078.611-.355.585-.488-.025-.132-.55-.045-.666-.171s-.074-.698-.188-.755c-.115-.058-.357.484-.58.588-.223.105-.755-.082-.758.037-.004.12.383.423.385.644m-.706-3.45c-.103-.06-.43-.437-.749-.502-.432-.09-.675-.233-1.028-.307-.352-.074-1.051.062-1.357-.103s-.944-.454-1.074-.218.452.756.754.932c.302.175.564.461.742.677.106.129.282.424.454.714.114.194.227.385.314.522.218.342.765.837 1.06.968.26.115.713.284.817.322-.1-.224-.184-.449-.135-.529.157-.253 1.011-.023 1.112-.053.194-.06.606-.822.876-.756.266.065.401.708.395.847-.006.138.921.135.98.36.025.096-.053.221-.168.35.358.323.527.308 1.526.808.716.36 1.203.577 1.99.872 1.074.401 1.89.964 2.58 1.065 1.054.156 2.253-.39 2.732-.978.502-.618 1.162-2.335 1.302-2.91.189-.776.904-2.595.853-3.248a2 2 0 0 0-.095-.477c-.081.041-.33-.006-.67.006a4 4 0 0 0-.425.043c-.307.189-.765.399-1.37.512a1.2 1.2 0 0 1-.257.018c.148.136.247.363.195.572-.14.563-.912.974-1.035.812-.066-.087.697-.752.482-.993-.144-.162-.447.023-.826-.153-.491-.23-.64-.607-.513-.654.119-.043.487.453 1.21.333a2.7 2.7 0 0 1-.441-.17c-.462-.145-.799-.503-.823-1.01a1.24 1.24 0 0 1 .181-.678c.183-.406.559-.91 1.25-1.285.498-.27.8-.348 1.29-.396q.07-.06.13-.115c.336-.312.5-.587.588-.521.05.037-.013.326-.113.589a3 3 0 0 0 .283-.216l-.142-.586c-.221.038-.548.075-.94.2-.33.106-1.055.464-1.299.574-.57.258-1.209.686-1.224.577-.023-.168.629-.86 1.227-1.228.67-.41 1.069-.495 1.182-.57.297-.198.439-.452.584-.414s.189.347.25.375l.112.052-.115-.452a2 2 0 0 0-.092-.26c-.454.22-1.018.38-1.574.461-.58.086-1.207.17-1.412-.003s.087-.82.173-1.356c.095-.591.04-1.334-.088-1.345-.129-.011-.014 1.513-.948 2.694-.463.585-1.182 1.056-1.626 1.043-.445-.014-.256-.35-.256-.35s-1.927 1.01-3.35 1.125c-.595.048-.847-.096-1.028-.529-.197-.473-.585-1.4-.679-1.193-.093.204.177.166.063 1.321q-.02.21-.064.416c-.196.929-1.053 1.715-1.053 1.715s.454.892.469 1.592c.026 1.204-.373 1.89-.575 1.88-.225-.01-.396-.41-.612-.788zm-1.55.422c.226.49.58.939 1.064 1.07.534.143.886-.24 1.1-.184.326.083.303.633.19.681s-.1-.122-.214-.244-.482.046-.783.096-.718.075-1.02-.154c-.272-.205-.49-.508-.637-.908-.091-.252-.332-.762-.218-.913.224-.298.551.088.7.264.194.232.366.305.333.471-.028.143-.59-.339-.515-.179m4.833-2.222.022-.049c-.286-.131-.738-.528-.706-.613.04-.104.325.038.775.117.101.018.22.032.338.042l.02-.015c-.218-.163-.413-.36-.392-.417.04-.104.325.038.776.117l.062.01c.345-.182.698-.276 1.14-.35 1.012-.171 2.463.542 2.42.736-.033.157-.828-.342-2.457-.02l-.118.025c.21.068.395.22.54.378a.13.13 0 0 1-.004.178l-.463.466a.13.13 0 0 0 .02.2.13.13 0 0 0 .071.023c.203-.008.432-.019.62-.014a.13.13 0 0 1 .123.138c-.025.374-.168.669-.388.874.695-.154.969-.279 1.365-.616.626-.532.679-.899.777-.86.131.05-.137 1.239-1.19 1.769-.465.235-.945.227-1.315.241-.087.004-.192 0-.303-.01q-.077.057-.157.127c-.295.264-.644.6-.715.536-.045-.04.075-.415.218-.696q-.117.056-.227.126c-.333.214-.73.49-.79.416-.038-.046.136-.392.32-.646a3 3 0 0 0-.275.056c-.293.079-.473.189-.504.123-.026-.055.418-.512.649-.662a.93.93 0 0 1-.289-.606 1.5 1.5 0 0 1 .038-.452c-.292-.049-.913-.376-.927-.456-.017-.095.265-.069.644-.144.087-.017.185-.043.282-.072m3.288 4.343-.03.024c-.198.16-.645.149-.721.074s.195-.19.465-.436c.233-.213.332-.365.473-.684s.245.195.19.425a1 1 0 0 1-.046.14c.17.06.504.144.854.052.5-.132.821-.173 1.279-.45.437-.264.823-.423 1.18-.493.36-.07.597-.133.91-.141s.582-.077.76-.23c.102-.09.235-.232.34-.353-.102-.137-.146-.45-.12-.503.03-.06.135.107.335.222.172.098.297.102.514.125.218.022-.122.243-.27.255-.11.008-.21.024-.309-.005l-.067.098a3 3 0 0 1-.121.265c-.022.154-.31 2.092-.654 2.732-.286.534-1.486.953-2.005.86s-1.042-.487-1.556-.841c-.39-.268-1.086-.863-1.401-1.135zm5.256-.756c-.15.443-.398 1.07-.643 1.25-.388.284-1.29.627-2.155.573-.532-.034-1.336-.505-1.895-.878.33.268.703.567.832.656.25.172 1.032.636 1.553.696.493.057 1.461-.309 1.769-.662.259-.298.439-1.08.538-1.635m-.101-.58c-.454.192-1.36.284-1.684.384-.455.14-1.32.626-2.085.73q-.263.036-.476.026c.198.036.413.062.625.064.684.007 1.673-.285 1.911-.334s1.41-.58 1.647-.807zm.083.251a1.4 1.4 0 0 1-.176.153 4.9 4.9 0 0 1-1.506.751c-.674.2-1.598.276-1.962.289-.447.015-.997-.145-1.32-.283.458.308 1.554 1.002 2.131 1.001.743 0 1.68-.24 2.107-.62.471-.42.669-1.067.726-1.29m-4.46-5.181c.071.126-1.314.063-2.052.19-.314.055-1.275.187-1.666.305-.823.25-1.24.649-1.42.527-.126-.085.171-.67.207-.742.036-.073-.162-.427-.056-.568.106-.142.437.026.87.026.165 0 .607-.19 1.555-.227.848-.033 2.453.298 2.561.489" clip-rule="evenodd"/></svg>