<svg xmlns="http://www.w3.org/2000/svg" width="28" height="32" fill="none"><path fill="#333" fill-rule="evenodd" d="M6.218 27.75c-2.465-.63-4.746-1.362-4.903-1.458-.344-.21-.653-2.815-.653-2.815s-.276.002-.365-.602-.98-6.913.835-9.468c.48-.676.9-1.138 1.201-1.432-.37-.08-.685-.149-.82-.177-.437-.088-.935-.67-.973-1.188-.039-.518.027-1.598.38-2.115s.753-.506 1.169-.498 3.964.561 4.708.731.868.513.931.863c.035.198-.05.884-.146 1.616l2.706.105.442.028c-.02-.444-.049-.935-.049-1.2 0-.319-.171-1.006-.221-1.425a3.96 3.96 0 0 1-1.534-.931c-.453-.443-.473-.88-.711-1.165-.238-.284-1.013-.674-1.513-.83s-2.29-1.063-2.523-1.31c0 0-.677-.44-.375-.953s.71-.671 1.121-.643.899.499 1.075.422-.266-1.377.661-1.353c.956.025 1.103 1.132 1.274 1.04s.116-.748.614-.713c.499.034.807.865.802 1.188s.122.38.25.34c.13-.041.671-.722 1.398-1.046 1.387-.617 2.042-.31 2.169-.474.126-.164.006-.873.635-1.443 0 0-.471-.39-.302-.489s.65.13.865.085c.215-.046-.12-.404.093-.436.323-.048.564.338.757.318.192-.02.807.059 1.14.326s.631.838.778.855c.06.007.306.073.685.115.622.07 1.24.178 1.24.345 0 .143-.217.379-.934.588-.256.075-.774.205-.774.205s.306.147.55.237c.354.13.809.39.736.634-.049.164-.406.233-.844.262-.38.026-.593-.025-.807.025-.254.06-.2.196-.72.572-.518.376-.892.455-.892.455s.022 2.105-1.071 3.047a3.3 3.3 0 0 1-.925.567c.043.49.031 1.251.043 1.468.014.27.009 1.203.006 1.498 1.195.085 2.447.184 3.195.269 1.765.2 2.551.55 3.346.919.796.37 2.067 2.073 2.17 3.677.06.922.103 4.188.117 5.404.12.002.272.043.32.223a1 1 0 0 1 .03.156c.814.562 3.802 2.637 4.477 3.251 1.078.98 1.238 2.461.312 3.976s-2.674 2.51-4.055 2.596c-1.38.085-3.261-.514-4.134-1.195-.418-.326-1.96-1.553-3.457-2.747-.786.273-2.68 1.176-3.31 1.131a18 18 0 0 1-.943-.147c-.027-.048-2.141-.479-5.278-1.282zm-3.3-15.646c-.525.534-1.323 1.438-1.72 2.348-.622 1.425-.472 2.675-.51 3.466-.04.791.197 4.57.197 4.57s.087.331.205.414a.4.4 0 0 1 .102.102c.835.202 3.195.765 4.07.864 1.23.14 3.845.716 4.92.873 1.055.154 1.64.281 2.473.171.009-.96.04-3.853.076-4.399.044-.656-.626-4.912 1.587-6.967.846-.785 1.504-1.185 2.06-1.375a8 8 0 0 0-.324-.04l-.035.011-.22.043a.21.21 0 0 1-.222-.098c-.845-.075-2.096-.166-3.029-.246-.362-.03-.9-.065-1.497-.1.022.101.059.171.118.194.268.104.49.325.84.493.351.169.436.344.291.49-.145.145-.338-.056-.554-.134s-.351-.535-.517-.416c-.165.12.139.495.227.704.088.21.072.534-.09.551-.16.017-.314-.442-.314-.442s-.021-.403-.149-.395-.158.547-.158.547.014.367-.216.268-.28-.147-.188-.473.366-.6.4-.943c.01-.097.01-.262.003-.461-1.213-.067-2.582-.13-3.21-.158a33 33 0 0 0-.146 1.21c-.087.95-.344 3.508-.344 3.508s1.1.397 1.162 1.566c.042.793-.35 2.007-1.577 1.99-.993-.015-1.977-.506-2.133-1.622-.168-1.192.857-1.739.857-1.739s-.566-3.085-.566-3.597c0-.513-.542-.485-.542-.485l-.054-.012-.027.018a.213.213 0 0 1-.317-.094zm8.858 8.95a.216.216 0 0 1-.217.215.216.216 0 0 1-.212-.221q.003-.225.01-.456a.216.216 0 0 1 .22-.212.217.217 0 0 1 .208.223zm.065 3.386a.217.217 0 0 1-.2.23.216.216 0 0 1-.228-.203l-.012-.23a.217.217 0 0 1 .203-.228.216.216 0 0 1 .225.207zm-9.87-7.162a.216.216 0 0 1-.22.213.216.216 0 0 1-.209-.223q.006-.25.016-.488a.216.216 0 0 1 .224-.208c.118.005.21.107.205.227q-.01.232-.016.48m.163-1.882a.214.214 0 1 1-.418-.1q.024-.106.052-.193.05-.15.1-.293a.214.214 0 0 1 .276-.13.22.22 0 0 1 .127.28q-.049.135-.095.278-.023.07-.042.158m.754-1.687a.213.213 0 0 1-.298.061.22.22 0 0 1-.06-.302 5 5 0 0 1 .295-.407.21.21 0 0 1 .302-.032.22.22 0 0 1 .031.307q-.14.174-.27.373m8.954 5.542a.216.216 0 0 1-.227.204.217.217 0 0 1-.2-.23q.013-.23.03-.457c.01-.12.113-.21.23-.2.119.01.207.114.198.234zm-.06 3.61a.216.216 0 0 1-.209.223.216.216 0 0 1-.219-.213l-.008-.456a.216.216 0 0 1 .212-.22.216.216 0 0 1 .217.215zm.578-7.145a.214.214 0 0 1-.267.147.22.22 0 0 1-.145-.27q.068-.234.146-.446a.214.214 0 0 1 .276-.127c.111.042.167.168.126.28q-.073.197-.136.416m-.349 1.745a.215.215 0 0 1-.242.186.217.217 0 0 1-.183-.245q.03-.231.067-.455c.019-.118.13-.199.246-.18.117.02.196.132.177.25q-.035.219-.065.444m1.118-3.288a.213.213 0 0 1-.3.049.22.22 0 0 1-.047-.304q.14-.198.274-.37a.213.213 0 0 1 .301-.036.22.22 0 0 1 .036.306q-.129.165-.264.355M2.046 21.136a.217.217 0 0 1-.204.228.216.216 0 0 1-.225-.207l-.021-.485a.217.217 0 0 1 .205-.227.216.216 0 0 1 .223.209zm-.07-1.93a.216.216 0 0 1-.209.222.216.216 0 0 1-.22-.212l-.008-.486a.216.216 0 0 1 .211-.221.216.216 0 0 1 .218.214zm12.305-6.341a.21.21 0 0 1-.302-.03.22.22 0 0 1 .03-.306q.197-.165.382-.283a.213.213 0 0 1 .296.067.22.22 0 0 1-.066.3q-.165.105-.34.252m-12.14 9.959a.217.217 0 0 1-.198.232.216.216 0 0 1-.23-.201l-.015-.243a.217.217 0 0 1 .2-.232.216.216 0 0 1 .228.204zm11.059-1.2c.178.091.387.195.494.233.21.074 1.325-.298 1.978-.449 1.28-.296 3.823-.815 4.03-.889s-.109-.177-.109-.177-1.866-.372-2.356-.446c-.417-.064-3.196-.571-4.02-.722-.004.224-.005.418-.01.569-.007.32-.009 1.054-.008 1.88m.014 3.188c.729-.159 1.518-.422 2.276-.596.718-.165 4.202-1.487 5.802-2.1l-.938-.442c-1.004.315-3.424.908-3.424.908s-3.038.729-3.26.736c-.1.003-.289-.041-.465-.091.003.648.007 1.229.01 1.585m6.694-11.503c-.307-.184-.77-.4-1.459-.607-1.68-.505-3.396.81-4.345 2.164-.68.968-.833 2.567-.874 3.743.542.102 2.59.488 3.697.715 1.2.245 3.669.738 3.874.835s.188.206.188.407c0 .175-.085.642-.171.861l.888.362c.01-1.195.02-3.86-.076-4.911-.127-1.375-.473-2.308-1.461-3.331a3 3 0 0 0-.261-.238m-6.42 12.07c.524.41 3.295 2.586 4.112 3.25.904.734 2.754 2.9 5.427 2.837s3.896-2.183 4.23-2.924c.483-1.074.35-2.218-.986-3.212-1.213-.904-3.296-2.31-4.055-2.82-.582.264-2.567 1.06-3.367 1.282-.704.196-3.65 1.164-5.36 1.587m-.285-2.733c.108.06.3.163.344.176.062.018.004-.325.004-.405 0-.06-.234-.15-.35-.192zM11.087 8.87c.025.366.055.943.033 1.324-.019.33-.084.796-.092 1.164.516.033 1.253.082 2.04.137-.01-.33-.04-1.233-.066-1.531-.023-.247-.087-.864-.126-1.24a7 7 0 0 1-.926.177c-.272.036-.566.02-.863-.031m-9.75 14.7c.126.595.451 2.09.451 2.09s8.692 2.59 10.48 2.538c.005-.683.01-1.997.011-2.626-1.05-.081-5.86-.941-6.644-1.148-.699-.186-3.455-.698-4.299-.854m-.173-13.532s-.259.726.342.962c.6.236 3.37.908 3.37.908s.36-.132.396.392c.036.523.5 4.167.5 4.167s.048.2-.124.352c-.173.152-.81.523-.716 1.324.094.8.71 1.093 1.484 1.083.674-.008 1.356-.277 1.2-1.48-.102-.79-.879-.947-.879-.947s-.163-.007-.14-.28c.021-.272.261-3.007.257-3.643s.14-2.544.125-2.81c-.015-.265-.131-.6-.567-.703-.436-.104-1.079-.39-2.338-.564a18 18 0 0 0-2.166-.164c-.239 0-.413.095-.517.353-.103.259-.243.648-.227 1.05m5.188-6.245c-.249.278-.75-.395-1.378-.36-.627.033-.63.53-.342.763.287.235 1.612.861 2.377 1.12s1.434.71 1.57.939c.134.228.466.974.794 1.235s.707.725 1.725.826c1.018.102 2.212-.306 2.712-.816 1.458-1.488.892-2.893 1.067-2.976s.504.082.972-.24c.469-.323.564-.438.678-.804.114-.365-.24-.293-.19-.811s.358-.483.364-.74c.005-.256-.472-1.34-1.621-1.114s-1.357.862-1.465 1.353.063.51-.17.593c-.234.082-.611-.197-1.835.17-1.225.368-1.922 1.486-2.15 1.497s-.346-.543-.425-.97c-.078-.427-.322-.557-.531-.56s-.315.711-.526.706c-.21-.006-.586-1.061-1.11-1.026-.525.036-.392 1.078-.515 1.215m8.243-1.609c.038-.224.165-.475.495-.467.417.01.497.283.497.544 0 .26-.223.472-.5.472a.51.51 0 0 1-.394-.182l.336-.306zm-2.92 4.17c.784-.445 1.29-1.162 1.363-1.258.151-.2.211-.133.27-.013s-.432 1.036-1.343 1.598c-.91.561-1.575.386-1.735.09-.16-.295.172-.793.118-.884-.053-.092-.352.042-.494-.03s-.314-.07-.373-.523c-.06-.452.96-.654 1.065-.664.54-.054.458.231.324.268-.275.076-.958.102-.915.392.064.432.887.125.969.292s-.442.47-.233.804.983-.073.983-.073m5.031-3.81c.035.061.35-.085.677-.181.475-.14 1.004-.306 1.004-.345 0-.067-1.132-.026-1.206-.015s-.277.014-.334.152c-.057.14-.19.303-.14.389m1.371.913c.033-.048-.303-.18-.707-.342-.243-.098-.549-.286-.602-.178-.05.102-.087.005-.021.18s.11.271.306.327c.13.037.978.08 1.024.013M12.79 28.16a25 25 0 0 0 2.604-.395l-2.558-2.04c0 .667-.019 1.78-.046 2.435m7.736-7.403c-.29.043-6.442 1.549-6.58 1.586-.14.037-.06.24-.023.398s6.582-1.49 6.604-1.666c.02-.163-.001-.318-.001-.318" clip-rule="evenodd"/></svg>