<svg xmlns="http://www.w3.org/2000/svg" width="32" height="33" fill="none"><path fill="#333" d="M8.296 28.216a4.15 4.15 0 0 1-4.148 4.147A4.15 4.15 0 0 1 0 28.216a4.15 4.15 0 0 1 4.148-4.148 4.15 4.15 0 0 1 4.148 4.148m23.703 4.148c.063-9.54-4.348-18.991-11.738-25.024C14.63 2.64 7.34-.025 0 0v7.404c8.685-.1 17.245 4.625 21.705 12.09a24.8 24.8 0 0 1 3.62 12.857H32zm-11.31 0c.037-6.133-2.879-12.166-7.642-16.012C9.402 13.36 4.714 11.676 0 11.702v6.234c5.127-.063 10.155 2.878 12.606 7.39a14.6 14.6 0 0 1 1.823 7.05h6.259z"/></svg>