<svg xmlns="http://www.w3.org/2000/svg" width="32" height="32" fill="none"><g clip-path="url(#a)"><path fill="#333" d="M15.956 1.002C24.47 1.116 32.007 7.476 32 16.095c-.007 7.989-7.533 15.316-16.044 15.094C5.844 30.924 0 24.084 0 16.095 0 8.105 6.65.877 15.956 1.002m0 1.526c-8.02 0-14.532 6.04-14.532 13.567 0 7.526 6.512 13.636 14.532 13.636s14.531-6.11 14.531-13.636-6.51-13.567-14.53-13.567m4.305 16.738c.338-.12.13.352 1.29.944.825.42 1.876.118 1.872.459-.004.293-.903.578-1.777.39-.452.779-2.019 3.323-5.715 3.293-4.613-.037-5.328-2.904-5.556-3.21l-.012-.016c-.904.232-1.87-.063-1.874-.367-.004-.341 1.047-.039 1.871-.46 1.16-.59.952-1.062 1.29-.944.328.116-.098 1.195-.85 1.607.452.584 1.43 2.371 5.056 2.349 3.408-.022 4.725-1.742 5.257-2.439-.752-.412-1.18-1.49-.852-1.606m-4.165-3.184c.631.039 1.26.96 1.41 1.413.075.227.27.696-.043.808-.197.07-.37-.313-.569-.57-.193-.25-.562-.682-.863-.68-.596.003-.852.462-1.19.928-.093.128-.322.381-.479.287-.17-.103-.07-.547.152-.993.246-.495.564-1.255 1.582-1.193M9.6 9.884c1.418 0 2.66.75 3.333 1.869a.28.28 0 0 1-.057.35l-1.834 1.6a.28.28 0 0 0 .04.447l1.767 1.057a.28.28 0 0 1 .098.379 3.89 3.89 0 0 1-3.347 1.891c-2.135 0-3.868-1.7-3.869-3.796 0-2.096 1.734-3.797 3.869-3.797m13.275-.16c1.316 0 2.472.709 3.126 1.775.07.118.044.27-.062.357l-1.69 1.38a.278.278 0 0 0 .04.458l1.839 1.024c.124.069.176.22.121.351-.578 1.325-1.872 2.25-3.374 2.25-2.039 0-3.693-1.703-3.693-3.798 0-2.096 1.655-3.797 3.693-3.797"/></g><defs><clipPath id="a"><path fill="#fff" d="M0 0h32v32H0z"/></clipPath></defs></svg>