<svg width="272" height="114" viewBox="0 0 272 114" fill="none" xmlns="http://www.w3.org/2000/svg">
<g clip-path="url(#clip0_3337_13875)">
<mask id="mask0_3337_13875" style="mask-type:luminance" maskUnits="userSpaceOnUse" x="-16" y="-336" width="734" height="475">
<path d="M-15.0798 -335.883H717.435V138.07H-15.0798V-335.883Z" fill="white"/>
</mask>
<g mask="url(#mask0_3337_13875)">
<path d="M12.4047 98.1861L0.176392 46.1238L22.6396 13.5886L68.657 3.33995L104.843 15.0523L145.004 6.8952L174.706 10.2416L194.787 3.75825L221.351 5.01314L239.076 0.463312L260.411 10.9214L260.202 30.7915L271.944 62.1735L260.912 105.626L220.514 104.154L188.929 103.317L161.11 114.193L129.316 106.873L114.883 111.056L91.247 104.363L76.1162 112.016L46.2051 110.97L12.4047 98.1861Z" fill="#F3F0E4"/>
</g>
<mask id="mask1_3337_13875" style="mask-type:luminance" maskUnits="userSpaceOnUse" x="-16" y="-336" width="734" height="475">
<path d="M-15.0798 -335.883H717.435V138.07H-15.0798V-335.883Z" fill="white"/>
</mask>
<g mask="url(#mask1_3337_13875)">
<path d="M114.032 45.1832L116.776 44.9223L115.42 35.8334L115.276 34.3912L115.054 34.4128L114.975 35.8759L114.032 45.1832ZM109.061 55.509L112.562 27.7457L117.457 27.2795L122.189 54.2595L118.296 54.6299L117.428 49.1149L113.571 49.4817L112.955 55.1386L109.061 55.509Z" fill="#75297F"/>
</g>
<mask id="mask2_3337_13875" style="mask-type:luminance" maskUnits="userSpaceOnUse" x="-16" y="-336" width="734" height="475">
<path d="M-15.0798 -335.883H717.435V138.07H-15.0798V-335.883Z" fill="white"/>
</mask>
<g mask="url(#mask2_3337_13875)">
<path d="M143.412 51.4431V30.5317L140.003 30.7795V27.0597L150.432 26.3027V30.0225L147.022 30.2702V51.181L143.412 51.4431Z" fill="#75297F"/>
</g>
<mask id="mask3_3337_13875" style="mask-type:luminance" maskUnits="userSpaceOnUse" x="-16" y="-336" width="734" height="475">
<path d="M-15.0798 -335.883H717.435V138.07H-15.0798V-335.883Z" fill="white"/>
</mask>
<g mask="url(#mask3_3337_13875)">
<path d="M157.388 52.5538L158.839 23.3991L163.127 23.3016L161.676 52.4562L157.388 52.5538Z" fill="#75297F"/>
</g>
<mask id="mask4_3337_13875" style="mask-type:luminance" maskUnits="userSpaceOnUse" x="-16" y="-336" width="734" height="475">
<path d="M-15.0797 -335.883H717.435V138.07H-15.0797V-335.883Z" fill="white"/>
</mask>
<g mask="url(#mask4_3337_13875)">
<path d="M171.211 49.0654V25.2008L179.21 24.6209V28.2246L174.709 28.5514V34.9802L177.947 34.7451V38.2518L174.709 38.4864V45.2073L179.21 44.8812V48.4849L171.211 49.0654Z" fill="#75297F"/>
</g>
<mask id="mask5_3337_13875" style="mask-type:luminance" maskUnits="userSpaceOnUse" x="-16" y="-336" width="734" height="475">
<path d="M-15.0798 -335.883H717.435V138.07H-15.0798V-335.883Z" fill="white"/>
</mask>
<g mask="url(#mask5_3337_13875)">
<path d="M188.709 51.6497L187.188 18.5095L191.715 17.9715L196.989 34.7076L197.463 36.1923L197.732 36.1606L196.87 17.3587L201.307 16.8315L202.828 49.9717L198.749 50.4564L193.026 33.7729L192.552 32.2882L192.283 32.3205L193.146 51.1224L188.709 51.6497Z" fill="#75297F"/>
</g>
<mask id="mask6_3337_13875" style="mask-type:luminance" maskUnits="userSpaceOnUse" x="-16" y="-336" width="734" height="475">
<path d="M-15.0797 -335.883H717.435V138.07H-15.0797V-335.883Z" fill="white"/>
</mask>
<g mask="url(#mask6_3337_13875)">
<path d="M213.669 42.7245C214.637 42.7066 215.34 42.314 215.78 41.5456C216.22 40.7779 216.521 39.6869 216.681 38.2729C216.842 36.8594 216.975 35.1808 217.08 33.2365C217.187 31.2689 217.235 29.5885 217.226 28.196C217.217 26.8034 217.029 25.7394 216.665 25.0046C216.3 24.2691 215.64 23.9106 214.685 23.9286L213.669 42.7245ZM209.542 46.7083L210.979 20.0897L214.969 20.0155C216.226 19.9928 217.279 20.1783 218.127 20.5726C218.975 20.967 219.638 21.654 220.117 22.6342C220.595 23.6144 220.905 24.9657 221.048 26.6873C221.19 28.409 221.191 30.5861 221.048 33.218C220.905 35.8612 220.67 38.046 220.341 39.7707C220.013 41.4948 219.555 42.8544 218.971 43.8478C218.385 44.8418 217.647 45.5485 216.755 45.9692C215.863 46.3899 214.788 46.6113 213.531 46.6346L209.542 46.7083Z" fill="#75297F"/>
</g>
<mask id="mask7_3337_13875" style="mask-type:luminance" maskUnits="userSpaceOnUse" x="-16" y="-336" width="734" height="475">
<path d="M-15.0797 -335.883H717.435V138.07H-15.0797V-335.883Z" fill="white"/>
</mask>
<g mask="url(#mask7_3337_13875)">
<path d="M234.004 36.6442L237.086 36.5491L236.224 26.3052L236.167 24.6853L235.917 24.6925L235.723 26.3202L234.004 36.6442ZM227.715 47.8162L233.613 17.0709L239.111 16.901L242.461 47.3614L238.088 47.4967L237.514 41.2766L233.183 41.4101L232.089 47.6816L227.715 47.8162Z" fill="#75297F"/>
</g>
<mask id="mask8_3337_13875" style="mask-type:luminance" maskUnits="userSpaceOnUse" x="-16" y="-336" width="734" height="475">
<path d="M-15.0798 -335.883H717.435V138.07H-15.0798V-335.883Z" fill="white"/>
</mask>
<g mask="url(#mask8_3337_13875)">
<path d="M93.019 93.1662L95.0981 64.0492L100.539 64.0432L101.805 79.1337L101.893 80.6783H101.973L102.281 79.1331L105.702 64.0373L111.143 64.0307L109.065 93.147L105.093 93.1518L106.487 73.6222H106.249L106.003 74.8508L102.154 93.1554L99.9301 93.1584L98.6948 74.8592L98.6236 73.6312H98.3848L96.9904 93.1614L93.019 93.1662Z" fill="#75297F"/>
</g>
<mask id="mask9_3337_13875" style="mask-type:luminance" maskUnits="userSpaceOnUse" x="-16" y="-336" width="734" height="475">
<path d="M-15.0798 -335.883H717.435V138.07H-15.0798V-335.883Z" fill="white"/>
</mask>
<g mask="url(#mask9_3337_13875)">
<path d="M123.077 79.5092L125.305 79.3453L124.364 71.9571L124.273 70.7866L124.092 70.8004L124.003 71.9841L123.077 79.5092ZM118.87 87.7891L122.19 65.3547L126.164 65.0621L129.528 87.0051L126.367 87.2379L125.76 82.7539L122.629 82.9837L122.032 87.5569L118.87 87.7891Z" fill="#75297F"/>
</g>
<mask id="mask10_3337_13875" style="mask-type:luminance" maskUnits="userSpaceOnUse" x="-16" y="-336" width="734" height="475">
<path d="M-15.0797 -335.883H717.435V138.07H-15.0797V-335.883Z" fill="white"/>
</mask>
<g mask="url(#mask10_3337_13875)">
<path d="M141.673 73.1406C142.555 73.1142 143.261 72.8982 143.792 72.4937C144.323 72.0891 144.715 71.5236 144.965 70.7965C145.216 70.0706 145.363 69.2149 145.404 68.2305C145.47 66.6878 145.266 65.5095 144.795 64.6944C144.323 63.8799 143.418 63.4928 142.081 63.5329L141.673 73.1406ZM136.146 91.3536L137.519 58.9609L142.28 58.8173C145.132 58.7317 147.2 59.4582 148.485 60.9967C149.77 62.5347 150.348 64.8392 150.219 67.9097C150.141 69.7313 149.755 71.3166 149.059 72.6654C148.363 74.0143 147.546 75.0106 146.609 75.6546L149.197 90.9605L144.435 91.1035L142.324 77.5222L141.486 77.548L140.908 91.21L136.146 91.3536Z" fill="#75297F"/>
</g>
<mask id="mask11_3337_13875" style="mask-type:luminance" maskUnits="userSpaceOnUse" x="-16" y="-336" width="734" height="475">
<path d="M-15.0797 -335.883H717.435V138.07H-15.0797V-335.883Z" fill="white"/>
</mask>
<g mask="url(#mask11_3337_13875)">
<path d="M163.575 87.3983C162.495 87.4779 161.576 87.3007 160.818 86.8687C160.061 86.4354 159.485 85.81 159.091 84.9914C158.697 84.1728 158.499 83.2278 158.498 82.1567L158.483 66.8651C158.482 65.8059 158.684 64.8376 159.088 63.9603C159.492 63.0831 160.075 62.3685 160.838 61.8186C161.6 61.2674 162.504 60.9539 163.549 60.8773C164.336 60.8198 165.04 60.915 165.663 61.1633C166.286 61.4123 166.817 61.7755 167.258 62.2554C167.699 62.7354 168.037 63.3051 168.273 63.9645C168.508 64.624 168.626 65.3421 168.627 66.1195L168.631 69.6861L165.073 69.9476L165.07 66.381C165.069 65.8394 164.957 65.3942 164.733 65.0459C164.51 64.6976 164.14 64.542 163.624 64.5803C163.154 64.615 162.813 64.8281 162.603 65.2206C162.392 65.6126 162.287 66.068 162.287 66.5856L162.302 81.8766C162.302 82.3948 162.417 82.8335 162.647 83.1931C162.876 83.5534 163.207 83.7174 163.642 83.685C164.171 83.6461 164.543 83.4367 164.76 83.0555C164.977 82.6749 165.085 82.2135 165.085 81.6719L165.081 78.1053L168.638 77.8438L168.642 81.4104C168.643 82.4696 168.438 83.4385 168.028 84.3164C167.618 85.1937 167.035 85.9076 166.278 86.4581C165.522 87.0081 164.62 87.3217 163.575 87.3983Z" fill="#75297F"/>
</g>
<mask id="mask12_3337_13875" style="mask-type:luminance" maskUnits="userSpaceOnUse" x="-16" y="-336" width="734" height="475">
<path d="M-15.0798 -335.883H717.435V138.07H-15.0798V-335.883Z" fill="white"/>
</mask>
<g mask="url(#mask12_3337_13875)">
<path d="M179.136 89.1443L177.729 57.59L182.339 57.0484L183.745 88.6022L179.136 89.1443Z" fill="#75297F"/>
</g>
<mask id="mask13_3337_13875" style="mask-type:luminance" maskUnits="userSpaceOnUse" x="-16" y="-336" width="734" height="475">
<path d="M-15.0798 -335.883H717.435V138.07H-15.0798V-335.883Z" fill="white"/>
</mask>
<g mask="url(#mask13_3337_13875)">
<path d="M196.855 76.4575L199.827 76.4952L199.425 66.5937L199.438 65.0306L199.196 65.0276L198.943 66.5871L196.855 76.4575ZM190.33 86.9533L197.297 57.591L202.6 57.658L204.55 87.1328L200.332 87.0796L200.041 81.0654L195.863 81.0127L194.548 87.0065L190.33 86.9533Z" fill="#75297F"/>
</g>
<mask id="mask14_3337_13875" style="mask-type:luminance" maskUnits="userSpaceOnUse" x="-16" y="-336" width="734" height="475">
<path d="M-15.0798 -335.883H717.435V138.07H-15.0798V-335.883Z" fill="white"/>
</mask>
<g mask="url(#mask14_3337_13875)">
<path d="M213.874 83.9336L212.67 60.3479L215.891 59.9481L219.707 71.8424L220.05 72.898L220.241 72.8741L219.558 59.4933L222.715 59.1013L223.92 82.6865L221.017 83.0467L216.882 71.1925L216.539 70.1369L216.348 70.1608L217.032 83.5416L213.874 83.9336Z" fill="#75297F"/>
</g>
<mask id="mask15_3337_13875" style="mask-type:luminance" maskUnits="userSpaceOnUse" x="-16" y="-336" width="734" height="475">
<path d="M-15.0798 -335.883H717.435V138.07H-15.0798V-335.883Z" fill="white"/>
</mask>
<g mask="url(#mask15_3337_13875)">
<path d="M235.766 74.6759L239.039 74.8099L238.904 63.8958L238.966 62.1754L238.702 62.1646L238.374 63.8737L235.766 74.6759ZM228.254 86.0274L236.842 53.9177L242.679 54.1571L243.905 86.6695L239.262 86.4792L239.129 79.8486L234.532 79.6601L232.897 86.2177L228.254 86.0274Z" fill="#75297F"/>
</g>
<mask id="mask16_3337_13875" style="mask-type:luminance" maskUnits="userSpaceOnUse" x="-16" y="-336" width="734" height="475">
<path d="M-15.0798 -335.883H717.435V138.07H-15.0798V-335.883Z" fill="white"/>
</mask>
<g mask="url(#mask16_3337_13875)">
<path d="M94.4559 55.1232L92.1345 31.3179L95.599 30.7248L97.6044 51.2909L102.191 50.5052L102.507 53.7445L94.4559 55.1232Z" fill="#75297F"/>
</g>
<mask id="mask17_3337_13875" style="mask-type:luminance" maskUnits="userSpaceOnUse" x="-16" y="-336" width="734" height="475">
<path d="M-15.0798 -335.883H717.435V138.07H-15.0798V-335.883Z" fill="white"/>
</mask>
<g mask="url(#mask17_3337_13875)">
<path d="M132.975 39.1286L132.388 38.9706C131.914 38.8437 131.389 38.3626 131.222 37.9018L131.045 37.4177C130.943 37.1346 130.75 36.997 130.541 37.0167C130.331 37.0197 130.154 37.1765 130.082 37.4692L129.958 37.9694C129.841 38.4458 129.371 38.9802 128.914 39.1573L128.346 39.3769C128.081 39.4799 127.949 39.6624 127.952 39.8617C127.97 40.0597 128.121 40.2273 128.396 40.3009L128.984 40.4589C129.458 40.5858 129.982 41.0669 130.149 41.5277L130.326 42.0124C130.429 42.2949 130.622 42.4325 130.83 42.4128C131.04 42.4098 131.217 42.253 131.289 41.9603L131.413 41.4601C131.53 40.9843 132 40.4493 132.458 40.2722L133.025 40.0526C133.29 39.9496 133.423 39.7671 133.419 39.5684C133.401 39.3698 133.25 39.2022 132.975 39.1286Z" fill="#75297F"/>
</g>
<mask id="mask18_3337_13875" style="mask-type:luminance" maskUnits="userSpaceOnUse" x="-16" y="-336" width="734" height="475">
<path d="M-15.0798 -335.883H717.435V138.07H-15.0798V-335.883Z" fill="white"/>
</mask>
<g mask="url(#mask18_3337_13875)">
<path d="M211.694 92.9558L211.791 92.6596C211.869 92.4208 212.129 92.1653 212.369 92.0923L212.623 92.0157C212.77 91.9708 212.845 91.8756 212.841 91.7685C212.845 91.6608 212.77 91.5663 212.623 91.5214L212.369 91.4442C212.129 91.3712 211.869 91.1162 211.791 90.8775L211.694 90.5806C211.648 90.4424 211.559 90.3694 211.457 90.3658C211.355 90.3694 211.265 90.4424 211.22 90.5806L211.123 90.8775C211.044 91.1162 210.784 91.3712 210.544 91.4442L210.291 91.5214C210.144 91.5663 210.068 91.6608 210.072 91.7685C210.068 91.8756 210.144 91.9708 210.291 92.0157L210.544 92.0923C210.784 92.1653 211.044 92.4208 211.123 92.6596L211.22 92.9558C211.265 93.0946 211.355 93.167 211.457 93.1712C211.559 93.167 211.648 93.0946 211.694 92.9558Z" fill="#75297F"/>
</g>
<mask id="mask19_3337_13875" style="mask-type:luminance" maskUnits="userSpaceOnUse" x="-16" y="-336" width="734" height="475">
<path d="M-15.0798 -335.883H717.435V138.07H-15.0798V-335.883Z" fill="white"/>
</mask>
<g mask="url(#mask19_3337_13875)">
<path d="M249.623 44.8003L249.72 44.5041C249.798 44.2653 250.059 44.0098 250.299 43.9368L250.552 43.8602C250.699 43.8153 250.775 43.7202 250.771 43.613C250.775 43.5053 250.699 43.4108 250.552 43.3659L250.299 43.2887C250.059 43.2157 249.798 42.9608 249.72 42.722L249.623 42.4252C249.578 42.2869 249.488 42.2139 249.386 42.2103C249.285 42.2139 249.194 42.2869 249.149 42.4252L249.052 42.722C248.974 42.9608 248.714 43.2157 248.473 43.2887L248.221 43.3659C248.073 43.4108 247.997 43.5053 248.002 43.613C247.997 43.7202 248.073 43.8153 248.221 43.8602L248.473 43.9368C248.714 44.0098 248.974 44.2653 249.052 44.5041L249.149 44.8003C249.194 44.9391 249.285 45.0116 249.386 45.0157C249.488 45.0116 249.578 44.9391 249.623 44.8003Z" fill="#75297F"/>
</g>
<mask id="mask20_3337_13875" style="mask-type:luminance" maskUnits="userSpaceOnUse" x="-16" y="-336" width="734" height="475">
<path d="M-15.0798 -335.883H717.435V138.07H-15.0798V-335.883Z" fill="white"/>
</mask>
<g mask="url(#mask20_3337_13875)">
<path d="M10.7593 48.7139L10.8563 48.4177C10.9341 48.179 11.195 47.9234 11.435 47.8504L11.6881 47.7738C11.8354 47.7289 11.9108 47.6338 11.9066 47.5267C11.9108 47.419 11.8354 47.3244 11.6881 47.2795L11.435 47.2023C11.195 47.1293 10.9341 46.8744 10.8563 46.6356L10.7593 46.3388C10.7138 46.2006 10.6241 46.1276 10.5223 46.124C10.4206 46.1276 10.3302 46.2006 10.2853 46.3388L10.1884 46.6356C10.11 46.8744 9.84966 47.1293 9.60908 47.2023L9.35653 47.2795C9.20931 47.3244 9.1333 47.419 9.13749 47.5267C9.1333 47.6338 9.20931 47.7289 9.35653 47.7738L9.60908 47.8504C9.84966 47.9234 10.11 48.179 10.1884 48.4177L10.2853 48.7139C10.3302 48.8528 10.4206 48.9252 10.5223 48.9294C10.6241 48.9252 10.7138 48.8528 10.7593 48.7139Z" fill="#75297F"/>
</g>
<mask id="mask21_3337_13875" style="mask-type:luminance" maskUnits="userSpaceOnUse" x="-16" y="-336" width="734" height="475">
<path d="M-15.0798 -335.883H717.435V138.07H-15.0798V-335.883Z" fill="white"/>
</mask>
<g mask="url(#mask21_3337_13875)">
<path d="M156.731 91.9399L156.828 91.6437C156.905 91.4049 157.166 91.1494 157.406 91.0764L157.659 90.9998C157.807 90.9549 157.882 90.8597 157.878 90.7526C157.882 90.6449 157.807 90.5504 157.659 90.5055L157.406 90.4283C157.166 90.3553 156.905 90.1003 156.828 89.8616L156.731 89.5648C156.685 89.4265 156.595 89.3535 156.494 89.3499C156.392 89.3535 156.302 89.4265 156.257 89.5648L156.16 89.8616C156.081 90.1003 155.821 90.3553 155.58 90.4283L155.328 90.5055C155.181 90.5504 155.105 90.6449 155.109 90.7526C155.105 90.8597 155.181 90.9549 155.328 90.9998L155.58 91.0764C155.821 91.1494 156.081 91.4049 156.16 91.6437L156.257 91.9399C156.302 92.0787 156.392 92.1511 156.494 92.1553C156.595 92.1511 156.685 92.0787 156.731 91.9399Z" fill="#75297F"/>
</g>
<mask id="mask22_3337_13875" style="mask-type:luminance" maskUnits="userSpaceOnUse" x="-16" y="-336" width="734" height="475">
<path d="M-15.0798 -335.883H717.435V138.07H-15.0798V-335.883Z" fill="white"/>
</mask>
<g mask="url(#mask22_3337_13875)">
<path d="M209.72 16.6431L209.817 16.3468C209.895 16.1081 210.156 15.8525 210.396 15.7795L210.649 15.7029C210.796 15.658 210.872 15.5629 210.868 15.4558C210.872 15.3481 210.796 15.2535 210.649 15.2086L210.396 15.1314C210.156 15.0584 209.895 14.8035 209.817 14.5647L209.72 14.2679C209.675 14.1297 209.585 14.0567 209.483 14.0531C209.382 14.0567 209.291 14.1297 209.246 14.2679L209.149 14.5647C209.071 14.8035 208.811 15.0584 208.57 15.1314L208.318 15.2086C208.17 15.2535 208.094 15.3481 208.099 15.4558C208.094 15.5629 208.17 15.658 208.318 15.7029L208.57 15.7795C208.811 15.8525 209.071 16.1081 209.149 16.3468L209.246 16.6431C209.291 16.7819 209.382 16.8543 209.483 16.8585C209.585 16.8543 209.675 16.7819 209.72 16.6431Z" fill="#75297F"/>
</g>
<mask id="mask23_3337_13875" style="mask-type:luminance" maskUnits="userSpaceOnUse" x="-16" y="-336" width="734" height="475">
<path d="M-15.0798 -335.883H717.435V138.07H-15.0798V-335.883Z" fill="white"/>
</mask>
<g mask="url(#mask23_3337_13875)">
<path d="M53.9665 101.97L54.0634 101.674C54.1412 101.435 54.4022 101.18 54.6421 101.107L54.8953 101.03C55.0425 100.985 55.1179 100.89 55.1137 100.783C55.1179 100.675 55.0425 100.581 54.8953 100.536L54.6421 100.458C54.4022 100.385 54.1412 100.131 54.0634 99.8918L53.9665 99.595C53.921 99.4567 53.8312 99.3837 53.7295 99.3801C53.6277 99.3837 53.5374 99.4567 53.4925 99.595L53.3955 99.8918C53.3171 100.131 53.0568 100.385 52.8162 100.458L52.5637 100.536C52.4165 100.581 52.3405 100.675 52.3446 100.783C52.3405 100.89 52.4165 100.985 52.5637 101.03L52.8162 101.107C53.0568 101.18 53.3171 101.435 53.3955 101.674L53.4925 101.97C53.5374 102.109 53.6277 102.181 53.7295 102.186C53.8312 102.181 53.921 102.109 53.9665 101.97Z" fill="#75297F"/>
</g>
<mask id="mask24_3337_13875" style="mask-type:luminance" maskUnits="userSpaceOnUse" x="-16" y="-336" width="734" height="475">
<path d="M-15.0798 -335.883H717.435V138.07H-15.0798V-335.883Z" fill="white"/>
</mask>
<g mask="url(#mask24_3337_13875)">
<path d="M40.3219 23.8939L40.4189 23.5977C40.4967 23.3589 40.7576 23.1034 40.9976 23.0304L41.2508 22.9538C41.398 22.9089 41.4734 22.8137 41.4692 22.7066C41.4734 22.5989 41.398 22.5043 41.2508 22.4595L40.9976 22.3823C40.7576 22.3093 40.4967 22.0543 40.4189 21.8156L40.3219 21.5187C40.2765 21.3805 40.1867 21.3075 40.085 21.3039C39.9832 21.3075 39.8928 21.3805 39.848 21.5187L39.751 21.8156C39.6726 22.0543 39.4123 22.3093 39.1717 22.3823L38.9192 22.4595C38.7719 22.5043 38.6959 22.5989 38.7001 22.7066C38.6959 22.8137 38.7719 22.9089 38.9192 22.9538L39.1717 23.0304C39.4123 23.1034 39.6726 23.3589 39.751 23.5977L39.848 23.8939C39.8928 24.0327 39.9832 24.1051 40.085 24.1093C40.1867 24.1051 40.2765 24.0327 40.3219 23.8939Z" fill="#75297F"/>
</g>
<mask id="mask25_3337_13875" style="mask-type:luminance" maskUnits="userSpaceOnUse" x="-16" y="-336" width="734" height="475">
<path d="M-15.0798 -335.883H717.435V138.07H-15.0798V-335.883Z" fill="white"/>
</mask>
<g mask="url(#mask25_3337_13875)">
<path d="M85.4815 85.2375L85.5784 84.9413C85.6562 84.7025 85.9172 84.447 86.1571 84.3739L86.4103 84.2974C86.5575 84.2525 86.6329 84.1573 86.6287 84.0502C86.6329 83.9425 86.5575 83.8479 86.4103 83.8031L86.1571 83.7259C85.9172 83.6528 85.6562 83.3979 85.5784 83.1591L85.4815 82.8623C85.436 82.7241 85.3462 82.6511 85.2445 82.6475C85.1428 82.6511 85.0524 82.7241 85.0075 82.8623L84.9106 83.1591C84.8322 83.3979 84.5718 83.6528 84.3312 83.7259L84.0787 83.8031C83.9315 83.8479 83.8555 83.9425 83.8597 84.0502C83.8555 84.1573 83.9315 84.2525 84.0787 84.2974L84.3312 84.3739C84.5718 84.447 84.8322 84.7025 84.9106 84.9413L85.0075 85.2375C85.0524 85.3763 85.1428 85.4487 85.2445 85.4529C85.3462 85.4487 85.436 85.3763 85.4815 85.2375Z" fill="#75297F"/>
</g>
<mask id="mask26_3337_13875" style="mask-type:luminance" maskUnits="userSpaceOnUse" x="-16" y="-336" width="734" height="475">
<path d="M-15.0798 -335.883H717.435V138.07H-15.0798V-335.883Z" fill="white"/>
</mask>
<g mask="url(#mask26_3337_13875)">
<path d="M116.57 73.2551L116.667 72.9589C116.745 72.7202 117.006 72.4646 117.246 72.3916L117.499 72.315C117.646 72.2701 117.721 72.175 117.717 72.0679C117.721 71.9602 117.646 71.8656 117.499 71.8207L117.246 71.7435C117.006 71.6705 116.745 71.4156 116.667 71.1768L116.57 70.88C116.525 70.7418 116.435 70.6688 116.333 70.6652C116.231 70.6688 116.141 70.7418 116.096 70.88L115.999 71.1768C115.921 71.4156 115.66 71.6705 115.42 71.7435L115.167 71.8207C115.02 71.8656 114.944 71.9602 114.948 72.0679C114.944 72.175 115.02 72.2701 115.167 72.315L115.42 72.3916C115.66 72.4646 115.921 72.7202 115.999 72.9589L116.096 73.2551C116.141 73.394 116.231 73.4664 116.333 73.4706C116.435 73.4664 116.525 73.394 116.57 73.2551Z" fill="#75297F"/>
</g>
<mask id="mask27_3337_13875" style="mask-type:luminance" maskUnits="userSpaceOnUse" x="-16" y="-336" width="734" height="475">
<path d="M-15.0797 -335.883H717.435V138.07H-15.0797V-335.883Z" fill="white"/>
</mask>
<g mask="url(#mask27_3337_13875)">
<path d="M256.497 79.786L256.594 79.4898C256.672 79.251 256.933 78.9955 257.173 78.9225L257.426 78.8459C257.573 78.801 257.649 78.7058 257.644 78.5987C257.649 78.491 257.573 78.3965 257.426 78.3516L257.173 78.2744C256.933 78.2014 256.672 77.9464 256.594 77.7077L256.497 77.4109C256.452 77.2726 256.362 77.1996 256.26 77.196C256.159 77.1996 256.068 77.2726 256.023 77.4109L255.926 77.7077C255.848 77.9464 255.588 78.2014 255.347 78.2744L255.094 78.3516C254.947 78.3965 254.871 78.491 254.875 78.5987C254.871 78.7058 254.947 78.801 255.094 78.8459L255.347 78.9225C255.588 78.9955 255.848 79.251 255.926 79.4898L256.023 79.786C256.068 79.9248 256.159 79.9972 256.26 80.0014C256.362 79.9972 256.452 79.9248 256.497 79.786Z" fill="#75297F"/>
</g>
<mask id="mask28_3337_13875" style="mask-type:luminance" maskUnits="userSpaceOnUse" x="-16" y="-336" width="734" height="475">
<path d="M-15.0797 -335.883H717.435V138.07H-15.0797V-335.883Z" fill="white"/>
</mask>
<g mask="url(#mask28_3337_13875)">
<path d="M249.807 63.9266C249.362 63.9098 249.014 63.5346 249.031 63.0888C249.048 62.6436 249.423 62.2965 249.869 62.3132C250.314 62.33 250.662 62.7052 250.645 63.1504C250.628 63.5963 250.252 63.9434 249.807 63.9266Z" fill="#75297F"/>
</g>
<mask id="mask29_3337_13875" style="mask-type:luminance" maskUnits="userSpaceOnUse" x="-16" y="-336" width="734" height="475">
<path d="M-15.0797 -335.883H717.435V138.07H-15.0797V-335.883Z" fill="white"/>
</mask>
<g mask="url(#mask29_3337_13875)">
<path d="M248.194 85.6174C247.748 85.6006 247.401 85.2254 247.418 84.7796C247.435 84.3343 247.81 83.9873 248.255 84.004C248.701 84.0208 249.048 84.396 249.031 84.8418C249.014 85.287 248.639 85.6341 248.194 85.6174Z" fill="#75297F"/>
</g>
<mask id="mask30_3337_13875" style="mask-type:luminance" maskUnits="userSpaceOnUse" x="-16" y="-336" width="734" height="475">
<path d="M-15.0798 -335.883H717.435V138.07H-15.0798V-335.883Z" fill="white"/>
</mask>
<g mask="url(#mask30_3337_13875)">
<path d="M222.754 89.0255C222.309 89.0088 221.961 88.6335 221.978 88.1883C221.995 87.7425 222.371 87.3954 222.816 87.4121C223.261 87.4289 223.609 87.8041 223.592 88.2499C223.575 88.6952 223.199 89.0423 222.754 89.0255Z" fill="#75297F"/>
</g>
<mask id="mask31_3337_13875" style="mask-type:luminance" maskUnits="userSpaceOnUse" x="-16" y="-336" width="734" height="475">
<path d="M-15.0798 -335.883H717.435V138.07H-15.0798V-335.883Z" fill="white"/>
</mask>
<g mask="url(#mask31_3337_13875)">
<path d="M135.46 27.6118C135.015 27.595 134.667 27.2198 134.684 26.774C134.701 26.3288 135.076 25.9817 135.521 25.9984C135.967 26.0152 136.314 26.3904 136.298 26.8362C136.28 27.2815 135.905 27.6285 135.46 27.6118Z" fill="#75297F"/>
</g>
<mask id="mask32_3337_13875" style="mask-type:luminance" maskUnits="userSpaceOnUse" x="-16" y="-336" width="734" height="475">
<path d="M-15.0798 -335.883H717.435V138.07H-15.0798V-335.883Z" fill="white"/>
</mask>
<g mask="url(#mask32_3337_13875)">
<path d="M177.046 93.1779C176.601 93.1611 176.253 92.7859 176.27 92.3401C176.287 91.8949 176.662 91.5478 177.107 91.5645C177.553 91.5813 177.9 91.9565 177.884 92.4023C177.866 92.8476 177.491 93.1946 177.046 93.1779Z" fill="#75297F"/>
</g>
<mask id="mask33_3337_13875" style="mask-type:luminance" maskUnits="userSpaceOnUse" x="-16" y="-336" width="734" height="475">
<path d="M-15.0798 -335.883H717.435V138.07H-15.0798V-335.883Z" fill="white"/>
</mask>
<g mask="url(#mask33_3337_13875)">
<path d="M132.423 62.7803C131.978 62.7635 131.63 62.3883 131.647 61.9431C131.664 61.4972 132.039 61.1502 132.484 61.1669C132.93 61.1837 133.277 61.5589 133.261 62.0047C133.243 62.4499 132.868 62.797 132.423 62.7803Z" fill="#75297F"/>
</g>
<mask id="mask34_3337_13875" style="mask-type:luminance" maskUnits="userSpaceOnUse" x="-16" y="-336" width="734" height="475">
<path d="M-15.0798 -335.883H717.435V138.07H-15.0798V-335.883Z" fill="white"/>
</mask>
<g mask="url(#mask34_3337_13875)">
<path d="M17.2091 86.7337C16.7638 86.717 16.4161 86.3418 16.4335 85.8959C16.4502 85.4507 16.8255 85.1036 17.2707 85.1204C17.716 85.1371 18.0637 85.5123 18.0469 85.9582C18.0296 86.4034 17.6543 86.7505 17.2091 86.7337Z" fill="#75297F"/>
</g>
<mask id="mask35_3337_13875" style="mask-type:luminance" maskUnits="userSpaceOnUse" x="-16" y="-336" width="734" height="475">
<path d="M-15.0798 -335.883H717.435V138.07H-15.0798V-335.883Z" fill="white"/>
</mask>
<g mask="url(#mask35_3337_13875)">
<path d="M82.7498 33.2501C82.3046 33.2333 81.9568 32.8581 81.9736 32.4123C81.991 31.9671 82.3662 31.62 82.8114 31.6367C83.2567 31.6535 83.6044 32.0287 83.5871 32.4745C83.5703 32.9198 83.1951 33.2668 82.7498 33.2501Z" fill="#75297F"/>
</g>
<mask id="mask36_3337_13875" style="mask-type:luminance" maskUnits="userSpaceOnUse" x="-16" y="-336" width="734" height="475">
<path d="M-15.0798 -335.883H717.435V138.07H-15.0798V-335.883Z" fill="white"/>
</mask>
<g mask="url(#mask36_3337_13875)">
<path d="M85.3198 91.4738C84.8746 91.457 84.5268 91.0818 84.5442 90.636C84.561 90.1908 84.9362 89.8437 85.3814 89.8604C85.8267 89.8772 86.1744 90.2524 86.1576 90.6982C86.1403 91.1435 85.7651 91.4905 85.3198 91.4738Z" fill="#75297F"/>
</g>
<mask id="mask37_3337_13875" style="mask-type:luminance" maskUnits="userSpaceOnUse" x="-16" y="-336" width="734" height="475">
<path d="M-15.0798 -335.883H717.435V138.07H-15.0798V-335.883Z" fill="white"/>
</mask>
<g mask="url(#mask37_3337_13875)">
<path d="M90.8373 60.2786C90.5524 60.2678 90.3298 60.0279 90.3406 59.7424C90.3514 59.4576 90.5913 59.235 90.8768 59.2457C91.1617 59.2571 91.3843 59.4971 91.3735 59.7819C91.3628 60.0674 91.1222 60.2894 90.8373 60.2786Z" fill="#75297F"/>
</g>
<mask id="mask38_3337_13875" style="mask-type:luminance" maskUnits="userSpaceOnUse" x="-16" y="-336" width="734" height="475">
<path d="M-15.0798 -335.883H717.435V138.07H-15.0798V-335.883Z" fill="white"/>
</mask>
<g mask="url(#mask38_3337_13875)">
<path d="M252.595 58.3264C252.311 58.3157 252.088 58.0757 252.099 57.7902C252.11 57.5054 252.35 57.2828 252.635 57.2936C252.92 57.3049 253.142 57.5449 253.132 57.8297C253.121 58.1152 252.881 58.3372 252.595 58.3264Z" fill="#75297F"/>
</g>
<mask id="mask39_3337_13875" style="mask-type:luminance" maskUnits="userSpaceOnUse" x="-16" y="-336" width="734" height="475">
<path d="M-15.0798 -335.883H717.435V138.07H-15.0798V-335.883Z" fill="white"/>
</mask>
<g mask="url(#mask39_3337_13875)">
<path d="M171.738 90.0573C171.453 90.0465 171.231 89.8065 171.241 89.5211C171.252 89.2362 171.492 89.0136 171.778 89.025C172.063 89.0358 172.285 89.2757 172.274 89.5606C172.264 89.846 172.024 90.068 171.738 90.0573Z" fill="#75297F"/>
</g>
<mask id="mask40_3337_13875" style="mask-type:luminance" maskUnits="userSpaceOnUse" x="-16" y="-336" width="734" height="475">
<path d="M-15.0797 -335.883H717.435V138.07H-15.0797V-335.883Z" fill="white"/>
</mask>
<g mask="url(#mask40_3337_13875)">
<path d="M236.224 11.4356C235.939 11.4249 235.716 11.1849 235.727 10.8994C235.738 10.6146 235.978 10.392 236.263 10.4033C236.548 10.4141 236.771 10.6541 236.76 10.9389C236.749 11.2244 236.509 11.4464 236.224 11.4356Z" fill="#75297F"/>
</g>
<mask id="mask41_3337_13875" style="mask-type:luminance" maskUnits="userSpaceOnUse" x="-16" y="-336" width="734" height="475">
<path d="M-15.0798 -335.883H717.435V138.07H-15.0798V-335.883Z" fill="white"/>
</mask>
<g mask="url(#mask41_3337_13875)">
<path d="M192.912 56.3743C192.627 56.3635 192.405 56.1236 192.416 55.8381C192.426 55.5533 192.666 55.3307 192.952 55.342C193.237 55.3528 193.459 55.5928 193.448 55.8776C193.438 56.1631 193.197 56.3851 192.912 56.3743Z" fill="#75297F"/>
</g>
<mask id="mask42_3337_13875" style="mask-type:luminance" maskUnits="userSpaceOnUse" x="-16" y="-336" width="734" height="475">
<path d="M-15.0798 -335.883H717.435V138.07H-15.0798V-335.883Z" fill="white"/>
</mask>
<g mask="url(#mask42_3337_13875)">
<path d="M9.12161 67.5293C8.83674 67.5186 8.61411 67.2786 8.62489 66.9932C8.63566 66.7083 8.87564 66.4857 9.16111 66.4971C9.44597 66.5078 9.6686 66.7478 9.65783 67.0327C9.64706 67.3181 9.40648 67.5401 9.12161 67.5293Z" fill="#75297F"/>
</g>
<mask id="mask43_3337_13875" style="mask-type:luminance" maskUnits="userSpaceOnUse" x="-16" y="-336" width="734" height="475">
<path d="M-15.0798 -335.883H717.435V138.07H-15.0798V-335.883Z" fill="white"/>
</mask>
<g mask="url(#mask43_3337_13875)">
<path d="M121.816 58.5441C121.531 58.5334 121.309 58.2934 121.319 58.008C121.33 57.7231 121.57 57.5005 121.856 57.5113C122.141 57.5226 122.363 57.7626 122.352 58.0475C122.342 58.3329 122.101 58.5549 121.816 58.5441Z" fill="#75297F"/>
</g>
<mask id="mask44_3337_13875" style="mask-type:luminance" maskUnits="userSpaceOnUse" x="-16" y="-336" width="734" height="475">
<path d="M-15.0797 -335.883H717.435V138.07H-15.0797V-335.883Z" fill="white"/>
</mask>
<g mask="url(#mask44_3337_13875)">
<path d="M147.475 98.7025C147.19 98.6917 146.967 98.4517 146.978 98.1663C146.989 97.8814 147.229 97.6588 147.514 97.6702C147.799 97.681 148.022 97.9209 148.011 98.2058C148 98.4912 147.76 98.7132 147.475 98.7025Z" fill="#75297F"/>
</g>
<mask id="mask45_3337_13875" style="mask-type:luminance" maskUnits="userSpaceOnUse" x="-16" y="-336" width="734" height="475">
<path d="M-15.0798 -335.883H717.435V138.07H-15.0798V-335.883Z" fill="white"/>
</mask>
<g mask="url(#mask45_3337_13875)">
<path d="M181.519 18.4273C181.234 18.4165 181.012 18.1765 181.022 17.8911C181.033 17.6062 181.273 17.3836 181.559 17.395C181.843 17.4058 182.066 17.6457 182.055 17.9306C182.045 18.216 181.804 18.438 181.519 18.4273Z" fill="#75297F"/>
</g>
<mask id="mask46_3337_13875" style="mask-type:luminance" maskUnits="userSpaceOnUse" x="-16" y="-336" width="734" height="475">
<path d="M-15.0798 -335.883H717.435V138.07H-15.0798V-335.883Z" fill="white"/>
</mask>
<g mask="url(#mask46_3337_13875)">
<path d="M106.756 36.7917C106.471 36.781 106.249 36.541 106.259 36.2555C106.27 35.9707 106.51 35.7481 106.796 35.7589C107.08 35.7702 107.303 36.0102 107.292 36.295C107.281 36.5805 107.041 36.8025 106.756 36.7917Z" fill="#75297F"/>
</g>
<mask id="mask47_3337_13875" style="mask-type:luminance" maskUnits="userSpaceOnUse" x="-16" y="-336" width="734" height="475">
<path d="M-15.0798 -335.883H717.435V138.07H-15.0798V-335.883Z" fill="white"/>
</mask>
<g mask="url(#mask47_3337_13875)">
<path d="M29.2848 93.4255C28.9999 93.4147 28.7773 93.1748 28.7881 92.8893C28.7989 92.6045 29.0388 92.3818 29.3243 92.3932C29.6092 92.404 29.8318 92.6439 29.821 92.9288C29.8103 93.2143 29.5697 93.4363 29.2848 93.4255Z" fill="#75297F"/>
</g>
<mask id="mask48_3337_13875" style="mask-type:luminance" maskUnits="userSpaceOnUse" x="-16" y="-336" width="734" height="475">
<path d="M-15.0797 -335.883H717.435V138.07H-15.0797V-335.883Z" fill="white"/>
</mask>
<g mask="url(#mask48_3337_13875)">
<path d="M249.828 93.1249C249.543 93.1142 249.321 92.8742 249.332 92.5887C249.342 92.3039 249.582 92.0813 249.868 92.092C250.153 92.1034 250.375 92.3434 250.365 92.6282C250.354 92.9137 250.113 93.1357 249.828 93.1249Z" fill="#75297F"/>
</g>
<mask id="mask49_3337_13875" style="mask-type:luminance" maskUnits="userSpaceOnUse" x="-16" y="-336" width="734" height="475">
<path d="M-15.0797 -335.883H717.435V138.07H-15.0797V-335.883Z" fill="white"/>
</mask>
<g mask="url(#mask49_3337_13875)">
<path d="M218.871 49.6201C218.586 49.6093 218.364 49.3693 218.375 49.0839C218.385 48.799 218.625 48.5764 218.911 48.5878C219.196 48.5986 219.418 48.8385 219.407 49.1234C219.397 49.4088 219.156 49.6308 218.871 49.6201Z" fill="#75297F"/>
</g>
<mask id="mask50_3337_13875" style="mask-type:luminance" maskUnits="userSpaceOnUse" x="-16" y="-336" width="734" height="475">
<path d="M-15.0798 -335.883H717.435V138.07H-15.0798V-335.883Z" fill="white"/>
</mask>
<g mask="url(#mask50_3337_13875)">
<path d="M45.3994 96.1926C45.1146 96.1818 44.8919 95.9418 44.9027 95.6564C44.9135 95.3715 45.1535 95.1489 45.4389 95.1597C45.7238 95.171 45.9464 95.411 45.9357 95.6959C45.9249 95.9813 45.6843 96.2033 45.3994 96.1926Z" fill="#75297F"/>
</g>
<mask id="mask51_3337_13875" style="mask-type:luminance" maskUnits="userSpaceOnUse" x="-16" y="-336" width="734" height="475">
<path d="M-15.0798 -335.883H717.435V138.07H-15.0798V-335.883Z" fill="white"/>
</mask>
<g mask="url(#mask51_3337_13875)">
<path d="M84.9805 37.6896C84.6956 37.6788 84.473 37.4388 84.4838 37.1534C84.4945 36.8685 84.7345 36.6459 85.02 36.6567C85.3049 36.6681 85.5275 36.908 85.5167 37.1929C85.5059 37.4783 85.2654 37.7003 84.9805 37.6896Z" fill="#75297F"/>
</g>
<mask id="mask52_3337_13875" style="mask-type:luminance" maskUnits="userSpaceOnUse" x="-16" y="-336" width="734" height="475">
<path d="M-15.0798 -335.883H717.435V138.07H-15.0798V-335.883Z" fill="white"/>
</mask>
<g mask="url(#mask52_3337_13875)">
<path d="M77.8123 92.8678C77.5274 92.857 77.3048 92.617 77.3156 92.3316C77.3263 92.0467 77.5663 91.8241 77.8518 91.8355C78.1366 91.8463 78.3593 92.0862 78.3485 92.3711C78.3377 92.6565 78.0971 92.8786 77.8123 92.8678Z" fill="#75297F"/>
</g>
<mask id="mask53_3337_13875" style="mask-type:luminance" maskUnits="userSpaceOnUse" x="-16" y="-336" width="734" height="475">
<path d="M-15.0798 -335.883H717.435V138.07H-15.0798V-335.883Z" fill="white"/>
</mask>
<g mask="url(#mask53_3337_13875)">
<path d="M170.328 58.9648C169.926 58.9492 169.614 58.6117 169.629 58.2102C169.644 57.8092 169.982 57.4962 170.383 57.5118C170.784 57.5268 171.097 57.8649 171.082 58.2658C171.067 58.6674 170.729 58.9803 170.328 58.9648Z" fill="#75297F"/>
</g>
<mask id="mask54_3337_13875" style="mask-type:luminance" maskUnits="userSpaceOnUse" x="-16" y="-336" width="734" height="475">
<path d="M-15.0798 -335.883H717.435V138.07H-15.0798V-335.883Z" fill="white"/>
</mask>
<g mask="url(#mask54_3337_13875)">
<path d="M80.7721 66.3199C79.8666 64.1704 79.4142 63.1519 79.0749 61.9072C78.7355 60.663 79.8666 58.1736 78.3962 55.3454C76.9252 52.5167 72.399 37.9211 62.3288 35.3191C52.2591 32.7166 37.0672 35.9583 29.8557 43.3524C22.2948 51.1038 23.3936 61.2836 25.694 68.4827C25.0082 68.2104 24.4044 67.9525 23.9836 67.7203C22.4444 66.8717 19.9548 64.6085 19.2193 65.0615C18.4838 65.5139 19.5592 72.4155 22.5007 78.0724C25.4427 83.7293 32.6841 86.728 35.796 87.2367C38.9074 87.746 39.9248 85.5378 40.3138 83.6204C40.3575 83.4044 40.4168 83.1112 40.4736 82.7683C41.9518 85.0112 43.6263 87.4055 45.9148 88.4892C50.2141 90.5256 56.1461 91.4855 58.2957 92.7302C60.446 93.9744 63.412 95.617 67.5988 94.9384C71.785 94.2592 73.6839 90.5801 75.2681 88.2044C76.8522 85.8286 81.0414 82.6216 81.9965 78.8677C83.4957 72.9768 81.6776 68.4695 80.7721 66.3199Z" fill="#F3F0E4"/>
</g>
<mask id="mask55_3337_13875" style="mask-type:luminance" maskUnits="userSpaceOnUse" x="-16" y="-336" width="734" height="475">
<path d="M-15.0798 -335.883H717.435V138.07H-15.0798V-335.883Z" fill="white"/>
</mask>
<g mask="url(#mask55_3337_13875)">
<path d="M81.4935 66.1211C81.1021 65.1924 80.6976 64.2672 80.3355 63.3265C80.1087 62.7364 79.8172 62.0871 79.7598 61.4546C79.6868 60.6521 79.8926 59.8095 79.9166 59.0058C79.9477 57.9682 79.825 56.9102 79.4659 55.9323C79.1583 55.0945 78.7155 54.2867 78.3696 53.465C77.9453 52.4585 77.5251 51.4501 77.0811 50.4526C74.716 45.1403 71.595 39.5654 66.556 36.3674C63.7851 34.6093 60.5259 34.0078 57.296 33.7739C53.5879 33.5052 49.8332 33.8271 46.194 34.5644C39.0932 36.0042 31.8106 39.1645 27.3766 45.1188C22.8026 51.2604 22.48 59.2105 24.3167 66.4018C24.5124 67.1678 24.7338 67.9278 24.9726 68.6818L25.893 67.7614C24.173 67.072 22.8325 65.9829 21.2855 64.9985C20.4656 64.476 18.8527 63.6532 18.3764 65.0332C18.0394 66.0116 18.3087 67.2695 18.4637 68.2527C18.7546 70.0989 19.2429 71.9187 19.8438 73.687C20.5111 75.651 21.298 77.6719 22.4208 79.4259C23.3879 80.9369 24.6374 82.2588 26.0349 83.3785C28.4616 85.3234 31.3294 86.841 34.3337 87.6728C35.8867 88.1031 37.6522 88.3424 39.0466 87.3449C40.4661 86.3305 40.9126 84.5939 41.195 82.9668C40.7396 83.0266 40.2836 83.0859 39.8282 83.1457C41.1837 85.1983 42.6397 87.3562 44.7547 88.7003C46.8146 90.0102 49.3945 90.6691 51.7172 91.3429C53.6711 91.9096 55.8172 92.3064 57.6443 93.2292C59.4505 94.1412 61.116 95.1543 63.1298 95.5756C65.4889 96.0687 68.1156 95.9484 70.2826 94.8228C72.1025 93.8785 73.4502 92.2825 74.5861 90.6153C75.0846 89.8828 75.5323 89.115 76.0451 88.3927C76.6113 87.595 77.3025 86.8841 77.9632 86.1666C79.5036 84.4952 81.1291 82.7741 82.1105 80.6982C83.3278 78.1213 83.5247 74.9449 83.1788 72.1485C82.9191 70.0504 82.3104 68.0642 81.4935 66.1211C81.1261 65.2468 79.6778 65.631 80.0506 66.5191C81.6779 70.3897 82.3721 74.538 81.2751 78.6689C80.2254 82.6251 76.4162 85.0445 74.2773 88.3544C73.294 89.8762 72.3209 91.4279 70.9187 92.6068C69.1706 94.0765 66.9168 94.499 64.6816 94.3057C62.6456 94.1298 60.785 93.2908 59.0315 92.2902C57.5186 91.4267 55.8441 90.9629 54.1774 90.4878C51.6621 89.7715 49.1001 89.1054 46.7069 88.0336C44.1748 86.9008 42.6038 84.6382 41.1196 82.3905C40.7995 81.9052 39.8706 81.8896 39.7527 82.5694C39.5487 83.7423 39.3272 85.1397 38.3811 85.9721C37.4289 86.8099 36.1075 86.5885 34.983 86.2976C32.4509 85.6435 30.0278 84.4365 27.9008 82.9267C26.6357 82.0291 25.4657 80.9704 24.4926 79.7604C23.3861 78.3846 22.6236 76.7605 21.9683 75.131C20.86 72.3765 19.8163 69.2473 19.7462 66.2468C19.742 66.0673 19.7534 65.7716 19.7594 65.6597C19.7546 65.7501 19.7756 65.5257 19.7839 65.543C19.8115 65.4575 19.8049 65.464 19.7642 65.5628C19.833 65.4473 19.7774 65.4958 19.5972 65.707C19.432 65.9356 19.3919 65.6029 19.5589 65.774C19.5733 65.7884 19.8647 65.9015 19.8773 65.9075C20.2436 66.0852 20.5865 66.321 20.9228 66.5484C21.6308 67.0277 22.31 67.549 23.0276 68.0145C23.7996 68.5154 24.6434 68.8625 25.495 69.2042C26.0283 69.4178 26.5753 68.7883 26.4155 68.2838C24.3496 61.7712 23.7793 54.3986 27.1671 48.2115C30.6837 41.788 37.5253 38.283 44.3806 36.5158C47.8631 35.6176 51.4598 35.1472 55.0578 35.1802C58.1823 35.2089 61.6157 35.4973 64.4578 36.9024C69.6219 39.4547 72.8254 44.8675 75.1899 49.8972C76.017 51.6566 76.713 53.471 77.518 55.2394C77.7777 55.8097 78.0626 56.3548 78.2217 56.9676C78.4665 57.9083 78.4504 58.8736 78.3684 59.8353C78.3097 60.5264 78.19 61.2314 78.3163 61.9226C78.4384 62.5946 78.7089 63.2559 78.9573 63.8896C79.3032 64.7729 79.682 65.6442 80.0506 66.5191C80.4193 67.3928 81.8676 67.0086 81.4935 66.1211Z" fill="#75297F"/>
</g>
<mask id="mask56_3337_13875" style="mask-type:luminance" maskUnits="userSpaceOnUse" x="-16" y="-336" width="734" height="475">
<path d="M-15.0798 -335.883H717.435V138.07H-15.0798V-335.883Z" fill="white"/>
</mask>
<g mask="url(#mask56_3337_13875)">
<path d="M67.0812 37.9638C67.0812 37.9638 67.5905 34.6546 68.6084 32.8724C69.627 31.0903 71.1543 29.9025 71.1543 29.9025C71.1543 29.9025 70.9879 28.1281 72.8515 27.4417C74.4644 26.8475 75.7373 28.036 76.246 29.3932C76.7553 30.751 76.416 32.1938 75.0581 32.5331C74.0981 32.7731 73.1915 32.4482 73.1915 32.4482C73.1915 32.4482 72.0879 32.8724 71.3243 34.2303C70.5606 35.5881 70.6456 39.9153 70.3907 40.5095C70.1363 41.1038 67.4205 40.1702 67.0812 37.9638Z" fill="#F3F0E4"/>
</g>
<mask id="mask57_3337_13875" style="mask-type:luminance" maskUnits="userSpaceOnUse" x="-16" y="-336" width="734" height="475">
<path d="M-15.0798 -335.883H717.435V138.07H-15.0798V-335.883Z" fill="white"/>
</mask>
<g mask="url(#mask57_3337_13875)">
<path d="M67.4419 38.0632C67.8261 35.5965 68.5167 33.1753 70.2337 31.295C70.6502 30.839 71.4498 30.395 71.5246 29.7678C71.6646 28.6027 72.4708 27.5967 73.7748 27.6602C75.3033 27.7344 76.4421 29.7786 76.0154 31.1699C75.7354 32.0825 74.8155 32.3237 73.9478 32.2291C73.5845 32.1896 73.2853 32.0101 72.9394 32.1525C70.7035 33.0747 70.4492 35.6671 70.2864 37.7341C70.2355 38.3792 70.2032 39.0267 70.1463 39.6712C70.1284 39.868 70.1212 40.0757 70.0715 40.2678C70.0428 40.3797 70.1625 40.3384 69.9967 40.3103C68.7214 40.0972 67.6789 39.1631 67.4419 37.8645C67.3557 37.3912 66.6346 37.5916 66.7208 38.0632C66.9572 39.3612 67.9332 40.4198 69.1565 40.883C69.9381 41.1786 70.7023 41.1367 70.8358 40.2056C71.0243 38.8884 71.0057 37.5479 71.1871 36.2284C71.2679 35.6402 71.354 34.9963 71.6251 34.4607C71.9998 33.721 72.5719 33.3141 73.2117 32.8503C73.3439 32.7546 73.3882 32.8461 73.2308 32.7988C72.983 32.7246 73.2787 32.8647 73.3625 32.8838C73.7993 32.9862 74.2572 33.0203 74.703 32.97C75.4505 32.8856 76.1285 32.5523 76.5175 31.8874C77.2866 30.5739 76.6438 28.7302 75.6223 27.7439C74.4654 26.6273 72.6491 26.6752 71.5372 27.8517C71.1553 28.255 70.9106 28.7714 70.8196 29.3178C70.7963 29.4572 70.7472 29.6505 70.7765 29.7912C70.7771 29.7924 70.7783 29.8965 70.7801 29.8965C70.728 29.8989 71.0357 29.6086 70.7963 29.714C70.5707 29.8139 70.3355 30.1215 70.1637 30.2896C69.8232 30.6248 69.5024 30.9796 69.2032 31.3519C68.5784 32.1322 68.0841 32.9706 67.7292 33.9047C67.2474 35.1722 66.929 36.5252 66.7208 37.8645C66.6471 38.3355 67.3677 38.5383 67.4419 38.0632Z" fill="#75297F"/>
</g>
<mask id="mask58_3337_13875" style="mask-type:luminance" maskUnits="userSpaceOnUse" x="-16" y="-336" width="734" height="475">
<path d="M-15.0798 -335.883H717.435V138.07H-15.0798V-335.883Z" fill="white"/>
</mask>
<g mask="url(#mask58_3337_13875)">
<path d="M82.6108 41.5278C79.98 38.2185 75.9918 41.4428 75.9918 41.4428C75.9918 41.4428 80.1499 37.8792 76.5005 35.6728C72.8517 33.4664 67.5027 37.5429 67.5027 37.5429C67.5027 37.5429 68.5237 31.0907 66.3177 29.9022C64.1112 28.7143 61.6503 30.3265 61.6503 30.3265C61.6503 30.3265 64.1962 24.2172 60.6318 23.4536C57.0673 22.69 54.7764 25.9143 54.7764 25.9143C54.7764 25.9143 53.2492 20.8229 48.7511 23.8778C44.2537 26.9322 42.8677 31.8543 42.8677 31.8543C42.8677 31.8543 42.3015 28.0076 38.3415 29.0255C34.3815 30.044 31.7788 37.6243 31.7788 37.6243C31.7788 37.6243 31.7788 32.646 29.1767 32.3067C26.574 31.9674 24.5375 33.4383 21.2561 39.2083C17.9747 44.9783 19.2549 50.9213 19.2549 50.9213C19.2549 50.9213 17.9747 49.3911 16.0513 50.1828C14.1278 50.9751 12.1398 53.4167 11.8369 58.2442C11.4126 65.0022 16.3906 67.4935 16.3906 67.4935C16.3906 67.4935 15.229 67.1428 14.6934 67.4935C13.7885 68.0877 12.2894 70.9165 17.6073 77.5919C20.4643 81.1782 23.8127 82.429 25.9971 82.429C26.276 82.429 22.9994 79.7797 21.465 75.5267C20.0454 71.5897 19.2375 65.6563 19.5828 65.1387C19.7653 64.8646 22.8205 67.5126 26.1365 69.3216C27.8846 70.2755 30.1803 70.1582 31.8542 71.5526C36.2152 75.1868 38.6719 70.0445 38.3134 66.6449C38.0998 64.618 37.1255 63.3356 37.1255 63.3356C37.1255 63.3356 38.6527 62.9963 39.0286 60.7899C39.405 58.5835 38.3134 57.0563 38.3134 57.0563C38.3134 57.0563 39.6713 57.4806 40.18 56.0115C40.6893 54.5423 39.0286 51.7106 39.0286 51.7106C39.0286 51.7106 41.8772 55.5291 42.7258 56.0115C43.5745 56.4938 46.6936 57.8486 48.3837 56.7451C50.0731 55.6422 49.7697 53.6621 49.7697 53.6621C49.7697 53.6621 52.4849 56.9714 57.916 56.9714C60.2092 56.9714 62.6683 56.9432 63.4038 55.3873C63.7844 54.5824 63.6677 53.9924 63.6019 53.7782C63.7084 53.981 66.7971 56.0659 70.4363 54.5896C75.71 52.4497 70.6129 50.0931 70.8989 50.2187C72.6423 50.9859 76.0696 51.4234 76.5466 51.2648C76.7561 51.1948 79.023 56.1431 79.0565 59.2825C79.0823 61.6762 78.169 64.4229 78.4294 64.7204C78.9171 65.2781 80.0649 61.6385 79.895 60.4506C79.7256 59.2627 81.6772 55.3592 81.5078 51.7106C81.4791 51.1026 81.4127 50.5562 81.3193 50.0554C84.3194 48.2619 85.2219 44.812 82.6108 41.5278Z" fill="#75297F"/>
</g>
<mask id="mask59_3337_13875" style="mask-type:luminance" maskUnits="userSpaceOnUse" x="-16" y="-336" width="734" height="475">
<path d="M-15.0798 -335.883H717.435V138.07H-15.0798V-335.883Z" fill="white"/>
</mask>
<g mask="url(#mask59_3337_13875)">
<path d="M33.4197 89.1038C33.4197 89.1038 36.5879 82.9376 37.1535 83.0507C37.719 83.1638 36.2492 87.3127 36.4748 87.3109C36.7004 87.3097 39.19 87.6329 39.0207 88.029C38.8507 88.4252 37.4365 93.8559 37.0972 93.7991C36.7573 93.7428 36.8704 89.5562 36.5311 89.5C36.1917 89.4431 33.5896 89.5 33.4197 89.1038Z" fill="#F3F0E4"/>
</g>
<mask id="mask60_3337_13875" style="mask-type:luminance" maskUnits="userSpaceOnUse" x="-16" y="-336" width="734" height="475">
<path d="M-15.0798 -335.883H717.435V138.07H-15.0798V-335.883Z" fill="white"/>
</mask>
<g mask="url(#mask60_3337_13875)">
<path d="M33.7426 89.2925C34.5936 87.6379 35.4691 85.9779 36.4746 84.4118C36.6888 84.0791 36.9264 83.778 37.1664 83.4669C37.2023 83.4202 37.2334 83.422 37.2346 83.4046C37.228 83.474 36.8959 83.2933 36.9031 83.2891C36.8953 83.2939 36.8869 83.711 36.8761 83.7858C36.7235 84.8432 36.3327 85.8492 36.1274 86.8946C36.0628 87.2232 36.0239 87.5733 36.4249 87.6786C36.8606 87.7929 37.3513 87.7887 37.7966 87.8814C38.0467 87.9335 38.3023 88.0442 38.5524 88.0819C38.5823 88.0861 38.7188 88.1663 38.7206 88.1645C38.7002 88.0861 38.6799 88.0077 38.6595 87.9293C38.6571 87.9353 38.6553 87.9413 38.6529 87.9467C38.6458 87.9485 38.6272 88.0233 38.6248 88.0269C38.4441 88.3039 38.3944 88.8012 38.304 89.1148C37.9767 90.256 37.6583 91.402 37.2783 92.527C37.2047 92.7454 37.1305 92.9651 37.0425 93.1781C37.009 93.2607 36.8767 93.4989 36.8803 93.5174C36.8474 93.3499 37.3639 93.5312 37.3609 93.5408C37.3746 93.4941 37.3178 93.3457 37.3088 93.2912C37.2723 93.0602 37.2597 92.8238 37.243 92.5905C37.1957 91.9154 37.1748 91.2386 37.1227 90.5636C37.094 90.1944 37.1221 89.569 36.8438 89.2746C36.5715 88.9867 35.8941 89.0962 35.5392 89.0837C35.1603 89.0699 34.7797 89.055 34.4027 89.0155C34.2423 88.9987 34.0795 88.9813 33.9227 88.9425C33.8144 88.9149 33.6941 88.8353 33.7426 88.9149C33.4924 88.5044 32.8449 88.8802 33.0968 89.2925C33.3691 89.739 34.1142 89.7396 34.5685 89.7785C34.9096 89.8078 35.2513 89.8215 35.593 89.8335C35.8246 89.8413 36.2058 89.9251 36.4321 89.8634C36.632 89.8096 36.2166 89.7707 36.2609 89.736C36.2579 89.7384 36.3172 89.9957 36.319 90.0076C36.3632 90.2877 36.3764 90.575 36.395 90.8574C36.438 91.5145 36.4584 92.1728 36.5129 92.8286C36.5422 93.1823 36.5218 93.7717 36.7995 94.044C37.1149 94.3528 37.4405 94.0602 37.5955 93.767C38.1473 92.7245 38.4052 91.4618 38.7313 90.3368C38.8971 89.7647 39.0575 89.1914 39.2257 88.6205C39.3178 88.3081 39.5135 87.9574 39.2747 87.6672C38.9594 87.283 38.2352 87.204 37.7846 87.1185C37.4931 87.064 37.2005 87.0191 36.9066 86.9814C36.8193 86.97 36.6637 86.9252 36.5751 86.9431C36.3411 86.9922 36.7235 87.3482 36.8276 87.2022C36.8612 87.155 36.9054 86.8432 36.9354 86.7235C37.0102 86.4237 37.0922 86.1257 37.1712 85.8265C37.3351 85.2053 37.5063 84.5805 37.6033 83.9438C37.6583 83.5859 37.763 83.0408 37.4285 82.7805C37.1179 82.5381 36.7911 82.7709 36.5703 83.0091C35.7031 83.9462 35.1023 85.2107 34.4877 86.3172C34.0107 87.1759 33.5457 88.0412 33.0968 88.9149C32.8766 89.3422 33.5224 89.721 33.7426 89.2925Z" fill="#75297F"/>
</g>
<mask id="mask61_3337_13875" style="mask-type:luminance" maskUnits="userSpaceOnUse" x="-16" y="-336" width="734" height="475">
<path d="M-15.0798 -335.883H717.435V138.07H-15.0798V-335.883Z" fill="white"/>
</mask>
<g mask="url(#mask61_3337_13875)">
<path d="M67.6187 62.8833C68.0376 62.234 69.344 60.0264 72.1448 58.3574C74.945 56.689 76.65 56.3945 77.5334 56.434C78.4807 56.4765 78.7213 56.9152 78.8488 57.2545C78.9756 57.5938 78.99 58.2443 78.8488 58.5842C78.7069 58.9235 78.5376 59.1497 78.1414 59.3478C77.7452 59.5458 75.3975 59.6302 73.5309 60.5356C71.6637 61.4405 68.5451 63.824 67.873 63.958C67.5331 64.0263 67.2722 63.4207 67.6187 62.8833Z" fill="#75297F"/>
</g>
<mask id="mask62_3337_13875" style="mask-type:luminance" maskUnits="userSpaceOnUse" x="-16" y="-336" width="734" height="475">
<path d="M-15.0798 -335.883H717.435V138.07H-15.0798V-335.883Z" fill="white"/>
</mask>
<g mask="url(#mask62_3337_13875)">
<path d="M59.9812 63.5197C60.3349 63.7603 60.4905 64.7219 59.4438 64.5801C58.5323 64.4574 52.203 62.6951 48.9773 62.9117C45.8497 63.1217 43.405 63.9583 43.0089 64.1558C42.6127 64.3539 42.4152 64.2127 42.1602 64.1558C41.9059 64.0996 41.2554 63.5622 41.2554 63.1098C41.2554 62.6568 41.2835 62.5155 41.7359 62.1762C42.1884 61.8369 43.9143 60.2242 50.024 60.4791C56.1343 60.7334 59.6275 63.2791 59.9812 63.5197Z" fill="#75297F"/>
</g>
<mask id="mask63_3337_13875" style="mask-type:luminance" maskUnits="userSpaceOnUse" x="-16" y="-336" width="734" height="475">
<path d="M-15.0798 -335.883H717.435V138.07H-15.0798V-335.883Z" fill="white"/>
</mask>
<g mask="url(#mask63_3337_13875)">
<path d="M61.1834 71.2274C61.1834 69.8271 58.5604 66.3335 52.7398 66.0935C48.6242 65.9242 45.8234 67.7057 45.1022 68.4699C44.274 69.3466 43.7539 70.854 44.2111 72.5852C44.8054 74.8335 45.739 75.5977 46.4601 76.0645C47.1813 76.5306 49.0485 76.7431 52.7823 76.1064C56.5161 75.4702 61.1834 72.6277 61.1834 71.2274Z" fill="#F3F0E4"/>
</g>
<mask id="mask64_3337_13875" style="mask-type:luminance" maskUnits="userSpaceOnUse" x="-16" y="-336" width="734" height="475">
<path d="M-15.0798 -335.883H717.435V138.07H-15.0798V-335.883Z" fill="white"/>
</mask>
<g mask="url(#mask64_3337_13875)">
<path d="M54.4568 72.2792L51.0425 71.2726L54.0803 68.8885C53.4244 67.4134 52.1311 66.3817 50.4052 66.21C47.5757 66.6091 45.6774 67.8616 45.1022 68.4702C44.274 69.3469 43.7539 70.8543 44.2111 72.5856C44.8054 74.8345 45.7384 75.5981 46.4601 76.0648C47.0424 76.4418 48.374 76.6519 50.8319 76.3838C52.6823 75.7393 54.0755 74.1798 54.4568 72.2792Z" fill="#75297F"/>
</g>
<mask id="mask65_3337_13875" style="mask-type:luminance" maskUnits="userSpaceOnUse" x="-16" y="-336" width="734" height="475">
<path d="M-15.0798 -335.883H717.435V138.07H-15.0798V-335.883Z" fill="white"/>
</mask>
<g mask="url(#mask65_3337_13875)">
<path d="M67.9101 70.3621C67.5845 69.349 67.8502 67.8685 70.654 65.3695C73.2561 63.0506 76.0084 62.74 77.732 62.9423C79.51 63.1517 80.2629 64.7076 80.7721 66.3198C81.3461 68.1384 82.2288 70.2628 79.1958 72.982C78.3221 73.7654 77.2873 73.8839 73.7229 73.8414C70.1591 73.7989 68.6737 72.7379 67.9101 70.3621Z" fill="#F3F0E4"/>
</g>
<mask id="mask66_3337_13875" style="mask-type:luminance" maskUnits="userSpaceOnUse" x="-16" y="-336" width="734" height="475">
<path d="M-15.0798 -335.883H717.435V138.07H-15.0798V-335.883Z" fill="white"/>
</mask>
<g mask="url(#mask66_3337_13875)">
<path d="M73.3086 74.1557C75.1124 73.7799 76.5278 72.4245 76.9766 70.7058L73.8 69.7693L76.6965 67.4965C75.9718 65.9046 74.3823 64.919 72.2703 65.2709C71.7311 65.3613 71.2266 65.5055 70.7622 65.697C70.761 65.6982 70.7598 65.6994 70.7586 65.7006C67.9548 68.199 67.6891 69.6795 68.0147 70.6926C68.74 72.9493 70.1194 74.0175 73.3086 74.1557Z" fill="#75297F"/>
</g>
<mask id="mask67_3337_13875" style="mask-type:luminance" maskUnits="userSpaceOnUse" x="-16" y="-336" width="734" height="475">
<path d="M-15.0798 -335.883H717.435V138.07H-15.0798V-335.883Z" fill="white"/>
</mask>
<g mask="url(#mask67_3337_13875)">
<path d="M82.7522 60.3658C82.5272 60.0846 80.9592 61.2018 79.4398 61.993C79.3811 61.9804 79.3183 61.9726 79.2488 61.9738C79.1914 61.975 79.1351 61.9804 79.0777 61.9822C79.6785 61.1612 80.3859 60.1462 80.2064 60.0265C79.8671 59.8003 77.8305 61.2713 76.7557 61.9499C76.466 62.1324 76.1189 62.3359 75.7676 62.5399C72.9878 63.3963 70.5149 65.179 68.8368 67.5793C68.6178 67.8928 69.0577 68.3399 69.3719 68.1143C70.804 67.0844 72.1589 65.8893 73.6898 65.009C75.1249 64.185 76.7066 63.5052 78.1818 63.5519C79.8611 63.6051 79.6702 64.3579 79.9778 64.246C80.2519 64.1461 80.8234 63.5566 81.3381 62.9115C82.1609 61.8799 82.9222 60.5783 82.7522 60.3658Z" fill="#75297F"/>
</g>
<mask id="mask68_3337_13875" style="mask-type:luminance" maskUnits="userSpaceOnUse" x="-16" y="-336" width="734" height="475">
<path d="M-15.0798 -335.883H717.435V138.07H-15.0798V-335.883Z" fill="white"/>
</mask>
<g mask="url(#mask68_3337_13875)">
<path d="M61.0819 69.7773C58.2799 66.3155 53.7262 64.9678 49.5143 65.7122C49.233 65.6656 48.1253 65.516 47.7512 65.4795C46.5465 65.3628 45.7835 64.7889 45.5686 65.0755C45.4825 65.1904 45.8762 65.8469 46.3083 66.2825C46.0875 66.2885 45.8667 66.2843 45.6536 66.2634C43.7098 66.0689 42.726 65.8816 42.5991 66.0934C42.5225 66.2203 43.3478 66.9079 43.9995 67.3142C43.6584 67.3543 43.3208 67.3914 43.0234 67.4088C41.5805 67.4938 40.2651 67.3238 40.1801 67.6637C40.1388 67.8295 41.5111 68.8085 42.5452 69.2286C43.1664 69.4811 44.1712 69.7229 44.4872 69.52C44.577 69.5284 48.6058 66.0426 53.8765 67.1353C56.2505 67.6278 58.6396 68.8169 60.5295 70.3297C60.9227 70.6451 61.4009 70.1711 61.0819 69.7773Z" fill="#75297F"/>
</g>
<mask id="mask69_3337_13875" style="mask-type:luminance" maskUnits="userSpaceOnUse" x="-16" y="-336" width="734" height="475">
<path d="M-15.0798 -335.883H717.435V138.07H-15.0798V-335.883Z" fill="white"/>
</mask>
<g mask="url(#mask69_3337_13875)">
<path d="M65.667 73.7289C66.1494 73.985 66.5731 74.0723 67.1183 73.9975C67.7215 73.9144 68.4953 73.4081 69.0932 73.7863C70.7605 74.8425 68.077 76.6522 67.4391 77.3619C66.9046 77.9567 67.5743 78.8765 68.3008 78.4792C69.9155 77.5953 71.7976 75.5714 70.8748 73.587C70.5259 72.836 69.8173 72.2962 68.9933 72.1831C67.8831 72.0311 66.9776 72.7881 65.9118 72.8258C65.4528 72.842 65.2248 73.4937 65.667 73.7289Z" fill="#75297F"/>
</g>
<mask id="mask70_3337_13875" style="mask-type:luminance" maskUnits="userSpaceOnUse" x="-16" y="-336" width="734" height="475">
<path d="M-15.0798 -335.883H717.435V138.07H-15.0798V-335.883Z" fill="white"/>
</mask>
<g mask="url(#mask70_3337_13875)">
<path d="M58.1425 84.5781C58.3406 84.3801 60.1228 84.635 61.65 83.8708C63.1773 83.1072 63.1396 82.1007 64.3234 81.665C65.9356 81.0708 66.4862 81.6524 67.4629 81.58C68.6089 81.4951 68.8411 80.8033 70.2212 80.8583C71.2817 80.9008 71.4516 81.7069 72.5121 81.7069C73.5732 81.7069 74.7186 80.5615 74.8461 80.774C74.973 80.9858 74.4924 82.0324 71.8759 82.8104C70.98 83.0767 67.8022 82.9379 67.2935 83.1497C66.7842 83.3621 62.0295 84.9629 61.65 85.0593C59.948 85.4913 57.8043 84.9162 58.1425 84.5781Z" fill="#75297F"/>
</g>
<mask id="mask71_3337_13875" style="mask-type:luminance" maskUnits="userSpaceOnUse" x="-16" y="-336" width="734" height="475">
<path d="M-15.0798 -335.883H717.435V138.07H-15.0798V-335.883Z" fill="white"/>
</mask>
<g mask="url(#mask71_3337_13875)">
<path d="M60.4604 72.0178C57.7769 74.7532 52.8791 76.3767 49.8886 75.8561C48.8551 75.676 48.4116 75.6383 47.3039 75.4635C46.4379 75.3271 45.8215 75.2254 45.5366 75.3079C45.2512 75.3911 44.6539 75.8232 44.0213 76.1242C42.7975 76.7065 41.962 76.7843 41.962 77.0541C41.9626 77.412 45.2434 77.2241 46.262 76.941C46.3685 76.9117 46.4774 76.8824 46.5875 76.8543C46.1171 77.3432 44.9262 78.3886 45.1303 78.695C45.2248 78.8363 47.0962 78.2564 48.2842 77.634C48.584 77.4772 48.8312 77.33 49.037 77.1918C49.0502 77.193 49.0634 77.1948 49.0765 77.196C49.0035 77.2797 48.9317 77.3641 48.8641 77.4503C48.4541 77.9733 47.8599 78.61 47.9023 78.7513C48.0334 79.1881 49.7683 78.3336 50.4907 77.8883C50.8677 77.6568 51.24 77.4353 51.5524 77.2367C55.3855 76.9949 59.4 75.3618 60.841 72.3116C60.953 72.074 60.6645 71.8101 60.4604 72.0178Z" fill="#75297F"/>
</g>
<mask id="mask72_3337_13875" style="mask-type:luminance" maskUnits="userSpaceOnUse" x="-16" y="-336" width="734" height="475">
<path d="M-15.0798 -335.883H717.435V138.07H-15.0798V-335.883Z" fill="white"/>
</mask>
<g mask="url(#mask72_3337_13875)">
<path d="M59.1467 85.1862C58.9719 85.1737 61.1833 88.0288 63.0505 87.7744C64.917 87.5195 65.6813 86.7134 66.7418 86.629C67.8028 86.5441 69.4151 86.8409 70.5605 86.1198C71.706 85.3987 73.2338 82.2587 73.0639 82.3862C72.8939 82.5131 67.7388 83.2168 66.6993 83.3192C65.6597 83.4221 62.6261 85.4406 59.1467 85.1862Z" fill="#75297F"/>
</g>
<mask id="mask73_3337_13875" style="mask-type:luminance" maskUnits="userSpaceOnUse" x="-16" y="-336" width="734" height="475">
<path d="M-15.0798 -335.883H717.435V138.07H-15.0798V-335.883Z" fill="white"/>
</mask>
<g mask="url(#mask73_3337_13875)">
<path d="M60.9147 84.861C60.9147 84.861 62.3857 87.9159 63.3474 89.4999C64.3091 91.084 65.8364 93.0636 67.6467 92.5543C69.4571 92.0456 70.7587 89.4431 70.9281 87.5198C71.0981 85.5964 71.0412 82.8245 70.7019 82.7114C70.3626 82.5983 67.5336 83.4469 66.4588 83.5031C65.384 83.56 60.9715 84.3517 60.9147 84.861Z" fill="#F3F0E4"/>
</g>
<mask id="mask74_3337_13875" style="mask-type:luminance" maskUnits="userSpaceOnUse" x="-16" y="-336" width="734" height="475">
<path d="M-15.0798 -335.883H717.435V138.07H-15.0798V-335.883Z" fill="white"/>
</mask>
<g mask="url(#mask74_3337_13875)">
<path d="M60.5917 85.0498C61.5672 87.0736 62.5337 89.21 63.915 90.9933C64.6965 92.0017 65.8121 93.0806 67.1897 93.0052C68.5099 92.9334 69.5375 91.8772 70.1898 90.8156C70.9145 89.6343 71.2605 88.3232 71.3448 86.9504C71.4232 85.6679 71.5435 84.203 71.2263 82.9415C70.9947 82.0205 70.0731 82.3844 69.3807 82.5394C68.3472 82.7716 67.3238 83.048 66.2669 83.1438C65.1298 83.2473 63.991 83.4699 62.8796 83.7243C62.3608 83.8427 61.8353 83.9678 61.3368 84.1587C61.0477 84.2694 60.6342 84.419 60.554 84.7613C60.4445 85.2299 61.1656 85.4298 61.2752 84.9606C61.2446 85.0923 61.2243 85.0204 61.3619 84.957C61.502 84.8912 61.6456 84.8385 61.7928 84.7895C62.2135 84.6506 62.6462 84.5441 63.0783 84.4454C63.9898 84.2371 64.9138 84.0624 65.8408 83.9403C66.629 83.8368 67.3998 83.7554 68.1796 83.5818C68.6996 83.4663 69.2173 83.3401 69.738 83.2258C69.9349 83.1827 70.133 83.1366 70.3328 83.1055C70.3855 83.0971 70.4519 83.0959 70.5022 83.081C70.522 83.075 70.5621 83.0863 70.5788 83.0756C70.7141 82.9924 70.4202 82.9852 70.4477 82.9637C70.4406 82.969 70.6069 83.9529 70.6129 84.0456C70.653 84.6871 70.6542 85.331 70.6381 85.9731C70.6057 87.2669 70.495 88.5105 69.9403 89.6989C69.4681 90.7109 68.6931 91.8826 67.5476 92.1938C66.2424 92.5486 65.1352 91.3793 64.4266 90.4398C63.113 88.699 62.1806 86.6296 61.2374 84.6722C61.0286 84.2389 60.3834 84.6177 60.5917 85.0498Z" fill="#75297F"/>
</g>
<mask id="mask75_3337_13875" style="mask-type:luminance" maskUnits="userSpaceOnUse" x="-16" y="-336" width="734" height="475">
<path d="M-15.0798 -335.883H717.435V138.07H-15.0798V-335.883Z" fill="white"/>
</mask>
<g mask="url(#mask75_3337_13875)">
<path d="M54.8854 83.2083C56.2643 84.3878 58.089 85.4841 59.9125 85.7749C61.6768 86.0562 63.3985 85.061 65.0036 84.4614C66.1383 84.0377 67.097 83.7307 68.3328 83.6768C69.2964 83.6349 70.2515 83.7217 71.206 83.5422C73.0158 83.2017 74.5209 82.0868 75.6418 80.6572C75.9752 80.2317 75.4006 79.6225 75.0338 80.0492C73.6633 81.6446 71.8057 82.4423 69.7165 82.4926C68.0534 82.532 66.6685 82.2915 65.0629 82.863C63.7235 83.3393 62.2184 84.2459 60.8329 84.4997C58.8772 84.8581 56.9358 83.3495 55.2122 82.6463C54.9022 82.5201 54.6395 82.9976 54.8854 83.2083Z" fill="#75297F"/>
</g>
<mask id="mask76_3337_13875" style="mask-type:luminance" maskUnits="userSpaceOnUse" x="-16" y="-336" width="734" height="475">
<path d="M-15.0798 -335.883H717.435V138.07H-15.0798V-335.883Z" fill="white"/>
</mask>
<g mask="url(#mask76_3337_13875)">
<path d="M67.2788 87.3501C67.3548 86.2358 67.3351 84.6314 66.6349 83.6877C66.3021 83.2389 65.4697 83.4759 65.6636 84.0971C65.9999 85.1748 66.4284 86.2137 66.5439 87.3501C66.5918 87.8163 67.2459 87.8282 67.2788 87.3501Z" fill="#75297F"/>
</g>
<mask id="mask77_3337_13875" style="mask-type:luminance" maskUnits="userSpaceOnUse" x="-16" y="-336" width="734" height="475">
<path d="M-15.0798 -335.883H717.435V138.07H-15.0798V-335.883Z" fill="white"/>
</mask>
<g mask="url(#mask77_3337_13875)">
<path d="M55.4688 81.2075C55.2138 81.5031 54.9565 81.8161 54.6686 82.0794C54.3664 82.3546 54.0546 82.4276 53.659 82.4641C52.9816 82.5264 52.8236 83.4324 53.4974 83.6616C54.7596 84.0907 55.8009 82.828 56.3036 81.8514C56.5651 81.3427 55.8829 80.7269 55.4688 81.2075Z" fill="#75297F"/>
</g>
<mask id="mask78_3337_13875" style="mask-type:luminance" maskUnits="userSpaceOnUse" x="-16" y="-336" width="734" height="475">
<path d="M-15.0798 -335.883H717.435V138.07H-15.0798V-335.883Z" fill="white"/>
</mask>
<g mask="url(#mask78_3337_13875)">
<path d="M74.6301 79.3872C74.7043 79.7971 74.8479 80.1694 75.1633 80.4518C75.4859 80.7403 75.8587 80.9455 76.274 81.0682C76.9808 81.277 77.2765 80.1011 76.5733 79.9832C76.2776 79.9336 76.0173 79.8378 75.7713 79.6643C75.5332 79.4955 75.2848 79.3381 75.0873 79.1209C74.8886 78.9019 74.5852 79.1395 74.6301 79.3872Z" fill="#75297F"/>
</g>
<path d="M83.3745 70.8315C83.1506 70.7417 82.8329 70.6376 82.5444 70.5622C82.8065 70.4969 83.068 70.4245 83.2613 70.3791C84.2231 70.1528 85.2417 70.2372 85.1848 69.9548C85.1285 69.6717 82.1237 68.6215 81.7843 68.7914C81.6575 68.8549 81.7843 69.4617 81.2595 70.19C78.9087 73.4544 74.1869 74.4663 69.7762 73.2C69.4938 73.1192 69.3825 73.4873 69.5895 73.6429C71.8296 75.3286 75.0618 75.3125 77.8363 74.2311C78.1918 74.3203 78.8495 74.3711 79.3576 74.4801C80.15 74.65 80.9698 74.82 81.083 74.6781C81.235 74.4884 80.7436 73.9427 80.348 73.6315C80.1565 73.4819 79.9997 73.373 79.8555 73.2922C80.3834 73.3939 81.074 73.4783 81.4229 73.5184C82.1584 73.6034 83.5157 73.8014 83.6575 73.6315C83.7599 73.5088 82.9501 72.6136 82.4127 72.2455C82.3068 72.1731 82.2051 72.1097 82.1063 72.0511C82.2775 72.0475 82.4421 72.0445 82.5827 72.0475C83.8556 72.0762 85.2129 72.1612 85.2698 71.9631C85.326 71.765 83.7988 71.0014 83.3745 70.8315Z" fill="#75297F"/>
<path d="M36.2023 80.8811C35.2184 80.0715 35.927 78.442 34.5679 77.828C34.1029 77.6179 33.5768 77.649 33.1118 77.8382C32.5816 78.0536 32.2806 78.8106 31.8539 78.9764C31.0657 79.2833 30.7874 78.3564 30.2434 78.0859C29.8406 77.8854 29.5037 78.0518 29.1039 77.9937C27.044 77.6933 25.561 75.1309 25.1296 73.0328C25.7023 73.3266 26.3019 73.4966 27.0153 73.5169C27.4037 73.5283 27.6096 72.9149 27.2242 72.745C26.3797 72.3733 25.3175 71.6923 24.5281 71.2094C24.2199 71.0215 23.6962 71.2585 23.7447 71.6594C23.9835 73.621 25.1248 75.606 26.2702 77.1877C26.6538 77.7173 27.0524 78.3929 27.6575 78.6975C28.5438 79.1433 29.2984 78.5599 30.156 79.3169C30.5845 79.6951 30.6168 80.2905 31.2674 80.4916C31.8616 80.6753 32.1094 80.406 32.5666 80.099C32.6719 79.9895 32.7767 79.88 32.882 79.7699C33.7839 79.117 33.9395 79.193 34.1065 80.0781C34.213 80.327 34.1777 80.6442 34.2716 80.9093C34.5122 81.5879 34.818 81.8973 35.4949 82.0959C36.1568 82.2898 36.778 81.3551 36.2023 80.8811Z" fill="#75297F"/>
<path d="M29.8384 77.3271C30.1514 77.4564 30.4955 77.5132 30.8348 77.503C31.0898 77.4953 31.5236 77.3391 31.7642 77.4719C31.9575 77.5784 31.9952 77.8417 32.0479 78.0344C32.1359 78.3564 32.2268 78.6568 32.3621 78.9626C32.6799 79.6837 33.9498 79.1607 33.6476 78.421C33.3448 77.6784 33.3717 76.773 32.611 76.2996C32.2675 76.0854 31.8564 76.0225 31.4584 76.0483C30.9509 76.0818 30.4745 76.3379 29.9736 76.3295C29.3566 76.3187 29.3423 77.1224 29.8384 77.3271Z" fill="#75297F"/>
<path d="M41.7078 44.1583C41.7078 44.1583 42.4714 41.0184 43.8293 37.964C45.2016 34.8767 46.8844 33.0419 46.8844 33.0419C46.8844 33.0419 46.4601 31.2604 47.7331 29.9876C49.006 28.7147 50.9576 29.4783 51.7212 30.1569C52.4848 30.8361 52.9941 32.6177 52.4848 33.4662C51.9761 34.3148 51.1275 34.994 49.5997 34.8241C49.5997 34.8241 48.1574 36.0969 46.7995 39.7455C45.8258 42.3618 46.2902 45.0918 46.0358 45.8554C45.7809 46.619 43.8293 46.4497 43.0657 46.2797C42.302 46.1098 41.7078 45.8554 41.7078 44.1583Z" fill="#F3F0E4"/>
<path d="M38.1097 68.3706C38.4305 70.9384 37.7889 73.1855 36.9056 74.7911C36.0229 76.3961 35.5417 76.3961 35.1401 76.3961C34.7386 76.3961 34.4178 73.2663 34.4178 73.2663C34.4178 73.2663 34.3376 75.6738 33.5351 75.9143C32.7325 76.1549 32.6523 73.1855 32.331 72.2226C32.0102 71.2598 30.0035 69.735 30.9665 67.6483C31.93 65.5616 37.7889 65.8027 38.1097 68.3706Z" fill="#75297F"/>
<path d="M142.018 97.2532C141.617 97.2376 141.304 96.9001 141.319 96.4986C141.335 96.0976 141.672 95.7847 142.074 95.8002C142.475 95.8152 142.788 96.1533 142.773 96.5542C142.757 96.9558 142.42 97.2688 142.018 97.2532Z" fill="#75297F"/>
<path d="M228.923 16.4065C228.522 16.391 228.209 16.0535 228.224 15.6519C228.24 15.251 228.577 14.938 228.979 14.9536C229.38 14.9685 229.693 15.3066 229.678 15.7076C229.662 16.1091 229.325 16.4221 228.923 16.4065Z" fill="#75297F"/>
<path d="M14.9841 44.742C14.5825 44.7264 14.2701 44.3889 14.2851 43.9874C14.3006 43.5864 14.6382 43.2735 15.0397 43.289C15.4407 43.304 15.7537 43.6421 15.7387 44.043C15.7232 44.4446 15.3856 44.7576 14.9841 44.742Z" fill="#75297F"/>
<path d="M115.386 97.4498C114.984 97.4342 114.672 97.0967 114.687 96.6951C114.702 96.2942 115.04 95.9812 115.441 95.9968C115.842 96.0117 116.155 96.3499 116.14 96.7508C116.125 97.1523 115.787 97.4653 115.386 97.4498Z" fill="#75297F"/>
</g>
<defs>
<clipPath id="clip0_3337_13875">
<rect width="272" height="114" fill="white"/>
</clipPath>
</defs>
</svg>
