<svg width="176" height="172" viewBox="0 0 176 172" fill="none" xmlns="http://www.w3.org/2000/svg">
<g clip-path="url(#clip0_3212_1563)">
<path d="M124.334 35.4282C124.334 35.4282 125.416 28.3909 127.58 24.5987C128.997 22.1774 130.828 20.0237 132.99 18.2358C132.936 17.0885 133.261 15.9554 133.914 15.0105C134.567 14.0655 135.512 13.3612 136.605 13.0056C140.029 11.733 142.74 14.2782 143.822 17.1542C144.904 20.0302 144.191 23.1098 141.276 23.8224C139.96 24.1214 138.588 24.0598 137.305 23.6442C135.601 24.4512 134.207 25.7915 133.333 27.4619C131.704 30.3507 131.882 39.5513 131.348 40.8112C130.813 42.071 125.06 40.124 124.334 35.4282Z" fill="#F1562F"/>
<path d="M148.162 51.6662C151.586 53.4732 154.654 56.8964 155.01 64.6591C155.367 72.4217 151.192 80.7188 151.586 83.2512C151.981 85.7836 153.75 94.488 148.162 92.9227C142.574 91.3575 128.484 75.3104 130.826 61.1086C133.168 46.9068 144.726 49.8591 148.162 51.6662Z" fill="#75297F"/>
<path d="M59.825 120.996C65.6038 124.355 70.1607 138.544 79.2999 142.871C88.4391 147.198 101.066 149.234 105.636 151.893C110.205 154.553 116.519 158.027 125.416 156.589C134.313 155.151 138.361 147.312 141.734 142.26C145.107 137.208 154.017 130.4 156.041 122.408C158.27 113.471 157.372 104.04 153.496 95.6842C152.082 92.6423 150.875 89.509 149.881 86.3054C149.155 83.6585 151.561 78.3646 148.442 72.3072C145.324 66.2498 135.714 35.2501 114.266 29.7144C92.8178 24.1787 60.4996 31.1651 45.1615 46.8813C26.1448 66.377 32.8783 93.0882 39.1408 107.964C44.1941 120.028 54.0589 117.623 59.825 120.996Z" fill="#F1562F"/>
<path d="M99.2841 119.876C100.315 124.444 93.798 132.36 87.2427 133.874C80.6874 135.388 73.5339 133.874 72.3246 127.015C71.2045 120.652 77.2634 116.427 83.7805 114.951C90.2976 113.475 98.2658 115.307 99.2841 119.876Z" fill="#F37769"/>
<path d="M148.735 101.805C142.091 102.722 135.37 107.252 136.006 111.884C136.643 116.516 145.527 121.645 152.172 120.792C154.718 120.448 155.787 120.067 157.263 117.929C157.976 114.111 158.002 106.73 155.99 102.06C153.605 101.552 151.15 101.466 148.735 101.805Z" fill="#F37769"/>
<path d="M43.7105 128.784C43.7105 128.784 31.2618 134.956 19.0931 119.698C7.79001 105.508 10.9849 99.4892 12.907 98.2293C14.0525 97.4785 16.5219 98.2293 16.5219 98.2293C16.5219 98.2293 5.93162 92.8973 6.83536 78.5555C7.47179 68.2859 11.7105 63.0938 15.7455 61.414C16.903 60.9382 18.1797 60.8332 19.3995 61.1135C20.6192 61.3939 21.7219 62.0458 22.5553 62.9793C21.1377 54.4347 22.6398 45.6618 26.8194 38.0751C33.7948 25.8076 38.1225 22.6771 43.6595 23.4025C49.1965 24.1278 49.1965 34.7028 49.1965 34.7028C49.1965 34.7028 54.7335 18.5922 63.2109 16.4161C71.6882 14.24 72.8338 22.4353 72.8338 22.4353C75.083 15.5888 79.4683 9.64339 85.3461 5.47201C94.9181 -1.01808 98.1639 9.79873 98.1639 9.79873C98.1639 9.79873 103.103 2.95233 110.613 4.56849C118.123 6.18465 112.776 19.1903 112.776 19.1903C112.776 19.1903 118.021 15.7543 122.705 18.2867C127.389 20.8192 125.251 34.5374 125.251 34.5374C125.251 34.5374 136.63 25.8585 144.344 30.5543C152.057 35.2501 143.262 42.8218 143.262 42.8218C143.262 42.8218 151.739 35.9754 157.34 43.0127C162.94 50.05 160.942 57.4436 154.45 61.2358C145.986 66.1607 132.251 62.3175 132.251 62.3175C132.251 62.3175 138.03 64.5445 136.401 67.7259C135.23 70.0293 127.618 72.7271 122.679 71.5436C116.837 70.2711 116.837 68.8076 116.837 68.8076C117.053 69.4164 117.136 70.0646 117.078 70.708C117.021 71.3515 116.826 71.9751 116.506 72.5362C114.94 75.8449 109.722 75.8958 104.834 75.8958C93.2888 75.8958 87.51 68.8585 87.51 68.8585C87.6649 70.1152 87.4729 71.3903 86.9545 72.5456C86.4362 73.7009 85.6114 74.6922 84.5696 75.4122C80.9674 77.7665 74.3867 74.8778 72.5283 73.8597C70.6699 72.8416 64.6619 64.7099 64.6619 64.7099C64.6619 64.7099 68.2005 70.7292 67.1186 73.8597C67.0087 74.2691 66.8178 74.6524 66.5572 74.9867C66.2965 75.321 65.9714 75.5997 65.6011 75.8061C65.2308 76.0126 64.8228 76.1427 64.4013 76.1887C63.9798 76.2347 63.5534 76.1957 63.1472 76.074C64.6091 78.4362 65.1484 81.2544 64.6619 83.9893C63.8727 88.6851 60.6142 89.4105 60.6142 89.4105C62.0378 91.5066 62.913 93.9261 63.1599 96.4477C64.6619 110.853 55.8664 121.441 43.7105 128.784Z" fill="#75297F"/>
<path d="M51.895 112.775C51.895 112.775 51.7805 107.366 48.0764 105.139C44.3723 102.912 35.9459 100.533 32.6619 98.7002C29.3779 96.8677 24.0955 92.0829 22.4789 93.05C20.8624 94.0172 23.2045 108.69 29.467 120.716C35.7295 132.741 51.1058 139.13 57.7375 140.211C64.3692 141.293 66.5203 136.597 67.3477 132.512C68.175 128.427 71.6245 112.062 51.895 112.775Z" fill="#F1562F"/>
<path d="M52.7351 142.833C52.7351 142.833 59.4813 129.713 60.6778 129.954C61.8743 130.196 58.7558 139.028 59.2395 139.015C59.7232 139.002 65.0056 139.702 64.6492 140.542C64.2928 141.382 61.2761 152.937 60.5633 152.81C59.8505 152.682 60.0796 143.787 59.354 143.673C58.6285 143.558 53.1042 143.673 52.7351 142.833Z" fill="white"/>
<path d="M59.3191 137.802C59.1867 138.487 59.1082 139.218 59.9284 139.438C60.8208 139.677 61.8261 139.668 62.7382 139.862C63.2506 139.97 63.7741 140.201 64.2865 140.28C64.3025 140.282 64.3319 140.295 64.3674 140.312C64.0585 140.906 63.9494 141.829 63.7778 142.436C63.1084 144.818 62.4562 147.21 61.6765 149.558C61.6557 149.622 61.6299 149.685 61.6091 149.75C61.6079 149.73 61.6067 149.711 61.6042 149.691C61.5074 148.282 61.4644 146.869 61.3578 145.46C61.2989 144.689 61.3566 143.384 60.7877 142.769C60.2299 142.169 58.8422 142.397 58.114 142.371C57.338 142.342 56.5595 142.311 55.7859 142.229C55.4598 142.194 55.1264 142.157 54.8064 142.076C56.4345 138.866 58.1152 135.658 60.0313 132.619M60.8613 151.626C60.8515 151.575 60.8711 151.543 60.9017 151.52C60.876 151.576 60.8601 151.616 60.8613 151.626ZM65.7662 139.414C65.1202 138.612 63.6368 138.448 62.7137 138.269C62.1166 138.155 61.5172 138.062 60.9152 137.983C60.903 137.982 60.8846 137.977 60.8711 137.974C60.9091 137.775 60.9446 137.563 60.9741 137.444C61.1273 136.819 61.2953 136.195 61.4571 135.572C61.793 134.275 62.1436 132.971 62.3422 131.642C62.455 130.895 62.6695 129.757 61.9842 129.214C61.348 128.708 60.6786 129.194 60.2263 129.691C58.4499 131.647 57.2191 134.287 55.96 136.596C54.9842 138.389 54.0304 140.195 53.111 142.019C53.0987 142.042 53.1012 142.064 53.0914 142.087C52.9798 142.292 52.9528 142.542 53.111 142.807C53.6688 143.739 55.195 143.74 56.1267 143.821C56.8243 143.882 57.5243 143.911 58.2243 143.936C58.6129 143.949 59.1977 144.06 59.6537 144.032C59.6819 144.162 59.7101 144.288 59.7114 144.3C59.8021 144.884 59.8303 145.484 59.8671 146.073C59.9553 147.445 59.997 148.819 60.1086 150.188C60.1686 150.926 60.127 152.157 60.6958 152.725C61.3419 153.37 62.0088 152.759 62.3275 152.147C63.4566 149.971 63.985 147.335 64.6531 144.987C64.9927 143.793 65.3212 142.596 65.6657 141.404C65.8545 140.752 66.2554 140.02 65.7662 139.414Z" fill="#75297F"/>
<path d="M125.48 88.4179C127.855 84.4751 131.159 81.1725 135.103 78.7972C141.06 75.2468 144.687 74.6232 146.558 74.6996C148.43 74.7759 149.104 75.7304 149.359 76.4557C149.645 77.3757 149.645 78.3608 149.359 79.2808C149.228 79.6365 149.028 79.9626 148.77 80.2401C148.513 80.5176 148.202 80.7409 147.857 80.897C147.017 81.3169 142.014 81.5078 138.056 83.4421C134.097 85.3764 127.44 90.4285 126.014 90.7212C125.289 90.8485 124.741 89.5632 125.48 88.4179Z" fill="#75297F"/>
<path d="M125.658 88.5324C125.658 88.5324 125.581 88.5324 125.556 88.5324V88.6342L125.658 88.5324Z" fill="#75297F"/>
<path d="M125.238 88.9651C125.238 89.0923 125.327 89.2196 125.429 89.1687C125.531 89.1178 125.429 89.0542 125.314 88.9142C125.2 88.7742 125.403 88.7869 125.429 88.8124C125.454 88.8378 125.505 88.6978 125.429 88.6342C125.367 88.6717 125.318 88.7271 125.289 88.793C125.259 88.8589 125.25 88.9322 125.263 89.0033C125.263 89.0033 125.251 88.9778 125.238 88.9651Z" fill="#75297F"/>
<path d="M131.666 87.4635H131.806C131.806 87.4635 131.73 87.438 131.666 87.4635Z" fill="#75297F"/>
<path d="M129.718 88.8633L129.68 88.8886L129.667 88.9391L129.718 88.8633Z" fill="#75297F"/>
<path d="M128.166 89.8686C128.166 89.8686 128.166 89.7668 128.166 89.7286C128.178 89.7614 128.178 89.7977 128.166 89.8304V89.8686Z" fill="#75297F"/>
<path d="M125.454 88.4048L125.467 88.3795L125.429 88.3416L125.454 88.4048Z" fill="#75297F"/>
<path d="M149.308 75.5522C149.308 75.7558 149.041 75.3486 149.142 75.6413C149.155 75.5904 149.41 75.7813 149.308 75.5522Z" fill="#75297F"/>
<path d="M149.142 75.6413L149.154 75.6653L149.142 75.6413Z" fill="#75297F"/>
<path d="M145.285 81.6605L145.247 81.6478L145.209 81.6605H145.285Z" fill="#75297F"/>
<path d="M129.998 83.2512H129.833C129.833 83.2512 129.833 83.4548 129.998 83.2512Z" fill="#75297F"/>
<path d="M144.662 81.0497C144.708 81.061 144.756 81.061 144.802 81.0497H144.662Z" fill="#75297F"/>
<path d="M138.755 77.2828L138.743 77.2702L138.718 77.2953L138.755 77.2828Z" fill="#75297F"/>
<path d="M135.688 84.5747L135.777 84.4729C135.777 84.4729 135.663 84.5238 135.688 84.5747Z" fill="#75297F"/>
<path d="M143.644 81.2279V81.24L143.668 81.2279H143.644Z" fill="#75297F"/>
<path d="M135.943 84.3711C135.883 84.3975 135.828 84.4317 135.777 84.4729C135.84 84.4543 135.898 84.4192 135.943 84.3711Z" fill="#75297F"/>
<path d="M125.416 89.4227V89.385H125.403L125.416 89.4227Z" fill="#75297F"/>
<path d="M125.391 89.2578C125.385 89.2872 125.385 89.3174 125.391 89.3468C125.391 89.3468 125.416 89.2832 125.391 89.2578Z" fill="#75297F"/>
<path d="M125.785 90.4413C125.785 90.4413 125.785 90.3268 125.658 90.2886C125.658 90.2886 125.709 90.4795 125.785 90.4413Z" fill="#75297F"/>
<path d="M127.096 90.3522L126.829 90.4667C126.829 90.4667 126.982 90.4667 126.829 90.5558C127.287 90.5049 126.765 90.5558 127.096 90.3522Z" fill="#75297F"/>
<path d="M133.333 86.4454V86.5212C133.46 86.4454 133.346 86.5338 133.333 86.4454Z" fill="#75297F"/>
<path d="M134.148 85.4274L134.021 85.4401L134.008 85.5419L134.148 85.4274Z" fill="#75297F"/>
<path d="M135.077 85.5291L135.039 85.5673L135.192 85.4401L135.077 85.5291Z" fill="#75297F"/>
<path d="M145.018 81.7878V81.686C144.891 81.7242 144.891 81.8387 145.018 81.7878Z" fill="#75297F"/>
<path d="M149.333 79.8663C149.376 79.8445 149.413 79.8119 149.44 79.7718C149.467 79.7317 149.483 79.6853 149.486 79.6372C149.431 79.7105 149.38 79.787 149.333 79.8663Z" fill="#75297F"/>
<path d="M139.545 76.0358L139.621 75.9722L139.469 76.0612L139.545 76.0358Z" fill="#75297F"/>
<path d="M109.225 89.7795C109.989 90.2886 110.32 92.3247 108.092 92.032C106.145 91.7647 92.6905 88.0234 85.8297 88.4815C81.478 88.7207 77.1871 89.613 73.101 91.1285C72.8209 91.2628 72.5142 91.3325 72.2036 91.3325C71.893 91.3325 71.5863 91.2628 71.3062 91.1285C70.7589 91.0012 69.3715 89.8559 69.3715 88.9015C69.3106 88.504 69.3777 88.0975 69.563 87.7407C69.7483 87.3838 70.0423 87.0951 70.4025 86.9163C71.3571 86.1909 75.0358 82.7677 88.0318 83.3022C101.028 83.8366 108.474 89.2578 109.225 89.7795Z" fill="#75297F"/>
<path d="M109.111 89.9449C109.111 89.9449 109.111 89.8813 109.111 89.8177H108.971L109.111 89.9449Z" fill="#75297F"/>
<path d="M108.512 89.3087C108.36 89.3087 108.169 89.3087 108.194 89.385C108.321 89.3919 108.449 89.3919 108.576 89.385C108.69 89.385 108.741 89.5377 108.703 89.5504C108.665 89.5632 108.856 89.6904 108.945 89.665C108.838 89.4945 108.669 89.3716 108.474 89.3214C108.474 89.3214 108.5 89.3214 108.512 89.3087Z" fill="#75297F"/>
<path d="M89.5593 83.2003H89.6484C89.5848 83.1876 89.5466 83.1876 89.5593 83.2003Z" fill="#75297F"/>
<path d="M97.1583 84.4347L96.9674 84.3456C96.9674 84.3456 97.0692 84.3965 97.1583 84.4347Z" fill="#75297F"/>
<path d="M102.912 86.1527C102.912 86.1527 102.81 86.1527 102.772 86.2418C102.794 86.2323 102.818 86.2275 102.842 86.2275C102.866 86.2275 102.89 86.2323 102.912 86.2418C102.912 86.2418 102.924 86.1909 102.912 86.1527Z" fill="#75297F"/>
<path d="M71.6499 91.6247C71.4208 91.4847 72.0954 91.6247 71.739 91.4593C71.7645 91.472 71.3572 91.4593 71.6499 91.6247Z" fill="#75297F"/>
<path d="M75.9523 84.0148L76.0032 84.0275L76.0668 84.0021L75.9523 84.0148Z" fill="#75297F"/>
<path d="M102.237 90.3522C102.274 90.3793 102.304 90.4141 102.326 90.454C102.301 90.3522 102.632 90.4158 102.237 90.3522Z" fill="#75297F"/>
<path d="M87.1154 88.0361V88.0614L87.1786 88.0361H87.1154Z" fill="#75297F"/>
<path d="M84.5187 83.6075C84.4296 83.6203 84.3532 83.633 84.5187 83.6075Z" fill="#75297F"/>
<path d="M90.2212 83.5822H90.0303C90.1321 83.6331 90.2085 83.6331 90.2212 83.5822Z" fill="#75297F"/>
<path d="M78.2175 84.2564V84.2438L78.1798 84.2564H78.2175Z" fill="#75297F"/>
<path d="M89.7629 83.5948C89.8517 83.6063 89.9415 83.6063 90.0303 83.5948C89.9416 83.5823 89.8516 83.5823 89.7629 83.5948Z" fill="#75297F"/>
<path d="M107.838 89.1942L107.888 89.2321L107.901 89.2194L107.838 89.1942Z" fill="#75297F"/>
<path d="M108.092 89.296H107.965C107.965 89.296 108.054 89.3087 108.092 89.296Z" fill="#75297F"/>
<path d="M106.056 88.1506C106.175 88.2468 106.303 88.332 106.438 88.4052C106.374 88.3924 106.183 88.1506 106.056 88.1506Z" fill="#75297F"/>
<path d="M104.375 86.9036L104.732 87.0944C104.732 87.0944 104.617 86.9544 104.732 87.0181C104.375 86.7127 104.897 87.1326 104.375 86.9036Z" fill="#75297F"/>
<path d="M94.4594 83.7979V83.7221C94.3203 83.7094 94.4847 83.76 94.4594 83.7979Z" fill="#75297F"/>
<path d="M92.665 83.9384L92.8178 84.0148L92.9069 83.9511L92.665 83.9384Z" fill="#75297F"/>
<path d="M91.7104 83.2512L91.7867 83.2385H91.5067L91.7104 83.2512Z" fill="#75297F"/>
<path d="M76.3723 83.8493V83.9893C76.4996 83.8875 76.4996 83.773 76.3723 83.8493Z" fill="#75297F"/>
<path d="M70.2879 86.7253C70.2232 86.7384 70.1617 86.7643 70.107 86.8014C70.0524 86.8386 70.0057 86.8863 69.9697 86.9417C70.097 86.8399 70.237 86.7762 70.2879 86.7253Z" fill="#75297F"/>
<path d="M85.397 88.9142L85.257 88.9523L85.5115 88.9014L85.397 88.9142Z" fill="#75297F"/>
<path d="M111.784 106.17C111.784 103.192 106.208 95.7605 93.8234 95.2515C85.0788 94.8825 79.6054 98.6238 78.078 100.24C77.043 101.418 76.3256 102.84 75.9937 104.372C75.6618 105.904 75.7264 107.495 76.1814 108.995C77.4543 113.78 79.4272 115.358 80.9547 116.389C82.4821 117.42 85.9825 117.89 93.9253 116.542C101.868 115.193 111.784 109.135 111.784 106.17Z" fill="white"/>
<path d="M97.4765 108.397L90.2211 106.259L96.6746 101.169C96.0189 99.5921 94.9439 98.2248 93.5662 97.2153C92.1885 96.2059 90.5606 95.5927 88.8591 95.4424C84.7205 95.911 80.8159 97.6036 77.6451 100.304C76.6154 101.482 75.9013 102.902 75.5696 104.43C75.2379 105.959 75.2995 107.547 75.7485 109.046C77.0214 113.831 79.0071 115.409 80.5345 116.453C81.8074 117.254 84.6077 117.725 89.8392 117.127C91.7603 116.459 93.4746 115.303 94.8136 113.773C96.1526 112.242 97.0703 110.39 97.4765 108.397Z" fill="#75297F"/>
<path d="M126.765 104.885C126.078 102.722 126.638 99.5783 132.595 94.259C138.132 89.3341 145.846 88.5579 149.359 89.6777C150.95 90.1995 153.177 92.6301 154.298 96.0406C155.57 99.8583 156.372 102.9 154.056 106.756C152.783 108.893 146.711 112.355 139.125 112.266C131.539 112.177 128.395 109.937 126.765 104.885Z" fill="white"/>
<path d="M137.572 112.393C139.427 112.015 141.139 111.128 142.518 109.831C143.896 108.534 144.885 106.878 145.375 105.05L138.629 103.078L144.776 98.2421C144 96.4852 142.638 95.0526 140.922 94.189C139.206 93.3255 137.244 93.0848 135.37 93.5081C134.27 93.6882 133.194 93.9912 132.162 94.4116C126.205 99.7182 125.632 102.874 126.333 105.025C127.86 109.822 130.8 112.1 137.572 112.393Z" fill="#75297F"/>
<path d="M157.658 83.0603C157.187 82.4622 153.839 84.8419 150.619 86.5217C150.484 86.5079 150.347 86.5079 150.212 86.5217H149.843C151.115 84.7656 152.63 82.6149 152.248 82.3604C151.523 81.8769 147.157 85.0074 144.904 86.4454C144.293 86.8399 143.555 87.2725 142.804 87.7179C136.841 89.5641 131.658 93.3318 128.064 98.4329C127.605 99.0947 128.535 100.049 129.209 99.5655C132.153 97.1876 135.216 94.962 138.387 92.8973C141.442 91.1539 144.751 89.7031 147.946 89.8049C151.51 89.9195 151.103 91.5229 151.765 91.2811C152.892 90.5188 153.872 89.5571 154.654 88.4433C156.411 86.2799 158.027 83.5185 157.658 83.0603Z" fill="#5B2467"/>
<path d="M111.567 103.078C105.648 95.7224 95.9237 92.8973 86.9754 94.4371C86.3644 94.3353 84.0096 94.0171 83.1568 93.9408C80.611 93.699 78.969 92.4773 78.5108 93.0754C78.3326 93.3299 79.1727 94.717 80.0891 95.6206C79.623 95.6527 79.1551 95.6527 78.689 95.6206C74.5649 95.2133 72.4646 94.8061 72.1973 95.2642C71.93 95.7224 73.7884 96.9949 75.1759 97.8094C74.514 97.9875 73.8266 97.9875 73.1647 97.9875C70.0971 98.1784 67.2968 97.8094 67.1186 98.5347C67.0295 98.8911 69.9443 100.965 72.2101 101.856C73.4829 102.403 75.6723 102.912 76.3469 102.48C76.5378 102.48 85.1043 95.0861 96.3055 97.3894C101.483 98.5392 106.326 100.864 110.46 104.185C110.615 104.261 110.79 104.287 110.96 104.259C111.13 104.23 111.288 104.149 111.41 104.027C111.532 103.905 111.613 103.748 111.641 103.578C111.669 103.408 111.643 103.233 111.567 103.078Z" fill="#5B2467"/>
<path d="M121.33 111.489C122.263 112.022 123.35 112.219 124.41 112.049C125.683 111.884 127.338 110.777 128.611 111.604C132.162 113.856 126.447 117.7 125.098 119.239C124.849 119.502 124.702 119.845 124.684 120.206C124.666 120.567 124.777 120.923 124.999 121.209C125.22 121.495 125.537 121.692 125.891 121.765C126.246 121.838 126.614 121.782 126.931 121.606C130.355 119.736 134.364 115.422 132.404 111.21C132.045 110.407 131.489 109.708 130.788 109.176C130.088 108.645 129.264 108.298 128.395 108.168C126.04 107.85 124.118 109.441 121.839 109.542C121.618 109.554 121.407 109.635 121.235 109.774C121.063 109.913 120.94 110.104 120.883 110.317C120.826 110.531 120.839 110.758 120.92 110.964C121 111.17 121.144 111.345 121.33 111.464V111.489Z" fill="#5B2467"/>
<path d="M105.317 134.548C105.737 134.128 109.531 134.676 112.776 133.047C116.022 131.418 115.946 129.229 118.466 128.364C121.89 127.091 123.061 128.364 125.149 128.173C127.58 127.995 128.076 126.531 131.017 126.646C133.27 126.735 133.562 128.453 135.879 128.453C138.196 128.453 140.576 126.009 140.843 126.468C141.111 126.926 140.092 129.14 134.479 130.794C132.57 131.367 125.811 131.062 124.729 131.52C123.647 131.978 113.54 135.337 112.726 135.579C109.161 136.495 104.605 135.274 105.317 134.548Z" fill="#B062A7"/>
<path d="M110.256 107.85C104.541 113.666 94.1925 117.076 87.8282 116.007C85.6261 115.625 84.6842 115.549 82.3294 115.167C81.0997 114.879 79.8354 114.768 78.5744 114.836C77.9634 115.015 76.6905 115.931 75.354 116.58C72.8083 117.852 70.9753 117.98 70.9753 118.552C70.9753 119.316 77.9507 118.921 80.1146 118.31L80.8019 118.132C79.8091 119.163 77.2761 121.39 77.7088 122.039C77.9125 122.344 81.8839 121.11 84.4169 119.787C84.9674 119.501 85.5027 119.186 86.0207 118.845H86.0971L85.6516 119.379C84.7733 120.499 83.5131 121.848 83.6022 122.154C83.8823 123.083 87.5736 121.263 89.1138 120.321L91.3668 118.934C99.5259 118.412 108.054 114.938 111.122 108.461C111.3 107.965 110.74 107.405 110.256 107.85Z" fill="#5B2467"/>
<path d="M107.456 135.846C107.087 135.846 111.784 141.891 115.755 141.357C119.726 140.822 121.356 139.091 123.609 138.913C125.862 138.735 129.298 139.371 131.73 137.832C134.161 136.292 137.419 129.624 137.063 129.891C136.706 130.158 125.734 131.66 123.52 131.876C121.305 132.092 114.851 136.394 107.456 135.846Z" fill="#B062A7"/>
<path d="M111.211 135.159C111.211 135.159 114.342 141.649 116.391 145.022C118.441 148.394 121.687 152.657 125.531 151.512C129.375 150.366 132.15 144.894 132.519 140.809C132.888 136.724 132.761 130.82 132.035 130.629C131.309 130.438 125.289 132.181 123.01 132.309C120.732 132.436 111.338 134.078 111.211 135.159Z" fill="#E086B7"/>
<path d="M98.393 131.647C101.412 134.376 105.102 136.256 109.085 137.094C112.904 137.692 116.506 135.579 119.917 134.307C122.165 133.356 124.558 132.792 126.994 132.64C129.035 132.689 131.077 132.591 133.104 132.347C136.9 131.525 140.264 129.343 142.562 126.213C143.274 125.31 142.053 124.012 141.289 124.941C139.887 126.568 138.15 127.875 136.198 128.771C134.245 129.667 132.122 130.131 129.973 130.133C126.434 130.222 123.494 129.7 120.083 130.922C117.232 131.927 114.024 133.861 111.084 134.396C106.921 135.159 102.797 131.952 99.1313 130.463C98.4694 130.196 97.8584 131.202 98.4312 131.66L98.393 131.647Z" fill="#5B2467"/>
<path d="M124.741 140.453C124.907 138.086 124.856 134.663 123.367 132.665C122.667 131.711 120.897 132.207 121.305 133.53C122.162 135.768 122.789 138.088 123.176 140.453C123.2 140.644 123.293 140.818 123.437 140.945C123.581 141.072 123.767 141.142 123.959 141.142C124.151 141.142 124.336 141.072 124.48 140.945C124.624 140.818 124.717 140.644 124.741 140.453Z" fill="#5B2467"/>
<path d="M99.6277 127.384C99.1039 128.039 98.5384 128.659 97.9348 129.242C97.3365 129.759 96.5744 130.047 95.7837 130.056C95.6165 130.034 95.4465 130.044 95.2835 130.087C95.1204 130.13 94.9674 130.205 94.8333 130.307C94.6991 130.41 94.5864 130.537 94.5016 130.683C94.4168 130.829 94.3615 130.99 94.3389 131.157C94.3164 131.324 94.327 131.494 94.3701 131.657C94.4132 131.82 94.488 131.973 94.5902 132.107C94.6925 132.241 94.8201 132.354 94.9659 132.439C95.1117 132.524 95.2728 132.579 95.44 132.601C98.1257 133.518 100.341 130.832 101.41 128.784C101.97 127.702 100.519 126.391 99.6277 127.409V127.384Z" fill="#5B2467"/>
<path d="M140.385 123.515C140.494 124.377 140.893 125.176 141.518 125.78C142.206 126.37 143.014 126.804 143.885 127.053C145.387 127.498 146.011 124.991 144.522 124.75C143.909 124.651 143.326 124.416 142.816 124.062C142.292 123.735 141.805 123.351 141.365 122.917C140.932 122.446 140.296 122.917 140.385 123.477V123.515Z" fill="#5B2467"/>
<path d="M158.982 105.318C158.407 105.095 157.821 104.903 157.225 104.745C157.773 104.605 158.333 104.452 158.74 104.363C160.789 103.88 162.953 104.058 162.839 103.46C162.724 102.862 156.321 100.622 155.609 100.914C155.329 101.054 155.609 102.34 154.489 103.892C149.486 110.84 139.443 112.991 130.062 110.255C129.464 110.09 129.222 110.866 129.668 111.197C134.428 114.785 141.302 114.747 147.208 112.469C147.959 112.66 149.359 112.775 150.441 113.004C152.134 113.36 153.878 113.729 154.119 113.424C154.361 113.118 153.394 111.859 152.554 111.197C152.222 110.931 151.868 110.692 151.497 110.484C152.63 110.701 154.043 110.879 154.832 110.955C156.398 111.146 159.287 111.566 159.593 111.197C159.898 110.828 158.078 109.033 156.945 108.257L156.283 107.837H157.302C160.013 107.837 162.902 108.066 163.017 107.646C163.131 107.226 159.885 105.687 158.982 105.318Z" fill="#5B2467"/>
<path d="M58.6539 126.697C56.5664 124.966 58.0684 121.505 55.179 120.207C54.6907 119.995 54.1644 119.886 53.6324 119.886C53.1005 119.886 52.5741 119.995 52.0859 120.207C50.953 120.665 50.3166 122.281 49.4001 122.624C47.7327 123.286 47.1344 121.352 45.9761 120.741C45.1233 120.308 44.4105 120.665 43.5576 120.537C39.179 119.901 36.0222 114.455 35.1058 109.988C36.3445 110.637 37.717 110.99 39.1153 111.019C39.9427 111.019 40.3882 109.746 39.5608 109.377C37.5857 108.403 35.669 107.315 33.8202 106.119C33.6514 106.025 33.4609 105.975 33.2675 105.976C33.074 105.977 32.884 106.028 32.7161 106.124C32.5482 106.22 32.408 106.358 32.3093 106.525C32.2105 106.691 32.1566 106.88 32.1527 107.074C32.6619 111.235 35.093 115.46 37.5242 118.819C38.2508 120.103 39.2608 121.204 40.4773 122.039C42.3611 122.981 43.9777 121.746 45.7979 123.312C46.7016 124.113 46.778 125.386 48.1527 125.857C49.5274 126.328 49.9475 125.666 50.9276 125.017L51.5895 124.317C53.5115 122.93 53.8424 123.044 54.1352 124.979C54.3643 125.5 54.288 126.175 54.4789 126.735C54.629 127.352 54.9458 127.915 55.3948 128.364C55.8438 128.813 56.4076 129.13 57.0246 129.28C58.5521 129.687 59.8249 127.702 58.6539 126.697Z" fill="#5B2467"/>
<path d="M45.1233 119.138C45.7944 119.406 46.5139 119.531 47.2362 119.507C47.7836 119.507 48.7 119.163 49.2092 119.507C49.7183 119.85 49.7056 120.296 49.8202 120.703C49.9947 121.375 50.2159 122.034 50.4821 122.675C51.1567 124.215 53.8679 123.095 53.2187 121.53C52.5696 119.965 52.6332 118.018 51.0167 117.012C50.2737 116.582 49.4146 116.395 48.56 116.478C47.4908 116.554 46.4725 117.089 45.4033 117.076C44.1304 117.076 44.0668 118.769 45.1233 119.201V119.138Z" fill="#5B2467"/>
<path d="M70.3644 48.5993C71.5214 44.0969 73.0324 39.6928 74.8831 35.4283C76.5199 31.6409 78.7074 28.116 81.3747 24.9678C81.1392 23.8182 81.1803 22.6291 81.4945 21.4986C81.8088 20.368 82.3872 19.3282 83.1822 18.465C85.8934 15.7544 90.043 17.3833 91.6595 18.8213C93.2761 20.2593 94.3707 24.0642 93.2888 25.8586C92.6996 26.9236 91.7897 27.776 90.6883 28.2946C89.5869 28.8131 88.3501 28.9715 87.1536 28.7473C87.1536 28.7473 84.0859 31.4578 81.1965 39.2205C79.1217 44.7816 80.1146 50.5845 79.5672 52.2134C79.0199 53.8423 74.8831 53.486 73.2029 53.1169C71.5227 52.7479 70.3644 52.1752 70.3644 48.5993Z" fill="#F1562F"/>
<path d="M62.7144 100.087C63.311 104.793 62.4209 109.567 60.1687 113.742C58.2849 117.152 57.2666 117.152 56.4137 117.152C55.5609 117.152 54.8736 110.497 54.8736 110.497C54.8736 110.497 54.7081 115.587 52.9897 116.134C51.2713 116.682 51.1186 110.331 50.444 108.283C49.7693 106.234 45.4925 102.989 47.5418 98.5475C49.5911 94.1062 62.0271 94.628 62.7144 100.087Z" fill="#75297F"/>
<path d="M59.6722 152.708C59.6607 152.691 59.6545 152.671 59.6545 152.651C59.6545 152.63 59.6607 152.61 59.6722 152.593C59.6681 152.631 59.6681 152.67 59.6722 152.708Z" fill="#75297F"/>
<path d="M4.54417 58.2835L4.74783 57.6599C4.85078 57.3659 5.01867 57.0988 5.23903 56.8785C5.45939 56.6581 5.72656 56.4903 6.0207 56.3874L6.55531 56.2219C6.87353 56.1329 7.02627 55.9292 7.01354 55.7002C7.00082 55.4711 6.87353 55.2675 6.55531 55.1784L6.0207 55.013C5.72656 54.9101 5.45939 54.7422 5.23903 54.5219C5.01867 54.3016 4.85078 54.0345 4.74783 53.7404L4.54417 53.1169C4.44234 52.8115 4.25141 52.6588 4.03502 52.6588C3.81864 52.6588 3.6277 52.8115 3.52587 53.1169L3.32221 53.7404C3.21845 54.0341 3.05028 54.3007 2.83003 54.5209C2.60978 54.7411 2.34303 54.9093 2.04934 55.013L1.50201 55.1784C1.19652 55.2675 1.03105 55.4711 1.04377 55.7002C1.0565 55.9292 1.19652 56.1329 1.50201 56.2219L2.04934 56.3874C2.34303 56.4911 2.60978 56.6592 2.83003 56.8794C3.05028 57.0996 3.21845 57.3663 3.32221 57.6599L3.52587 58.2835C3.6277 58.5889 3.81864 58.7416 4.03502 58.7416C4.25141 58.7416 4.44234 58.538 4.54417 58.2835Z" fill="#75297F"/>
<path d="M96.4327 171.542L96.6491 170.906C96.7545 170.613 96.9232 170.347 97.1432 170.127C97.3633 169.907 97.6292 169.738 97.922 169.633L98.4693 169.48C98.7748 169.379 98.9403 169.175 98.9276 168.946C98.9148 168.717 98.7748 168.526 98.4693 168.424L97.922 168.259C97.6283 168.155 97.3616 167.987 97.1413 167.767C96.9211 167.546 96.7529 167.28 96.6491 166.986L96.4327 166.363C96.4093 166.243 96.3485 166.135 96.2593 166.053C96.1701 165.97 96.057 165.918 95.9363 165.904C95.8148 165.919 95.7007 165.972 95.6097 166.053C95.5186 166.135 95.4549 166.243 95.4272 166.363L95.2235 166.986C95.1189 167.279 94.9505 167.546 94.7304 167.766C94.5102 167.986 94.2439 168.154 93.9506 168.259L93.416 168.424C93.0978 168.526 92.9451 168.717 92.9451 168.946C92.9517 169.075 93.0018 169.198 93.0873 169.295C93.1728 169.392 93.2887 169.458 93.416 169.48L93.9506 169.633C94.2426 169.74 94.5077 169.909 94.7275 170.129C94.9474 170.349 95.1166 170.614 95.2235 170.906L95.4272 171.542C95.4549 171.661 95.5186 171.769 95.6097 171.851C95.7007 171.933 95.8148 171.985 95.9363 172C96.057 171.986 96.1701 171.934 96.2593 171.852C96.3485 171.77 96.4093 171.661 96.4327 171.542Z" fill="#75297F"/>
<path d="M67.4622 5.51021L67.6786 4.87393C67.7902 4.59355 67.9621 4.3411 68.182 4.1344C68.402 3.92771 68.6646 3.77181 68.9514 3.67772L69.4988 3.51228C69.8043 3.41048 69.9697 3.20687 69.957 2.9778C69.9443 2.74874 69.8043 2.55786 69.4988 2.45605L68.9514 2.29062C68.6642 2.19361 68.4015 2.03522 68.1817 1.82644C67.9619 1.61766 67.7902 1.36352 67.6786 1.08168L67.4622 0.458124C67.4363 0.331099 67.368 0.216616 67.2686 0.133398C67.1692 0.0501799 67.0445 0.00315024 66.9148 0C66.7933 0.0150591 66.6792 0.0670682 66.5882 0.148999C66.4971 0.230929 66.4334 0.338832 66.4057 0.458124L66.1893 1.08168C66.0847 1.37486 65.9163 1.64112 65.6961 1.86121C65.476 2.0813 65.2097 2.24971 64.9164 2.35425L64.3818 2.51968C64.0636 2.62149 63.9109 2.81237 63.9236 3.04143C63.9363 3.27049 64.0636 3.4741 64.3818 3.57591L64.9164 3.74134C65.2024 3.83698 65.4643 3.99343 65.684 4.19993C65.9038 4.40643 66.0761 4.65808 66.1893 4.93756L66.393 5.57384C66.4207 5.69313 66.4844 5.80103 66.5755 5.88296C66.6665 5.96489 66.7805 6.0169 66.9021 6.03196C67.0434 6.02938 67.1787 5.97467 67.2821 5.87836C67.3855 5.78205 67.4496 5.65093 67.4622 5.51021Z" fill="#75297F"/>
<path d="M163.462 135.961L163.679 135.325C163.784 135.032 163.953 134.766 164.173 134.546C164.393 134.326 164.659 134.157 164.951 134.052L165.499 133.899C165.804 133.798 165.97 133.594 165.957 133.365C165.944 133.136 165.804 132.932 165.499 132.843L164.951 132.678C164.658 132.574 164.391 132.406 164.171 132.186C163.95 131.965 163.782 131.699 163.679 131.405L163.462 130.782C163.441 130.662 163.38 130.552 163.291 130.469C163.201 130.387 163.087 130.335 162.966 130.323C162.749 130.323 162.558 130.489 162.457 130.782L162.253 131.405C162.148 131.698 161.98 131.965 161.76 132.185C161.54 132.405 161.273 132.573 160.98 132.678L160.445 132.843C160.319 132.863 160.204 132.926 160.118 133.021C160.032 133.116 159.982 133.237 159.974 133.365C159.981 133.494 160.031 133.617 160.117 133.714C160.202 133.811 160.318 133.877 160.445 133.899L160.98 134.052C161.272 134.159 161.537 134.328 161.757 134.548C161.977 134.768 162.146 135.033 162.253 135.325L162.457 135.961C162.484 136.08 162.548 136.188 162.639 136.27C162.73 136.352 162.844 136.404 162.966 136.419C163.086 136.405 163.199 136.353 163.289 136.271C163.378 136.189 163.439 136.08 163.462 135.961Z" fill="#75297F"/>
<path d="M18.3293 139.142C19.2784 139.142 20.0477 138.373 20.0477 137.424C20.0477 136.476 19.2784 135.706 18.3293 135.706C17.3803 135.706 16.611 136.476 16.611 137.424C16.611 138.373 17.3803 139.142 18.3293 139.142Z" fill="#75297F"/>
<path d="M157.722 25.4132C158.671 25.4132 159.44 24.644 159.44 23.6952C159.44 22.7464 158.671 21.9772 157.722 21.9772C156.773 21.9772 156.003 22.7464 156.003 23.6952C156.003 24.644 156.773 25.4132 157.722 25.4132Z" fill="#75297F"/>
<path d="M163.195 149.221C164.144 149.221 164.913 148.452 164.913 147.503C164.913 146.554 164.144 145.785 163.195 145.785C162.246 145.785 161.477 146.554 161.477 147.503C161.477 148.452 162.246 149.221 163.195 149.221Z" fill="#75297F"/>
<path d="M174.905 82.8822C175.51 82.8822 176 82.3922 176 81.7878C176 81.1834 175.51 80.6934 174.905 80.6934C174.301 80.6934 173.811 81.1834 173.811 81.7878C173.811 82.3922 174.301 82.8822 174.905 82.8822Z" fill="#75297F"/>
<path d="M1.09467 98.293C1.69924 98.293 2.18934 97.803 2.18934 97.1986C2.18934 96.5942 1.69924 96.1042 1.09467 96.1042C0.4901 96.1042 0 96.5942 0 97.1986C0 97.803 0.4901 98.293 1.09467 98.293Z" fill="#75297F"/>
<path d="M43.9904 153.37C44.595 153.37 45.0851 152.88 45.0851 152.275C45.0851 151.671 44.595 151.181 43.9904 151.181C43.3859 151.181 42.8958 151.671 42.8958 152.275C42.8958 152.88 43.3859 153.37 43.9904 153.37Z" fill="#75297F"/>
<path d="M78.2562 159.249C78.8607 159.249 79.3508 158.759 79.3508 158.154C79.3508 157.55 78.8607 157.06 78.2562 157.06C77.6516 157.06 77.1615 157.55 77.1615 158.154C77.1615 158.759 77.6516 159.249 78.2562 159.249Z" fill="#75297F"/>
<path d="M162.444 34.8429C163.048 34.8429 163.539 34.3529 163.539 33.7485C163.539 33.144 163.048 32.6541 162.444 32.6541C161.839 32.6541 161.349 33.144 161.349 33.7485C161.349 34.3529 161.839 34.8429 162.444 34.8429Z" fill="#75297F"/>
<path d="M147.195 152.173C147.799 152.173 148.29 151.683 148.29 151.079C148.29 150.475 147.799 149.985 147.195 149.985C146.59 149.985 146.1 150.475 146.1 151.079C146.1 151.683 146.59 152.173 147.195 152.173Z" fill="#75297F"/>
<path d="M13.5816 49.8464C14.4392 49.8464 15.1345 49.1513 15.1345 48.2939C15.1345 47.4364 14.4392 46.7413 13.5816 46.7413C12.7239 46.7413 12.0287 47.4364 12.0287 48.2939C12.0287 49.1513 12.7239 49.8464 13.5816 49.8464Z" fill="#75297F"/>
</g>
<defs>
<clipPath id="clip0_3212_1563">
<rect width="176" height="172" fill="white"/>
</clipPath>
</defs>
</svg>
