<svg width="139" height="136" viewBox="0 0 139 136" fill="none" xmlns="http://www.w3.org/2000/svg">
<g clip-path="url(#clip0_3212_2331)">
<path d="M120.56 75.22C119.45 72.8296 118.501 70.3674 117.72 67.85C117.15 65.77 119.04 61.61 116.59 56.85C114.14 52.09 106.59 27.73 89.7402 23.38C72.8902 19.03 47.5302 24.49 35.4802 36.84C22.8402 49.84 24.6802 66.84 28.4802 78.84C27.5045 78.4652 26.5497 78.0379 25.6202 77.56C23.0502 76.15 18.8902 72.36 17.6202 73.12C16.3502 73.88 18.1902 85.41 23.1102 94.86C28.0302 104.31 40.1102 109.33 45.3202 110.18C50.5302 111.03 52.2202 107.34 52.8702 104.13C52.9402 103.77 53.0402 103.28 53.1402 102.71C55.6102 106.46 58.4102 110.46 62.2302 112.27C69.4102 115.67 79.3302 117.27 82.9202 119.36C86.5102 121.45 91.4702 124.18 98.4602 123.05C105.45 121.92 108.63 115.76 111.28 111.79C113.93 107.82 120.93 102.47 122.52 96.19C124.277 89.181 123.585 81.7822 120.56 75.22Z" fill="#F3F0E4"/>
<path d="M121.76 74.89C121.11 73.34 120.43 71.79 119.83 70.22C119.359 69.2259 119.023 68.1732 118.83 67.09C118.841 65.7226 118.931 64.357 119.1 63C119.174 61.2573 118.916 59.5164 118.34 57.87C117.83 56.47 117.09 55.12 116.51 53.74C115.8 52.06 115.1 50.38 114.36 48.74C110.36 39.86 105.19 30.55 96.7702 25.2C92.1402 22.26 86.6902 21.26 81.3002 20.87C75.0856 20.468 68.8452 20.912 62.7502 22.19C50.8802 24.6 38.7502 29.88 31.3002 39.83C23.6602 50.09 23.1202 63.37 26.1902 75.39C26.5202 76.67 26.8902 77.94 27.2902 79.2L28.8202 77.66C25.9502 76.51 23.7102 74.66 21.1302 73.05C19.7602 72.17 17.0602 70.8 16.2702 73.05C15.7002 74.69 16.1502 76.79 16.4102 78.43C16.9178 81.5174 17.6907 84.5554 18.7202 87.51C19.7652 90.867 21.2088 94.0866 23.0202 97.1C24.6504 99.6127 26.6766 101.845 29.0202 103.71C33.1466 107.029 37.9021 109.478 43.0002 110.91C45.5902 111.62 48.5402 112.02 50.8702 110.36C53.2002 108.7 53.9902 105.76 54.4602 103.04L52.1802 103.34C54.4402 106.77 56.8802 110.34 60.4102 112.62C63.9402 114.9 68.1202 115.91 72.0002 117C75.2602 117.95 78.8502 118.61 81.9002 120.15C84.9502 121.69 87.7002 123.37 91.0702 124.07C95.0968 125.031 99.3309 124.586 103.07 122.81C106.01 121.108 108.48 118.703 110.26 115.81C111.09 114.59 111.84 113.31 112.7 112.1C113.688 110.794 114.756 109.552 115.9 108.38C118.48 105.59 121.19 102.71 122.83 99.24C124.83 94.94 125.2 89.63 124.62 84.95C124.149 81.4794 123.2 78.0907 121.8 74.88C121.19 73.42 118.8 74.06 119.39 75.55C122.11 82.02 123.27 88.95 121.44 95.85C119.68 102.46 113.32 106.5 109.74 112.04C108.235 114.673 106.344 117.066 104.13 119.14C102.664 120.288 100.984 121.133 99.1883 121.624C97.3923 122.115 95.5163 122.243 93.6702 122C90.3159 121.576 87.0944 120.426 84.2302 118.63C81.6572 117.308 78.9342 116.301 76.1202 115.63C71.8645 114.562 67.6906 113.192 63.6302 111.53C59.4002 109.64 56.7802 105.85 54.3002 102.1C53.7602 101.29 52.2102 101.26 52.0102 102.4C51.6702 104.4 51.3002 106.69 49.7202 108.08C48.1402 109.47 45.9202 109.08 44.0402 108.63C39.789 107.484 35.7809 105.576 32.2102 103C30.0758 101.504 28.1578 99.7201 26.5102 97.7C24.7395 95.3519 23.3212 92.7579 22.3002 90C20.4502 85.4 18.7002 80.17 18.5802 75.15C18.5802 74.85 18.5802 74.36 18.5802 74.15C18.5802 74.3 18.5802 73.93 18.5802 73.96C18.5802 73.81 18.5802 73.82 18.5802 73.96C18.7002 73.77 18.5802 73.85 18.3002 74.2C18.0202 74.55 17.9602 74.03 18.2402 74.31C18.2402 74.31 18.7502 74.52 18.7702 74.54C19.3795 74.8523 19.9645 75.21 20.5202 75.61C21.7002 76.41 22.8402 77.28 24.0402 78.06C25.3466 78.8565 26.7262 79.5262 28.1602 80.06C29.0502 80.42 29.9702 79.37 29.7002 78.53C26.2802 67.62 25.3202 55.3 31.0002 45C36.8802 34.27 48.3102 28.41 59.7702 25.46C65.5938 23.9402 71.5916 23.1905 77.6102 23.23C82.8302 23.23 88.6102 23.76 93.3102 26.11C101.94 30.37 107.31 39.42 111.25 47.82C112.63 50.76 113.79 53.82 115.14 56.75C115.616 57.6762 116.008 58.6434 116.31 59.64C116.668 61.2104 116.753 62.8309 116.56 64.43C116.375 65.5842 116.345 66.7578 116.47 67.92C116.727 69.0435 117.085 70.1414 117.54 71.2C118.12 72.68 118.75 74.14 119.37 75.6C119.99 77.06 122.39 76.38 121.76 74.89Z" fill="#75297F"/>
<path d="M97.6802 27.84C97.6802 27.84 98.5302 22.31 100.23 19.33C101.343 17.4273 102.782 15.7349 104.48 14.33C104.438 13.4285 104.693 12.538 105.206 11.7955C105.719 11.0529 106.462 10.4994 107.32 10.22C110.01 9.22003 112.14 11.22 112.99 13.48C113.84 15.74 113.28 18.16 110.99 18.72C109.957 18.955 108.879 18.9066 107.87 18.58C106.532 19.2141 105.436 20.2673 104.75 21.58C103.47 23.85 103.61 31.08 103.19 32.07C102.77 33.06 98.2502 31.53 97.6802 27.84Z" fill="#F3F0E4"/>
<path d="M98.2802 28C98.9202 23.87 100.08 19.83 102.95 16.69C103.64 15.92 104.95 15.18 105.1 14.13C105.139 13.1671 105.556 12.2583 106.259 11.5997C106.963 10.9411 107.897 10.5856 108.86 10.61C111.42 10.74 113.32 14.15 112.61 16.48C112.14 18 110.61 18.4 109.15 18.25C108.54 18.18 108.04 17.88 107.47 18.12C103.73 19.66 103.31 23.99 103.03 27.45C102.95 28.52 102.9 29.61 102.8 30.68C102.786 31.0159 102.745 31.3502 102.68 31.68C102.63 31.87 102.83 31.8 102.55 31.75C101.502 31.5949 100.529 31.1181 99.7636 30.3853C98.9986 29.6526 98.4803 28.7002 98.2802 27.66C98.1402 26.87 96.9302 27.21 97.0802 28C97.299 29.0677 97.7881 30.0614 98.5007 30.886C99.2133 31.7107 100.126 32.3387 101.15 32.71C102.45 33.2 103.73 33.13 103.95 31.58C104.27 29.38 104.24 27.13 104.54 24.93C104.615 23.8964 104.862 22.8825 105.27 21.93C105.913 20.8216 106.824 19.8929 107.92 19.23C108.14 19.07 108.22 19.23 107.92 19.15C107.62 19.07 108 19.26 108.14 19.29C108.873 19.4662 109.631 19.5136 110.38 19.43C110.987 19.3874 111.575 19.2022 112.096 18.8894C112.617 18.5766 113.057 18.1451 113.38 17.63C114.66 15.43 113.59 12.35 111.88 10.7C111.258 10.0945 110.482 9.67106 109.637 9.47557C108.791 9.28007 107.908 9.32003 107.083 9.5911C106.259 9.86218 105.524 10.354 104.96 11.0132C104.395 11.6723 104.022 12.4736 103.88 13.33C103.809 13.5869 103.782 13.854 103.8 14.12V14.3C103.71 14.3 104.23 13.82 103.8 13.99C103.396 14.2654 103.039 14.6029 102.74 14.99C102.17 15.5485 101.632 16.1395 101.13 16.76C100.092 18.0461 99.2622 19.4869 98.6702 21.03C97.8825 23.1691 97.3195 25.3844 96.9902 27.64C97.0002 28.46 98.1602 28.8 98.2802 28Z" fill="#75297F"/>
<path d="M123.63 33.8C119.23 28.27 112.57 33.65 112.57 33.65C112.57 33.65 119.57 27.7 113.42 24.01C107.27 20.32 98.42 27.14 98.42 27.14C98.42 27.14 100.13 16.35 96.42 14.37C92.71 12.39 88.62 15.08 88.62 15.08C88.62 15.08 92.86 4.87 86.9 3.59C80.94 2.31 77.12 7.7 77.12 7.7C77.12 7.7 74.57 -0.800004 67.05 4.3C62.4323 7.57793 58.987 12.2499 57.22 17.63C57.22 17.63 56.27 11.2 49.66 12.9C43.05 14.6 38.66 27.27 38.66 27.27C38.66 27.27 38.66 18.95 34.31 18.39C29.96 17.83 26.56 20.28 21.08 29.92C17.7964 35.8817 16.6163 42.7756 17.73 49.49C17.0752 48.7565 16.209 48.2442 15.2507 48.0239C14.2924 47.8036 13.2894 47.8861 12.38 48.26C9.17001 49.58 5.84001 53.66 5.38001 61.73C4.66001 73 13 77.19 13 77.19C13 77.19 11.06 76.6 10.16 77.19C8.65001 78.19 6.16001 82.91 15.03 94.06C19.8 100.06 25.4 102.14 29.03 102.14C29.49 102.14 24.03 97.72 21.46 90.61C19.08 84 17.73 74.12 18.31 73.25C18.62 72.79 23.72 77.25 29.31 80.25C32.23 81.84 36.07 81.65 38.87 83.98C46.15 90.05 50.26 81.46 49.66 75.78C49.466 73.7985 48.7784 71.8972 47.66 70.25C47.66 70.25 50.22 69.68 50.84 65.99C51.2273 63.8344 50.8034 61.6118 49.65 59.75C49.9672 59.8394 50.2989 59.8649 50.626 59.8251C50.9531 59.7854 51.269 59.6811 51.5555 59.5183C51.842 59.3555 52.0933 59.1375 52.295 58.8769C52.4966 58.6162 52.6444 58.3182 52.73 58C53.58 55.54 50.8 50.81 50.8 50.81C50.8 50.81 55.56 57.19 57 58C58.44 58.81 63.63 61.07 66.46 59.22C67.2785 58.6542 67.9264 57.8752 68.3336 56.9673C68.7409 56.0595 68.8918 55.0575 68.77 54.07C68.77 54.07 73.31 59.6 82.38 59.6C86.22 59.6 90.32 59.6 91.55 56.96C91.9958 56.1374 92.1171 55.1776 91.89 54.27C92.06 54.61 97.22 58.09 103.3 55.62C112.12 52.05 103.6 48.11 104.08 48.32C106.99 49.6 112.72 50.32 113.51 50.07C113.86 49.95 117.65 58.22 117.71 63.46C117.71 67.46 116.23 72.05 116.71 72.55C117.53 73.48 119.44 67.4 119.16 65.42C118.88 63.44 122.16 56.91 121.85 50.81C121.816 49.8835 121.713 48.9609 121.54 48.05C126.48 45.05 128 39.28 123.63 33.8Z" fill="#75297F"/>
<path d="M41.4302 113.3C41.4302 113.3 46.7302 102.99 47.6702 103.18C48.6102 103.37 46.1602 110.3 46.5402 110.3C46.9202 110.3 51.0702 110.84 50.7902 111.5C50.5102 112.16 48.1402 121.24 47.5802 121.14C47.0202 121.04 47.2002 114.05 46.6302 113.96C46.0602 113.87 41.7202 114 41.4302 113.3Z" fill="#F3F0E4"/>
<path d="M42.0002 113.61C43.4202 110.85 44.8902 108.07 46.5702 105.46C46.9202 104.9 47.3202 104.4 47.7202 103.88C47.7802 103.8 47.8302 103.8 47.8402 103.77C47.8402 103.89 47.2702 103.59 47.2802 103.58C47.2902 103.57 47.2802 104.29 47.2802 104.41C47.0202 106.18 46.3702 107.86 46.0302 109.61C45.9202 110.16 45.8502 110.74 46.5202 110.92C47.1902 111.1 48.0702 111.1 48.8102 111.26C49.2302 111.34 49.6602 111.53 50.0802 111.59C50.1765 111.631 50.2701 111.677 50.3602 111.73L50.2602 111.34C50.2602 111.34 50.2602 111.47 50.2602 111.48C50.0025 112.061 49.821 112.673 49.7202 113.3C49.1802 115.2 48.6402 117.12 48.0102 119C47.8902 119.36 47.7602 119.73 47.6202 120.09C47.5602 120.22 47.3402 120.62 47.3402 120.65C47.2902 120.37 48.1502 120.65 48.1502 120.65C48.1375 120.507 48.1073 120.366 48.0602 120.23C48.0002 119.85 47.9802 119.45 47.9502 119.06C47.8702 117.94 47.8402 116.8 47.7502 115.68C47.7502 115.06 47.7502 114.01 47.2802 113.52C46.8102 113.03 45.7002 113.22 45.1002 113.2C44.5002 113.18 43.8302 113.2 43.2002 113.09C42.9316 113.065 42.6645 113.025 42.4002 112.97C42.2202 112.97 42.0202 112.79 42.1002 112.97C41.6802 112.29 40.6002 112.91 41.0202 113.6C41.4402 114.29 42.7202 114.35 43.4802 114.42C44.0469 114.46 44.6169 114.49 45.1902 114.51C45.6553 114.565 46.1252 114.565 46.5902 114.51C46.9302 114.42 46.2302 114.35 46.3102 114.29C46.335 114.445 46.3684 114.599 46.4102 114.75C46.4802 115.22 46.5002 115.75 46.5302 116.17C46.6002 117.27 46.6402 118.37 46.7302 119.46C46.7302 120.05 46.7302 121.04 47.2102 121.46C47.6902 121.88 48.2802 121.46 48.5402 121C49.3596 119.157 49.996 117.238 50.4402 115.27C50.7102 114.27 50.9802 113.35 51.2602 112.4C51.4202 111.88 51.7402 111.29 51.3502 110.81C50.8202 110.16 49.6102 110.03 48.8502 109.89C48.3702 109.8 47.8502 109.72 47.3902 109.66C47.207 109.615 47.0187 109.595 46.8302 109.6C46.4402 109.68 47.0802 110.27 47.2602 110.03C47.2602 109.95 47.3902 109.43 47.4402 109.23C47.5602 108.73 47.7002 108.23 47.8302 107.73C48.1245 106.697 48.3648 105.648 48.5502 104.59C48.6402 103.99 48.8202 103.08 48.2602 102.59C47.7002 102.1 47.1902 102.59 46.8302 102.97C45.4571 104.67 44.2891 106.526 43.3502 108.5C42.5502 109.94 41.7702 111.38 41.0202 112.84C40.5202 113.7 41.6002 114.33 42.0002 113.61Z" fill="#75297F"/>
<path d="M98.5798 69.48C100.446 66.3817 103.042 63.7865 106.14 61.92C110.82 59.13 113.67 58.64 115.14 58.7C116.61 58.76 117.14 59.51 117.34 60.08C117.564 60.8029 117.564 61.577 117.34 62.3C117.237 62.5794 117.08 62.8357 116.878 63.0537C116.675 63.2718 116.431 63.4473 116.16 63.57C115.5 63.9 111.57 64.05 108.46 65.57C105.35 67.09 100.12 71.06 98.9998 71.29C98.4298 71.39 97.9998 70.38 98.5798 69.48Z" fill="#75297F"/>
<path d="M85.8101 70.55C86.4101 70.95 86.6701 72.55 84.9201 72.32C83.3901 72.11 72.8201 69.17 67.4301 69.53C64.0113 69.718 60.6403 70.4192 57.4301 71.61C57.21 71.7156 56.9691 71.7704 56.7251 71.7704C56.481 71.7704 56.2401 71.7156 56.0201 71.61C55.5901 71.51 54.5001 70.61 54.5001 69.86C54.4523 69.5477 54.5049 69.2283 54.6505 68.9479C54.7961 68.6674 55.0271 68.4406 55.3101 68.3C56.0601 67.73 58.9501 65.04 69.1601 65.46C79.3701 65.88 85.2201 70.14 85.8101 70.55Z" fill="#75297F"/>
<path d="M87.82 83.43C87.82 81.09 83.44 75.25 73.71 74.85C66.84 74.56 62.16 77.54 60.95 78.85C60.1411 79.7757 59.5801 80.8915 59.3195 82.0929C59.0589 83.2944 59.1073 84.5423 59.46 85.72C60.46 89.48 62.02 90.72 63.22 91.54C64.42 92.36 67.55 92.67 73.79 91.61C80.03 90.55 87.82 85.76 87.82 83.43Z" fill="#F3F0E4"/>
<path d="M76.5798 85.18L70.8798 83.5L75.9498 79.5C75.4347 78.2609 74.5902 77.1864 73.5078 76.3932C72.4254 75.5999 71.1466 75.1181 69.8098 75C66.5585 75.3682 63.4909 76.6983 60.9998 78.82C60.1909 79.7457 59.6299 80.8615 59.3693 82.0629C59.1087 83.2644 59.1571 84.5123 59.5098 85.69C60.5098 89.45 62.0698 90.69 63.2698 91.51C64.2698 92.14 66.4698 92.51 70.5798 92.04C72.0891 91.5153 73.4359 90.6069 74.4878 89.4042C75.5398 88.2014 76.2607 86.7457 76.5798 85.18Z" fill="#75297F"/>
<path d="M99.0598 82C98.5198 80.31 98.9598 77.83 103.65 73.66C105.218 72.1791 107.085 71.0506 109.126 70.3504C111.166 69.6502 113.332 69.3943 115.48 69.6C118.48 69.95 119.7 72.6 120.56 75.24C121.56 78.24 122.99 81.83 117.92 86.38C116.46 87.69 114.73 87.88 108.78 87.81C102.83 87.74 100.34 86 99.0598 82Z" fill="#F3F0E4"/>
<path d="M108.08 88.32C109.537 88.023 110.882 87.3257 111.965 86.3065C113.048 85.2873 113.825 83.9864 114.21 82.55L108.91 81L113.74 77.2C113.13 75.8194 112.06 74.6936 110.712 74.0151C109.364 73.3365 107.822 73.1474 106.35 73.48C105.486 73.6215 104.641 73.8596 103.83 74.19C99.1498 78.36 98.6998 80.84 99.2498 82.53C100.45 86.3 102.76 88.09 108.08 88.32Z" fill="#75297F"/>
<path d="M123.86 65.27C123.49 64.8 120.86 66.67 118.33 67.99C118.224 67.9792 118.117 67.9792 118.01 67.99H117.72C118.72 66.61 119.91 64.92 119.61 64.72C119.04 64.34 115.61 66.8 113.84 67.93C113.36 68.24 112.78 68.58 112.19 68.93C107.506 70.3808 103.434 73.3415 100.61 77.35C100.25 77.87 100.98 78.62 101.51 78.24C103.823 76.3715 106.229 74.6225 108.72 73C111.12 71.63 113.72 70.49 116.23 70.57C119.03 70.66 118.71 71.92 119.23 71.73C120.116 71.131 120.886 70.3753 121.5 69.5C122.88 67.8 124.15 65.63 123.86 65.27Z" fill="#75297F"/>
<path d="M87.6501 81C83.0001 75.22 75.3601 73 68.3301 74.21C67.8501 74.13 66.0001 73.88 65.3301 73.82C63.3301 73.63 62.0401 72.67 61.6801 73.14C61.5401 73.34 62.2001 74.43 62.9201 75.14C62.5538 75.1652 62.1863 75.1652 61.8201 75.14C58.5801 74.82 56.9301 74.5 56.7201 74.86C56.5101 75.22 57.9701 76.22 59.0601 76.86C58.5401 77 58.0001 77 57.4801 77C55.0701 77.15 52.8701 76.86 52.7301 77.43C52.6601 77.71 54.9501 79.34 56.7301 80.04C57.7301 80.47 59.4501 80.87 59.9801 80.53C60.1301 80.53 66.8601 74.72 75.6601 76.53C79.7273 77.4335 83.5321 79.2607 86.7801 81.87C86.9018 81.9298 87.0392 81.95 87.173 81.9278C87.3069 81.9056 87.4304 81.8421 87.5263 81.7462C87.6222 81.6503 87.6857 81.5268 87.7079 81.393C87.7301 81.2591 87.7099 81.1217 87.6501 81Z" fill="#75297F"/>
<path d="M95.32 87.61C96.0529 88.0283 96.9067 88.1836 97.74 88.05C98.74 87.92 100.04 87.05 101.04 87.7C103.83 89.47 99.34 92.49 98.28 93.7C98.0843 93.9061 97.9689 94.1755 97.9547 94.4594C97.9404 94.7433 98.0282 95.0229 98.2022 95.2476C98.3762 95.4723 98.6249 95.6274 98.9033 95.6847C99.1817 95.742 99.4714 95.6977 99.72 95.56C102.41 94.09 105.56 90.7 104.02 87.39C103.737 86.7594 103.301 86.21 102.75 85.7924C102.2 85.3748 101.553 85.1023 100.87 85C99.02 84.75 97.51 86 95.72 86.08C95.5464 86.0888 95.3801 86.1525 95.245 86.2619C95.11 86.3714 95.0133 86.5209 94.9687 86.689C94.9242 86.857 94.9343 87.0348 94.9974 87.1968C95.0605 87.3587 95.1735 87.4964 95.32 87.59V87.61Z" fill="#75297F"/>
<path d="M82.7401 105.73C83.0701 105.4 86.0501 105.83 88.6001 104.55C91.1501 103.27 91.0901 101.55 93.0701 100.87C95.7601 99.87 96.6801 100.87 98.3201 100.72C100.23 100.58 100.62 99.43 102.93 99.52C104.7 99.59 104.93 100.94 106.75 100.94C108.57 100.94 110.44 99.02 110.65 99.38C110.86 99.74 110.06 101.48 105.65 102.78C104.15 103.23 98.8401 102.99 97.9901 103.35C97.1401 103.71 89.2001 106.35 88.5601 106.54C85.7601 107.26 82.1801 106.3 82.7401 105.73Z" fill="#75297F"/>
<path d="M86.6198 84.75C82.1298 89.32 73.9998 92 68.9998 91.16C67.2698 90.86 66.5298 90.8 64.6798 90.5C63.7137 90.2739 62.7205 90.1863 61.7298 90.24C61.2498 90.38 60.2498 91.1 59.1998 91.61C57.1998 92.61 55.7598 92.71 55.7598 93.16C55.7598 93.76 61.2398 93.45 62.9398 92.97L63.4798 92.83C62.6998 93.64 60.7098 95.39 61.0498 95.9C61.2098 96.14 64.3298 95.17 66.3198 94.13C66.7522 93.9052 67.1728 93.6582 67.5798 93.39H67.6398L67.2898 93.81C66.5998 94.69 65.6098 95.75 65.6798 95.99C65.8998 96.72 68.7998 95.29 70.0098 94.55L71.7798 93.46C78.1898 93.05 84.8898 90.32 87.2998 85.23C87.4398 84.84 86.9998 84.4 86.6198 84.75Z" fill="#75297F"/>
<path d="M84.4199 106.75C84.1299 106.75 87.8199 111.5 90.9399 111.08C94.0599 110.66 95.3399 109.3 97.1099 109.16C98.8799 109.02 101.58 109.52 103.49 108.31C105.4 107.1 107.96 101.86 107.68 102.07C107.4 102.28 98.7799 103.46 97.0399 103.63C95.2999 103.8 90.2299 107.18 84.4199 106.75Z" fill="#75297F"/>
<path d="M87.3701 106.21C87.3701 106.21 89.8301 111.31 91.4401 113.96C93.0501 116.61 95.6001 119.96 98.6201 119.06C101.64 118.16 103.82 113.86 104.11 110.65C104.4 107.44 104.3 102.8 103.73 102.65C103.16 102.5 98.4301 103.87 96.6401 103.97C94.8501 104.07 87.4701 105.36 87.3701 106.21Z" fill="#F3F0E4"/>
<path d="M86.8298 106.52C88.3319 110.015 90.1953 113.343 92.3898 116.45C93.6898 118.14 95.5598 119.94 97.8598 119.82C100.16 119.7 101.78 117.93 102.86 116.16C104.027 114.199 104.69 111.98 104.79 109.7C105.054 107.469 104.986 105.211 104.59 103C104.21 101.46 102.67 102.07 101.51 102.33C99.8002 102.777 98.0631 103.111 96.3098 103.33C94.4025 103.533 92.5113 103.867 90.6498 104.33C89.775 104.514 88.9132 104.754 88.0698 105.05C87.5898 105.24 86.8998 105.49 86.7598 106.05C86.5798 106.83 87.7598 107.17 87.9698 106.38C87.9698 106.6 87.8798 106.48 88.1098 106.38C88.3446 106.274 88.5849 106.18 88.8298 106.1C89.5398 105.87 90.2598 105.69 90.9798 105.52C92.4998 105.17 94.0498 104.88 95.5998 104.68C96.9098 104.51 98.1998 104.37 99.4998 104.08L102.11 103.49C102.443 103.41 102.776 103.34 103.11 103.28C103.206 103.29 103.303 103.29 103.4 103.28C103.4 103.28 103.49 103.28 103.52 103.28C103.75 103.15 103.26 103.13 103.3 103.1C103.34 103.07 103.57 104.75 103.58 104.91C103.65 105.98 103.65 107.05 103.58 108.13C103.634 110.262 103.239 112.381 102.42 114.35C101.63 116.04 100.33 118 98.4198 118.52C96.2398 119.11 94.4198 117.16 93.1998 115.59C91.1175 112.555 89.3326 109.327 87.8698 105.95C87.5598 105.17 86.4898 105.8 86.8298 106.52Z" fill="#75297F"/>
<path d="M77.3002 103.45C79.6721 105.595 82.5708 107.072 85.7002 107.73C88.7002 108.2 91.5302 106.54 94.2102 105.54C95.9763 104.793 97.8562 104.35 99.7702 104.23C101.374 104.269 102.978 104.192 104.57 104C107.552 103.354 110.195 101.64 112 99.18C112.56 98.47 111.6 97.45 111 98.18C109.899 99.4592 108.534 100.486 107 101.19C105.466 101.894 103.798 102.259 102.11 102.26C99.3302 102.33 97.0202 101.92 94.3402 102.88C92.1002 103.67 89.5802 105.19 87.2702 105.61C84.0002 106.21 80.7602 103.69 77.8802 102.52C77.3602 102.31 76.8802 103.1 77.3302 103.46L77.3002 103.45Z" fill="#75297F"/>
<path d="M98.0002 110.37C98.1302 108.51 98.0902 105.82 96.9202 104.25C96.3702 103.5 94.9802 103.89 95.3002 104.93C95.9739 106.689 96.4664 108.511 96.7702 110.37C96.7893 110.52 96.8623 110.657 96.9755 110.757C97.0887 110.856 97.2344 110.911 97.3852 110.911C97.536 110.911 97.6817 110.856 97.7949 110.757C97.9081 110.657 97.9811 110.52 98.0002 110.37Z" fill="#75297F"/>
<path d="M78.27 100.1C77.8585 100.615 77.4142 101.102 76.94 101.56C76.47 101.966 75.8713 102.193 75.25 102.2C75.1187 102.182 74.9852 102.191 74.8571 102.224C74.729 102.258 74.6088 102.317 74.5034 102.397C74.398 102.478 74.3094 102.578 74.2428 102.693C74.1762 102.807 74.1328 102.934 74.115 103.065C74.0973 103.196 74.1056 103.33 74.1395 103.458C74.1734 103.586 74.2321 103.706 74.3125 103.812C74.3928 103.917 74.4931 104.006 74.6076 104.072C74.7222 104.139 74.8487 104.182 74.98 104.2C77.09 104.92 78.83 102.81 79.67 101.2C80.11 100.35 78.97 99.32 78.27 100.12V100.1Z" fill="#75297F"/>
<path d="M110.29 97.06C110.375 97.7373 110.689 98.3652 111.18 98.84C111.721 99.3035 112.355 99.6447 113.04 99.84C114.22 100.19 114.71 98.22 113.54 98.03C113.058 97.9522 112.601 97.7677 112.2 97.49C111.788 97.2326 111.406 96.9308 111.06 96.59C110.72 96.22 110.22 96.59 110.29 97.03V97.06Z" fill="#75297F"/>
<path d="M124.9 82.76C124.449 82.5848 123.988 82.4345 123.52 82.31C123.95 82.2 124.39 82.08 124.71 82.01C126.32 81.63 128.02 81.77 127.93 81.3C127.84 80.83 122.81 79.07 122.25 79.3C122.03 79.41 122.25 80.42 121.37 81.64C117.44 87.1 109.55 88.79 102.18 86.64C101.71 86.51 101.52 87.12 101.87 87.38C105.61 90.2 111.01 90.17 115.65 88.38C116.24 88.53 117.34 88.62 118.19 88.8C119.52 89.08 120.89 89.37 121.08 89.13C121.27 88.89 120.51 87.9 119.85 87.38C119.589 87.1707 119.312 86.9834 119.02 86.82C119.91 86.99 121.02 87.13 121.64 87.19C122.87 87.34 125.14 87.67 125.38 87.38C125.62 87.09 124.19 85.68 123.3 85.07L122.78 84.74H123.58C125.71 84.74 127.98 84.92 128.07 84.59C128.16 84.26 125.61 83.05 124.9 82.76Z" fill="#75297F"/>
<path d="M46.0798 99.56C44.4398 98.2 45.6198 95.48 43.3498 94.46C42.9662 94.2941 42.5527 94.2085 42.1348 94.2085C41.7168 94.2085 41.3033 94.2941 40.9198 94.46C40.0298 94.82 39.5298 96.09 38.8098 96.36C37.4998 96.88 37.0298 95.36 36.1198 94.88C35.4498 94.54 34.8898 94.82 34.2198 94.72C30.7798 94.22 28.2998 89.94 27.5798 86.43C28.5529 86.9401 29.6312 87.2174 30.7298 87.24C31.3798 87.24 31.7298 86.24 31.0798 85.95C29.5281 85.1848 28.0222 84.33 26.5698 83.39C26.4372 83.3157 26.2875 83.277 26.1355 83.2777C25.9835 83.2784 25.8343 83.3185 25.7024 83.394C25.5704 83.4695 25.4603 83.578 25.3828 83.7087C25.3052 83.8394 25.2628 83.988 25.2598 84.14C25.6598 87.41 27.5698 90.73 29.4798 93.37C30.0506 94.3788 30.8441 95.2441 31.7998 95.9C33.2798 96.64 34.5498 95.67 35.9798 96.9C36.6898 97.53 36.7498 98.53 37.8298 98.9C38.9098 99.27 39.2398 98.75 40.0098 98.24L40.5298 97.69C42.0398 96.6 42.2998 96.69 42.5298 98.21C42.7098 98.62 42.6498 99.15 42.7998 99.59C42.9177 100.075 43.1666 100.518 43.5194 100.87C43.8721 101.223 44.3151 101.472 44.7998 101.59C45.9998 101.91 46.9998 100.35 46.0798 99.56Z" fill="#75297F"/>
<path d="M35.4501 93.62C35.9774 93.8306 36.5427 93.9294 37.1101 93.91C37.5401 93.91 38.2601 93.64 38.6601 93.91C39.0601 94.18 39.0501 94.53 39.1401 94.85C39.2772 95.3781 39.451 95.8961 39.6601 96.4C40.1901 97.61 42.3201 96.73 41.8101 95.5C41.3001 94.27 41.3501 92.74 40.0801 91.95C39.4964 91.6119 38.8215 91.4651 38.1501 91.53C37.3101 91.59 36.5101 92.01 35.6701 92C34.6701 92 34.6201 93.33 35.4501 93.67V93.62Z" fill="#75297F"/>
<path d="M55.2798 38.19C56.1888 34.6519 57.3758 31.1912 58.8298 27.84C60.1157 24.8638 61.8343 22.0939 63.9298 19.62C63.7448 18.7167 63.777 17.7823 64.0239 16.8939C64.2708 16.0054 64.7252 15.1884 65.3498 14.51C67.4798 12.38 70.7398 13.66 72.0098 14.79C73.2798 15.92 74.1398 18.91 73.2898 20.32C72.8269 21.157 72.112 21.8268 71.2468 22.2343C70.3815 22.6418 69.4098 22.7662 68.4698 22.59C68.4698 22.59 66.0598 24.72 63.7898 30.82C62.1598 35.19 62.9398 39.75 62.5098 41.03C62.0798 42.31 58.8298 42.03 57.5098 41.74C56.1898 41.45 55.2798 41 55.2798 38.19Z" fill="#F3F0E4"/>
<path d="M49.2699 78.65C49.7386 82.3477 49.0393 86.0994 47.2699 89.38C45.7899 92.06 44.9899 92.06 44.3199 92.06C43.6499 92.06 43.1099 86.83 43.1099 86.83C43.1099 86.83 42.9799 90.83 41.6299 91.26C40.2799 91.69 40.1599 86.7 39.6299 85.09C39.0999 83.48 35.7399 80.93 37.3499 77.44C38.9599 73.95 48.7299 74.36 49.2699 78.65Z" fill="#75297F"/>
<path d="M3.56987 45.8L3.72987 45.31C3.81075 45.0789 3.94265 44.869 4.11577 44.6959C4.28889 44.5228 4.49879 44.3909 4.72987 44.31L5.14987 44.18C5.39987 44.11 5.51987 43.95 5.50987 43.77C5.49987 43.59 5.39987 43.43 5.14987 43.36L4.72987 43.23C4.49879 43.1491 4.28889 43.0172 4.11577 42.8441C3.94265 42.671 3.81075 42.4611 3.72987 42.23L3.56987 41.74C3.48987 41.5 3.33987 41.38 3.16987 41.38C2.99987 41.38 2.84987 41.5 2.76987 41.74L2.60987 42.23C2.52835 42.4607 2.39624 42.6703 2.2232 42.8433C2.05017 43.0164 1.8406 43.1485 1.60987 43.23L1.17987 43.36C0.939873 43.43 0.809873 43.59 0.819873 43.77C0.829873 43.95 0.939873 44.11 1.17987 44.18L1.60987 44.31C1.8406 44.3915 2.05017 44.5236 2.2232 44.6967C2.39624 44.8697 2.52835 45.0793 2.60987 45.31L2.76987 45.8C2.84987 46.04 2.99987 46.16 3.16987 46.16C3.33987 46.16 3.48987 46 3.56987 45.8Z" fill="#75297F"/>
<path d="M75.76 134.8L75.93 134.3C76.0128 134.07 76.1453 133.861 76.3182 133.688C76.4911 133.515 76.7 133.383 76.93 133.3L77.36 133.18C77.6 133.1 77.73 132.94 77.72 132.76C77.71 132.58 77.6 132.43 77.36 132.35L76.93 132.22C76.6993 132.138 76.4897 132.006 76.3167 131.833C76.1437 131.66 76.0115 131.451 75.93 131.22L75.76 130.73C75.7416 130.636 75.6938 130.551 75.6237 130.486C75.5536 130.422 75.4648 130.381 75.37 130.37C75.2745 130.382 75.1849 130.423 75.1134 130.487C75.0419 130.551 74.9918 130.636 74.97 130.73L74.81 131.22C74.7279 131.45 74.5955 131.66 74.4226 131.833C74.2496 132.006 74.0404 132.138 73.81 132.22L73.39 132.35C73.14 132.43 73.02 132.58 73.02 132.76C73.0252 132.861 73.0646 132.958 73.1318 133.035C73.199 133.111 73.29 133.162 73.39 133.18L73.81 133.3C74.0394 133.384 74.2477 133.517 74.4204 133.69C74.5931 133.862 74.726 134.071 74.81 134.3L74.97 134.8C74.9918 134.894 75.0419 134.979 75.1134 135.043C75.1849 135.107 75.2745 135.148 75.37 135.16C75.4648 135.149 75.5536 135.108 75.6237 135.044C75.6938 134.979 75.7416 134.894 75.76 134.8Z" fill="#75297F"/>
<path d="M52.9998 4.33L53.1698 3.83C53.2575 3.60967 53.3926 3.41129 53.5654 3.24887C53.7381 3.08645 53.9445 2.96394 54.1698 2.89L54.5998 2.76C54.8398 2.68 54.9698 2.52 54.9598 2.34C54.9498 2.16 54.8398 2.01 54.5998 1.93L54.1698 1.8C53.9441 1.72377 53.7378 1.5993 53.5651 1.43524C53.3924 1.27118 53.2575 1.07147 53.1698 0.85L52.9998 0.36C52.9795 0.260182 52.9259 0.17022 52.8477 0.104826C52.7696 0.0394321 52.6717 0.0024755 52.5698 0C52.4743 0.0118337 52.3847 0.0527031 52.3132 0.117085C52.2417 0.181468 52.1916 0.266259 52.1698 0.36L51.9998 0.85C51.9177 1.08038 51.7853 1.28962 51.6124 1.46257C51.4394 1.63552 51.2302 1.76785 50.9998 1.85L50.5798 1.98C50.3298 2.06 50.2098 2.21 50.2198 2.39C50.2298 2.57 50.3298 2.73 50.5798 2.81L50.9998 2.94C51.2245 3.01515 51.4302 3.13809 51.6029 3.30036C51.7755 3.46264 51.9109 3.66038 51.9998 3.88L52.1598 4.38C52.1816 4.47374 52.2317 4.55853 52.3032 4.62291C52.3747 4.6873 52.4643 4.72817 52.5598 4.74C52.6708 4.73797 52.7771 4.69498 52.8584 4.6193C52.9396 4.54362 52.99 4.44058 52.9998 4.33Z" fill="#75297F"/>
<path d="M128.42 106.84L128.59 106.34C128.673 106.11 128.805 105.901 128.978 105.728C129.151 105.555 129.36 105.423 129.59 105.34L130.02 105.22C130.26 105.14 130.39 104.98 130.38 104.8C130.37 104.62 130.26 104.46 130.02 104.39L129.59 104.26C129.359 104.179 129.15 104.046 128.977 103.873C128.804 103.7 128.672 103.491 128.59 103.26L128.42 102.77C128.403 102.676 128.356 102.59 128.286 102.525C128.215 102.46 128.126 102.419 128.03 102.41C127.86 102.41 127.71 102.54 127.63 102.77L127.47 103.26C127.388 103.49 127.256 103.7 127.083 103.873C126.91 104.046 126.701 104.178 126.47 104.26L126.05 104.39C125.951 104.406 125.86 104.455 125.793 104.53C125.726 104.604 125.686 104.7 125.68 104.8C125.685 104.902 125.725 104.998 125.792 105.075C125.859 105.151 125.95 105.202 126.05 105.22L126.47 105.34C126.7 105.424 126.908 105.557 127.081 105.73C127.253 105.902 127.386 106.111 127.47 106.34L127.63 106.84C127.652 106.934 127.702 107.019 127.774 107.083C127.845 107.147 127.935 107.188 128.03 107.2C128.125 107.189 128.214 107.148 128.284 107.084C128.354 107.019 128.402 106.934 128.42 106.84Z" fill="#75297F"/>
<path d="M14.3998 109.34C15.1454 109.34 15.7498 108.736 15.7498 107.99C15.7498 107.244 15.1454 106.64 14.3998 106.64C13.6542 106.64 13.0498 107.244 13.0498 107.99C13.0498 108.736 13.6542 109.34 14.3998 109.34Z" fill="#75297F"/>
<path d="M123.91 19.97C124.656 19.97 125.26 19.3656 125.26 18.62C125.26 17.8744 124.656 17.27 123.91 17.27C123.164 17.27 122.56 17.8744 122.56 18.62C122.56 19.3656 123.164 19.97 123.91 19.97Z" fill="#5B2467"/>
<path d="M128.21 117.26C128.955 117.26 129.56 116.656 129.56 115.91C129.56 115.164 128.955 114.56 128.21 114.56C127.464 114.56 126.86 115.164 126.86 115.91C126.86 116.656 127.464 117.26 128.21 117.26Z" fill="#75297F"/>
<path d="M137.41 65.13C137.885 65.13 138.27 64.7449 138.27 64.27C138.27 63.795 137.885 63.41 137.41 63.41C136.935 63.41 136.55 63.795 136.55 64.27C136.55 64.7449 136.935 65.13 137.41 65.13Z" fill="#75297F"/>
<path d="M0.86 77.24C1.33496 77.24 1.72 76.855 1.72 76.38C1.72 75.9051 1.33496 75.52 0.86 75.52C0.385035 75.52 0 75.9051 0 76.38C0 76.855 0.385035 77.24 0.86 77.24Z" fill="#75297F"/>
<path d="M34.5602 120.52C35.0352 120.52 35.4202 120.135 35.4202 119.66C35.4202 119.185 35.0352 118.8 34.5602 118.8C34.0852 118.8 33.7002 119.185 33.7002 119.66C33.7002 120.135 34.0852 120.52 34.5602 120.52Z" fill="#75297F"/>
<path d="M61.4801 125.14C61.9551 125.14 62.3401 124.755 62.3401 124.28C62.3401 123.805 61.9551 123.42 61.4801 123.42C61.0052 123.42 60.6201 123.805 60.6201 124.28C60.6201 124.755 61.0052 125.14 61.4801 125.14Z" fill="#75297F"/>
<path d="M127.62 27.38C128.095 27.38 128.48 26.9949 128.48 26.52C128.48 26.045 128.095 25.66 127.62 25.66C127.145 25.66 126.76 26.045 126.76 26.52C126.76 26.9949 127.145 27.38 127.62 27.38Z" fill="#75297F"/>
<path d="M115.64 119.58C116.115 119.58 116.5 119.195 116.5 118.72C116.5 118.245 116.115 117.86 115.64 117.86C115.165 117.86 114.78 118.245 114.78 118.72C114.78 119.195 115.165 119.58 115.64 119.58Z" fill="#75297F"/>
<path d="M10.6702 39.17C11.344 39.17 11.8902 38.6238 11.8902 37.95C11.8902 37.2762 11.344 36.73 10.6702 36.73C9.99641 36.73 9.4502 37.2762 9.4502 37.95C9.4502 38.6238 9.99641 39.17 10.6702 39.17Z" fill="#75297F"/>
</g>
<defs>
<clipPath id="clip0_3212_2331">
<rect width="138.27" height="135.16" fill="white"/>
</clipPath>
</defs>
</svg>
