<svg width="32" height="32" viewBox="0 0 32 32" fill="none" xmlns="http://www.w3.org/2000/svg">
<path d="M29 1C29.5523 1 30 1.44771 30 2V10C30 10.5523 29.5523 11 29 11H21C20.4477 11 20 10.5523 20 10C20 9.44771 20.4477 9 21 9H26.9541C24.6427 5.39068 20.6006 3 16 3C8.8203 3 3 8.8203 3 16C3 23.1797 8.8203 29 16 29C21.7164 29 26.5739 25.3097 28.3145 20.1787C28.4919 19.6559 29.0592 19.3756 29.582 19.5527C30.105 19.7302 30.3854 20.2983 30.208 20.8213C28.2005 26.7391 22.5992 31 16 31C7.71573 31 1 24.2843 1 16C1 7.71573 7.71573 1 16 1C20.9086 1 25.2643 3.35879 28 7.00098V2C28 1.44771 28.4477 1 29 1Z" fill="#191919"/>
</svg>
